<svg width="70" height="56" viewBox="0 0 70 56" fill="none" xmlns="http://www.w3.org/2000/svg">
    <path d="M11.6731 10.7969H17.4233V10.4042H11.6731V10.7969Z" fill="#657372" />
    <path
        d="M15.1926 7.72316H13.8984V7.26601C13.8984 7.11946 14.0179 7 14.1644 7H14.9266C15.0732 7 15.1926 7.11946 15.1926 7.26601V7.72316Z"
        fill="#819291" />
    <path d="M15.0214 7.64062H14.072V44.651H15.0214V7.64062Z" fill="#819291" />
    <path
        d="M15.1926 7.72316H13.8984V7.26601C13.8984 7.11946 14.0179 7 14.1644 7H14.9266C15.0732 7 15.1926 7.11946 15.1926 7.26601V7.72316Z"
        fill="#819291" />
    <path opacity="0.54"
        d="M14.072 7.96238V7.64062H14.6542H15.0214V7.96238V44.6502H14.6542V8.32237C14.6542 8.12326 14.5427 7.96238 14.4041 7.96238H14.072Z"
        fill="#819291" />
    <path
        d="M15.1926 7.72316H13.8984V7.26601C13.8984 7.11946 14.0179 7 14.1644 7H14.9266C15.0732 7 15.1926 7.11946 15.1926 7.26601V7.72316Z"
        fill="#819291" />
    <path opacity="0.42"
        d="M14.5157 7.72316H14.1016V7.15052C14.1016 7.06769 14.1693 7 14.2521 7H14.3652C14.448 7 14.5157 7.06769 14.5157 7.15052V7.72316Z"
        fill="#819291" />
    <path opacity="0.54"
        d="M14.4846 7H14.9266C15.0732 7 15.1926 7.11946 15.1926 7.26601V7.72316H14.7506V7.26601C14.7506 7.11946 14.6312 7 14.4846 7Z"
        fill="#819291" />
    <path
        d="M3.81953 10.1824L5.8369 12.1997C5.89982 12.2626 5.98584 12.2985 6.07504 12.2985H13.3425C13.5281 12.2985 13.6794 12.148 13.6794 11.9616V9.17168C13.6794 9.00203 13.5536 8.85868 13.3847 8.83797L5.87195 7.88543C5.77 7.87269 5.66806 7.90693 5.59479 7.97782L3.82272 9.7029C3.68812 9.83431 3.68733 10.0501 3.81953 10.1824Z"
        fill="#B68516" />
    <path
        d="M12.8375 11.9199H6.28368C6.16023 11.9199 6.04395 11.8721 5.95635 11.7845L4.44949 10.2777C4.36109 10.1893 4.3133 10.0722 4.3141 9.94715C4.31489 9.82211 4.36427 9.70583 4.45427 9.61822L5.68476 8.42039C5.78671 8.32163 5.92528 8.27464 6.06625 8.29295L12.8965 9.15868C13.1274 9.18815 13.3011 9.38566 13.3011 9.61822V11.458C13.3003 11.712 13.0932 11.9199 12.8375 11.9199ZM6.01608 11.7248C6.08776 11.7965 6.18253 11.8355 6.28368 11.8355H12.8375C13.0462 11.8355 13.2166 11.6659 13.2166 11.4564V9.61663C13.2166 9.42628 13.0741 9.26461 12.8853 9.24071L6.0551 8.37499C5.94042 8.36065 5.82653 8.39888 5.7429 8.47932L4.51241 9.67716C4.43914 9.74804 4.39852 9.84361 4.39772 9.94635C4.39693 10.0483 4.43675 10.1447 4.50843 10.2163L6.01608 11.7248Z"
        fill="#F8FAFF" />
    <path
        d="M25.1736 10.1824L23.1562 12.1997C23.0933 12.2626 23.0073 12.2985 22.9181 12.2985H15.6506C15.465 12.2985 15.3137 12.148 15.3137 11.9616V9.17168C15.3137 9.00203 15.4396 8.85868 15.6084 8.83797L23.1212 7.88543C23.2231 7.87269 23.3251 7.90693 23.3983 7.97782L25.1704 9.7029C25.3042 9.83431 25.3058 10.0501 25.1736 10.1824Z"
        fill="#B68516" />
    <path
        d="M22.7093 11.9207H16.1555C15.8998 11.9207 15.6927 11.7128 15.6927 11.458V9.61822C15.6927 9.38566 15.8664 9.18815 16.0973 9.15868L22.9276 8.29295C23.0677 8.27464 23.2071 8.32163 23.3091 8.42039L24.5395 9.61822C24.6288 9.70503 24.6789 9.82211 24.6797 9.94635C24.6805 10.0714 24.6327 10.1885 24.5443 10.2769L23.0375 11.7837C22.9491 11.8729 22.8328 11.9207 22.7093 11.9207ZM22.9865 8.37339C22.9706 8.37339 22.9546 8.37419 22.9379 8.37658L16.1077 9.24231C15.9189 9.2662 15.7764 9.42788 15.7764 9.61822V11.458C15.7764 11.6667 15.946 11.8371 16.1555 11.8371H22.7093C22.8105 11.8371 22.9053 11.7973 22.9769 11.7264L24.4838 10.2195C24.5563 10.1471 24.5953 10.0515 24.5945 9.94875C24.5937 9.8468 24.5531 9.75123 24.4798 9.68035L23.2493 8.48251C23.1784 8.41162 23.0845 8.37339 22.9865 8.37339Z"
        fill="#F8FAFF" />
    <path
        d="M10.7191 20.5938C10.7191 20.5938 9.89722 25.272 9.89722 29.2844C9.89722 33.2969 11.1333 37.6144 13.2032 39.6843C15.274 41.755 18.2104 45.1733 18.2104 45.1733C18.2104 45.1733 17.0229 34.8698 15.3536 29.7982C13.6843 24.7265 10.7191 20.5938 10.7191 20.5938Z"
        fill="url(#paint0_linear_5640_13703)" />
    <path
        d="M5.27393 24.4375C5.27393 24.4375 6.0608 34.506 7.45855 37.8495C10.0509 44.0481 18.2096 45.1735 18.2096 45.1735C18.2096 45.1735 14.464 30.8838 5.27393 24.4375Z"
        fill="url(#paint1_linear_5640_13703)" />
    <path
        d="M15.6435 36.5659C17.762 44.0126 18.1474 44.719 18.1474 44.719C18.1474 44.719 22.32 35.0893 21.1006 28.7983C19.8805 22.5072 18.6611 18.3984 18.6611 18.3984C18.6611 18.3984 13.5249 29.1192 15.6435 36.5659Z"
        fill="url(#paint2_linear_5640_13703)" />
    <path
        d="M29.143 26.5547C29.143 26.5547 30.407 33.1492 27.3757 39.2801C24.3445 45.4111 18.1689 45.1562 18.1689 45.1562C18.1689 45.1562 18.3529 40.9511 21.2519 37.1385C24.151 33.3252 28.3832 29.0348 29.143 26.5547Z"
        fill="url(#paint3_linear_5640_13703)" />
    <path
        d="M18.2908 45.1714C18.2908 45.1714 15.6148 41.5588 10.7741 40.2391C5.93333 38.9194 1.40002 39.5788 1.40002 39.5788C1.40002 39.5788 8.06539 46.378 18.2908 45.1714Z"
        fill="url(#paint4_linear_5640_13703)" />
    <path
        d="M18.1689 45.1552C18.1689 45.1552 23.6158 42.8551 26.4678 40.3646C29.3198 37.8741 29.9188 34.4766 29.9188 34.4766C29.9188 34.4766 23.3083 35.9595 21.0919 37.8949C18.8754 39.831 18.1689 45.1552 18.1689 45.1552Z"
        fill="url(#paint5_linear_5640_13703)" />
    <path
        d="M27.1654 25.0547C27.1654 25.0547 26.819 36.1721 25.0087 38.0159C23.1984 39.8596 18.2908 45.1726 18.2908 45.1726C18.2908 45.1726 20.7008 29.3284 27.1654 25.0547Z"
        fill="url(#paint6_linear_5640_13703)" />
    <path
        d="M23.4286 20.5938C23.4286 20.5938 25.8777 32.064 18.2916 45.1733C18.2908 45.1733 13.9256 31.2931 23.4286 20.5938Z"
        fill="url(#paint7_linear_5640_13703)" />
    <path
        d="M28.5656 39.125C28.5656 39.125 20.1712 40.5634 18.2908 45.1723C18.2908 45.1731 27.0675 44.9031 28.5656 39.125Z"
        fill="url(#paint8_linear_5640_13703)" />
    <path
        d="M39.5125 29.1562C39.5125 29.1562 39.9721 31.7717 39.9721 34.0153C39.9721 36.2589 39.2808 38.6721 38.1236 39.8301C36.9663 40.9873 35.3241 42.8987 35.3241 42.8987C35.3241 42.8987 35.9883 37.1381 36.9209 34.302C37.8544 31.4667 39.5125 29.1562 39.5125 29.1562Z"
        fill="#44645E" />
    <path
        d="M42.9229 35.7031C42.9229 35.7031 42.461 39.1971 41.6391 40.3575C40.1163 42.5087 35.3234 42.8989 35.3234 42.8989C35.3234 42.8989 37.5247 37.9395 42.9229 35.7031Z"
        fill="#5B857D" />
    <path
        d="M36.7594 38.0796C35.5751 42.2434 35.3592 42.6384 35.3592 42.6384C35.3592 42.6384 33.0265 37.2545 33.7082 33.7366C34.39 30.2188 35.0725 27.9219 35.0725 27.9219C35.0725 27.9219 37.9437 33.9166 36.7594 38.0796Z"
        fill="#79B2A6" />
    <path
        d="M26.3651 35.0312C26.3651 35.0312 28.1627 37.8363 31.1867 40.1762C34.2108 42.5169 35.3242 42.8952 35.3242 42.8952C35.3242 42.8952 36.131 38.8087 33.7409 37.6013C31.3508 36.394 27.3535 36.0929 26.3651 35.0312Z"
        fill="#79B2A6" />
    <path
        d="M35.2787 42.8912C35.2787 42.8912 36.7744 40.8714 39.4815 40.1331C42.1878 39.3948 44.722 39.7644 44.722 39.7644C44.722 39.7644 40.9955 43.5657 35.2787 42.8912Z"
        fill="#5B857D" />
    <path
        d="M29.1119 31.4531C29.1119 31.4531 29.3548 37.6948 30.622 38.7302C31.8891 39.7655 35.3241 42.8979 35.3241 42.8979C35.3241 42.8979 33.6381 33.8528 29.1119 31.4531Z"
        fill="#79B2A6" />
    <path
        d="M32.406 29.1562C32.406 29.1562 31.037 35.5691 35.278 42.8987C35.2788 42.8987 37.7191 35.1383 32.406 29.1562Z"
        fill="#79B2A6" />
    <path
        d="M24.5054 38.1953C24.5054 38.1953 33.3068 39.3135 35.2787 42.8967C35.2787 42.8967 26.0759 42.6864 24.5054 38.1953Z"
        fill="#79B2A6" />
    <path
        d="M43.6452 40.1641C41.3149 40.7725 37.1607 42.1368 35.2787 42.8887C37.2045 42.3981 41.369 41.0585 43.6452 40.1641Z"
        fill="#BCE4DC" />
    <path
        d="M41.6208 36.9297C40.5185 38.3505 37.821 41.9154 35.6061 42.8647C38.0511 42.003 40.7136 38.4493 41.6208 36.9297Z"
        fill="#8DABA5" />
    <path
        d="M38.416 46.6313C55.0004 46.6313 68.4448 45.7135 68.4448 44.5813C68.4448 43.4491 55.0004 42.5312 38.416 42.5312C21.8316 42.5312 8.38721 43.4491 8.38721 44.5813C8.38721 45.7135 21.8316 46.6313 38.416 46.6313Z"
        fill="#919AA5" />
    <path
        d="M39.1478 43.5449C39.1765 42.8958 38.4669 42.8599 37.8042 42.6114L37.8552 42.582L37.723 42.5167L37.6728 42.5549C37.6402 42.539 37.6115 42.5214 37.5868 42.5039L37.6601 42.4609L37.5804 42.3741L37.5088 42.4187C37.4697 42.3406 37.1862 41.3897 37.1766 41.3571C37.1615 41.3658 37.1002 41.3531 37.0158 41.3642C37.6808 39.3476 39.4624 34.6415 39.4624 34.002C39.4624 32.5477 35.9246 33.6714 33.6293 34.2736C32.1089 34.6726 31.5028 34.4743 31.5028 34.4743L29.1119 36.2097L35.8386 36.3905C35.8131 36.7975 35.9485 40.3026 35.4579 42.1296C35.3966 42.0332 35.305 41.9448 35.1728 41.9337L34.9801 42.1583L35.356 42.343C35.2294 42.5238 35.1505 43.2645 35.1983 43.7233H35.1975C35.2047 43.7957 35.2278 43.951 35.2779 44.0355C35.2779 44.0363 35.2779 44.0386 35.2779 44.0386C35.2779 44.0386 35.2795 44.0386 35.2803 44.0386C35.4078 44.2433 36.2846 44.0601 36.3053 44.0601L37.3073 44.3524C37.3288 44.3477 39.0634 43.9582 39.0419 43.963L39.1343 43.9423C39.1351 43.9431 39.2012 43.7822 39.1478 43.5449Z"
        fill="#032647" />
    <path
        d="M64.6696 16.1875C63.9473 19.7189 64.8512 20.2764 64.8584 20.3298C64.8783 20.3385 65.5107 21.1373 66.5787 20.5615L66.3636 20.1975C66.2075 20.2923 65.9901 20.3584 65.7966 20.3632C65.3673 20.3664 65.1563 20.0996 65.1268 20.0821C65.1101 20.0598 64.9348 19.8838 64.8751 19.6878C64.5406 18.889 64.7405 17.0843 64.8831 16.2329L64.6696 16.1875Z"
        fill="#1B2A29" />
    <path
        d="M52.0883 20.8171C52.0883 20.8171 51.049 20.9246 50.6747 20.344C50.3003 19.7634 49.8981 19.73 49.754 19.7347C49.6098 19.7403 49.3366 19.7499 49.3366 19.7499L49.2777 20.3361C49.2777 20.3361 49.6911 20.5113 49.7588 20.7024L50.071 21.4256L51.9864 21.5817L52.0883 20.8171Z"
        fill="#E55555" />
    <path
        d="M29.7683 26.6835L30.3258 25.6641C30.3258 25.6641 31.2178 26.6198 32.1409 28.403C33.0648 30.187 33.1603 31.658 33.7338 31.658C34.3072 31.658 37.4348 32.9268 37.4348 32.9268C37.4348 32.9268 36.2489 33.2867 36.4098 33.8339C36.5699 34.381 33.1834 33.2867 32.1966 33.2867C31.2083 33.2867 29.7683 26.6835 29.7683 26.6835Z"
        fill="#A13210" />
    <path
        d="M28.1172 35.5078C28.1172 35.5078 24.718 35.5078 23.7599 35.5078C23.744 35.5078 20.8075 36.7104 20.6801 37.1564C20.5527 37.6024 19.3477 38.6505 19.4966 40.0093C19.6455 41.368 19.507 43.0461 22.9523 43.4913C26.3977 43.9373 34.5723 43.8314 35.1251 43.7039C35.677 43.5765 36.3778 41.5169 36.2289 40.1901C36.08 38.8632 35.677 38.9906 35.2095 38.2045C34.742 37.4193 34.3605 36.6754 33.893 36.4205C33.4255 36.1657 28.1172 35.5078 28.1172 35.5078Z"
        fill="#4F5411" />
    <path
        d="M24.4441 37.9712C24.4441 37.9712 21.5833 41.219 22.3782 43.4005C22.3782 43.4005 21.0322 43.774 19.9745 42.3643C18.9169 40.9546 17.8417 36.8554 23.7592 35.5078L24.4441 37.9712Z"
        fill="#172509" />
    <path
        d="M35.3727 38.449C35.3193 38.3774 35.2652 38.2977 35.2094 38.2045C34.7419 37.4193 34.3604 36.6754 33.8929 36.4205C33.4254 36.1657 28.1172 35.5078 28.1172 35.5078C28.1172 35.5078 25.0007 35.5078 23.7599 35.5078C23.7232 35.5962 23.7009 35.695 23.7009 35.8049C23.7009 36.442 24.0195 37.9704 24.444 37.9704C24.8685 37.9704 29.6041 38.289 30.8991 38.289C31.7696 38.289 33.9168 38.3463 35.3727 38.449Z"
        fill="#3B3F0D" />
    <path
        d="M39.1439 37.3634L30.9111 35.0234C30.9111 35.0234 29.8511 35.4965 29.4569 35.8597C29.0618 36.2221 27.3885 38.0969 27.9444 38.3374C28.5003 38.5787 36.9019 38.9626 36.9019 38.9626C36.9019 38.9626 40.3704 42.6158 42.1337 43.742C43.8978 44.8682 44.6751 45.0601 44.6751 45.0601L45.2733 44.3457L39.1439 37.3634Z"
        fill="#7C79B2" />
    <path
        d="M44.5373 43.5072C42.723 41.282 40.8052 39.1141 39.1988 37.2735C38.9375 37.2026 35.9015 36.3377 33.196 35.6719C35.2429 36.3329 37.1567 36.8872 39.0873 37.4503C40.2732 38.8273 42.9062 41.7797 44.5373 43.5072Z"
        fill="#C1BDFF" />
    <path
        d="M30.3258 25.663C30.3258 25.663 32.101 31.8178 32.101 32.6063C32.101 33.3948 34.0172 34.008 34.0172 34.008C34.0172 34.008 29.0268 38.0117 27.9444 38.3303C27.9444 38.3303 25.8156 35.9489 26.663 32.7337C27.5693 29.2971 26.0895 27.1276 26.3603 26.2683C26.6311 25.4081 28.8763 24.2135 30.3258 25.663Z"
        fill="#D87306" />
    <path
        d="M30.3257 25.6641C30.7462 26.8754 32.1376 31.4239 32.1917 32.6647C32.2539 33.2406 33.4788 33.7901 34.0172 34.0083C33.4987 33.8665 32.7811 33.5798 32.3765 33.2262C31.9432 32.8376 32.1113 32.828 31.7999 31.5115C31.6087 30.7087 30.6164 26.9591 30.3257 25.6641Z"
        fill="#E8AB6A" />
    <path
        d="M31.1708 33.2776C30.9534 31.5955 30.043 27.0463 29.6695 25.2049C29.5915 25.1683 29.5134 25.1357 29.4346 25.1094C29.7882 26.8504 30.7391 31.586 30.9613 33.3047C31.084 34.2517 31.757 34.8418 32.4945 35.209C32.5606 35.158 32.6251 35.1078 32.688 35.0592C31.9617 34.7192 31.2855 34.1664 31.1708 33.2776Z"
        fill="#694D0D" />
    <path
        d="M54.9619 27.9297L53.1301 38.3104L54.9619 45.722L55.1283 46.5057C55.1283 46.5057 53.7545 46.2119 53.7545 45.6233C53.7545 45.0347 50.7567 38.5629 50.7567 38.3948C50.7567 38.2268 51.7204 28.4936 51.7204 28.4936L54.9619 27.9297Z"
        fill="#0F1D5B" />
    <path
        d="M55.368 46.6658C55.3648 46.2445 55.2047 45.5779 55.0582 45.4266L55.4134 45.2211L55.1968 45.0363C55.0104 45.069 54.9228 45.237 54.8838 45.3581C54.1988 45.1486 53.9472 44.9209 53.7632 44.9583C53.4653 44.6087 53.1611 44.7241 53.1308 44.7122C53.126 44.7353 52.9461 45.6369 52.9158 45.7109L52.8385 45.6775L52.7684 45.7643L52.8465 45.7953C52.8242 45.8137 52.7971 45.832 52.7661 45.8503L52.7111 45.8208L52.5861 45.8933L52.6402 45.9148C52.0094 46.2055 51.2998 46.3106 51.4002 46.8992C51.3731 47.1206 51.4575 47.2608 51.4575 47.2608L51.5523 47.2703C51.6901 47.2847 53.4191 47.4599 53.3283 47.4503L54.2976 47.084C55.4301 47.1445 55.3704 46.9868 55.368 46.6666C55.3688 46.6658 55.3688 46.6658 55.368 46.6658Z"
        fill="#40100D" />
    <path
        d="M55.2 27.1484L56.2043 29.9153L55.8642 45.3526L55.7073 45.437L55.5838 47.6662L52.3917 47.9601C52.3917 47.9601 54.4067 47.1413 54.519 46.54C54.6305 45.9387 51.4926 27.7864 51.4926 27.7864L55.2 27.1484Z"
        fill="#1B2B80" />
    <path
        d="M56.3715 15.3757C56.3715 15.3757 54.9945 15.2388 54.2291 16.0607C53.4637 16.8826 52.5462 18.8179 52.1289 19.2663C51.7116 19.7147 50.9749 28.6977 50.9749 28.6977C50.9749 28.6977 57.5773 30.0071 57.5582 29.4965C57.5407 29.0155 58.0727 23.888 57.9946 21.7042C57.9166 19.5204 56.3715 15.3757 56.3715 15.3757Z"
        fill="#A13210" />
    <path
        d="M41.9848 16.5859C41.9848 16.5859 42.8999 17.9335 44.7659 18.0593C46.632 18.1852 47.9875 17.4939 47.9875 17.4939C47.9875 17.4939 49.6457 19.8736 49.9563 21.3717C50.2669 22.869 50.4915 25.5578 50.4915 25.5578L45.6516 27.5616C45.6516 27.5616 45.951 22.4987 45.1299 21.0739C44.3104 19.649 41.8733 17.9383 41.9848 16.5859Z"
        fill="#F3EEB5" />
    <path
        d="M50.1713 20.625C50.1713 20.625 49.5007 20.7134 49.2921 20.7206C49.0834 20.7277 48.9329 21.0065 49.3064 21.1212C49.6799 21.2359 50.0718 21.431 50.0718 21.431L50.1713 20.625Z"
        fill="#E55555" />
    <path
        d="M49.0699 22.536C49.0699 22.536 47.2015 21.8821 47.0414 21.5181C46.8813 21.1549 46.464 20.8961 46.0912 20.7647C45.7185 20.6333 44.7046 20.2812 44.7046 20.2812C44.7046 20.2812 44.6354 20.3784 44.8719 20.6181C45.1076 20.8579 45.3362 21.0586 45.3362 21.0586C45.3362 21.0586 45.0646 20.8658 44.9468 20.8698L44.903 20.8714C44.903 20.8714 44.7994 21.1111 44.9539 21.2672C44.9539 21.2672 44.9189 21.3604 44.9253 21.5444C44.9316 21.7284 45.0407 21.8295 45.0407 21.8295C45.0407 21.8359 45.0415 21.8534 45.0431 21.902C45.0463 21.9984 45.8157 22.8107 46.2378 22.7391C46.6607 22.6674 49.496 24.1416 49.496 24.1416L49.0699 22.536Z"
        fill="#FC7575" />
    <path
        d="M27.4594 41.8818L23.6533 41.1172C23.6533 41.1172 22.9524 41.7543 22.9524 42.9171C22.9524 44.0799 23.0161 44.4463 23.4462 44.6215C23.8763 44.7967 29.7683 44.4463 29.7683 44.4463L27.4594 41.8818Z"
        fill="#563918" />
    <path
        d="M24.7834 42.7371L23.3338 42.5938C23.3338 42.5938 22.9914 43.2548 23.3338 43.5973H25.1179L24.7834 42.7371Z"
        fill="#D9E021" />
    <path
        d="M23.6524 41.1172C23.6524 41.1172 24.1144 42.9649 23.3339 43.6013H26.2639V41.3553L23.6524 41.1172Z"
        fill="#A3A819" />
    <path
        d="M24.0665 40.1992C24.0665 40.1992 24.7355 43.7345 23.4453 44.6265C23.4453 44.6265 24.4807 44.8336 25.293 44.8336C26.1054 44.8336 27.0133 45.0088 27.6178 45.0088C28.2231 45.0088 28.9081 44.6759 28.9081 44.6759C28.9081 44.6759 30.6124 45.0566 31.1851 44.8336C31.7585 44.6106 33.9718 44.9292 33.9718 44.9292C33.9718 44.9292 35.0231 42.6203 34.4337 41.123C34.4337 41.123 28.8308 40.3146 26.9488 40.1992C26.2304 40.1554 24.0665 40.1992 24.0665 40.1992Z"
        fill="#D9E021" />
    <path
        d="M33.9726 44.9222C33.9726 44.9222 34.8232 43.0514 34.5644 41.5859C32.6808 43.4552 26.608 43.5245 24.1415 43.3046C24.0339 43.8661 23.8253 44.3575 23.4462 44.6196C23.4462 44.6196 24.4815 44.8266 25.2939 44.8266C26.1063 44.8266 27.0142 45.0019 27.6187 45.0019C28.224 45.0019 28.9089 44.6689 28.9089 44.6689C28.9089 44.6689 30.6133 45.0496 31.1859 44.8266C31.7586 44.6036 33.9726 44.9222 33.9726 44.9222Z"
        fill="#A5A944" />
    <path d="M27.2619 44.9112L25.7319 40.1207L26.0577 40.1016L27.7469 44.9455L27.2619 44.9112Z"
        fill="#172509" />
    <path
        d="M26.4806 44.9083L26.0298 44.8573C26.9178 43.9693 27.3726 40.2125 27.3774 40.1719L27.868 40.2244C27.8496 40.3917 27.4204 43.9693 26.4806 44.9083Z"
        fill="#172509" />
    <path
        d="M29.8208 44.87L29.3182 44.7863C29.6281 44.4765 29.6973 41.9534 29.6113 40.4219L29.9857 40.4967C30.0095 40.9125 30.2986 44.3921 29.8208 44.87Z"
        fill="#172509" />
    <path
        d="M33.1801 44.8391L32.7978 44.7905C32.9252 44.3469 31.8524 42.1033 31.1261 40.6172L31.5856 40.6793C31.7752 41.0656 33.3712 44.1765 33.1801 44.8391Z"
        fill="#172509" />
    <path
        d="M31.0951 44.8701L30.7614 44.9116C30.7614 44.3477 32.0994 40.9381 32.1615 40.7812L32.6513 40.841C32.2316 41.8994 31.0951 44.4361 31.0951 44.8701Z"
        fill="#172509" />
    <path
        d="M26.6247 21.5156C26.6247 21.5156 27.4642 22.0747 27.8664 22.9173C28.2694 23.76 31.3014 25.4038 31.3014 25.4038C31.3014 25.4038 29.5365 25.8522 29.4879 25.9C29.4401 25.9478 26.0632 24.4417 26.0632 24.4417L26.6247 21.5156Z"
        fill="#A74326" />
    <path
        d="M29.1678 25.8744C29.2028 25.6259 29.2793 25.3981 29.331 25.0278C29.4043 24.4981 29.4871 24.1047 29.4871 24.1047L28.2471 23.5312C28.2471 23.5312 28.0496 24.3874 27.9038 25.0676C27.8082 25.5144 29.1447 26.0376 29.1678 25.8744Z"
        fill="#FC7575" />
    <path
        d="M28.247 23.5312C28.247 23.5312 28.2144 23.6826 28.1642 23.9175C28.2645 24.076 28.4079 24.2449 28.6086 24.4591C28.8085 24.6733 29.065 24.8796 29.3318 25.027C29.405 24.4981 29.4879 24.1039 29.4879 24.1039L28.247 23.5312Z"
        fill="#FD5E5A" />
    <path
        d="M31.26 21.6655C31.26 21.6655 30.1689 22.8076 29.7547 22.9215C29.3398 23.0361 28.4223 23.1883 28.4223 23.1883C28.4223 23.1883 27.9293 24.9078 27.872 25.2877C27.872 25.2877 26.2839 24.9149 27.2093 22.2174C27.5622 21.1892 27.735 20.5313 28.8373 20.1785C29.9403 19.8265 31.0075 20.619 31.26 21.6655Z"
        fill="#00147D" />
    <path
        d="M30.4978 21.2521C30.4978 21.2521 31.1661 21.5532 31.1812 22.0964C31.1963 22.6395 31.0426 22.8952 31.0498 23.1572C31.0569 23.4192 30.9813 23.8995 30.603 24.6139C30.2247 25.3283 29.218 24.8082 28.6684 24.2181C28.0504 23.5538 28.005 23.3651 28.0982 22.3974C28.1922 21.4289 29.4314 20.74 30.4978 21.2521Z"
        fill="#FC7575" />
    <path
        d="M30.2892 23.772C30.2852 23.6884 30.3887 23.7959 30.6022 23.5506C30.5393 23.4264 30.5114 23.2783 30.5162 23.1484C30.5576 23.4152 30.685 23.5315 30.7001 23.5562C30.6922 23.5626 30.5233 23.7975 30.3306 23.8095C30.3083 23.8111 30.29 23.7936 30.2892 23.772Z"
        fill="#0028A6" />
    <path
        d="M29.906 23.1221C29.9522 23.1659 30.0247 23.1635 30.0685 23.1174C30.1123 23.0704 30.1099 22.9971 30.0637 22.9533C30.0175 22.9095 29.945 22.9119 29.9012 22.9581C29.8582 23.0051 29.8598 23.0783 29.906 23.1221Z"
        fill="#0028A6" />
    <path
        d="M30.8554 23.1846C30.9016 23.2284 30.9741 23.226 31.0179 23.1799C31.0617 23.1329 31.0593 23.0596 31.0131 23.0158C30.9669 22.972 30.8944 22.9744 30.8506 23.0206C30.8068 23.0668 30.8092 23.1408 30.8554 23.1846Z"
        fill="#0028A6" />
    <path
        d="M30.3425 22.8772C30.2135 22.8525 30.0821 22.8533 29.9515 22.8804C29.8846 22.8963 29.8256 22.9186 29.7667 22.9417C29.707 22.9656 29.6488 22.9911 29.5907 23.0254C29.6576 23.0309 29.7229 23.0214 29.7866 23.0086C29.8503 22.9967 29.9125 22.9704 29.9698 22.9553C30.0893 22.9226 30.2151 22.9043 30.3425 22.8772Z"
        fill="#00115B" />
    <path
        d="M31.2027 22.9436C31.1071 22.9309 31.0084 22.938 30.9088 22.9651C30.8578 22.9803 30.8124 23.0002 30.767 23.0209C30.7216 23.0416 30.6763 23.0639 30.6309 23.0925C30.681 23.0933 30.7304 23.083 30.779 23.0703C30.8276 23.0583 30.8754 23.0352 30.9192 23.0209C31.01 22.9906 31.1055 22.9707 31.2027 22.9436Z"
        fill="#00115B" />
    <path
        d="M30.3735 22.5318L30.3066 22.6688C30.3066 22.6688 29.9634 22.6154 29.8009 22.7421C29.8001 22.7421 30.0916 22.4187 30.3735 22.5318Z"
        fill="#00115B" />
    <path
        d="M31.1453 22.5559L31.1102 22.6865C31.1102 22.6865 30.767 22.6331 30.6045 22.7598C30.6037 22.7598 30.8641 22.442 31.1453 22.5559Z"
        fill="#00115B" />
    <path
        d="M30.5352 24.1732C30.5352 24.1732 30.1466 24.0952 29.8296 23.9375C29.8296 23.9375 30.0837 24.4544 30.2716 24.4488C30.458 24.4424 30.5352 24.1732 30.5352 24.1732Z"
        fill="white" />
    <path
        d="M31.2034 20.8129C31.2034 20.8129 31.7434 20.9539 31.6255 21.4811C31.5077 22.0084 30.1322 22.5292 29.2418 22.3365C28.9081 22.264 28.8953 22.4663 28.7544 22.5866C28.5186 22.7865 28.31 23.039 28.474 23.4746C28.7369 24.1723 29.0554 23.845 29.0554 23.845C29.0554 23.845 28.7639 24.228 27.9914 23.9397C27.2188 23.6514 27.1973 22.4655 27.8289 21.8292C28.4605 21.1928 29.0873 20.922 29.5882 20.7962C30.6762 20.5246 31.2034 20.8129 31.2034 20.8129Z"
        fill="#2846A6" />
    <path
        d="M28.47 22.399C28.5624 22.4078 28.9399 22.7152 28.8133 22.9956C28.6866 23.2759 28.5823 23.2887 28.3354 23.1341C28.0885 22.9796 28.2367 22.3767 28.47 22.399Z"
        fill="#FC7575" />
    <path
        d="M28.7083 22.8004C28.7083 22.8004 28.5299 22.5399 28.4231 22.6538C28.3164 22.7677 28.3347 22.9796 28.4677 23.0576C28.6008 23.1357 28.8301 22.9565 28.7083 22.8004Z"
        fill="#FD5E5A" />
    <path
        d="M29.2577 23.4384C29.2449 23.569 29.4018 23.6909 29.6081 23.7108C29.8144 23.7307 29.9912 23.6399 30.0039 23.5093C30.0167 23.3787 29.859 23.2568 29.6535 23.2369C29.4472 23.2178 29.2704 23.3078 29.2577 23.4384Z"
        fill="#FD5E5A" />
    <path
        d="M30.7232 23.6484C30.7335 23.5369 30.8634 23.4557 31.0282 23.4453C31.0091 23.5696 30.9749 23.7153 30.9191 23.8841C30.7957 23.8348 30.7144 23.744 30.7232 23.6484Z"
        fill="#FD5E5A" />
    <path
        d="M31.3022 25.4038C31.3022 25.4038 28.2949 24.7969 27.5375 24.0387C26.6479 23.1491 26.6256 21.5156 26.6256 21.5156C26.6256 21.5156 26.0489 21.5467 25.7176 21.878C25.3855 22.2101 23.9806 23.9344 27.058 25.5336C28.1316 26.0911 29.9674 26.9991 29.9674 26.9991L31.3022 25.4038Z"
        fill="#F3EEB5" />
    <path
        d="M43.4016 44.2879C43.4016 44.2879 43.2949 43.8013 42.9532 43.7734L42.7334 44.0299L43.3363 44.3262L43.4016 44.2879Z"
        fill="#36414F" />
    <path
        d="M45.239 43.1184C45.239 43.1184 45.5074 44.0176 45.6069 44.3099C45.7065 44.6022 46.7132 44.685 47.2181 45.0275C47.7231 45.3692 47.3678 46.0923 47.3678 46.0923L45.4134 46.5049L44.2458 46.2038C44.2458 46.2038 43.4135 46.3743 43.1276 46.2341C42.8417 46.0931 42.9755 44.2796 43.212 44.1992C43.4486 44.1188 44.3884 43.8607 44.5811 43.4697C44.7731 43.077 45.239 43.1184 45.239 43.1184Z"
        fill="#485669" />
    <path
        d="M45.6324 44.7025C45.004 44.3935 44.8654 43.9251 44.6169 43.7324C44.429 43.5883 44.0642 44.1306 43.212 44.1999C43.5338 44.0685 43.9647 43.8176 44.1988 43.6552C44.2968 43.6074 44.4019 43.4529 44.6201 43.5142C44.8344 43.5755 45.0191 43.9275 45.1482 44.1306C45.2844 44.3345 45.4468 44.5257 45.6324 44.7025Z"
        fill="#36414F" />
    <path d="M45.7001 44.2812L45.106 44.6508L45.1625 44.7448L45.7909 44.38L45.7001 44.2812Z"
        fill="#F3EEB5" />
    <path d="M45.8625 44.4453L45.3433 44.8356L45.4126 44.869L46.0131 44.5194L45.8625 44.4453Z"
        fill="#F3EEB5" />
    <path
        d="M44.3756 45.8403C44.5158 45.7926 45.1968 46.1486 45.4755 46.229C45.6754 46.2871 46.8764 45.7973 47.4889 45.6094C47.5494 45.881 47.4738 46.0641 47.4738 46.0641L45.3895 46.5324L44.2458 46.1987C44.2458 46.1987 43.4135 46.3692 43.1276 46.229C43.0504 46.1908 43.0034 46.0307 42.9811 45.8149C43.533 45.7742 44.2832 45.8722 44.3756 45.8403Z"
        fill="#D87306" />
    <path
        d="M46.1685 44.9141C46.9298 44.9451 47.4077 45.4095 47.2166 45.5385C46.988 45.6922 47.1799 45.1339 46.1685 44.9141Z"
        fill="#6D7887" />
    <path
        d="M25.6937 36.4141C25.6937 36.4141 26.1301 36.5925 26.5347 36.7565C26.9489 36.9246 27.2826 37.2455 27.4658 37.6525C27.6051 37.9623 27.7557 38.304 27.821 38.4816C27.9588 38.8543 27.7445 39.5122 27.684 39.4628C27.6235 39.4134 27.6027 38.7803 27.5908 38.6656C27.5789 38.5509 27.4642 38.4521 27.4642 38.4521C27.4642 38.4521 27.5709 39.9224 27.4506 39.9351C27.3304 39.9478 27.1583 38.3287 27.0325 38.3414C26.9067 38.3542 27.3399 39.9351 27.1098 39.959C26.8796 39.9829 26.6861 38.3598 26.6343 38.4235C26.5825 38.4872 26.6956 39.4262 26.6024 39.4357C26.5092 39.4453 25.9876 38.1829 25.9111 37.901C25.8355 37.6183 25.4906 36.923 25.4906 36.923L25.6937 36.4141Z"
        fill="#FC7575" />
    <path
        d="M26.9672 25.4922C26.9672 25.4922 27.6545 26.8995 27.6545 28.2694C27.6545 29.6392 26.2074 30.5249 26.1325 31.7291C26.0576 32.9333 26.9624 36.827 26.9624 36.827C26.9624 36.827 25.8665 37.4658 25.5312 37.7525C25.5312 37.7525 23.9511 33.3745 23.9511 31.1445C23.9503 28.9153 24.8606 26.0417 26.9672 25.4922Z"
        fill="#E8AB6A" />
    <path
        d="M36.2305 33.0775C36.2305 33.0775 35.814 33.7131 35.9367 34.3024C36.0593 34.8918 36.436 33.4375 36.5093 33.6557C36.5826 33.8748 36.6128 34.7891 36.8111 34.6553C37.0095 34.5215 36.9211 33.5291 37.0278 33.5825C37.1353 33.6358 37.1082 34.6298 37.3312 34.484C37.5534 34.3383 37.4985 33.651 37.6148 33.6462C37.7302 33.6406 37.6163 34.4259 37.8011 34.2005C37.9859 33.9751 38.2264 33.608 38.1683 33.4343C38.1101 33.2607 37.9054 33.0616 37.6737 33.0218C37.4419 32.982 37.4188 32.8131 36.9155 32.9151C36.4113 33.0162 36.2305 33.0775 36.2305 33.0775Z"
        fill="#FC7575" />
    <path d="M19.3996 44.2483L19.3842 44.4844L33.6637 45.4202L33.6791 45.1842L19.3996 44.2483Z"
        fill="#600202" />
    <path d="M19.3967 44.3201L19.39 44.4219L33.6695 45.3563L33.6762 45.2546L19.3967 44.3201Z"
        fill="#9E0D0D" />
    <path d="M33.5003 45.1114L33.4779 45.4531L34.5969 45.5265L34.6193 45.1847L33.5003 45.1114Z"
        fill="#2F2C35" />
    <path d="M34.62 45.2483L34.6045 45.4844L34.808 45.4977L34.8234 45.2617L34.62 45.2483Z"
        fill="#070707" />
    <path d="M36.768 45.4239L36.7569 45.5911L34.7817 45.5617L34.8064 45.1953L36.768 45.4239Z"
        fill="#2F2C35" />
    <path d="M37.2371 45.5409L36.7577 45.5791L36.7665 45.4453L37.2371 45.5409Z" fill="#595563" />
    <path
        d="M16.3259 43.9675C16.5012 44.0057 16.6963 44.0145 16.6963 44.0145C17.1096 43.942 17.5779 44.0806 17.5779 44.0806C17.9634 44.1682 18.3083 44.1037 18.3083 44.1037C18.6794 44.0328 19.033 44.0885 19.033 44.0885L19.4392 44.255L19.4241 44.4907L19.0259 44.6126L15.7987 44.5998L15.8521 43.7891L16.0552 43.8026C16.0496 43.8846 16.181 43.9364 16.3259 43.9675Z"
        fill="#070707" />
    <path
        d="M19.0338 44.0898C18.9382 44.504 17.7229 44.4657 17.0332 44.3351C16.5816 44.2499 16.3984 44.0779 16.3259 43.9688C16.5011 44.007 16.6963 44.0157 16.6963 44.0157C17.1096 43.9433 17.5779 44.0818 17.5779 44.0818C17.9634 44.1695 18.3083 44.1049 18.3083 44.1049C18.6802 44.0341 19.0338 44.0898 19.0338 44.0898Z"
        fill="#DB0707" />
    <path
        d="M16.8006 44.1604C16.6166 44.1254 16.4781 44.0768 16.3729 44.0234C16.4677 44.1286 16.6573 44.26 17.0332 44.3309C17.7229 44.4615 18.9382 44.4997 19.0338 44.0856C19.0338 44.0856 18.8936 44.0633 18.6977 44.0649C18.3728 44.3157 17.3932 44.2727 16.8006 44.1604Z"
        fill="#910707" />
    <path
        d="M34.0522 45.3025C34.2959 45.3184 34.491 45.3638 34.4878 45.4036C34.4846 45.4435 34.2855 45.4626 34.0426 45.4466C33.7989 45.4307 33.6038 45.3853 33.607 45.3455C33.6094 45.3057 33.8093 45.2866 34.0522 45.3025Z"
        fill="#595563" />
    <path d="M16.2177 44.7405L16.2023 44.9766L30.4818 45.911L30.4972 45.6749L16.2177 44.7405Z"
        fill="#600202" />
    <path d="M16.2107 44.7967L16.2041 44.8984L30.4836 45.8314L30.4902 45.7297L16.2107 44.7967Z"
        fill="#9E0D0D" />
    <path d="M30.3178 45.6036L30.2954 45.9453L31.4144 46.0187L31.4368 45.6769L30.3178 45.6036Z"
        fill="#2F2C35" />
    <path d="M31.4333 45.7327L31.4178 45.9688L31.6213 45.9821L31.6368 45.746L31.4333 45.7327Z"
        fill="#070707" />
    <path d="M33.584 45.9083L33.5737 46.0755L31.5985 46.0461L31.6224 45.6797L33.584 45.9083Z"
        fill="#2F2C35" />
    <path d="M34.0539 46.0253L33.5745 46.0635L33.5832 45.9297L34.0539 46.0253Z" fill="#595563" />
    <path
        d="M13.1427 44.4518C13.3179 44.4901 13.5131 44.4988 13.5131 44.4988C13.9264 44.4263 14.3947 44.5649 14.3947 44.5649C14.7802 44.6525 15.125 44.588 15.125 44.588C15.4962 44.5171 15.8498 44.5729 15.8498 44.5729L16.256 44.7393L16.2409 44.9751L15.8426 45.0969L12.6155 45.0842L12.6688 44.2734L12.8727 44.287C12.8664 44.369 12.9978 44.4208 13.1427 44.4518Z"
        fill="#070707" />
    <path
        d="M15.8506 44.5742C15.755 44.9883 14.5396 44.9501 13.8499 44.8195C13.3984 44.7343 13.2152 44.5622 13.1427 44.4531C13.3179 44.4914 13.513 44.5001 13.513 44.5001C13.9264 44.4276 14.3947 44.5662 14.3947 44.5662C14.7802 44.6538 15.125 44.5893 15.125 44.5893C15.4962 44.5176 15.8506 44.5742 15.8506 44.5742Z"
        fill="#DB0707" />
    <path
        d="M13.6174 44.6448C13.4334 44.6098 13.2948 44.5612 13.1897 44.5078C13.2845 44.6129 13.474 44.7444 13.8499 44.8152C14.5397 44.9458 15.755 44.9841 15.8506 44.5699C15.8506 44.5699 15.7104 44.5476 15.5145 44.5492C15.1895 44.8009 14.2099 44.7571 13.6174 44.6448Z"
        fill="#910707" />
    <path
        d="M30.869 45.7868C31.1127 45.8027 31.3078 45.8481 31.3046 45.8879C31.3014 45.9277 31.1023 45.9468 30.8594 45.9309C30.6157 45.915 30.4206 45.8696 30.4237 45.8298C30.4261 45.7907 30.626 45.7708 30.869 45.7868Z"
        fill="#595563" />
    <path
        d="M55.11 14.5312C55.11 14.5312 54.5812 14.7821 54.3255 15.4153C54.0699 16.0485 53.0242 16.7509 53.0242 16.7509L53.4542 17.5744L55.0511 16.77L55.56 15.5722L55.11 14.5312Z"
        fill="#35202A" />
    <path
        d="M54.5399 15.1589C54.5725 15.1087 54.5136 13.3892 54.5136 13.3892C54.5136 13.3892 54.422 12.1197 54.1018 12.0416C53.7817 11.9636 52.9335 11.5757 52.4253 11.7907C51.9172 12.0058 51.6464 12.3156 51.6138 12.3666C51.5811 12.4167 51.4999 13.1431 51.4999 13.1431C51.4999 13.1431 51.5692 12.8795 51.953 13.5684C52.3361 14.2565 54.5399 15.1589 54.5399 15.1589Z"
        fill="#381A3F" />
    <path
        d="M54.3145 17.1647C54.109 16.5722 53.3508 15.7917 53.2417 15.665L54.2787 13.8516C54.2787 13.8516 54.8832 15.0112 55.3554 16.1477C54.9779 16.4694 54.6856 16.8724 54.3145 17.1647Z"
        fill="#FC7575" />
    <path
        d="M54.2778 13.8594C54.2778 13.8594 54.4602 14.2098 54.7031 14.714C54.6999 15.3137 54.4419 16.1866 53.9258 16.4868C53.6407 16.0958 53.3101 15.7525 53.2408 15.6729L54.2778 13.8594Z"
        fill="#FD5E5A" />
    <path
        d="M53.8668 12.7216C54.2562 13.1222 54.6401 14.0023 54.4816 14.8696C54.3231 15.7369 53.8604 16.3557 53.2822 16.214C52.7032 16.073 51.6846 14.0118 51.769 13.3253C51.8534 12.6396 53.2734 12.1115 53.8668 12.7216Z"
        fill="#FC7575" />
    <path
        d="M54.7246 14.7525C54.7246 14.7525 54.5303 14.0158 54.7119 13.7338C54.8934 13.4511 54.9635 13.2974 54.9062 13.0322C54.8488 12.767 55.6222 12.2246 55.3148 11.8845C55.0073 11.5444 54.2674 11.6535 53.6367 11.1056C53.0059 10.5576 52.4794 10.3338 51.8049 10.9407C51.1303 11.5476 51.233 12.0979 51.233 12.0979C51.233 12.0979 50.8611 12.1903 50.834 12.7192C50.8069 13.248 51.0626 13.4272 51.284 13.5698C51.284 13.5698 51.0124 13.0099 51.2163 12.9653C51.4202 12.9207 51.4982 13.6359 51.4982 13.6359C51.4982 13.6359 51.6774 13.2679 51.8184 12.7598C51.9594 12.2517 52.0709 12.7216 52.1824 13.2353C52.2939 13.749 52.7693 13.0035 52.9199 12.528C53.0704 12.0526 53.6279 12.1832 53.9871 12.5989C54.3471 13.0146 54.0046 14.0763 54.7246 14.7525Z"
        fill="#653870" />
    <path
        d="M54.0421 13.5468C54.0421 13.5468 54.109 12.9272 54.3432 13.0785C54.5773 13.229 54.731 13.9251 54.4292 14.0685C54.1281 14.2118 54.0421 13.5468 54.0421 13.5468Z"
        fill="#FC7575" />
    <path
        d="M54.2132 13.506C54.2132 13.506 54.0818 13.2241 54.2698 13.2519C54.4578 13.2806 54.5039 13.8086 54.363 13.8604C54.2228 13.913 54.2132 13.506 54.2132 13.506Z"
        fill="#FD5E5A" />
    <path
        d="M52.5925 14.0781C52.5949 14.2326 52.6172 14.3863 52.6546 14.5369C52.7391 14.8602 52.8402 14.9693 52.8506 14.9877C52.8816 14.9661 52.9653 14.912 53.0696 14.826C52.9923 14.8578 52.9175 14.8937 52.8442 14.9319L52.8776 14.9399C52.7486 14.6715 52.6833 14.372 52.5925 14.0781Z"
        fill="#172866" />
    <path
        d="M53.647 15.0629C53.6526 15.0159 53.5809 15.008 53.5753 15.055C53.5737 15.0701 53.5267 15.4285 53.1842 15.5033C53.1651 15.5073 53.1524 15.5264 53.1564 15.5463C53.1795 15.6459 53.592 15.4643 53.647 15.0629Z"
        fill="#172866" />
    <path
        d="M52.9971 13.9854C53.017 14.0786 53.0871 14.1423 53.1524 14.128C53.2177 14.1136 53.2544 14.0268 53.2345 13.9336C53.2145 13.8405 53.1445 13.7767 53.0792 13.7911C53.013 13.8046 52.9764 13.8922 52.9971 13.9854Z"
        fill="#2846A6" />
    <path
        d="M52.1187 14.2354C52.1386 14.3286 52.2087 14.3923 52.274 14.378C52.3393 14.3636 52.3759 14.2768 52.356 14.1836C52.3361 14.0905 52.266 14.0267 52.2007 14.0411C52.1346 14.0554 52.098 14.1422 52.1187 14.2354Z"
        fill="#2846A6" />
    <path
        d="M53.3747 13.5575C53.3747 13.5575 53.1485 13.3807 52.9183 13.4308C52.6882 13.481 52.8307 13.6395 52.8849 13.6276C52.9382 13.6156 53.3643 13.5097 53.3747 13.5575Z"
        fill="#172866" />
    <path
        d="M52.2023 13.625C52.2023 13.625 51.9848 13.8153 51.9888 13.9579C51.9888 13.9579 52.2445 13.8153 52.2644 13.7285C52.2843 13.6417 52.2023 13.625 52.2023 13.625Z"
        fill="#172866" />
    <path
        d="M55.11 14.5312L56.2537 15.4185C56.1311 15.7339 55.1578 18.5333 53.2583 17.7648C52.974 17.6493 53.0242 16.7517 53.0242 16.7517C56.0904 16.2954 54.9906 14.6324 55.11 14.5312Z"
        fill="#FFCB57" />
    <path
        d="M55.5011 13.9523C55.5011 13.9523 55.9399 15.6686 55.9901 17.0631C56.0403 18.4577 57.0047 19.6213 57.1298 23.1113C57.2548 26.602 57.7558 29.8101 57.7558 29.8101C57.7558 29.8101 61.6416 30.0801 62.407 29.2582C63.1715 28.4362 65.2924 21.113 64.5358 17.4805C63.7792 13.8479 64.6537 12.709 62.9254 11.5192C61.1972 10.3293 58.9496 11.1353 57.9987 11.4586C57.047 11.7812 55.474 13.1829 55.5011 13.9523Z"
        fill="#365352" />
    <path opacity="0.56"
        d="M58.6653 15.2233L59.1901 29.8499C60.3211 29.8475 61.7945 29.7559 62.3297 29.3258C62.6275 25.4535 62.5782 19.1713 62.4691 16.2396C60.9391 15.1644 60.0105 14.7901 58.6653 15.2233Z"
        fill="#293E3E" />
    <path
        d="M56.9498 15.8759C56.9498 15.8759 57.2914 18.6395 56.9466 21.4621C56.6017 24.2846 57.1505 29.8533 57.1505 29.8533C57.1505 29.8533 60.0455 31.8675 60.8961 30.2682C61.0562 29.968 61.4377 26.4008 61.4719 24.909C61.5157 23.0095 61.1924 15.4338 61.1924 15.4338C61.1924 15.4338 60.1578 14.1906 56.9498 15.8759Z"
        fill="#D9E021" />
    <path
        d="M57.7382 15.5001C58.1556 16.2121 58.9711 18.1498 58.4678 21.8755C58.193 23.9056 57.4507 25.6188 56.9354 27.0054C57.0286 28.6118 57.1505 29.8526 57.1505 29.8526C57.1505 29.8526 60.0455 31.8668 60.8961 30.2675C61.0562 29.9673 61.4377 26.4001 61.4719 24.9083C61.5157 23.0088 61.1924 15.4331 61.1924 15.4331C61.1924 15.4331 60.329 14.3978 57.7382 15.5001Z"
        fill="#B4B84A" />
    <path
        d="M56.2537 17.3247C55.3935 17.2052 54.6449 17.359 54.226 17.5931C52.4834 18.4716 52.3695 21.1635 52.3058 23.1228L51.6718 23.1419C51.6177 20.9294 51.8829 17.9061 53.9998 17.0428C54.7564 16.7266 55.6715 16.7704 56.3724 17.03L56.2537 17.3247Z"
        fill="#365352" />
    <path
        d="M54.6369 16.9824C54.6369 16.9824 55.5377 17.0207 55.9431 18.1994C56.3476 19.3781 54.0595 24.7517 52.8242 25.2136C51.5889 25.6755 47.5223 24.0452 47.5223 24.0452L47.8688 22.0701L51.5268 22.927C51.5268 22.9254 52.7669 16.7602 54.6369 16.9824Z"
        fill="#B45B40" />
    <path
        d="M61.851 13.5267C62.8378 13.7895 63.0027 17.5814 63.0027 17.5814L66.1311 17.2238C66.1311 17.2238 65.5608 13.2703 63.9082 11.6177C62.2556 9.96505 58.0807 10.9757 56.4934 12.0039C54.9061 13.0329 55.595 14.3431 55.595 14.3431C55.595 14.3431 60.8643 13.2631 61.851 13.5267Z"
        fill="#293E3E" />
    <path
        d="M61.4369 20.6703C59.1535 20.6703 57.2102 18.414 57.0963 18.2977L57.0127 17.6797C57.039 17.7068 59.3144 20.1072 61.4202 20.1072L61.4369 20.6703Z"
        fill="#293E3E" />
    <path
        d="M56.9648 20.9727L56.9959 20.5036C58.0098 20.3937 60.4301 18.1533 61.3285 17.2812L61.3413 17.8658C61.2051 17.998 58.3299 20.8254 56.9648 20.9727Z"
        fill="#293E3E" />
    <path
        d="M56.8168 24.5735L56.8263 24.1172C57.6076 24.4597 60.4262 24.2382 61.5038 24.1172L61.4982 24.5616C60.5035 24.6723 57.7375 24.9781 56.8168 24.5735Z"
        fill="#293E3E" />
    <path
        d="M56.957 27.466L56.9164 26.9531C57.8514 27.3585 60.2933 28.3891 61.2402 28.1836L61.1869 28.6113C60.1005 28.847 57.9701 27.9041 56.957 27.466Z"
        fill="#293E3E" />
    <path
        d="M57.0517 29.1221L57.019 28.7C57.4276 28.7 59.8329 27.6965 61.3588 27.0625L61.2991 27.5746C60.8873 27.7458 57.6793 29.1221 57.0517 29.1221Z"
        fill="#293E3E" />
    <path
        d="M53.6231 45.6586C53.6231 45.6586 53.4582 46.561 53.3929 46.8557C53.3276 47.1504 52.3583 47.3391 51.9044 47.7254C51.4504 48.1117 51.8733 48.7759 51.8733 48.7759L53.8166 48.967L54.9189 48.5489C54.9189 48.5489 55.7456 48.6254 56.0084 48.4581C56.2712 48.2909 55.9463 46.5427 55.7081 46.4901C55.47 46.4376 54.5286 46.2878 54.3 45.9278C54.0707 45.5679 53.6231 45.6586 53.6231 45.6586Z"
        fill="#801F1A" />
    <path
        d="M53.4104 47.2337C53.9878 46.8666 54.0714 46.3967 54.2929 46.1824C54.4601 46.0224 54.8727 46.5098 55.7081 46.4859C55.3816 46.3927 54.9356 46.1952 54.6911 46.063C54.5907 46.0263 54.472 45.8886 54.2666 45.9714C54.0651 46.0542 53.9233 46.4158 53.8198 46.6269C53.7091 46.8387 53.5721 47.0426 53.4104 47.2337Z"
        fill="#411155" />
    <path d="M53.2989 46.8359L53.9162 47.1322L53.8708 47.2294L53.2217 46.9419L53.2989 46.8359Z"
        fill="#F3EEB5" />
    <path d="M53.1587 47.0078L53.7051 47.3312L53.6422 47.3718L53.0201 47.0962L53.1587 47.0078Z"
        fill="#F3EEB5" />
    <path
        d="M54.754 48.2135C54.6123 48.1816 53.9895 48.6006 53.7274 48.7089C53.5395 48.7869 52.3201 48.4397 51.7045 48.3234C51.675 48.5934 51.7682 48.7638 51.7682 48.7638L53.8429 48.9948L54.9181 48.548C54.9181 48.548 55.7448 48.6244 56.0076 48.4572C56.0785 48.4118 56.1072 48.2509 56.1056 48.0391C55.5656 48.059 54.848 48.235 54.754 48.2135Z"
        fill="#D87306" />
    <path
        d="M52.9127 47.5C52.1767 47.6123 51.7618 48.1141 51.9617 48.2192C52.1998 48.3442 51.9529 47.8218 52.9127 47.5Z"
        fill="#B0121B" />
    <path
        d="M63.1293 29.8359H62.7247C62.2198 29.8359 61.8104 29.4265 61.8104 28.9216V23.8292C61.8104 23.3242 62.2198 22.9141 62.7247 22.9141H63.1293C63.6343 22.9141 64.0436 23.3234 64.0436 23.8292V28.9216C64.0444 29.4265 63.6343 29.8359 63.1293 29.8359Z"
        fill="#1B2B80" />
    <path
        d="M63.1292 22.9141H62.7247C62.6585 22.9141 62.5948 22.9212 62.5327 22.9348C62.9747 22.9993 63.314 23.3792 63.314 23.8387V28.9311C63.314 29.3708 63.0042 29.7371 62.5917 29.8255C62.6355 29.8319 62.6801 29.8367 62.7255 29.8367H63.13C63.635 29.8367 64.0443 29.4273 64.0443 28.9224V23.83C64.0443 23.3234 63.6342 22.9141 63.1292 22.9141Z"
        fill="#142060" />
    <path d="M64.0444 24.9766H61.8104V25.4425H64.0444V24.9766Z" fill="#400F0D" />
    <defs>
        <linearGradient id="paint0_linear_5640_13703" x1="9.89678" y1="32.8833" x2="18.2103"
            y2="32.8833" gradientUnits="userSpaceOnUse">
            <stop stop-color="#2C4948" />
            <stop offset="1" stop-color="#405D5C" />
        </linearGradient>
        <linearGradient id="paint1_linear_5640_13703" x1="3.64847" y1="26.98" x2="18.1654"
            y2="45.9258" gradientUnits="userSpaceOnUse">
            <stop stop-color="#4B7D7B" />
            <stop offset="1" stop-color="#D17A66" />
        </linearGradient>
        <linearGradient id="paint2_linear_5640_13703" x1="15.1309" y1="31.5584" x2="21.3235"
            y2="31.5584" gradientUnits="userSpaceOnUse">
            <stop stop-color="#2C4948" />
            <stop offset="1" stop-color="#405D5C" />
        </linearGradient>
        <linearGradient id="paint3_linear_5640_13703" x1="18.1688" y1="35.8557" x2="29.4043"
            y2="35.8557" gradientUnits="userSpaceOnUse">
            <stop stop-color="#2C4948" />
            <stop offset="1" stop-color="#405D5C" />
        </linearGradient>
        <linearGradient id="paint4_linear_5640_13703" x1="24.7988" y1="52.4685" x2="2.40166"
            y2="37.0132" gradientUnits="userSpaceOnUse">
            <stop stop-color="#223837" />
            <stop offset="1" stop-color="#6FA19F" />
        </linearGradient>
        <linearGradient id="paint5_linear_5640_13703" x1="19.0044" y1="39.1186" x2="29.0827"
            y2="40.5139" gradientUnits="userSpaceOnUse">
            <stop stop-color="#2C4948" />
            <stop offset="1" stop-color="#405D5C" />
        </linearGradient>
        <linearGradient id="paint6_linear_5640_13703" x1="18.2912" y1="35.1135" x2="27.1656"
            y2="35.1135" gradientUnits="userSpaceOnUse">
            <stop stop-color="#223837" />
            <stop offset="1" stop-color="#6FA19F" />
        </linearGradient>
        <linearGradient id="paint7_linear_5640_13703" x1="22.9639" y1="21.3079" x2="17.7941"
            y2="43.8786" gradientUnits="userSpaceOnUse">
            <stop stop-color="#4B7D7B" />
            <stop offset="1" stop-color="#D17A66" />
        </linearGradient>
        <linearGradient id="paint8_linear_5640_13703" x1="18.2912" y1="42.149" x2="28.5657"
            y2="42.149" gradientUnits="userSpaceOnUse">
            <stop stop-color="#7F4A3E" />
            <stop offset="1" stop-color="#2C4948" />
        </linearGradient>
    </defs>
</svg>
    