<svg width="70" height="56" viewBox="0 0 70 56" fill="none" xmlns="http://www.w3.org/2000/svg">
    <path
        d="M25.2613 16.5498C25.2613 16.5498 46.5967 14.3388 51.2387 18.9799C55.8808 23.6211 47.2403 27.7462 51.003 32.3734C54.7657 36.9997 62.1383 38.4449 50.5995 45.9319C39.0608 53.4189 22.7115 60.2169 15.2891 52.7945C7.86675 45.3722 23.9995 40.6576 18.6563 34.215C13.3121 27.7724 25.2613 16.5498 25.2613 16.5498Z"
        fill="#919AA5" />
    <path
        d="M20.6909 4.35156C20.6909 4.35156 20.2429 6.89874 20.2429 9.08354C20.2429 11.2683 20.9162 13.619 22.0435 14.7472C23.1708 15.8746 24.7706 17.7363 24.7706 17.7363C24.7706 17.7363 24.1235 12.1258 23.2145 9.36384C22.3055 6.60272 20.6909 4.35156 20.6909 4.35156Z"
        fill="#44645E" />
    <path
        d="M17.3691 10.7266C17.3691 10.7266 17.8189 14.1295 18.6196 15.2594C20.1032 17.3543 24.7714 17.735 24.7714 17.735C24.7714 17.735 22.6268 12.9061 17.3691 10.7266Z"
        fill="#5B857D" />
    <path
        d="M23.3726 13.049C24.5261 17.1042 24.7357 17.4884 24.7357 17.4884C24.7357 17.4884 27.0078 12.2447 26.3442 8.81908C25.6796 5.39344 25.016 3.15625 25.016 3.15625C25.016 3.15625 22.2191 8.99373 23.3726 13.049Z"
        fill="#79B2A6" />
    <path
        d="M33.4957 10.0781C33.4957 10.0781 31.7449 12.8096 28.7995 15.0895C25.8542 17.3695 24.7696 17.738 24.7696 17.738C24.7696 17.738 23.9837 13.7579 26.3117 12.5817C28.6397 11.4054 32.5334 11.1111 33.4957 10.0781Z"
        fill="#79B2A6" />
    <path
        d="M24.8142 17.737C24.8142 17.737 23.3568 15.7696 20.7214 15.0509C18.0852 14.3323 15.6166 14.6912 15.6166 14.6912C15.6166 14.6912 19.2457 18.3945 24.8142 17.737Z"
        fill="#5B857D" />
    <path
        d="M30.8212 6.58594C30.8212 6.58594 30.5845 12.6653 29.3507 13.6739C28.1159 14.6824 24.7715 17.7335 24.7715 17.7335C24.7715 17.7335 26.4123 8.92268 30.8212 6.58594Z"
        fill="#79B2A6" />
    <path
        d="M27.612 4.35156C27.612 4.35156 28.9454 10.5977 24.8142 17.7363C24.8142 17.7363 22.4373 10.1786 27.612 4.35156Z"
        fill="#79B2A6" />
    <path
        d="M35.3068 13.1562C35.3068 13.1562 26.7344 14.2452 24.8142 17.7354C24.8142 17.7345 33.7769 17.5302 35.3068 13.1562Z"
        fill="#79B2A6" />
    <path
        d="M16.6653 15.0781C18.9357 15.671 22.9813 16.9992 24.8142 17.7318C22.9385 17.2542 18.8824 15.9496 16.6653 15.0781Z"
        fill="#BCE4DC" />
    <path
        d="M18.6371 11.9297C19.7103 13.3137 22.3378 16.7857 24.4946 17.7104C22.1142 16.8712 19.5208 13.4098 18.6371 11.9297Z"
        fill="#8DABA5" />
    <path
        d="M51.478 4.19531C51.478 4.19531 51.926 6.7425 51.926 8.9273C51.926 11.1121 51.2527 13.4637 50.1254 14.591C48.9981 15.7183 47.3983 17.58 47.3983 17.58C47.3983 17.58 48.0454 11.9696 48.9544 9.2076C49.8634 6.4456 51.478 4.19531 51.478 4.19531Z"
        fill="#44645E" />
    <path
        d="M54.8006 10.5703C54.8006 10.5703 54.3509 13.9733 53.5502 15.1032C52.0666 17.1981 47.3983 17.5788 47.3983 17.5788C47.3983 17.5788 49.5421 12.749 54.8006 10.5703Z"
        fill="#5B857D" />
    <path
        d="M48.7964 12.8936C47.6429 16.9488 47.4333 17.333 47.4333 17.333C47.4333 17.333 45.1612 12.0894 45.8248 8.66371C46.4894 5.23806 47.153 3 47.153 3C47.153 3 49.9499 8.83836 48.7964 12.8936Z"
        fill="#79B2A6" />
    <path
        d="M38.6731 9.92188C38.6731 9.92188 40.4239 12.6533 43.3693 14.9333C46.3146 17.2133 47.3992 17.5818 47.3992 17.5818C47.3992 17.5818 48.1851 13.6016 45.8571 12.4254C43.5291 11.2492 39.6363 10.9558 38.6731 9.92188Z"
        fill="#79B2A6" />
    <path
        d="M47.3546 17.5807C47.3546 17.5807 48.812 15.6134 51.4474 14.8947C54.0837 14.176 56.5523 14.5349 56.5523 14.5349C56.5523 14.5349 52.9231 18.2374 47.3546 17.5807Z"
        fill="#5B857D" />
    <path
        d="M41.3486 6.42969C41.3486 6.42969 41.5853 12.5091 42.8191 13.5176C44.0539 14.5262 47.3983 17.5772 47.3983 17.5772C47.3983 17.5772 45.7567 8.7673 41.3486 6.42969Z"
        fill="#79B2A6" />
    <path
        d="M44.5569 4.19531C44.5569 4.19531 43.2235 10.4415 47.3547 17.58C47.3547 17.58 49.7316 10.0214 44.5569 4.19531Z"
        fill="#79B2A6" />
    <path
        d="M36.8621 13C36.8621 13 45.4345 14.0889 47.3547 17.5792C47.3547 17.5792 38.3919 17.3748 36.8621 13Z"
        fill="#79B2A6" />
    <path
        d="M55.5035 14.9219C53.2331 15.5148 49.1875 16.843 47.3546 17.5756C49.2303 17.0979 53.2864 15.7925 55.5035 14.9219Z"
        fill="#BCE4DC" />
    <path
        d="M53.5319 11.7734C52.4587 13.1575 49.8312 16.6294 47.6743 17.5542C50.0556 16.7159 52.6482 13.2544 53.5319 11.7734Z"
        fill="#8DABA5" />
    <path
        d="M28.941 1.19531C28.941 1.19531 28.493 3.7425 28.493 5.9273C28.493 8.1121 29.1663 10.4637 30.2936 11.591C31.421 12.7183 33.0207 14.58 33.0207 14.58C33.0207 14.58 32.3736 8.9696 31.4655 6.2076C30.5556 3.4456 28.941 1.19531 28.941 1.19531Z"
        fill="#44645E" />
    <path
        d="M25.6184 7.57031C25.6184 7.57031 26.0681 10.9733 26.8689 12.1032C28.3525 14.1981 33.0198 14.5788 33.0198 14.5788C33.0198 14.5788 30.8769 9.749 25.6184 7.57031Z"
        fill="#5B857D" />
    <path
        d="M31.6227 9.89358C32.7762 13.9488 32.9858 14.333 32.9858 14.333C32.9858 14.333 35.2579 9.08935 34.5943 5.66371C33.9298 2.23806 33.2661 0 33.2661 0C33.2661 0 30.4692 5.83835 31.6227 9.89358Z"
        fill="#79B2A6" />
    <path
        d="M41.7458 6.92188C41.7458 6.92188 39.995 9.65331 37.0497 11.9333C34.1043 14.2133 33.0198 14.5818 33.0198 14.5818C33.0198 14.5818 32.2339 10.6016 34.5619 9.42539C36.8899 8.24916 40.7827 7.95577 41.7458 6.92188Z"
        fill="#79B2A6" />
    <path
        d="M33.0643 14.5807C33.0643 14.5807 31.6069 12.6134 28.9715 11.8947C26.3353 11.176 23.8667 11.5349 23.8667 11.5349C23.8667 11.5349 27.4958 15.2374 33.0643 14.5807Z"
        fill="#5B857D" />
    <path
        d="M39.0703 3.42969C39.0703 3.42969 38.8337 9.50905 37.5998 10.5176C36.3651 11.5262 33.0198 14.5772 33.0198 14.5772C33.0198 14.5772 34.6623 5.7673 39.0703 3.42969Z"
        fill="url(#paint0_linear_5640_4894)" />
    <path
        d="M35.8621 1.19531C35.8621 1.19531 37.1955 7.44146 33.0643 14.58C33.0643 14.58 30.6874 7.02144 35.8621 1.19531Z"
        fill="url(#paint1_linear_5640_4894)" />
    <path
        d="M43.557 10C43.557 10 34.9845 11.0889 33.0643 14.5792C33.0643 14.5792 42.0271 14.3748 43.557 10Z"
        fill="url(#paint2_linear_5640_4894)" />
    <path
        d="M24.9154 11.9219C27.1858 12.5148 31.2305 13.843 33.0643 14.5756C31.1886 14.0971 27.1325 12.7925 24.9154 11.9219Z"
        fill="#BCE4DC" />
    <path
        d="M26.8872 8.77344C27.9604 10.1575 30.5879 13.6294 32.7448 14.5542C30.3635 13.715 27.7709 10.2535 26.8872 8.77344Z"
        fill="#8DABA5" />
    <path
        d="M48.7056 17.3255C48.7056 17.3255 48.6375 16.7955 48.2751 16.7344L48.0166 16.9876L48.6322 17.3605L48.7056 17.3255Z"
        fill="#36414F" />
    <path
        d="M50.7768 16.2428C50.7768 16.2428 50.9794 17.2278 51.058 17.5492C51.1366 17.8705 52.2036 18.0539 52.711 18.4669C53.2183 18.8791 52.7704 19.6178 52.7704 19.6178L50.6449 19.8737L49.4268 19.4423C49.4268 19.4423 48.5221 19.5462 48.2296 19.369C47.9371 19.1917 48.2514 17.268 48.5108 17.2042C48.7701 17.1405 49.7988 16.9536 50.0407 16.5537C50.2834 16.1538 50.7768 16.2428 50.7768 16.2428Z"
        fill="#36414F" />
    <path
        d="M51.0476 17.9744C50.4058 17.5859 50.3018 17.0724 50.0547 16.8436C49.8679 16.6725 49.4269 17.2165 48.5109 17.2104C48.8671 17.1003 49.3509 16.8724 49.6155 16.7222C49.7246 16.6803 49.8513 16.5258 50.0792 16.6113C50.3018 16.6969 50.4669 17.0899 50.5848 17.3195C50.7114 17.5492 50.8668 17.7684 51.0476 17.9744Z"
        fill="#36414F" />
    <path d="M51.1602 17.5234L50.4913 17.8631L50.5429 17.9679L51.2484 17.6378L51.1602 17.5234Z"
        fill="#F3EEB5" />
    <path d="M51.3191 17.7109L50.7279 18.0786L50.7978 18.1213L51.4728 17.8044L51.3191 17.7109Z"
        fill="#F3EEB5" />
    <path
        d="M49.5989 19.0721C49.7535 19.0346 50.4468 19.4782 50.7367 19.5908C50.9445 19.672 52.2727 19.2625 52.9442 19.1193C52.9835 19.4144 52.8848 19.603 52.8848 19.603L50.6162 19.9069L49.4269 19.4432C49.4269 19.4432 48.5222 19.5471 48.2297 19.3699C48.1502 19.3219 48.1162 19.1463 48.1127 18.9141C48.7056 18.9219 49.4976 19.0974 49.5989 19.0721Z"
        fill="#D87306" />
    <path
        d="M51.6003 18.25C52.4098 18.3548 52.877 18.8953 52.6604 19.0149C52.402 19.1581 52.6596 18.5792 51.6003 18.25Z"
        fill="#6D7887" />
    <path
        d="M35.9163 11.0206C35.9163 11.0206 29.2317 10.4688 26.4296 13.2709C24.4028 15.2977 24.1776 23.7871 24.1776 23.7871C24.1776 23.7871 25.6446 29.4613 24.7644 31.6129C23.8841 33.7654 22.3674 37.2382 23.5907 40.0744C24.8132 42.9115 24.7565 51.3477 25.0578 51.6498C25.3599 51.952 37.7745 50.4439 39.7803 51.3241C41.786 52.2043 45.6011 52.0576 45.6011 52.0576C45.6011 52.0576 43.5465 44.7697 43.8399 40.3678C44.1333 35.9659 47.5083 32.3464 46.5303 28.8736C45.5522 25.4008 44.9654 20.6077 45.6989 19.0909C46.4324 17.575 46.1792 15.0732 45.65 14.3467C43.1963 10.9761 35.9163 11.0206 35.9163 11.0206Z"
        fill="#163D55" />
    <path
        d="M45.713 19.0816C46.3408 17.267 46.0701 15.3721 45.5671 14.5225C45.0362 13.6248 43.9543 13.0048 43.0348 12.5743C40.3994 11.3396 37.2951 11.2261 34.4528 11.2575C32.8172 11.2759 31.1415 11.3518 29.5523 11.7692C24.7286 13.0354 25.0988 17.4408 24.361 20.8603C24.5042 18.9139 24.6517 16.9439 25.2726 15.0945C26.7955 10.5572 33.1211 10.4489 37.0384 10.8069C38.7254 10.9606 40.5496 11.1763 42.1293 11.7911C43.4574 12.308 44.831 12.866 45.6623 14.0964C46.6167 15.511 46.415 17.6102 45.713 19.0816Z"
        fill="#102E40" />
    <path
        d="M26.9972 23.6811C26.9972 23.6811 25.139 19.487 25.8236 18.4758C26.5082 17.4646 26.0471 15.7758 27.7752 14.0477C29.5033 12.3196 33.2259 12.7693 35.6063 13.095C37.9867 13.4208 38.7036 13.4207 40.3348 13.4207C41.9659 13.4207 43.6609 14.2032 44.1822 15.8335C44.7035 17.4638 43.1972 20.7576 43.1972 22.7467C43.1963 24.7368 26.9972 23.6811 26.9972 23.6811Z"
        fill="#A3A819" />
    <path
        d="M42.8733 17.3589C42.8733 17.3589 40.5374 16.5023 40.3767 16.9817L40.6125 17.5816L42.5449 17.7624L42.8733 17.3589Z"
        fill="#242B35" />
    <path
        d="M39.8938 14.7906C39.8938 14.7906 40.2684 14.905 40.2684 15.6874C40.2684 16.4698 41.0675 18.9323 41.4098 19.5025C41.7521 20.0727 43.0235 20.2849 43.1868 19.926C43.35 19.5671 41.2875 13.4781 41.002 13.1926C40.7164 12.9071 36.1119 13.3664 35.5732 13.1926C35.0344 13.0188 34.8309 13.0538 34.5541 12.9402C34.2773 12.8258 32.991 12.859 32.929 13.0625C32.867 13.2659 33.7429 13.0581 33.8206 13.1358C33.8983 13.2136 32.8339 13.1847 32.6548 13.3638C32.4758 13.5428 33.845 13.2825 33.845 13.3882C33.845 13.4939 32.6592 13.4982 32.5247 13.6327C32.3903 13.7672 33.7315 13.6895 33.7315 13.7384C33.7315 13.7873 32.4758 14.0807 32.6959 14.2108C32.9159 14.3409 34.0328 13.9008 34.2939 14.023C34.555 14.1453 33.7359 14.4431 33.8538 14.5609C33.9717 14.6788 35.1374 14.2309 35.2151 14.1531C35.2928 14.0754 38.9324 14.9696 39.8938 14.7906Z"
        fill="#FC7575" />
    <path
        d="M37.4322 18.1955L36.5354 20.582L35.8788 23.6837L43.729 21.6657C43.729 21.6657 43.1422 18.0462 42.8733 17.3616C42.8733 17.3616 40.6693 17.4638 40.3767 16.9844C40.3767 16.9844 40.623 18.4985 40.2196 18.6583C39.8161 18.8181 37.4322 18.1955 37.4322 18.1955Z"
        fill="#153E53" />
    <path
        d="M27.9761 21.3287L28.1062 20.5132C28.1062 20.5132 29.4265 19.5675 29.7854 19.4208C30.1443 19.2741 33.404 19.7054 34.4606 19.8067C35.5172 19.908 34.9732 21.1218 35.2081 21.9915C35.443 22.8612 35.1173 23.7301 35.1173 23.7301L27.9761 21.3287Z"
        fill="#C1272D" />
    <path
        d="M39.7803 51.3261C41.7861 52.2063 45.6012 52.0596 45.6012 52.0596C45.6012 52.0596 43.5465 44.7717 43.8399 40.3698C44.1333 35.9679 47.5083 32.3484 46.5303 28.8756C45.6544 25.7661 45.0921 21.5982 45.5112 19.6719C43.2382 20.2019 38.3403 21.2865 36.3075 21.2865C33.6171 21.2865 29.4719 20.5241 28.066 21.2218C27.0278 21.7362 25.1372 21.0053 24.2177 20.587C24.1095 22.3518 24.1767 23.7891 24.1767 23.7891C24.1767 23.7891 25.6437 29.4633 24.7635 31.6149C23.8833 33.7674 22.3665 37.2402 23.5899 40.0764C24.8124 42.9135 24.7556 51.3497 25.0569 51.6518C25.359 51.9531 37.7745 50.4459 39.7803 51.3261Z"
        fill="#456477" />
    <path
        d="M29.2082 44.6722C29.2082 41.7373 26.7099 40.4162 27.7368 33.8129C28.7628 27.2087 24.1723 21.5703 24.1723 21.5703C24.133 22.8557 24.1767 23.7892 24.1767 23.7892C24.1767 23.7892 25.6437 29.4633 24.7635 31.615C23.8833 33.7675 22.3665 37.2403 23.5899 40.0765C24.8124 42.9136 23.3943 49.2226 25.0569 51.6519C26.7117 54.069 37.7736 50.446 39.7794 51.3262C41.7852 52.2064 45.6003 52.0597 45.6003 52.0597C42.964 49.4234 38.3037 50.6878 34.0231 49.6609C29.7426 48.6349 29.2082 47.6071 29.2082 44.6722Z"
        fill="#163D55" />
    <path
        d="M42.3737 24.8916C42.7378 24.1276 43.3299 23.05 43.729 22.375C41.2307 26.0617 41.442 27.1175 41.435 27.1332C41.4603 27.8676 41.8978 28.6744 42.3344 29.5965C42.5842 30.124 43.1072 31.3115 43.0714 31.894C42.9343 34.0473 39.279 37.7306 38.1648 39.739C39.2685 37.9934 43.7333 33.4754 43.3421 31.5176C42.9125 29.5459 41.5206 27.9846 41.6551 26.8721C41.6821 26.6485 42.1214 25.4191 42.3737 24.8916Z"
        fill="#163D55" />
    <path d="M39.0948 40.2734C39.0948 40.2734 41.6874 45.2621 41.6874 48.3926L39.0948 40.2734Z"
        fill="#163D55" />
    <path
        d="M28.824 23.2969C29.7671 24.6582 31.7597 27.9642 31.2681 29.5657C31.2367 29.6496 31.2175 29.7395 31.0786 30.053C30.4159 31.4964 29.237 32.3714 29.7182 34.6191C29.8526 35.2417 31.7239 41.762 33.1281 47.7034C31.3668 42.1602 29.3505 34.7675 29.3872 34.9055C28.6223 32.1679 30.5154 30.9786 30.9983 29.3797C31.3729 27.9258 29.588 24.5927 28.824 23.2969Z"
        fill="#163D55" />
    <path
        d="M45.4309 51.4293C45.4143 51.3665 45.3977 51.3001 45.3794 51.2294C43.7238 51.2381 41.5765 51.1612 40.4239 50.7639C38.3866 50.0627 32.2112 50.0331 30.8438 50.4513C29.7068 50.7989 26.4558 51.0547 26.1048 50.0243C25.7459 48.9721 25.8393 42.1618 25.0552 39.3667C24.2815 36.6108 25.2586 33.7571 25.7695 31.3426C26.2864 28.8959 25.4027 26.7093 25.394 26.6875L25.2132 26.7617C25.222 26.7827 26.083 28.9133 25.5782 31.3016C25.0456 33.8217 24.085 36.6326 24.8674 39.4191C25.6472 42.1968 25.5468 48.9904 25.9205 50.0872C26.3283 51.2826 29.6998 51.0067 30.9023 50.6382C32.1152 50.2671 38.2268 50.2138 40.361 50.9482C41.504 51.3429 43.6268 51.4407 45.4309 51.4293Z"
        fill="#9DBE7C" />
    <path
        d="M24.2177 20.587C24.2177 20.587 23.4274 22.8486 23.7855 24.1855C24.1444 25.5224 24.8482 27.2244 24.8482 27.2244C24.8482 27.2244 29.3444 26.1372 33.5839 25.7128C37.8225 25.2893 45.3287 27.1309 45.967 25.5984C46.6045 24.0659 45.5103 19.6719 45.5103 19.6719L24.2177 20.587Z"
        fill="#D9E021" />
    <path
        d="M25.3022 24.767C25.4586 24.6727 25.8218 24.533 25.9921 24.4693C30.6944 22.7578 35.9922 23.5402 35.6691 23.5061C45.0859 24.6797 46.628 26.2864 44.6598 20.8594C46.2761 24.5173 45.712 24.9923 43.0688 24.8587C39.2668 24.6954 36.2315 23.5175 31.909 23.6589C29.9076 23.7305 27.5604 23.9785 25.6507 24.6299C25.5328 24.6719 25.4131 24.7103 25.3022 24.767Z"
        fill="#F0F3A6" />
    <path d="M25.5398 26.9531H25.2612V27.5819H25.5398V26.9531Z" fill="#2E4A12" />
    <path
        d="M25.1626 27.2266V28.5591H25.6385V27.2266H25.1626ZM25.5398 28.4168H25.2613V27.2851H25.5398V28.4168Z"
        fill="#8DA394" />
    <path d="M25.4621 27.0469H25.3398V27.4346H25.4621V27.0469Z" fill="#8DA394" />
    <path
        d="M24.7844 22.3125C24.7844 22.3125 25.2691 22.8181 25.2245 22.9648C25.18 23.1115 24.5399 22.6024 24.5399 22.6024L24.7844 22.3125Z"
        fill="#CE4949" />
    <path
        d="M29.808 19.7044C29.808 19.8807 29.1784 19.2538 29.1784 19.2538C29.1287 19.2337 29.3601 19.3263 28.6894 19.0582C28.7776 19.1167 29.1418 19.3455 29.2553 19.459C29.3758 19.5795 29.6281 19.7288 29.5784 19.8947C29.5303 20.0615 28.9584 19.5384 28.8361 19.4904C28.7331 19.4494 28.4502 19.3035 28.3637 19.259C28.5008 19.3341 29.1627 19.7026 29.0562 19.8083C28.9374 19.927 28.2083 19.5716 27.976 19.5315C27.8625 19.5114 27.6337 19.5035 27.4206 19.5472C27.3281 19.5655 26.3378 19.9069 26.2261 19.948C26.2654 19.6563 26.3344 19.3568 26.4522 19.1935C26.7334 18.8023 28.176 18.7168 28.2493 18.6434C28.3227 18.5701 29.7495 18.8966 29.7495 19.0433C29.7495 19.1804 29.1793 19.0049 29.0736 18.9752C29.1994 19.0721 29.808 19.4616 29.808 19.7044Z"
        fill="#FC7575" />
    <path
        d="M26.1702 20.7393C26.1702 20.7393 26.1702 20.3463 26.2252 19.9411C26.481 19.8495 26.8146 19.7377 27.1857 19.6172C27.0661 19.6757 26.9735 19.7621 26.9447 19.8888C26.8635 20.245 26.1702 20.7393 26.1702 20.7393Z"
        fill="#FC7575" />
    <path
        d="M29.4404 19.9005C29.0204 20.1607 27.866 20.6366 27.0775 21.0584C27.0705 21.0619 27.0627 21.0663 27.0557 21.0697C26.6418 21.2924 26.3335 21.4994 26.2925 21.6496C26.1702 22.1019 25.7912 22.6031 25.7179 22.9332C25.6445 23.2633 25.1922 23.6912 25.1922 23.4589C25.1922 23.2301 25.4882 22.2905 25.497 22.2608C25.4725 22.2704 24.6901 22.5918 24.6901 22.6887C24.6901 22.7865 25.2402 23.2266 25.1547 23.3122C25.0691 23.3978 24.5006 23.0406 24.4089 22.9795C24.2823 22.8956 24.4089 22.0408 24.4089 21.8198C24.4089 21.5998 25.2525 20.3895 25.7904 20.1206C25.8768 20.0778 26.0279 20.0175 26.2244 19.9468C26.6051 19.8097 27.0688 19.6604 27.4189 19.546C27.6329 19.5023 27.8608 19.5102 27.9743 19.5303C28.2066 19.5704 28.9357 19.9258 29.0545 19.8071C29.161 19.7014 28.4991 19.3329 28.362 19.2578C28.4485 19.3023 28.7314 19.4482 28.8344 19.4892C28.9252 19.525 29.2501 19.8106 29.4404 19.9005Z"
        fill="#E55555" />
    <path
        d="M37.4322 18.1875L37.1047 20.0291C37.1047 20.0291 35.6787 20.016 34.1524 20.016C32.2959 20.016 30.1146 19.6694 29.5819 19.8248C29.5592 19.6859 29.3575 19.5602 29.2545 19.4572C29.1689 19.3707 28.7672 19.114 28.631 19.0249C28.6406 19.0214 28.7978 19.1061 28.8074 19.1035L29.1785 19.252C29.1785 19.252 29.7976 19.8623 29.7819 19.6868C29.7566 19.4109 29.1951 19.0825 29.0292 18.9489C29.0431 18.9446 29.1549 18.9935 29.1689 18.9891C29.3549 19.0459 29.7496 19.1524 29.7496 19.0406C29.7496 19.0005 29.4003 18.8712 29.2405 18.8154C29.6186 18.694 29.9853 18.556 30.2211 18.5001C31.4008 18.2216 37.4322 18.1875 37.4322 18.1875Z"
        fill="#E55555" />
    <path d="M34.0895 18.1016L34.155 20.1039L37.1047 20.0357L37.4322 18.1941L34.0895 18.1016Z"
        fill="#153E53" />
    <path
        d="M39.3036 17.0698C39.3464 17.0262 39.6485 15.3016 39.6485 15.3016C39.6485 15.3016 39.824 14.0179 39.521 13.873C39.218 13.728 38.4557 13.1639 37.9038 13.2713C37.3528 13.3787 37.0175 13.6311 36.9747 13.6739C36.9319 13.7175 36.6979 14.4231 36.6979 14.4231C36.6979 14.4231 36.8227 14.1751 37.0603 14.9418C37.2995 15.7076 39.3036 17.0698 39.3036 17.0698Z"
        fill="#381A3F" />
    <path
        d="M37.9047 17.2985C38.0094 17.4879 38.2653 18.6703 37.9169 19.1619C37.8104 19.3121 40.1899 19.8631 39.9663 18.5445C39.7419 17.226 39.3184 15.7109 39.3184 15.7109L37.9047 17.2985Z"
        fill="#FC7575" />
    <path
        d="M38.0863 18.5838C38.8032 18.4581 39.4852 17.4521 39.5594 16.6409C39.5585 16.6392 39.5585 16.6374 39.5585 16.6357C39.5568 16.6296 39.5559 16.6243 39.5542 16.6182C39.4406 16.158 39.3481 15.8192 39.3245 15.7336C39.3228 15.7284 39.3228 15.7267 39.3219 15.7232C39.3201 15.7171 39.3184 15.7109 39.3184 15.7109L37.9055 17.2985C37.9789 17.4321 38.1256 18.0547 38.0863 18.5838Z"
        fill="#FD5E5A" />
    <path
        d="M39.1463 14.4932C39.4502 14.9735 39.6476 15.9305 39.3079 16.761C38.9682 17.5914 38.377 18.1101 37.8304 17.8481C37.2838 17.5862 36.7013 15.3202 36.9301 14.6539C37.1589 13.9876 38.6835 13.7606 39.1463 14.4932Z"
        fill="#FC7575" />
    <path
        d="M39.5742 16.7019C39.5742 16.7019 39.5349 15.9274 39.7751 15.6846C40.0152 15.4419 40.1174 15.303 40.1156 15.0271C40.1139 14.7512 40.9985 14.3731 40.7636 13.9696C40.5287 13.5662 39.769 13.5199 39.2555 12.8414C38.7421 12.1629 38.2653 11.8302 37.4663 12.2922C36.6673 12.7541 36.6542 13.3243 36.6542 13.3243C36.6542 13.3243 36.2647 13.3383 36.1259 13.8596C35.987 14.3809 36.2045 14.6123 36.3957 14.8009C36.3957 14.8009 36.2429 14.1862 36.4551 14.1844C36.6673 14.1827 36.5948 14.9118 36.5948 14.9118C36.5948 14.9118 36.8507 14.5826 37.0978 14.1067C37.3449 13.6299 37.3571 14.1216 37.3606 14.6569C37.3641 15.1913 37.9937 14.5494 38.2434 14.1076C38.4932 13.6657 39.0206 13.9129 39.2913 14.4027C39.5629 14.8926 38.9988 15.8785 39.5742 16.7019Z"
        fill="#653870" />
    <path
        d="M39.1481 15.35C39.1481 15.35 39.3446 14.7475 39.5463 14.9466C39.748 15.1457 39.755 15.8713 39.424 15.9508C39.0939 16.0303 39.1481 15.35 39.1481 15.35Z"
        fill="#FC7575" />
    <path
        d="M39.3254 15.36C39.3254 15.36 39.2538 15.0517 39.4354 15.119C39.617 15.1871 39.5515 15.7224 39.4005 15.7451C39.2494 15.7678 39.3254 15.36 39.3254 15.36Z"
        fill="#FD5E5A" />
    <path
        d="M37.592 15.5859C37.5623 15.7405 37.5518 15.8986 37.5579 16.0557C37.5737 16.3954 37.6523 16.5255 37.6575 16.5456C37.6924 16.5308 37.7876 16.4941 37.909 16.4303C37.8252 16.4461 37.7439 16.4661 37.6627 16.4888L37.6942 16.5037C37.6226 16.2094 37.6208 15.8977 37.592 15.5859Z"
        fill="#172866" />
    <path
        d="M38.4347 16.7905C38.4496 16.7442 38.3806 16.7215 38.3658 16.7669C38.3605 16.7817 38.2391 17.1284 37.8829 17.131C37.8628 17.131 37.8462 17.1476 37.8462 17.1677C37.8471 17.2742 38.2959 17.1799 38.4347 16.7905Z"
        fill="#172866" />
    <path
        d="M38.0147 15.5748C38.0155 15.6718 38.0705 15.7504 38.1395 15.7495C38.2076 15.7495 38.2627 15.67 38.2618 15.5731C38.2609 15.4762 38.205 15.3976 38.1369 15.3984C38.0679 15.3993 38.0138 15.4779 38.0147 15.5748Z"
        fill="#2846A6" />
    <path
        d="M37.0873 15.6373C37.0882 15.7343 37.144 15.8129 37.2122 15.812C37.2803 15.812 37.3353 15.7325 37.3344 15.6356C37.3335 15.5387 37.2777 15.4601 37.2095 15.4609C37.1414 15.4618 37.0864 15.5404 37.0873 15.6373Z"
        fill="#2846A6" />
    <path
        d="M38.4801 15.2296C38.4801 15.2296 38.2924 15.0061 38.0522 15.0078C37.8121 15.0096 37.9213 15.1973 37.9771 15.1964C38.0339 15.1956 38.4801 15.1798 38.4801 15.2296Z"
        fill="#172866" />
    <path
        d="M37.2995 15.0547C37.2995 15.0547 37.0428 15.1988 37.0166 15.3411C37.0166 15.3411 37.3004 15.2529 37.3388 15.1708C37.3772 15.0887 37.2995 15.0547 37.2995 15.0547Z"
        fill="#172866" />
    <path
        d="M31.1161 18.585L29.5775 19.8975L29.5085 20.3306L34.1549 20.1027C34.1549 20.1027 33.9489 19.0941 32.5517 18.7029C31.1546 18.3117 31.1161 18.585 31.1161 18.585Z"
        fill="#C1272D" />
    <path
        d="M33.4826 14.9108C33.4826 14.9108 34.7051 16.3211 34.5217 17.2406C34.3384 18.1609 35.3286 19.2245 35.6953 18.8578C36.0621 18.491 35.622 18.188 35.622 18.188C35.622 18.188 36.5756 18.4316 36.4411 18.9329C36.3066 19.4332 35.7608 19.531 35.7608 19.531C35.7608 19.531 36.5887 19.4821 36.3319 20.2645C36.0752 21.0469 35.229 22.0494 34.2213 21.4993C33.2136 20.9491 32.4312 18.5347 31.1171 18.581C29.8029 18.6272 31.4524 13.8856 33.4826 14.9108Z"
        fill="#00147D" />
    <path
        d="M32.1675 19.1869C32.1963 18.9808 32.26 18.7922 32.3028 18.4839C32.364 18.0447 32.4321 17.7181 32.4321 17.7181L31.4025 17.2422C31.4025 17.2422 31.2384 17.953 31.1179 18.5171C31.0393 18.8882 32.1492 19.3222 32.1675 19.1869Z"
        fill="#FC7575" />
    <path
        d="M31.4035 17.2422C31.4035 17.2422 31.3764 17.3679 31.3345 17.5627C31.4174 17.6945 31.5371 17.8342 31.703 18.0124C31.8689 18.1905 32.0811 18.3608 32.3029 18.4839C32.364 18.0447 32.4321 17.7181 32.4321 17.7181L31.4035 17.2422Z"
        fill="#FD5E5A" />
    <path
        d="M33.9044 15.6944C33.9044 15.6944 32.9988 16.6419 32.6548 16.7371C32.3107 16.8322 31.5493 16.9589 31.5493 16.9589C31.5493 16.9589 31.1642 18.2678 31.117 18.5839C31.117 18.5839 29.7749 18.3927 30.5425 16.1538C30.835 15.3006 30.9782 14.754 31.8933 14.4615C32.8085 14.1681 33.6939 14.8265 33.9044 15.6944Z"
        fill="#00147D" />
    <path
        d="M33.2713 15.3474C33.2713 15.3474 33.8258 15.5972 33.8389 16.0477C33.8511 16.4983 33.7236 16.7105 33.7297 16.9279C33.7358 17.1454 33.6729 17.5436 33.3586 18.1365C33.0442 18.7294 32.2094 18.2972 31.7536 17.8081C31.2402 17.2571 31.2026 17.1 31.2803 16.2966C31.358 15.4932 32.3858 14.923 33.2713 15.3474Z"
        fill="#FC7575" />
    <path
        d="M33.0984 17.4388C33.0949 17.3698 33.1805 17.4589 33.3586 17.2555C33.3062 17.1524 33.2835 17.0293 33.287 16.9219C33.3219 17.1437 33.4267 17.2397 33.4398 17.2607C33.4337 17.2659 33.2931 17.4615 33.1333 17.4711C33.1141 17.4711 33.0992 17.4572 33.0984 17.4388Z"
        fill="#172866" />
    <path
        d="M32.5518 16.9524C32.6574 16.9803 32.7666 16.9864 32.8757 16.9716C32.9325 16.962 32.9814 16.9471 33.032 16.9314C33.0827 16.9148 33.1325 16.8974 33.1831 16.872C33.1281 16.8633 33.0731 16.8677 33.0198 16.8747C32.9665 16.8808 32.9142 16.8991 32.8653 16.9087C32.7648 16.9288 32.6592 16.9375 32.5518 16.9524Z"
        fill="#00115B" />
    <path
        d="M33.349 16.8863C33.4241 16.9134 33.5053 16.9256 33.5909 16.9221C33.6354 16.9186 33.6747 16.9116 33.7158 16.9029C33.7568 16.8942 33.797 16.8845 33.8389 16.8688C33.7987 16.8592 33.7568 16.8584 33.7149 16.8601C33.673 16.861 33.6311 16.8715 33.5926 16.8749C33.514 16.8828 33.4328 16.8828 33.349 16.8863Z"
        fill="#00115B" />
    <path
        d="M33.1403 16.4356L33.0862 16.557C33.0862 16.557 32.7675 16.4889 32.6243 16.5963C32.6243 16.5963 32.8749 16.3169 33.1403 16.4356Z"
        fill="#00115B" />
    <path
        d="M33.8084 16.4266L33.7787 16.5349C33.7787 16.5349 33.494 16.4904 33.3586 16.596C33.3595 16.596 33.5752 16.3323 33.8084 16.4266Z"
        fill="#00115B" />
    <path
        d="M33.8572 14.9853C33.8572 14.9853 34.3051 15.1023 34.2073 15.5398C34.1095 15.9773 32.9682 16.4096 32.2295 16.2498C31.9527 16.1895 31.9422 16.358 31.8243 16.4576C31.6287 16.6235 31.4558 16.8331 31.592 17.1946C31.8103 17.7735 32.0741 17.5019 32.0741 17.5019C32.0741 17.5019 31.8322 17.8198 31.1904 17.5805C30.5494 17.3413 30.5311 16.3572 31.0559 15.8297C31.5807 15.3014 32.1003 15.077 32.5159 14.9722C33.4188 14.7461 33.8572 14.9853 33.8572 14.9853Z"
        fill="#2846A6" />
    <path
        d="M31.5886 16.3052C31.6654 16.3122 31.9789 16.568 31.8733 16.8003C31.7685 17.0326 31.6812 17.0439 31.4768 16.9156C31.2725 16.7872 31.3948 16.2868 31.5886 16.3052Z"
        fill="#FC7575" />
    <path
        d="M31.7868 16.6377C31.7868 16.6377 31.6392 16.4212 31.5502 16.5164C31.462 16.6115 31.4768 16.7871 31.5868 16.8517C31.6969 16.9163 31.8872 16.7679 31.7868 16.6377Z"
        fill="#FD5E5A" />
    <path
        d="M33.2259 17.9211C33.2259 18.011 33.1674 18.0844 33.0958 18.0844C33.0242 18.0844 32.9657 18.011 32.9657 17.9211C32.9657 17.8312 33.0242 17.7578 33.0958 17.7578C33.1674 17.7578 33.2259 17.8312 33.2259 17.9211Z"
        fill="#172866" />
    <path
        d="M32.2427 17.1691C32.2322 17.2774 32.3623 17.3787 32.5334 17.3953C32.7046 17.4119 32.8513 17.3368 32.8618 17.2285C32.8722 17.1202 32.7421 17.0189 32.571 17.0023C32.3998 16.9857 32.2531 17.06 32.2427 17.1691Z"
        fill="#FD5E5A" />
    <path
        d="M33.459 17.3404C33.4677 17.2478 33.5751 17.1806 33.7122 17.1719C33.6965 17.2749 33.6677 17.3963 33.6214 17.536C33.5184 17.495 33.4511 17.4199 33.459 17.3404Z"
        fill="#FD5E5A" />
    <path
        d="M46.1689 47.5753C46.1689 47.5753 44.5194 48.7341 45.0407 49.2554C45.562 49.7767 45.6179 50.3295 45.9663 50.677C46.3138 51.0245 47.8507 50.4447 48.0533 49.8361C48.2559 49.2275 47.6778 47.0418 46.1689 47.5753Z"
        fill="#6D737C" />
    <path
        d="M46.4002 47.8659C46.4002 47.8659 46.0719 48.6195 46.0719 48.9968C46.0719 49.3731 46.526 49.7215 46.8543 49.7696C47.1826 49.8176 47.5695 49.4989 47.6463 49.0736C47.724 48.6492 47.1058 47.3831 46.4002 47.8659Z"
        fill="#A7AEB7" />
    <path
        d="M45.2118 46.9785C45.2118 46.9785 44.4198 47.4964 44.8547 47.7592C45.2895 48.022 45.8886 47.8579 46.1689 47.5776C46.4492 47.2973 45.8789 46.7663 45.2118 46.9785Z"
        fill="#A7AEB7" />
    <path
        d="M45.0284 44.8359C45.0284 44.8359 44.2172 45.1451 44.6224 45.5511C45.0284 45.9563 45.7244 44.8359 45.0284 44.8359Z"
        fill="#494D53" />
    <path
        d="M23.1324 43.5391C23.1324 43.5391 21.9169 43.732 22.4006 44.2149C22.8835 44.6987 23.7873 43.5391 23.1324 43.5391Z"
        fill="#494D53" />
    <path
        d="M23.7725 42.9996C23.7725 42.9996 23.3236 42.4005 23.1324 42.7673C22.9412 43.1349 23.4625 43.534 23.7725 42.9996Z"
        fill="#494D53" />
    <path
        d="M23.5593 45.391C23.5593 45.391 22.2644 45.3525 22.9987 46.0869C23.734 46.8204 24.3907 45.5455 23.5593 45.391Z"
        fill="#494D53" />
    <path d="M22.0118 21.5665L21.7716 21.4688L15.8584 36L16.0986 36.0978L22.0118 21.5665Z"
        fill="#600202" />
    <path d="M21.9464 21.5578L21.8429 21.5156L15.9249 36.0469L16.0285 36.0891L21.9464 21.5578Z"
        fill="#9E0D0D" />
    <path d="M16.2199 35.9385L15.8722 35.7969L15.4084 36.9355L15.7562 37.0771L16.2199 35.9385Z"
        fill="#2F2C35" />
    <path d="M15.7094 37.0509L15.4692 36.9531L15.385 37.1602L15.6252 37.2579L15.7094 37.0509Z"
        fill="#070707" />
    <path d="M14.7817 39.2382L14.6115 39.1683L15.3257 37.125L15.6986 37.2761L14.7817 39.2382Z"
        fill="#2F2C35" />
    <path d="M14.5023 39.6923L14.6281 39.1797L14.7643 39.2356L14.5023 39.6923Z" fill="#595563" />
    <path
        d="M23.3734 18.4785C23.273 18.6479 23.1962 18.8479 23.1962 18.8479C23.1289 19.3028 22.8224 19.7421 22.8224 19.7421C22.598 20.1132 22.5456 20.4939 22.5456 20.4939C22.4915 20.9043 22.3099 21.2536 22.3099 21.2536L21.9964 21.6186L21.7562 21.5208L21.7676 21.0641L22.8975 17.7109L23.7227 18.0471L23.6389 18.2541C23.5551 18.2191 23.4564 18.3388 23.3734 18.4785Z"
        fill="#070707" />
    <path
        d="M22.3107 21.2586C21.9134 21.0158 22.3736 19.7654 22.7482 19.093C22.9936 18.6529 23.2354 18.5219 23.3743 18.4844C23.2739 18.6538 23.197 18.8537 23.197 18.8537C23.1298 19.3087 22.8233 19.7479 22.8233 19.7479C22.5989 20.119 22.5465 20.4998 22.5465 20.4998C22.4915 20.9093 22.3107 21.2586 22.3107 21.2586Z"
        fill="#DB0707" />
    <path
        d="M23.0048 18.9051C23.1044 18.7261 23.2039 18.5986 23.2956 18.5078C23.1541 18.5698 22.9515 18.7218 22.7472 19.0885C22.3726 19.7609 21.9124 21.0122 22.3097 21.2541C22.3097 21.2541 22.3813 21.1161 22.4477 20.9118C22.2984 20.4865 22.6835 19.4832 23.0048 18.9051Z"
        fill="#910707" />
    <path
        d="M15.8506 36.4561C15.7502 36.7041 15.6349 36.891 15.5947 36.8744C15.5546 36.8578 15.6026 36.6439 15.7039 36.3959C15.8052 36.1479 15.9196 35.961 15.9597 35.9776C15.9999 35.9942 15.951 36.209 15.8506 36.4561Z"
        fill="#595563" />
    <path d="M22.6131 18.0899L22.3729 17.9922L16.4597 32.5235L16.6999 32.6212L22.6131 18.0899Z"
        fill="#600202" />
    <path d="M22.5477 18.0812L22.4442 18.0391L16.5263 32.5703L16.6298 32.6125L22.5477 18.0812Z"
        fill="#9E0D0D" />
    <path d="M16.8223 32.4619L16.4746 32.3203L16.0108 33.4589L16.3586 33.6006L16.8223 32.4619Z"
        fill="#2F2C35" />
    <path d="M16.3109 33.5744L16.0707 33.4766L15.9864 33.6836L16.2265 33.7814L16.3109 33.5744Z"
        fill="#070707" />
    <path d="M15.3834 35.7616L15.2123 35.6926L15.9266 33.6484L16.2994 33.8004L15.3834 35.7616Z"
        fill="#2F2C35" />
    <path d="M15.104 36.2148L15.2297 35.7031L15.366 35.7581L15.104 36.2148Z" fill="#595563" />
    <path
        d="M23.9751 15.0019C23.8747 15.1713 23.7978 15.3713 23.7978 15.3713C23.7306 15.8263 23.4241 16.2655 23.4241 16.2655C23.1997 16.6366 23.1473 17.0173 23.1473 17.0173C23.0932 17.4277 22.9115 17.777 22.9115 17.777L22.598 18.142L22.3579 18.0442L22.3693 17.5875L23.4992 14.2344L24.3244 14.5706L24.2397 14.7775C24.1567 14.7435 24.0572 14.8622 23.9751 15.0019Z"
        fill="#070707" />
    <path
        d="M22.9114 17.782C22.5141 17.5393 22.9743 16.2888 23.3489 15.6164C23.5934 15.1763 23.8361 15.0454 23.975 15.0078C23.8746 15.1772 23.7977 15.3772 23.7977 15.3772C23.7305 15.8321 23.424 16.2714 23.424 16.2714C23.1996 16.6425 23.1472 17.0232 23.1472 17.0232C23.093 17.4336 22.9114 17.782 22.9114 17.782Z"
        fill="#DB0707" />
    <path
        d="M23.6056 15.4294C23.7052 15.2504 23.8047 15.1229 23.8964 15.0312C23.755 15.0932 23.5524 15.2452 23.348 15.6119C22.9734 16.2843 22.5132 17.5357 22.9106 17.7775C22.9106 17.7775 22.9822 17.6396 23.0485 17.4352C22.9001 17.0108 23.2843 16.0075 23.6056 15.4294Z"
        fill="#910707" />
    <path
        d="M16.4523 32.9795C16.3519 33.2275 16.2366 33.4144 16.1964 33.3978C16.1563 33.3812 16.2052 33.1673 16.3056 32.9193C16.406 32.6713 16.5213 32.4844 16.5614 32.501C16.6016 32.5176 16.5527 32.7316 16.4523 32.9795Z"
        fill="#595563" />
    <path
        d="M47.0333 18.3568C47.0333 18.3568 46.9652 17.8268 46.6028 17.7656L46.3444 18.0189L46.96 18.3917L47.0333 18.3568Z"
        fill="#36414F" />
    <path
        d="M49.1054 17.2739C49.1054 17.2739 49.308 18.2589 49.3866 18.5802C49.4652 18.9016 50.5323 19.085 51.0396 19.498C51.5469 19.9101 51.099 20.6489 51.099 20.6489L48.9736 20.9056L47.7554 20.4742C47.7554 20.4742 46.8508 20.5782 46.5582 20.4009C46.2657 20.2236 46.5801 18.2999 46.8394 18.2362C47.0987 18.1724 48.1274 17.9856 48.3693 17.5856C48.612 17.1857 49.1054 17.2739 49.1054 17.2739Z"
        fill="#485669" />
    <path
        d="M49.3762 19.0057C48.7344 18.6171 48.6313 18.1037 48.3833 17.8749C48.1965 17.7037 47.7555 18.2477 46.8395 18.2416C47.1958 18.1316 47.6786 17.9037 47.9441 17.7535C48.0533 17.7116 48.1799 17.557 48.4078 17.6426C48.6305 17.7282 48.7955 18.1211 48.9134 18.3508C49.0391 18.5796 49.1946 18.7987 49.3762 19.0057Z"
        fill="#36414F" />
    <path d="M49.4888 18.5547L48.8199 18.8935L48.8715 18.9992L49.5762 18.6691L49.4888 18.5547Z"
        fill="#F3EEB5" />
    <path d="M49.6468 18.7422L49.0557 19.1098L49.1264 19.1517L49.8005 18.8347L49.6468 18.7422Z"
        fill="#F3EEB5" />
    <path
        d="M47.9275 20.1034C48.0821 20.0658 48.7754 20.5094 49.0645 20.6221C49.2723 20.7024 50.6004 20.2937 51.272 20.1505C51.3112 20.4457 51.2126 20.6343 51.2126 20.6343L48.944 20.9382L47.7546 20.4745C47.7546 20.4745 46.85 20.5784 46.5574 20.4011C46.478 20.3531 46.4439 20.1776 46.4404 19.9453C47.0342 19.9532 47.8254 20.1278 47.9275 20.1034Z"
        fill="#D87306" />
    <path
        d="M49.9281 19.2812C50.7376 19.386 51.2047 19.9266 50.9882 20.0462C50.7306 20.1885 50.9882 19.6096 49.9281 19.2812Z"
        fill="#6D7887" />
    <path
        d="M30.6263 11.3516H31.6217V11.6292L30.9625 12.4099H31.6217V12.6623H30.6071V12.3697L31.2576 11.6039H30.6263V11.3516Z"
        fill="#FFA7E7" />
    <path
        d="M30.0379 3.625H31.504V4.03367L30.5321 5.18283H31.504V5.55482H30.009V5.12432L30.967 3.99612H30.0379V3.625Z"
        fill="#FFA7E7" />
    <path
        d="M31.9852 7.88281H32.3999V7.99808L32.1249 8.32292H32.3999V8.42858H31.9773V8.3072L32.248 7.98847H31.9852V7.88281Z"
        fill="#FFA7E7" />
    <path
        d="M33.8477 9.52344H34.2625V9.63871L33.9883 9.96354H34.2625V10.0692H33.8398V9.94782L34.1106 9.6291H33.8477V9.52344Z"
        fill="#FFA7E7" />
    <path
        d="M34.7165 0.429688H35.1313V0.544959L34.8562 0.869794H35.1313V0.97545H34.7086V0.854082L34.9793 0.535354H34.7165V0.429688Z"
        fill="#FFA7E7" />
    <defs>
        <linearGradient id="paint0_linear_5640_4894" x1="33.0459" y1="15.6729" x2="42.9011"
            y2="-2.87808" gradientUnits="userSpaceOnUse">
            <stop stop-color="#4B7D7B" />
            <stop offset="1" stop-color="#D17A66" />
        </linearGradient>
        <linearGradient id="paint1_linear_5640_4894" x1="34.1311" y1="13.0917" x2="34.479"
            y2="0.222012" gradientUnits="userSpaceOnUse">
            <stop stop-color="#4B7D7B" />
            <stop offset="1" stop-color="#D17A66" />
        </linearGradient>
        <linearGradient id="paint2_linear_5640_4894" x1="45.0595" y1="9.24205" x2="27.6679"
            y2="17.7059" gradientUnits="userSpaceOnUse">
            <stop stop-color="#4B7D7B" />
            <stop offset="1" stop-color="#D17A66" />
        </linearGradient>
    </defs>
</svg>
    