<svg width="70" height="56" viewBox="0 0 70 56" fill="none" xmlns="http://www.w3.org/2000/svg">
    <path
        d="M16.821 12.4922C16.821 12.4922 15.813 18.2273 15.813 23.1469C15.813 28.0658 17.3278 33.3592 19.8667 35.8974C22.4049 38.4356 26.0057 42.6265 26.0057 42.6265C26.0057 42.6265 24.5497 29.9943 22.5036 23.7762C20.4575 17.5581 16.821 12.4922 16.821 12.4922Z"
        fill="url(#paint0_linear_5640_5570)" />
    <path
        d="M10.1458 17.2031C10.1458 17.2031 11.1104 29.5476 12.8247 33.6461C16.0034 41.2453 26.0057 42.625 26.0057 42.625C26.0057 42.625 21.413 25.1068 10.1458 17.2031Z"
        fill="url(#paint1_linear_5640_5570)" />
    <path
        d="M22.8585 32.0709C25.4555 41.201 25.928 42.0669 25.928 42.0669C25.928 42.0669 31.0443 30.2607 29.5484 22.5474C28.0532 14.8341 26.5573 9.79688 26.5573 9.79688C26.5573 9.79688 20.2608 22.9408 22.8585 32.0709Z"
        fill="url(#paint2_linear_5640_5570)" />
    <path
        d="M39.4093 19.7969C39.4093 19.7969 40.9584 27.8819 37.2421 35.3985C33.5258 42.9151 25.9546 42.6022 25.9546 42.6022C25.9546 42.6022 26.1807 37.446 29.7346 32.7721C33.2885 28.0982 38.4776 22.8384 39.4093 19.7969Z"
        fill="url(#paint3_linear_5640_5570)" />
    <path
        d="M26.1044 42.6213C26.1044 42.6213 22.8242 38.1924 16.8896 36.574C10.955 34.9556 5.39697 35.7648 5.39697 35.7648C5.39697 35.7648 13.5681 44.1004 26.1044 42.6213Z"
        fill="url(#paint4_linear_5640_5570)" />
    <path
        d="M25.9546 42.5992C25.9546 42.5992 32.6326 39.7796 36.1291 36.7262C39.6256 33.6728 40.3599 29.5078 40.3599 29.5078C40.3599 29.5078 32.2553 31.3257 29.5379 33.6994C26.8205 36.0717 25.9546 42.5992 25.9546 42.5992Z"
        fill="url(#paint5_linear_5640_5570)" />
    <path
        d="M34.8173 20.6484C34.8173 20.6484 36.5603 31.5936 34.3413 33.8546C32.1223 36.1156 26.1051 42.6291 26.1051 42.6291C26.1051 42.6291 26.8912 25.8879 34.8173 20.6484Z"
        fill="url(#paint6_linear_5640_5570)" />
    <path
        d="M32.4029 12.4922C32.4029 12.4922 35.4052 26.5545 26.1043 42.6265C26.1043 42.6265 20.7528 25.6095 32.4029 12.4922Z"
        fill="url(#paint7_linear_5640_5570)" />
    <path
        d="M38.7016 35.2109C38.7016 35.2109 28.4102 36.9742 26.1051 42.6253C26.1044 42.6253 36.8648 42.2942 38.7016 35.2109Z"
        fill="url(#paint8_linear_5640_5570)" />
    <path
        d="M57.8542 40.9825C57.2648 31.3666 51.4702 19.6094 41.4357 19.6094C34.9712 19.6094 27.8333 31.3736 27.2068 40.9825H57.8542Z"
        fill="#3AB8A5" />
    <path
        d="M57.71 39.3821L53.9167 39.4045L50.1241 39.4129L42.5389 39.4283L34.9537 39.4129L31.1604 39.4045L27.3678 39.3821L31.1604 39.359L34.9537 39.3513L42.5389 39.3359L50.1241 39.3513L53.9167 39.3597L57.71 39.3821Z"
        fill="#3AB8A5" />
    <path
        d="M42.5642 27.7109H39.305C37.3814 27.7109 35.8218 29.2705 35.8218 31.1941V39.4247H46.0481V31.1941C46.0481 29.2705 44.4885 27.7109 42.5642 27.7109Z"
        fill="#48574B" />
    <path d="M41.0507 27.7109H40.819V39.4282H41.0507V27.7109Z" fill="#1D211D" />
    <path
        d="M49.4122 40.9835H27.9425L37.3715 17.7344L44.5248 20.001C44.5248 20.001 46.7116 22.0765 47.7301 25.8768C48.7479 29.6771 49.4122 40.9835 49.4122 40.9835Z"
        fill="#3AB8A5" />
    <path
        d="M56.4689 40.0234C55.5764 40.0234 54.8407 40.4413 54.7378 40.9803H58.2007C58.0964 40.4413 57.3607 40.0234 56.4689 40.0234Z"
        fill="#89768C" />
    <path
        d="M49.4123 40.9835L37.3716 17.7344L44.5249 20.001C44.5249 20.001 46.7117 22.0765 47.7302 25.8768C48.748 29.6771 49.4123 40.9835 49.4123 40.9835Z"
        fill="#61C6B7" />
    <path d="M27.9425 40.9828L40.406 23.5934L37.3715 17.7344L27.9425 40.9828Z" fill="#58938D" />
    <path d="M27.9425 40.9828L40.406 23.5934L37.3715 17.7344L27.9425 40.9828Z" fill="#3AB8A5" />
    <path
        d="M27.9425 40.1406C27.05 40.1406 26.3143 40.5081 26.2114 40.9827H29.6743C29.57 40.5081 28.835 40.1406 27.9425 40.1406Z"
        fill="#89768C" />
    <path d="M51.0117 23.9688L51.7054 24.5119L52.7141 25.534L52.4019 26.0134L51.0117 23.9688Z"
        fill="#3AB8A5" />
    <path
        d="M45.6385 33.5901L42.9225 28.2848L37.3715 17.7344L32.9321 28.6684L30.6732 34.1592L27.9425 40.9828L30.8629 34.1949L33.0735 28.7244L37.3834 17.9724L42.7853 28.3555L45.551 33.6356L48.3363 38.9059L45.6385 33.5901Z"
        fill="#F9A94B" />
    <path
        d="M7.01957 29.1562C7.01957 29.1562 6.58557 31.6259 6.58557 33.7448C6.58557 35.863 7.23797 38.1428 8.33137 39.2356C9.42477 40.329 10.9753 42.1336 10.9753 42.1336C10.9753 42.1336 10.3481 36.6939 9.46677 34.0157C8.58477 31.3382 7.01957 29.1562 7.01957 29.1562Z"
        fill="#44645E" />
    <path
        d="M3.79822 35.3438C3.79822 35.3438 4.23432 38.6436 5.01062 39.7391C6.44912 41.7705 10.9746 42.1394 10.9746 42.1394C10.9746 42.1394 8.89632 37.4564 3.79822 35.3438Z"
        fill="#5B857D" />
    <path
        d="M9.61935 37.5921C10.7379 41.524 10.9409 41.8964 10.9409 41.8964C10.9409 41.8964 13.1438 36.8123 12.4998 33.4908C11.8558 30.1693 11.2118 28 11.2118 28C11.2118 28 8.50075 33.6609 9.61935 37.5921Z"
        fill="#79B2A6" />
    <path
        d="M19.4348 34.7109C19.4348 34.7109 17.7373 37.3597 14.882 39.5696C12.0267 41.7802 10.9746 42.1372 10.9746 42.1372C10.9746 42.1372 10.2123 38.2781 12.4698 37.1378C14.7266 35.9975 18.501 35.7133 19.4348 34.7109Z"
        fill="#79B2A6" />
    <path
        d="M11.0173 42.1335C11.0173 42.1335 9.60468 40.226 7.04898 39.5295C4.49328 38.8323 2.09998 39.1809 2.09998 39.1809C2.09998 39.1809 5.61818 42.7705 11.0173 42.1335Z"
        fill="#5B857D" />
    <path
        d="M16.8406 31.3281C16.8406 31.3281 16.6117 37.2228 15.4147 38.2C14.2177 39.1779 10.9746 42.1354 10.9746 42.1354C10.9746 42.1354 12.5664 33.5947 16.8406 31.3281Z"
        fill="#79B2A6" />
    <path
        d="M13.7298 29.1562C13.7298 29.1562 15.0227 35.212 11.0173 42.1336C11.0173 42.1336 8.7129 34.8053 13.7298 29.1562Z"
        fill="#79B2A6" />
    <path
        d="M21.1904 37.6953C21.1904 37.6953 12.8786 38.7516 11.0173 42.1347C11.0173 42.1347 19.7078 41.9366 21.1904 37.6953Z"
        fill="#79B2A6" />
    <path
        d="M3.11633 39.5625C5.31713 40.1372 9.23993 41.4252 11.0172 42.1357C9.19863 41.6716 5.26603 40.4067 3.11633 39.5625Z"
        fill="#BCE4DC" />
    <path
        d="M5.02808 36.5078C6.06898 37.8497 8.61628 41.216 10.7079 42.1127C8.39928 41.2993 5.88488 37.9428 5.02808 36.5078Z"
        fill="#8DABA5" />
    <path
        d="M36.344 46.4357C53.9087 46.4357 68.1478 45.0037 68.1478 43.2374C68.1478 41.471 53.9087 40.0391 36.344 40.0391C18.7792 40.0391 4.54016 41.471 4.54016 43.2374C4.54016 45.0037 18.7792 46.4357 36.344 46.4357Z"
        fill="#919AA5" />
    <path d="M10.4289 26.258L10.2057 26.2656L10.6651 39.7703L10.8883 39.7627L10.4289 26.258Z"
        fill="#600202" />
    <path d="M10.3661 26.2546L10.2703 26.2578L10.7216 39.7625L10.8174 39.7593L10.3661 26.2546Z"
        fill="#9E0D0D" />
    <path d="M10.9245 39.5906L10.6013 39.6016L10.6373 40.66L10.9605 40.649L10.9245 39.5906Z"
        fill="#2F2C35" />
    <path d="M10.9174 40.6486L10.6942 40.6562L10.7008 40.8486L10.924 40.841L10.9174 40.6486Z"
        fill="#070707" />
    <path d="M10.9718 41.5505L10.9837 40.8281L10.6372 40.84L10.6974 41.5505H10.9718Z" fill="#2F2C35" />
    <path
        d="M10.4062 23.3455C10.3873 23.5135 10.3971 23.6983 10.3971 23.6983C10.5042 24.0798 10.4174 24.5327 10.4174 24.5327C10.3712 24.903 10.4643 25.2215 10.4643 25.2215C10.5658 25.5631 10.5462 25.9012 10.5462 25.9012L10.4279 26.2981L10.2046 26.3058L10.0527 25.9425L9.76221 22.9087L10.5294 22.8828L10.5357 23.0753C10.458 23.0781 10.4216 23.2062 10.4062 23.3455Z"
        fill="#070707" />
    <path
        d="M10.5462 25.8988C10.1486 25.8477 10.0702 24.7024 10.1283 24.0423C10.1661 23.6097 10.311 23.4222 10.4062 23.3438C10.3873 23.5118 10.3971 23.6966 10.3971 23.6966C10.5042 24.0781 10.4174 24.5309 10.4174 24.5309C10.3712 24.9012 10.4643 25.2198 10.4643 25.2198C10.5658 25.5607 10.5462 25.8988 10.5462 25.8988Z"
        fill="#DB0707" />
    <path
        d="M10.2662 23.8057C10.2816 23.63 10.3145 23.4949 10.3551 23.3906C10.2655 23.4893 10.1598 23.6797 10.1283 24.0402C10.0709 24.701 10.1486 25.8462 10.5462 25.8966C10.5462 25.8966 10.5539 25.7629 10.5343 25.5788C10.2669 25.2974 10.2165 24.3734 10.2662 23.8057Z"
        fill="#910707" />
    <path
        d="M10.8143 40.1253C10.822 40.3556 10.7982 40.5432 10.7604 40.5446C10.7226 40.546 10.6855 40.3605 10.6778 40.1302C10.6701 39.8999 10.6939 39.7123 10.7317 39.7109C10.7702 39.7095 10.8066 39.895 10.8143 40.1253Z"
        fill="#595563" />
    <path d="M10.5899 26.274L10.3689 26.2422L8.44603 39.6172L8.66705 39.6489L10.5899 26.274Z"
        fill="#600202" />
    <path d="M10.5303 26.2637L10.4354 26.25L8.5058 39.6236L8.60071 39.6373L10.5303 26.2637Z"
        fill="#9E0D0D" />
    <path d="M8.74185 39.4835L8.42175 39.4375L8.27125 40.4858L8.59136 40.5318L8.74185 39.4835Z"
        fill="#2F2C35" />
    <path d="M8.54133 40.5318L8.32031 40.5L8.29292 40.6905L8.51394 40.7223L8.54133 40.5318Z"
        fill="#070707" />
    <path d="M8.37763 41.731L8.57504 40.7209L8.23203 40.6719L8.13403 41.731H8.37763Z" fill="#2F2C35" />
    <path
        d="M11.0804 23.4097C11.0321 23.5721 11.009 23.7548 11.009 23.7548C11.0475 24.1496 10.8823 24.5801 10.8823 24.5801C10.7717 24.9371 10.8074 25.2661 10.8074 25.2661C10.8473 25.6203 10.7682 25.95 10.7682 25.95L10.582 26.3203L10.3608 26.2888L10.2754 25.9045L10.5225 22.8672L11.282 22.9764L11.2547 23.1668C11.1784 23.1549 11.1203 23.2753 11.0804 23.4097Z"
        fill="#070707" />
    <path
        d="M10.7688 25.9466C10.3859 25.8262 10.5105 24.6852 10.6834 24.0454C10.7968 23.6261 10.9725 23.4664 11.0803 23.4062C11.032 23.5686 11.0089 23.7514 11.0089 23.7514C11.0474 24.1462 10.8822 24.5766 10.8822 24.5766C10.7716 24.9336 10.8073 25.2627 10.8073 25.2627C10.8472 25.6169 10.7688 25.9466 10.7688 25.9466Z"
        fill="#DB0707" />
    <path
        d="M10.8605 23.8458C10.9067 23.675 10.9627 23.5483 11.0208 23.4531C10.9151 23.535 10.7779 23.7037 10.6834 24.0523C10.5105 24.6921 10.3859 25.8331 10.7688 25.9535C10.7688 25.9535 10.7996 25.8233 10.8129 25.6392C10.5994 25.3137 10.7121 24.3953 10.8605 23.8458Z"
        fill="#910707" />
    <path
        d="M8.53163 40.001C8.49873 40.2292 8.44203 40.4091 8.40493 40.4042C8.36783 40.3986 8.36363 40.2096 8.39653 39.9814C8.42943 39.7532 8.48613 39.5733 8.52323 39.5782C8.56103 39.5838 8.56453 39.7728 8.53163 40.001Z"
        fill="#595563" />
    <path
        d="M55.433 27.9037C55.433 27.9037 56.9415 26.0984 55.9783 24.2812L52.3047 27.7707L55.433 27.9037Z"
        fill="#F15A24" />
    <path
        d="M59.9571 43.4275C59.9137 43.4275 59.8703 43.4156 59.8311 43.3911L54.6896 40.1928C54.5776 40.1228 54.5433 39.9758 54.6126 39.8631C54.6826 39.7511 54.8296 39.7161 54.9416 39.7861L60.0831 42.9844C60.1951 43.0544 60.2294 43.2014 60.1601 43.3141C60.1146 43.3876 60.0369 43.4275 59.9571 43.4275Z"
        fill="#563918" />
    <path
        d="M56.2703 43.4339C56.1989 43.4339 56.1282 43.4017 56.0813 43.3415C56.0001 43.2372 56.0197 43.0867 56.124 43.0062L60.2491 39.8079C60.3534 39.7274 60.5039 39.7456 60.5844 39.8506C60.6656 39.9549 60.646 40.1054 60.5417 40.1859L56.4166 43.3842C56.3732 43.4171 56.3214 43.4339 56.2703 43.4339Z"
        fill="#563918" />
    <path
        d="M51.1287 27.7479L50.4609 27.0703C50.4609 27.0703 50.4707 30.697 49.5943 31.1954C48.7172 31.6938 46.2665 32.0123 46.2665 32.0123L46.7047 32.6899C46.7047 32.6899 51.1091 34.1046 52.3642 33.308C53.62 32.5107 51.1287 27.7479 51.1287 27.7479Z"
        fill="#A13210" />
    <path
        d="M56.5895 35.3185C56.5895 35.3185 50.5807 33.0764 48.7873 33.6147C46.9939 34.153 46.1868 34.9895 46.7244 36.2754C47.2627 37.5606 53.002 41.8355 53.1511 42.3437C53.3009 42.8519 51.9856 43.4196 51.9856 43.4196H55.1839C55.1839 43.4196 54.9599 42.1792 54.8549 42.0742C54.7499 41.9692 50.9391 36.813 51.238 36.2747C51.5369 35.7364 56.4096 39.802 57.3658 39.2042C58.3227 38.6064 56.5895 35.3185 56.5895 35.3185Z"
        fill="#36414F" />
    <path
        d="M47.2052 34.3516C45.3663 36.0099 48.0865 37.5744 50.7878 40.1945C50.5239 40.0013 50.2684 39.7983 50.0094 39.5995C47.7337 37.7032 46.0817 36.4712 46.5801 35.1069C46.6998 34.7884 46.9357 34.5343 47.2052 34.3516Z"
        fill="#F9A94B" />
    <path
        d="M58.1735 35.6559C58.1735 35.6559 51.6271 34.1656 49.8932 34.853C48.1593 35.5404 48.6325 36.9369 49.5922 38.4734C50.8634 40.509 52.1066 42.6405 52.1066 42.6405L53.5696 42.1323L51.8203 37.6635C51.8203 37.6635 54.1079 39.6809 55.2139 40.0099C55.2139 40.0099 57.0073 40.3389 57.785 39.9798C58.562 39.6214 59.6386 37.954 59.6386 37.954L58.1735 35.6559Z"
        fill="#616E80" />
    <path
        d="M49.8932 34.8516C47.404 36.0612 49.6335 37.9624 51.8644 42.2261C51.4199 41.5849 50.7878 40.5832 50.6674 40.397C49.2415 38.1682 47.3942 35.7098 49.8932 34.8516Z"
        fill="#F9A94B" />
    <path
        d="M50.461 27.07C50.461 27.07 53.3821 25.9794 54.8465 26.2447C56.3116 26.51 59.1592 33.4267 59.8172 35.659C60.4752 37.8913 60.086 38.6081 60.086 38.6081C60.086 38.6081 57.2461 37.6813 55.6319 36.6649C54.0177 35.6485 52.6128 34.1435 52.6128 34.1435C52.6128 34.1435 49.2955 28.2362 50.461 27.07Z"
        fill="#D87306" />
    <path
        d="M59.8179 35.6589C59.1599 33.4266 56.3122 26.5099 54.8471 26.2446C54.5146 26.1844 54.1059 26.1942 53.674 26.2453C54.2802 27.3912 56.2639 31.3707 55.4988 33.0199C54.6 34.9568 52.9732 34.9274 54.0708 35.2137C54.9486 35.4426 56.9128 37.0253 57.2523 37.5083C58.6586 38.1418 60.0873 38.608 60.0873 38.608C60.0873 38.608 60.4752 37.8905 59.8179 35.6589Z"
        fill="#A25605" />
    <path
        d="M51.7062 28.337C51.8091 28.8151 52.9144 33.7999 54.7113 36.0189C54.838 36.1155 54.9675 36.2106 55.0998 36.3044C55.0998 36.3044 53.4513 34.8919 51.8889 28.2384C51.8798 28.2223 51.1581 27.5215 50.9229 26.9062C50.8585 26.9279 50.7997 26.9475 50.7472 26.9657C50.8655 27.2919 51.128 27.7546 51.7062 28.337Z"
        fill="#694D0D" />
    <path
        d="M42.9492 31.9531H45.6393L45.577 34.5389C45.57 34.8217 45.339 35.0471 45.0569 35.0471H43.582C43.3034 35.0471 43.0738 34.828 43.0619 34.5494L42.9492 31.9531Z"
        fill="#ADACCF" />
    <path
        d="M45.0696 31.9531L45.015 34.212C45.008 34.4948 44.777 34.7202 44.4949 34.7202H43.1005C43.1775 34.912 43.3637 35.0471 43.5821 35.0471H45.057C45.3398 35.0471 45.5708 34.8217 45.5771 34.5389L45.6394 31.9531H45.0696Z"
        fill="#5E5186" />
    <path
        d="M51.1085 27.5066C51.1085 27.5066 50.1222 27.4366 49.7533 27.0684C49.3844 26.6995 49.9227 26.1017 49.6336 25.8126C49.3445 25.5235 50.58 24.1585 52.7178 23.959C54.8556 23.7595 55.9315 23.5607 56.0113 24.4574C56.0911 25.3541 53.9288 26.3138 53.9288 26.3138L51.1085 27.5066Z"
        fill="#4F002F" />
    <path
        d="M60.5451 40.2406H54.5517C54.4138 40.2406 54.3025 40.1293 54.3025 39.9914C54.3025 39.8535 54.4138 39.7422 54.5517 39.7422H60.5451C60.683 39.7422 60.7943 39.8535 60.7943 39.9914C60.7943 40.1286 60.6823 40.2406 60.5451 40.2406Z"
        fill="#A13210" />
    <path
        d="M53.5038 42.199C53.5038 42.199 53.592 41.7958 53.8748 41.7734L54.0568 41.9855L53.5584 42.2305L53.5038 42.199Z"
        fill="#36414F" />
    <path
        d="M51.9827 41.2276C51.9827 41.2276 51.7601 41.9717 51.6782 42.2132C51.5956 42.4547 50.7626 42.524 50.3447 42.8068C49.9268 43.0896 50.2208 43.6881 50.2208 43.6881L51.8385 44.029L52.8052 43.7798C52.8052 43.7798 53.494 43.9212 53.7306 43.8043C53.9672 43.6881 53.8566 42.1866 53.6613 42.1201C53.466 42.0536 52.6876 41.8401 52.528 41.516C52.3677 41.1933 51.9827 41.2276 51.9827 41.2276Z"
        fill="#485669" />
    <path
        d="M51.6572 42.5342C52.1773 42.2787 52.2914 41.8909 52.4979 41.7313C52.6533 41.6116 52.9557 42.0603 53.6606 42.1184C53.3946 42.0092 53.0376 41.802 52.8437 41.6676C52.7625 41.6277 52.6757 41.5003 52.4944 41.5507C52.3173 41.6018 52.164 41.893 52.0576 42.061C51.9456 42.2297 51.8105 42.3879 51.6572 42.5342Z"
        fill="#36414F" />
    <path d="M51.6005 42.1875L52.0926 42.4934L52.0457 42.5711L51.5256 42.2694L51.6005 42.1875Z"
        fill="#F3EEB5" />
    <path d="M51.466 42.3203L51.8958 42.643L51.8391 42.671L51.3414 42.3812L51.466 42.3203Z"
        fill="#F3EEB5" />
    <path
        d="M52.6974 43.4873C52.5812 43.4474 52.0177 43.7421 51.7874 43.8093C51.6215 43.8576 50.6282 43.4523 50.1207 43.2969C50.071 43.5216 50.1333 43.6735 50.1333 43.6735L51.8581 44.0606L52.8045 43.7848C52.8045 43.7848 53.4933 43.9262 53.7299 43.8093C53.7943 43.7778 53.8328 43.6448 53.851 43.4663C53.3946 43.4327 52.7737 43.5139 52.6974 43.4873Z"
        fill="#D87306" />
    <path
        d="M51.2134 42.7109C50.5834 42.7368 50.1879 43.1211 50.3461 43.2275C50.5351 43.3549 50.3762 42.8922 51.2134 42.7109Z"
        fill="#F9A94B" />
    <path
        d="M51.1217 27.1556C51.0853 26.9085 51.0048 26.6831 50.9509 26.3149C50.8739 25.7892 50.7871 25.3979 50.7871 25.3979L52.0877 24.8281C52.0877 24.8281 52.2949 25.6786 52.4475 26.3534C52.5476 26.7986 51.1455 27.318 51.1217 27.1556Z"
        fill="#FC7575" />
    <path
        d="M52.0877 24.8281C52.0877 24.8281 52.122 24.9786 52.1745 25.2124C52.0695 25.3699 51.9183 25.5372 51.709 25.7507C51.4997 25.9635 51.2309 26.1679 50.9509 26.3149C50.8739 25.7892 50.7871 25.3986 50.7871 25.3986L52.0877 24.8281Z"
        fill="#FD5E5A" />
    <path
        d="M48.928 22.9747C48.928 22.9747 50.0718 24.1087 50.5065 24.2221C50.9412 24.3355 51.9037 24.4874 51.9037 24.4874C51.9037 24.4874 52.421 26.1947 52.4805 26.5727C52.4805 26.5727 54.1458 26.2024 53.1756 23.5235C52.8053 22.5022 52.6247 21.8484 51.4683 21.4984C50.3126 21.1484 49.1933 21.9359 48.928 22.9747Z"
        fill="#00147D" />
    <path
        d="M49.7281 22.5634C49.7281 22.5634 49.0274 22.863 49.0113 23.402C48.9952 23.941 49.1562 24.1958 49.1492 24.4555C49.1415 24.7159 49.2213 25.1926 49.6175 25.9024C50.0144 26.6115 51.07 26.0949 51.6461 25.509C52.2943 24.8496 52.3419 24.662 52.2439 23.7002C52.1459 22.7384 50.846 22.0552 49.7281 22.5634Z"
        fill="#FC7575" />
    <path
        d="M49.9465 25.0648C49.9507 24.9822 49.8422 25.0886 49.6182 24.845C49.684 24.7218 49.7134 24.5741 49.7085 24.4453C49.6644 24.7106 49.5314 24.8254 49.5153 24.8506C49.5237 24.8569 49.7008 25.0907 49.9031 25.1019C49.9262 25.1033 49.9451 25.0865 49.9465 25.0648Z"
        fill="#0028A6" />
    <path
        d="M50.3475 24.4258C50.2992 24.4692 50.2229 24.4671 50.1774 24.4209C50.1319 24.3747 50.134 24.3019 50.1823 24.2578C50.2306 24.2144 50.3069 24.2165 50.3524 24.2627C50.3979 24.3096 50.3958 24.3824 50.3475 24.4258Z"
        fill="#0028A6" />
    <path
        d="M49.3529 24.4804C49.3046 24.5238 49.2283 24.5217 49.1828 24.4755C49.1373 24.4293 49.1394 24.3566 49.1877 24.3125C49.236 24.2691 49.3123 24.2711 49.3578 24.3173C49.4033 24.3635 49.4012 24.4363 49.3529 24.4804Z"
        fill="#0028A6" />
    <path
        d="M49.8898 24.1818C50.0249 24.1573 50.1628 24.158 50.3 24.1853C50.3707 24.2014 50.4316 24.2231 50.4939 24.2462C50.5562 24.27 50.6178 24.2952 50.6787 24.3295C50.608 24.3351 50.5401 24.326 50.4729 24.3127C50.4057 24.3008 50.3413 24.2749 50.2811 24.2595C50.1565 24.228 50.0242 24.2091 49.8898 24.1818Z"
        fill="#00115B" />
    <path
        d="M48.9882 24.2404C49.0883 24.2278 49.1919 24.2348 49.2962 24.2621C49.3501 24.2775 49.397 24.2964 49.4446 24.3174C49.4922 24.3384 49.5398 24.3601 49.5874 24.3888C49.5349 24.3902 49.4831 24.3797 49.432 24.3664C49.3809 24.3545 49.3312 24.3314 49.285 24.3174C49.1905 24.2873 49.0904 24.267 48.9882 24.2404Z"
        fill="#00115B" />
    <path
        d="M49.8583 23.8365L49.9283 23.9723C49.9283 23.9723 50.2881 23.9191 50.4589 24.0451C50.4589 24.0451 50.153 23.7238 49.8583 23.8365Z"
        fill="#00115B" />
    <path
        d="M49.0483 23.86L49.0854 23.9902C49.0854 23.9902 49.4452 23.937 49.616 24.063C49.616 24.063 49.3437 23.748 49.0483 23.86Z"
        fill="#00115B" />
    <path
        d="M49.6881 25.4611C49.6881 25.4611 50.0955 25.3834 50.4287 25.2266C50.4287 25.2266 50.162 25.7397 49.9653 25.7341C49.7686 25.7292 49.6881 25.4611 49.6881 25.4611Z"
        fill="white" />
    <path
        d="M48.9875 22.1243C48.9875 22.1243 48.4212 22.2643 48.5451 22.7879C48.6683 23.3115 50.1103 23.8288 51.0441 23.637C51.3941 23.5649 51.4074 23.7665 51.5558 23.8855C51.8029 24.0843 52.022 24.3349 51.8498 24.7675C51.574 25.4605 51.2408 25.1357 51.2408 25.1357C51.2408 25.1357 51.5467 25.5158 52.3566 25.2295C53.1665 24.9432 53.1889 23.7658 52.5267 23.1337C51.8638 22.5016 51.2072 22.2328 50.6815 22.1082C49.5405 21.838 48.9875 22.1243 48.9875 22.1243Z"
        fill="#2846A6" />
    <path
        d="M51.8539 23.7037C51.7573 23.7121 51.3611 24.018 51.4934 24.2959C51.6264 24.5745 51.7356 24.5871 51.9946 24.4331C52.2536 24.2805 52.0982 23.682 51.8539 23.7037Z"
        fill="#FC7575" />
    <path
        d="M51.6033 24.1036C51.6033 24.1036 51.7902 23.8446 51.9022 23.9587C52.0142 24.0721 51.9946 24.2821 51.8553 24.3598C51.716 24.4375 51.4759 24.259 51.6033 24.1036Z"
        fill="#FD5E5A" />
    <path
        d="M51.0273 24.7341C51.0406 24.8643 50.8754 24.9847 50.6598 25.0043C50.4435 25.0239 50.258 24.9343 50.2454 24.8041C50.2321 24.6739 50.3973 24.5535 50.6129 24.5339C50.8285 24.5143 51.014 24.6039 51.0273 24.7341Z"
        fill="#FD5E5A" />
    <path
        d="M49.4908 24.9438C49.4796 24.8332 49.3438 24.752 49.1709 24.7422C49.1912 24.8654 49.2269 25.0103 49.2857 25.1776C49.4152 25.1279 49.4999 25.0383 49.4908 24.9438Z"
        fill="#FD5E5A" />
    <path
        d="M50.2124 26.3139L50.6702 27.6292C50.6702 27.6292 50.8494 28.3061 51.9743 28.297C52.9116 28.2893 53.5255 27.7741 53.8636 27.3709C54.0771 27.1161 54.1247 26.7612 53.9903 26.4574L53.5395 25.4375C53.5395 25.4375 51.7048 26.7199 51.0272 26.7199C50.3496 26.7199 50.2124 26.3139 50.2124 26.3139Z"
        fill="#FFCB57" />
    <path
        d="M51.644 28.277C51.7231 28.2875 51.8085 28.2938 51.9009 28.2952C51.8974 28.2777 51.8932 28.2595 51.8897 28.2427C51.8792 28.2252 50.9881 27.3614 50.8642 26.7097C50.7921 26.7013 50.727 26.6887 50.6696 26.6719C50.7144 26.9701 50.9118 27.5189 51.644 28.277Z"
        fill="#694D0D" />
    <path
        d="M43.582 35.0471C43.2971 35.0828 43.008 34.8462 43.0024 34.4983C42.9387 33.8039 42.903 32.6475 42.9492 31.9531C43.0556 32.6447 43.1207 33.8067 43.1172 34.4934C43.0885 34.758 43.2929 35.0177 43.582 35.0471Z"
        fill="#F9A94B" />
    <path d="M45.7114 31.9062H42.8652V32.0134H45.7114V31.9062Z" fill="#0F1D5B" />
    <path
        d="M47.9801 32.1724C47.9801 32.1724 46.4751 31.716 46.2035 31.625C46.2035 31.625 44.9344 32.2417 44.5354 32.4769C44.1364 32.7128 43.8466 33.4653 43.9369 33.4653C44.0272 33.4653 44.5123 32.9081 44.6075 32.8129C44.7027 32.7177 44.8798 32.7128 44.8798 32.7128C44.8798 32.7128 43.701 33.9637 43.8011 34.0638C43.9005 34.1632 45.2473 32.8262 45.3516 32.9305C45.4559 33.0348 43.9012 34.145 44.0916 34.3354C44.282 34.5258 45.6505 33.2014 45.6505 33.2966C45.6505 33.3918 44.8574 34.1583 44.9344 34.2353C45.0114 34.3123 46.4121 33.5556 46.6886 33.3561C46.9651 33.1566 47.9801 33.039 47.9801 33.039V32.1724Z"
        fill="#FC7575" />
    <path
        d="M54.7695 26.5094C54.2578 27.0575 54.7751 30.6072 53.8511 31.6243C52.9278 32.6414 47.5413 32.0303 47.5413 32.0303V33.3456C47.5413 33.3456 53.5193 35.6612 55.2063 34.8366C56.8933 34.012 57.9412 30.8634 57.286 28.622C56.4173 25.6484 55.1545 26.0964 54.7695 26.5094Z"
        fill="#E8AB6A" />
    <path
        d="M54.7695 26.5078C54.3474 27.0958 54.934 30.621 53.8511 31.6227C54.6239 30.5349 54.1591 27.079 54.7695 26.5078Z"
        fill="#F9A94B" />
    <path
        d="M21.3758 32.542C20.1802 31.8245 18.2965 29.3438 18.2965 29.3438C18.2965 29.3438 13.8424 31.2869 14.0517 34.0666C14.261 36.8463 16.2504 37.2425 18.5968 35.7648L20.12 36.5181C20.12 36.5181 23.1174 37.3847 24.3137 37.8929C25.5093 38.4011 27.6233 35.4715 27.6233 35.0529C27.6233 34.6343 22.5714 33.2595 21.3758 32.542Z"
        fill="#032647" />
    <path
        d="M21.3906 39.8714C21.3906 39.8714 20.972 40.6484 21.1218 41.1867C21.2716 41.725 21.6748 41.4261 21.8694 42.1954C21.8694 42.1954 21.7798 42.6063 21.2863 42.6812C20.7928 42.7561 19.9115 42.5769 19.9115 42.5769C19.9115 42.5769 19.3585 39.289 20.1061 38.9299C20.853 38.5708 21.3906 39.8714 21.3906 39.8714Z"
        fill="#34173A" />
    <path
        d="M25.937 26.1719C25.937 26.1719 26.3465 29.079 25.8278 30.9123C25.3098 32.7456 26.9975 34.2352 26.9975 34.2352C26.9975 34.2352 25.7529 33.4883 25.2944 34.0315C25.2944 34.0315 23.9434 33.8635 23.8636 32.0904C23.7838 30.3166 24.6 28.8963 24.6 28.8963L25.937 26.1719Z"
        fill="#6F1A00" />
    <path
        d="M24.3655 24.1831C24.3655 24.1831 23.2098 23.6252 21.8343 23.7645C20.4595 23.9038 19.1442 27.212 17.9682 27.7699C16.7922 28.3278 13.6639 32.2142 13.6639 32.2142C13.6639 32.2142 14.618 33.561 15.1983 34.142C15.4629 34.4066 16.9007 34.597 18.3861 34.7258C20.5673 34.9148 22.6498 33.7864 23.6823 31.8565C24.95 29.487 25.9979 26.2313 25.937 26.1711C25.5485 25.7819 24.3655 24.1831 24.3655 24.1831Z"
        fill="#C93F14" />
    <path
        d="M21.9946 33.7592C23.1657 32.8352 23.6963 31.9616 25.202 28.2117C25.2797 28.0185 25.9244 26.3784 25.937 26.1719C25.7277 27.5327 24.2738 31.6676 22.8528 33.0858C22.5889 33.3385 22.304 33.5688 21.9946 33.7592Z"
        fill="#F9A94B" />
    <path
        d="M24.866 25.7691C24.8128 25.7544 24.7582 25.7873 24.7442 25.8405C24.7239 25.9189 22.8017 33.1667 19.0483 34.7438C19.2331 34.7375 19.4172 34.7249 19.5985 34.7004C23.1195 32.7474 24.8576 26.201 24.9381 25.8909C24.9514 25.8377 24.9192 25.7831 24.866 25.7691Z"
        fill="#A0626B" />
    <path
        d="M20.1501 32.1888C20.3895 29.4385 17.8506 29.2733 17.39 29.4882C16.4394 29.932 15.7786 31.3348 16.0005 33.0554C16.2308 34.8404 17.6987 41.1866 17.6987 41.1866H20.3293C20.3293 41.1866 19.9114 34.9384 20.1501 32.1888Z"
        fill="#163D55" />
    <path
        d="M25.7425 34.1846C24.2067 34.3995 19.9115 38.8781 19.9115 38.8781L21.2863 40.3432C21.2863 40.3432 27.0557 37.6825 27.6234 36.4568C28.182 35.2521 27.4414 33.9466 25.7425 34.1846Z"
        fill="#163D55" />
    <path
        d="M27.6829 35.0547C27.8537 35.39 27.8733 35.7925 27.7858 36.1628C27.7403 36.3462 27.6717 36.5317 27.5527 36.6899C27.4372 36.846 27.3014 36.9811 27.1607 37.1071C26.5923 37.6083 25.9504 38.0003 25.3085 38.3832C24.6617 38.7584 24.0016 39.1091 23.3289 39.4339C22.6576 39.7601 21.9793 40.0723 21.2863 40.3502L23.2589 39.2974C23.9127 38.9411 24.5672 38.5869 25.2077 38.211C25.8475 37.8358 26.4866 37.4501 27.0606 36.9916C27.2034 36.8768 27.3392 36.7529 27.4526 36.6143C27.566 36.4806 27.6374 36.3112 27.692 36.1369C27.8061 35.7911 27.811 35.4061 27.6829 35.0547Z"
        fill="#F9A94B" />
    <path
        d="M20.1501 32.1875C20.1319 34.0082 20.3286 41.1531 20.3293 41.1853C20.0528 38.8886 19.8344 34.4576 20.1501 32.1875Z"
        fill="#F9A94B" />
    <path
        d="M17.9319 41.2025C17.9319 41.2025 18.0257 42.1594 17.7058 42.7488C17.3859 43.3382 17.9445 43.691 17.9445 43.691C17.9445 43.691 20.594 43.6245 20.7921 43.4705C20.9895 43.3158 19.7946 41.0261 19.7946 41.0261L19.6217 40.856C19.1688 40.4094 18.4219 40.4822 18.0642 41.0079L17.9319 41.2025Z"
        fill="#603E6B" />
    <path
        d="M17.6183 43.2156C17.5161 43.5579 17.7975 43.6853 17.7975 43.6853C17.7975 43.6853 20.5954 43.623 20.7928 43.4683C20.8355 43.4347 20.9342 43.231 20.7501 43.0469C19.9843 43.1281 18.3155 43.1988 17.6183 43.2156Z"
        fill="#FF9739" />
    <path
        d="M18.8532 41.8698C18.5165 41.8698 18.2372 41.7802 18.2169 41.7732C18.1861 41.7634 18.1693 41.7298 18.1791 41.699C18.1882 41.6682 18.2218 41.6507 18.2533 41.6612C18.2624 41.664 19.1367 41.944 19.6253 41.4925C19.6491 41.4708 19.6862 41.4708 19.7079 41.4953C19.7303 41.5191 19.7289 41.5562 19.7051 41.5786C19.4587 41.8068 19.1353 41.8698 18.8532 41.8698Z"
        fill="#FFDA88" />
    <path
        d="M18.8532 42.2604C18.5165 42.2604 18.2372 42.1708 18.2169 42.1638C18.1861 42.154 18.1693 42.1204 18.1791 42.0896C18.1882 42.0588 18.2218 42.042 18.2533 42.0518C18.2624 42.0546 19.1367 42.3346 19.6253 41.8831C19.6491 41.8607 19.6862 41.8621 19.7079 41.8866C19.7303 41.9104 19.7289 41.9475 19.7051 41.9699C19.4587 42.1974 19.1353 42.2604 18.8532 42.2604Z"
        fill="#FFDA88" />
    <path
        d="M20.5604 43.0419C19.1268 42.5547 18.837 42.1998 17.7184 43.2148C18.3673 41.9891 19.4733 42.1963 20.5604 43.0419Z"
        fill="#806589" />
    <path
        d="M23.6404 22.8125C23.6404 22.8125 24.1983 23.0771 24.4685 23.7456C24.7387 24.4141 25.8419 25.1554 25.8419 25.1554L25.3876 26.0248L23.7027 25.1757L23.1658 23.9122L23.6404 22.8125Z"
        fill="#35202A" />
    <path
        d="M24.2424 23.4731C24.2081 23.4199 24.2704 21.6055 24.2704 21.6055C24.2704 21.6055 24.367 20.2657 24.7051 20.1838C25.0432 20.1019 25.9378 19.6924 26.4747 19.9192C27.0109 20.146 27.2972 20.4736 27.3308 20.5268C27.3651 20.58 27.4512 21.3458 27.4512 21.3458C27.4512 21.3458 27.3777 21.0679 26.9724 21.7945C26.5671 22.5204 24.2424 23.4731 24.2424 23.4731Z"
        fill="#381A3F" />
    <path
        d="M24.4803 25.5889C24.6966 24.9638 25.4974 24.1398 25.6122 24.0068L24.5188 22.0938C24.5188 22.0938 23.8811 23.3173 23.3827 24.5164C23.7803 24.8552 24.0883 25.2802 24.4803 25.5889Z"
        fill="#FC7575" />
    <path
        d="M24.5189 22.0938C24.5189 22.0938 24.3264 22.4634 24.0702 22.9954C24.073 23.6281 24.346 24.5493 24.8899 24.8657C25.1909 24.4527 25.5395 24.0915 25.613 24.0068L24.5189 22.0938Z"
        fill="#FD5E5A" />
    <path
        d="M24.9528 20.8925C24.5419 21.3153 24.1373 22.2435 24.3039 23.1584C24.4712 24.0733 24.9591 24.7264 25.5695 24.5773C26.1799 24.4282 27.2558 22.254 27.1662 21.5295C27.0773 20.8057 25.5786 20.2492 24.9528 20.8925Z"
        fill="#FC7575" />
    <path
        d="M24.0471 23.038C24.0471 23.038 24.2522 22.261 24.0611 21.9628C23.87 21.6646 23.7951 21.5022 23.856 21.2222C23.9169 20.9422 23.1 20.3696 23.4248 20.0112C23.7496 19.6521 24.5301 19.7676 25.1958 19.1894C25.8615 18.6112 26.4166 18.3753 27.1285 19.0151C27.8404 19.6549 27.7319 20.2359 27.7319 20.2359C27.7319 20.2359 28.1239 20.3332 28.1533 20.8918C28.182 21.4504 27.9124 21.6387 27.6779 21.7892C27.6779 21.7892 27.9643 21.1984 27.7494 21.1515C27.5345 21.1046 27.4519 21.8592 27.4519 21.8592C27.4519 21.8592 27.2629 21.4707 27.1138 20.9345C26.9647 20.3983 26.8478 20.8946 26.7295 21.4364C26.6119 21.9782 26.11 21.1921 25.9511 20.6909C25.7922 20.189 25.2042 20.3269 24.8248 20.7658C24.4461 21.2047 24.8073 22.3254 24.0471 23.038Z"
        fill="#653870" />
    <path
        d="M24.7673 21.7613C24.7673 21.7613 24.6973 21.1082 24.4495 21.2671C24.2024 21.426 24.04 22.1603 24.3585 22.3115C24.677 22.4634 24.7673 21.7613 24.7673 21.7613Z"
        fill="#FC7575" />
    <path
        d="M24.5875 21.7305C24.5875 21.7305 24.7268 21.433 24.528 21.4631C24.3292 21.4932 24.2809 22.0504 24.4293 22.105C24.577 22.1603 24.5875 21.7305 24.5875 21.7305Z"
        fill="#FD5E5A" />
    <path
        d="M26.2969 22.3281C26.2941 22.4912 26.2703 22.6536 26.2311 22.8118C26.1422 23.1534 26.0351 23.2682 26.0246 23.2878C25.9917 23.2647 25.9042 23.208 25.7936 23.117C25.8748 23.1506 25.9539 23.1884 26.0309 23.229L25.9952 23.2374C26.1324 22.9539 26.201 22.6382 26.2969 22.3281Z"
        fill="#172866" />
    <path
        d="M25.1845 23.37C25.1789 23.3203 25.2538 23.3119 25.2601 23.3609C25.2622 23.377 25.3112 23.755 25.6724 23.8334C25.6927 23.8376 25.706 23.8579 25.7011 23.8782C25.6773 23.986 25.2426 23.7942 25.1845 23.37Z"
        fill="#172866" />
    <path
        d="M25.8706 22.2313C25.8489 22.3293 25.7761 22.3972 25.7068 22.3818C25.6375 22.3671 25.599 22.2747 25.6207 22.1767C25.6424 22.078 25.7152 22.0108 25.7845 22.0255C25.8531 22.0409 25.8923 22.1326 25.8706 22.2313Z"
        fill="#2846A6" />
    <path
        d="M26.7973 22.4963C26.7756 22.5943 26.7028 22.6622 26.6335 22.6468C26.5642 22.6321 26.5257 22.5397 26.5474 22.4417C26.5691 22.3437 26.6419 22.2758 26.7112 22.2912C26.7798 22.3059 26.819 22.3983 26.7973 22.4963Z"
        fill="#2846A6" />
    <path
        d="M25.4723 21.776C25.4723 21.776 25.711 21.5891 25.9539 21.6423C26.1968 21.6955 26.0463 21.8621 25.9896 21.8495C25.9329 21.8369 25.4828 21.7256 25.4723 21.776Z"
        fill="#172866" />
    <path
        d="M26.7084 21.8516C26.7084 21.8516 26.938 22.0525 26.9338 22.203C26.9338 22.203 26.6643 22.0525 26.6433 21.9615C26.6223 21.8691 26.7084 21.8516 26.7084 21.8516Z"
        fill="#172866" />
    <path
        d="M23.6403 22.8125L22.4342 23.7484C22.5637 24.0816 23.5906 27.0349 25.5947 26.2236C25.895 26.1018 25.8425 25.1547 25.8425 25.1547C22.6057 24.6745 23.7663 22.9196 23.6403 22.8125Z"
        fill="#FFCB57" />
    <path
        d="M21.7461 33.6875C21.7461 33.6875 23.226 33.8401 23.5858 33.9087C23.9456 33.9773 24.4412 34.3854 24.3873 34.4225C24.3327 34.4596 23.4884 34.1887 23.417 34.237C23.3456 34.2853 24.1171 35.3115 24.3831 35.4984C24.6491 35.6853 24.9823 35.6776 25.0516 35.7798C25.1209 35.882 24.738 35.9331 24.234 35.7539C23.73 35.5747 23.2483 34.9328 23.2343 35.007C23.2203 35.0812 24.068 35.9415 24.4026 36.0465C24.7372 36.1515 24.9592 36.3538 24.8024 36.4007C24.6456 36.4476 23.6256 36.3356 23.0012 35.2345C23.0012 35.2345 22.8479 35.1701 22.9298 35.3927C23.0117 35.6153 23.7356 36.3811 24.2949 36.4875C24.8542 36.5946 24.4258 36.9502 23.8756 36.638C23.3254 36.3258 22.8388 35.6825 22.7779 35.7245C22.717 35.7658 23.8769 36.6471 23.7236 36.7514C23.571 36.8557 22.5204 36.113 22.2691 35.5684C22.0178 35.0231 21.2729 34.2776 21.2729 34.2776L21.7461 33.6875Z"
        fill="#FC7575" />
    <path
        d="M22.1088 23.7592C22.1088 23.7592 21.1589 23.5646 19.9108 24.1253C18.6627 24.686 16.772 26.9946 17.3901 29.4859C18.0082 31.9772 21.1764 34.5875 21.1764 34.5875L22.4917 33.7307C22.4917 33.7307 19.9367 29.9129 19.9367 28.9966C19.9367 28.0796 23.4045 25.0542 22.1088 23.7592Z"
        fill="#F57C57" />
    <path
        d="M20.0675 29.2038C19.8911 28.6109 20.8648 27.7044 21.6838 26.3954C22.1878 25.5911 22.822 24.3955 22.1094 23.7578C23.1972 24.9303 20.5554 27.3383 19.9212 28.6676C19.7833 28.9973 19.8491 29.0848 19.9366 29.4278C20.1333 29.9934 20.61 30.8474 20.9152 31.3486C21.4101 32.1634 21.9323 32.96 22.4923 33.73C19.7147 29.0827 20.2194 29.4957 20.0675 29.2038Z"
        fill="#F9A94B" />
    <path
        d="M25.4806 33.555C25.4806 33.555 24.9325 34.0184 24.8842 34.584C24.8359 35.1503 25.5688 33.9358 25.5765 34.1535C25.5842 34.3712 25.3651 35.207 25.5807 35.1391C25.7963 35.0712 25.9832 34.1493 26.0665 34.2263C26.1491 34.3033 25.8572 35.1958 26.098 35.1237C26.3381 35.0523 26.4746 34.4153 26.5803 34.4412C26.6867 34.4678 26.3717 35.1475 26.5992 34.9928C26.8274 34.8388 27.1445 34.5707 27.1382 34.3978C27.1319 34.2249 27.001 33.9897 26.8015 33.891C26.6027 33.7923 26.6272 33.6334 26.1435 33.59C25.6612 33.5487 25.4806 33.555 25.4806 33.555Z"
        fill="#FC7575" />
    <path
        d="M24.6022 26.3344C24.689 26.3519 24.7135 26.3589 24.8059 26.361C25.2693 25.9053 25.3687 25.3341 25.3484 25.0653C25.277 25.0492 25.2091 25.0331 25.1433 25.0156C25.1678 25.2179 25.1853 25.8808 24.6022 26.3344Z"
        fill="#A0626B" />
    <path
        d="M33.6448 42.7701C33.6448 42.7701 24.6813 42.6518 25.4653 44.2898C25.8503 45.0941 28.1064 46.2736 30.6117 45.8025C33.117 45.3307 36.5449 45.8025 38.5168 45.8025C40.4887 45.8025 42.6041 43.601 40.6616 42.9535C38.7198 42.3067 33.6448 42.7701 33.6448 42.7701Z"
        fill="#B1B2AB" />
    <path
        d="M39.7124 43.2253L33.5076 42.6016L29.5505 43.6173L29.7311 44.2634L29.9229 44.4545L30.8763 44.2032L31.1808 44.7338L33.1478 44.8031L35.819 45.1412L36.1375 44.4692C36.1375 44.4692 39.5045 44.9417 39.7124 44.7331C39.9203 44.5252 38.7303 44.3747 39.2294 44.1493C39.7285 43.9239 40.6021 44.1003 40.8422 43.8595C41.083 43.6194 39.7124 43.2253 39.7124 43.2253Z"
        fill="#B1B2AB" />
    <path d="M32.9546 38.6036L33.2689 42.9996L34.3721 42.7861L33.5363 37.6719L32.9546 38.6036Z"
        fill="#823F11" />
    <path
        d="M31.7234 42.248C31.1732 42.0282 30.4578 42.0548 29.8628 42.1927L29.8992 42.2697C30.3717 42.2004 30.9926 42.2067 31.3993 42.3733C31.1116 42.5021 30.8855 42.6589 30.714 42.8675L30.8169 42.9039C31.526 42.1381 33.3971 42.0534 34.732 42.1801L34.781 41.9568C33.8353 41.9001 32.5914 41.9603 31.7234 42.248Z"
        fill="#2D1805" />
    <path opacity="0.74"
        d="M35.3767 32.9175C35.3767 32.9175 35.7974 34.853 34.8839 34.951C34.5766 34.9839 33.5868 34.4351 33.6281 33.4089C33.6694 32.3827 32.6999 30.8672 31.9796 30.8672C31.9796 30.8672 32.8672 31.206 32.7293 32.109C32.5774 33.103 32.0237 32.8111 31.7605 33.8373C31.7598 33.6175 31.2026 33.0568 31.1522 32.9973C31.3104 33.3179 31.5162 34.2146 31.0689 35.1351C30.7847 35.7189 31.7486 38.9018 32.8378 38.2256C33.2025 37.9995 33.4797 37.3604 33.962 37.3338C34.4443 37.3072 34.4261 38.4321 34.7551 38.192C35.0841 37.9519 35.7274 37.2309 35.943 36.3713C36.0641 35.8897 36.5156 33.572 35.3767 32.9175Z"
        fill="#FF6001" />
    <path
        d="M34.0963 41.9389L39.1153 41.7891C39.1153 41.7891 39.4821 41.8066 39.6522 42.6312C39.823 43.4558 39.5766 43.6021 39.5766 43.6021L35.0063 43.3144L34.0963 41.9389Z"
        fill="#3F2403" />
    <path opacity="0.3"
        d="M39.2295 41.8239C39.1616 41.7833 39.1154 41.7812 39.1154 41.7812L34.6669 41.9143C34.9777 42.1971 35.5657 42.5709 36.5723 42.6878C37.8078 42.8313 39.0272 42.5274 39.2295 41.8239Z"
        fill="#F95300" />
    <path d="M33.5364 37.1953L33.3019 37.8113L36.1376 44.4676H37.0007L33.5364 37.1953Z"
        fill="#AA5F2D" />
    <path d="M37.5012 44.2032L36.5723 42.1172L37.6713 44.1969L37.5012 44.2032Z" fill="#AD6C1E" />
    <path
        d="M34.2196 37.1953H33.5364L37.0007 44.4676L37.5236 44.2527L37.308 43.6241L37.6713 44.1953L37.9562 44.1078L34.2196 37.1953Z"
        fill="#CE8B32" />
    <path d="M34.5702 38.9062L37.079 44.4363L37.2757 44.3558L34.5702 38.9062Z" fill="#AD6C1E" />
    <path d="M36.3987 41.3516L37.7952 44.1551L37.8638 44.1341L36.3987 41.3516Z" fill="#AD6C1E" />
    <path d="M34.0221 37.1953L35.3101 39.8637L34.104 37.1953H34.0221Z" fill="#AD6C1E" />
    <path d="M29.526 43.0131L30.5284 43.1993L33.9346 37.2122L33.6343 36.7656L29.526 43.0131Z"
        fill="#82451C" />
    <path
        d="M32.674 42.4475L28.7848 42.6785L28.8296 43.3106L29.9503 44.4607L33.2333 43.5381V42.2578L32.674 42.4475Z"
        fill="#3F2403" />
    <path opacity="0.3"
        d="M32.282 42.6806C32.3681 42.6253 32.4822 42.5462 32.583 42.4531L29.7599 42.6204C29.874 43.0761 30.4046 43.2175 30.8512 43.1538C31.2523 43.0971 31.6079 43.0201 31.9537 42.8598C32.0643 42.8094 32.1735 42.7499 32.282 42.6806Z"
        fill="#F95300" />
    <path opacity="0.69"
        d="M33.7386 31.0234C33.7386 31.0234 33.7953 32.0706 33.88 32.8315C33.9647 33.5917 32.7922 33.6764 32.7922 34.4702C32.7922 35.264 33.012 35.1457 33.012 35.8555C33.012 36.5653 32.9273 35.9059 32.6067 35.5853C32.2854 35.264 31.7786 35.1457 31.9816 34.7292C31.9816 34.7292 31.6603 35.2416 32.1391 35.7204C32.6179 36.1992 32.1279 36.5989 32.2182 36.9818C32.3085 37.3647 33.1646 38.1151 33.579 38.1368C34.0291 38.1599 35.056 37.399 35.2366 36.7116C35.4172 36.0242 35.4508 35.7428 35.4508 35.7428C35.4508 35.7428 35.203 36.3959 34.7865 36.3959C34.37 36.3959 34.2573 36.8012 34.2573 36.8012C34.2573 36.8012 35.1694 36.2153 34.8089 35.6525C34.4484 35.0897 33.8737 35.2696 33.7953 34.7852C33.7162 34.3008 34.5051 34.1209 34.2797 33.332C34.0543 32.5438 33.7386 31.0234 33.7386 31.0234Z"
        fill="#FA352C" />
    <path opacity="0.84"
        d="M33.4936 32.8438C33.4936 32.8438 33.46 33.807 33.5699 34.2543C33.6798 34.7023 32.8468 35.1489 32.9931 35.5339C33.1394 35.9189 33.2913 36.0036 33.173 36.4173C33.0547 36.831 32.6494 36.8821 32.6494 36.4173C32.6494 35.9525 32.7593 35.8006 32.6494 35.4205C32.5395 35.0404 32.4212 34.8716 32.4212 34.8716C32.4212 34.8716 32.6494 35.3952 32.6067 35.5814C32.5647 35.7669 32.3029 36.6035 32.48 37.1614C32.6571 37.7193 33.3305 38.0686 33.5272 38.1386C33.698 38.1995 34.5828 37.8292 34.7438 37.2461C34.9041 36.663 34.7438 36.5705 34.7438 36.5705C34.7438 36.5705 34.6934 37.0689 34.524 37.0689C34.3553 37.0689 34.3378 36.5538 34.524 36.2752C34.7095 35.9966 33.8569 35.557 33.7638 35.2532C33.6707 34.9494 34.0508 34.6533 33.8653 34.2144C33.6798 33.7755 33.4936 32.8438 33.4936 32.8438Z"
        fill="#F72B1E" />
    <path opacity="0.64"
        d="M33.6637 34.75C33.6637 34.75 33.859 35.1896 33.6637 35.4682C33.4684 35.7468 33.1814 35.8399 33.2997 36.3215C33.418 36.8031 33.0967 36.9382 33.0463 37.1496C32.9959 37.361 33.215 38.0393 33.5279 38.1436C33.8408 38.2479 34.1614 37.7159 34.2881 37.4366C34.4148 37.158 34.153 36.7527 33.95 36.3719C33.747 35.9918 33.8996 35.9323 34.0004 35.7048C34.1019 35.4766 33.6637 34.75 33.6637 34.75Z"
        fill="#FCC700" />
    <path
        d="M33.3593 35.1875C33.3593 35.1875 33.4615 35.6964 33.2809 35.8777C33.1003 36.0583 33.2269 36.8507 33.4012 36.8913C33.7351 36.9676 33.8408 36.4195 33.8744 36.1948C33.908 35.9708 33.7625 35.6733 33.7625 35.6733C33.7625 35.6733 33.7358 36.0268 33.6595 36.0268C33.6602 36.0268 33.5335 35.408 33.3593 35.1875Z"
        fill="#FCC700" />
    <path
        d="M34.006 36.8986L31.2697 44.7715L30.3149 44.4677L33.1618 36.9854L33.5419 36.8524L33.4397 37.1541L33.6728 36.7656L34.006 36.8986Z"
        fill="#CE8B32" />
    <path
        d="M33.1618 36.9854L33.0085 37.3879C33.0085 37.3879 33.2346 37.0001 33.2731 37.0897C33.3116 37.1793 33.243 37.3879 33.2731 37.3879C33.3032 37.3879 33.3543 37.1835 33.4012 37.2304C33.4481 37.2773 33.5706 36.9847 33.6497 36.9049C33.7295 36.8251 33.7204 36.9105 33.7204 36.9784C33.7204 37.0463 33.8058 36.9399 33.8485 36.9399C33.8912 36.9399 33.8359 37.3872 33.8359 37.3872L34.006 36.8979L33.6735 36.7656L33.4474 37.1331L33.5426 36.8517L33.1618 36.9854Z"
        fill="#2B2825" />
    <path d="M32.8119 39.5L31.197 44.75L31.0087 44.6905L32.8119 39.5Z" fill="#633706" />
    <path d="M32.9749 38.4219L30.9246 44.6645L30.7832 44.6197L32.9749 38.4219Z" fill="#633706" />
    <path
        d="M31.2698 44.7713L31.8788 44.3695L31.9446 44.0734L31.9355 44.3478L32.1315 44.2785L34.074 37.4934L34.0061 36.8984L31.2698 44.7713Z"
        fill="#774828" />
    <path
        d="M29.9503 44.4612C29.9503 44.4612 30.0182 44.3205 30.0189 44.1532C30.0196 43.9859 29.9867 43.7997 29.9867 43.7997L29.8544 43.8011L29.9671 43.6863C29.9671 43.6863 29.9685 43.3916 29.7634 43.113C29.5583 42.8344 29.4344 42.8008 29.335 42.7665C29.2195 42.7273 29.0354 42.6496 28.8786 42.7084L28.8779 42.8281L28.7848 42.6797C28.7848 42.6797 28.3739 42.7903 28.3242 43.2621C28.2864 43.6205 28.4159 43.9789 28.4159 43.9789L29.9503 44.4612Z"
        fill="#2D1606" />
    <path
        d="M28.4439 43.9837C28.4145 43.8857 28.3389 43.5966 28.3676 43.3103C28.4068 42.9267 28.6875 42.7825 28.7764 42.7461L28.922 42.9848L28.9227 42.7559C29.0599 42.7146 29.2062 42.7755 29.3462 42.8231C29.4421 42.856 29.5506 42.8924 29.7354 43.1521C29.8908 43.3698 29.9174 43.6001 29.9216 43.6722L29.7151 43.8948L29.9524 43.8899C29.9916 44.1804 29.9755 44.3085 29.9223 44.4492L28.4439 43.9837Z"
        fill="#C0804F" />
    <path
        d="M29.6709 43.7823C29.743 43.7123 29.7409 43.3679 29.5176 43.1145C29.2936 42.8611 29.0584 43.0123 28.9919 43.1292C28.9247 43.2461 28.6125 42.9815 28.5152 43.356C28.4578 43.5765 28.5264 43.8502 28.5929 44.0378L29.7535 44.4032C29.778 44.2968 29.7928 44.1862 29.7732 44.1232C29.7249 43.9748 29.5988 43.8523 29.6709 43.7823Z"
        fill="#D8983A" />
    <path
        d="M29.6395 43.7303C29.685 43.6862 29.6675 43.465 29.4617 43.2312C29.2797 43.0254 29.097 43.0506 29.0291 43.1689C28.9402 43.3236 28.6483 43.0345 28.5573 43.3838C28.5013 43.5987 28.5776 43.8738 28.6434 44.0509L29.7074 44.3862C29.7333 44.2742 29.7459 44.1755 29.7326 44.1321C29.6906 44.0012 29.5359 43.8318 29.6395 43.7303Z"
        fill="#B77548" />
    <path
        d="M29.6276 44.1507C29.6192 44.1297 29.6038 44.101 29.5898 44.0744C29.5394 43.9792 29.4246 43.7601 29.5499 43.6187C29.5492 43.5837 29.5247 43.4738 29.4022 43.3352C29.356 43.2827 29.3091 43.2491 29.2629 43.2344C29.1943 43.2127 29.1432 43.2393 29.1229 43.2757C29.0592 43.387 28.95 43.3716 28.8618 43.3583C28.7463 43.3415 28.6945 43.3387 28.6623 43.4605C28.6091 43.6642 28.7141 43.9575 28.7708 44.0933L29.5919 44.3516C29.6157 44.2585 29.6276 44.1843 29.6276 44.1507Z"
        fill="#CE8B32" />
    <path
        d="M28.9024 44.129C28.8597 44.0135 28.6489 43.6068 28.8757 43.499C28.9563 43.4612 29.2901 43.2603 29.5127 44.1493C29.5379 44.2361 29.5085 44.2746 29.4728 44.3089L28.9024 44.129Z"
        fill="#B77141" />
    <path
        d="M34.3686 40.038C34.5583 39.1567 34.3 38.1158 33.8968 37.2891L33.7827 37.3689C34.0375 38.0395 34.2146 38.953 34.0669 39.6054C33.7715 39.2267 33.4495 38.9467 33.0596 38.7654L33.0316 38.9285C34.4862 39.7118 35.1876 42.4306 35.3843 44.4319L35.7609 44.4291C35.5684 43.0214 35.0959 41.2154 34.3686 40.038Z"
        fill="#2D1805" />
    <path
        d="M32.648 39.9682C33.1065 39.1919 33.1898 38.123 33.0687 37.2109L32.9358 37.2508C32.9652 37.9676 32.8448 38.8902 32.499 39.4628C32.338 39.0099 32.1216 38.6424 31.8087 38.3477L31.7303 38.494C32.8622 39.6966 32.627 42.5841 32.1818 44.5455L32.5822 44.5749C32.844 43.1777 32.9665 41.315 32.648 39.9682Z"
        fill="#2D1805" />
    <path
        d="M32.0629 39.9886C31.841 40.1853 31.547 40.4541 31.3405 40.6669C31.5078 40.2322 31.7024 39.7534 31.8921 39.3201L31.7871 39.2725C31.708 39.4447 31.631 39.6176 31.5561 39.7912C31.3503 39.4748 31.2971 39.0912 31.3776 38.7965L31.3167 38.7734C31.1809 39.115 31.1998 39.5581 31.4616 40.0117C30.9338 41.2521 30.2247 43.1162 30.0182 44.449L30.2527 44.4644C30.4018 43.3836 30.8631 41.9241 31.2495 40.9028C31.4574 40.6522 31.8732 40.2672 32.1147 40.0481L32.0629 39.9886Z"
        fill="#2D1805" />
    <path
        d="M35.7414 44.0457L34.5738 42.379C34.0509 41.6321 32.9869 41.8491 32.8287 42.3965L32.3688 44.2249L35.264 44.6449L35.8422 44.2795L35.7414 44.0457Z"
        fill="#633706" />
    <path d="M34.396 42.6562L34.6249 43.2863L34.6669 43.8266L34.7754 43.3548L34.396 42.6562Z"
        fill="#492002" />
    <path
        d="M32.4416 45.0277L35.9045 45.1432C35.9045 45.1432 36.055 44.635 35.817 44.2192L35.5783 44.3004L35.7414 44.0463C35.7414 44.0463 35.4404 43.5731 34.7754 43.3533L34.6627 43.7579L34.6249 43.2847C34.6249 43.2847 34.0845 42.9956 33.4202 43.2847C32.7559 43.5731 32.0776 43.9574 32.4416 45.0277Z"
        fill="#3D1F04" />
    <path
        d="M32.4619 45.0305C32.1546 44.0603 32.8 43.6326 33.4524 43.3484C33.8304 43.1839 34.2378 43.1944 34.5528 43.3295L34.6676 43.8706L34.8279 43.4471C35.3102 43.6291 35.5762 43.9462 35.6532 44.0491L35.4061 44.4341L35.7792 44.3074C35.9227 44.6063 35.8471 45.013 35.8198 45.1418L32.4619 45.0305Z"
        fill="#CE8B32" />
    <path
        d="M32.5781 44.9096C32.5025 44.4896 32.5697 44.0178 32.9288 43.7455C33.395 43.4137 33.8752 43.3759 34.2126 43.5096C33.8948 43.3997 33.4034 43.4438 32.9526 43.7728C32.8021 43.8855 32.6901 44.0206 32.6152 44.2901C32.5655 44.4854 32.555 44.7241 32.5781 44.9096Z"
        fill="#AA691A" />
    <path
        d="M34.9203 43.7109C35.0876 43.7298 35.3767 43.9356 35.4516 44.2093C35.3564 44.0504 35.2311 43.8796 35.0064 43.7522C34.9784 43.7361 34.9511 43.72 34.9203 43.7109Z"
        fill="#AA691A" />
    <path
        d="M33.9235 43.6596C34.1307 43.6246 34.4415 43.6694 34.5773 43.8269C34.396 43.7044 34.1503 43.6778 33.9235 43.6596Z"
        fill="#AA691A" />
    <path
        d="M35.1744 44.6631C35.1744 44.2697 34.7978 44.1367 34.5465 43.9575C34.2952 43.7783 33.9809 43.8994 33.5721 43.8994C33.1633 43.8994 33.0128 44.0961 32.912 44.3929C32.8504 44.5735 32.9736 44.8563 33.0793 45.0495L33.1794 45.053C33.0779 44.8794 33.0002 44.6995 33.0142 44.5714C33.0506 44.2354 33.2704 44.0793 33.6477 44.0793C34.025 44.0793 33.9746 44.0156 34.2826 44.0793C34.5906 44.143 34.7915 44.1661 34.9203 44.4783C35.0064 44.6862 35.0372 44.9116 35.04 45.1146L35.1716 45.1188C35.1758 44.9746 35.1744 44.8129 35.1744 44.6631Z"
        fill="#AA691A" />
    <path
        d="M34.2819 44.0752C33.9739 44.0115 34.0243 44.0752 33.647 44.0752C33.2697 44.0752 33.0499 44.2313 33.0135 44.5673C32.9995 44.6954 33.0772 44.8753 33.1787 45.0489L33.2718 45.0517C33.2102 44.9257 33.1801 44.8053 33.2067 44.7073C33.3138 44.3181 33.5084 44.2544 33.7282 44.2544C33.948 44.2544 33.9669 44.2194 34.2749 44.2544C34.5829 44.2894 34.8468 44.4511 34.8468 44.8214C34.8468 44.9005 34.8265 44.9985 34.7943 45.1021L35.0386 45.1105C35.0365 44.9075 35.005 44.6821 34.9189 44.4742C34.7908 44.162 34.5899 44.1382 34.2819 44.0752Z"
        fill="#CE8B32" />
    <path
        d="M34.2756 44.2577C33.9676 44.2227 33.9487 44.2577 33.7289 44.2577C33.5091 44.2577 33.3138 44.3214 33.2074 44.7106C33.1801 44.8086 33.2109 44.929 33.2725 45.055L33.3558 45.0578C33.2907 44.9339 33.2557 44.8177 33.2809 44.7274C33.3824 44.3578 33.5581 44.327 33.7296 44.327C33.9879 44.327 34.7733 44.1933 34.7733 44.8247C34.7733 44.9024 34.7523 44.999 34.7187 45.1033L34.7957 45.1061C34.8279 45.0018 34.8482 44.9045 34.8482 44.8254C34.8482 44.4544 34.5836 44.292 34.2756 44.2577Z"
        fill="#3D1F04" />
    <path
        d="M33.7288 44.3243C33.5573 44.3243 33.3816 44.3551 33.2801 44.7247C33.2556 44.815 33.2899 44.9312 33.355 45.0551L33.5188 45.0607C33.4362 44.9592 33.376 44.8493 33.4264 44.7821C33.5398 44.6316 33.4894 44.5791 33.7596 44.5245C34.0298 44.4692 34.0739 44.3712 34.3441 44.5245C34.5919 44.6652 34.5933 44.92 34.5436 45.095L34.7172 45.1006C34.7501 44.9963 34.7718 44.8997 34.7718 44.822C34.7725 44.1906 33.9871 44.3243 33.7288 44.3243Z"
        fill="#CE8B32" />
    <path
        d="M34.345 44.5275C34.0748 44.3742 34.0307 44.4722 33.7605 44.5275C33.4903 44.5828 33.5407 44.6346 33.4273 44.7851C33.3769 44.8523 33.4371 44.9622 33.5197 45.0637L34.5445 45.098C34.5942 44.923 34.5928 44.6682 34.345 44.5275Z"
        fill="#AA691A" />
    <path
        d="M34.2133 44.8781C34.2133 44.9488 34.0796 45.0062 33.9158 45.0062C33.7513 45.0062 33.6183 44.9488 33.6183 44.8781C33.6183 44.8074 33.7513 44.75 33.9158 44.75C34.0796 44.7493 34.2133 44.8067 34.2133 44.8781Z"
        fill="#3F2403" />
    <path opacity="0.84"
        d="M31.6715 37.4219C31.6715 37.4219 30.7468 37.4863 30.681 38.4173C30.6152 39.349 30.9834 39.5884 31.3964 39.4617C32.3225 39.1796 30.653 37.8979 31.6715 37.4219Z"
        fill="#F72B1E" />
    <path opacity="0.84"
        d="M31.9886 37.3377C32.0509 37.316 30.8686 37.4882 30.8028 38.4199C30.737 39.3516 31.1052 39.591 31.5182 39.4643C32.4443 39.1815 30.5886 37.8284 31.9886 37.3377Z"
        fill="#F72B1E" />
    <path
        d="M31.1606 38.106C31.1725 37.9541 30.8407 39.2603 31.1606 39.4451C31.1963 39.4661 31.2306 39.4822 31.2621 39.4948C31.3426 39.5046 31.4294 39.4941 31.5183 39.4675C31.5526 39.457 31.5834 39.4451 31.6107 39.4318C31.6359 39.3926 31.6485 39.3443 31.6485 39.2946C31.6485 39.1126 31.1137 38.7178 31.1606 38.106Z"
        fill="#FCC700" />
    <path opacity="0.84"
        d="M34.3 37.5859C34.3 37.5859 33.3753 37.6503 33.3095 38.5813C33.2437 39.513 33.6119 39.7517 34.0249 39.6257C34.951 39.3429 33.2815 38.0612 34.3 37.5859Z"
        fill="#F72B1E" />
    <path opacity="0.84"
        d="M34.6172 37.5017C34.6795 37.48 33.4972 37.6522 33.4314 38.5839C33.3656 39.5156 33.7338 39.7543 34.1468 39.6283C35.0729 39.3455 33.2172 37.9924 34.6172 37.5017Z"
        fill="#F72B1E" />
    <path
        d="M33.7891 38.2701C33.801 38.1182 33.4692 39.4244 33.7891 39.6092C33.8248 39.6302 33.8591 39.6463 33.8906 39.6589C33.9711 39.6687 34.0579 39.6582 34.1468 39.6316C34.1811 39.6211 34.2119 39.6092 34.2392 39.5952C34.2644 39.556 34.277 39.5077 34.277 39.458C34.2777 39.2774 33.7422 38.8819 33.7891 38.2701Z"
        fill="#FCC700" />
    <path opacity="0.3"
        d="M33.3019 42.2542C33.3019 42.2542 32.9505 43.013 33.1969 43.1019C33.4433 43.1908 33.5245 42.6946 33.7275 42.8983C33.9305 43.1013 34.277 43.006 34.277 42.7176C34.277 42.4292 33.7947 41.7614 33.3019 42.2542Z"
        fill="#F95300" />
    <path
        d="M31.4958 32.2846C31.4958 32.3469 31.4454 32.3973 31.3831 32.3973C31.3208 32.3973 31.2704 32.3469 31.2704 32.2846C31.2704 32.2223 31.3208 32.1719 31.3831 32.1719C31.4454 32.1719 31.4958 32.2223 31.4958 32.2846Z"
        fill="#FF6001" />
    <path
        d="M32.7797 30.3406C32.8392 30.3406 32.8875 30.2923 32.8875 30.2328C32.8875 30.1733 32.8392 30.125 32.7797 30.125C32.7201 30.125 32.6719 30.1733 32.6719 30.2328C32.6719 30.2923 32.7201 30.3406 32.7797 30.3406Z"
        fill="#FF6001" />
    <path
        d="M35.3794 38.575C35.3794 38.638 35.3283 38.6891 35.2653 38.6891C35.2023 38.6891 35.1512 38.638 35.1512 38.575C35.1512 38.512 35.2023 38.4609 35.2653 38.4609C35.3283 38.4609 35.3794 38.512 35.3794 38.575Z"
        fill="#FF6001" />
    <path
        d="M34.321 28.8393C34.321 28.9016 34.2706 28.952 34.2083 28.952C34.146 28.952 34.0956 28.9016 34.0956 28.8393C34.0956 28.777 34.146 28.7266 34.2083 28.7266C34.2706 28.7266 34.321 28.777 34.321 28.8393Z"
        fill="#FF6001" />
    <path
        d="M33.1395 34.9515C33.1374 34.9872 33.1066 35.0152 33.0709 35.0131C33.0352 35.011 33.0072 34.9802 33.0093 34.9445C33.0114 34.9088 33.0422 34.8808 33.0779 34.8829C33.1136 34.885 33.1416 34.9158 33.1395 34.9515Z"
        fill="#FCC700" />
    <path
        d="M33.1191 33.966C33.1191 33.9905 33.0995 34.0094 33.075 34.0094C33.0505 34.0094 33.0309 33.9898 33.0309 33.966C33.0309 33.9422 33.0505 33.9219 33.075 33.9219C33.0995 33.9219 33.1191 33.9415 33.1191 33.966Z"
        fill="#FCC700" />
    <path
        d="M32.4625 37.7419C32.4625 37.7804 32.431 37.8119 32.3925 37.8119C32.354 37.8119 32.3225 37.7804 32.3225 37.7419C32.3225 37.7034 32.354 37.6719 32.3925 37.6719C32.431 37.6719 32.4625 37.7034 32.4625 37.7419Z"
        fill="#FCC700" />
    <path
        d="M34.62 36.6239C34.62 36.6659 34.5857 36.7002 34.5437 36.7002C34.5017 36.7002 34.4667 36.6659 34.4667 36.6239C34.4667 36.5812 34.501 36.5469 34.5437 36.5469C34.5857 36.5476 34.62 36.5819 34.62 36.6239Z"
        fill="#FCC700" />
    <defs>
        <linearGradient id="paint0_linear_5640_5570" x1="15.8131" y1="27.5592" x2="26.0056"
            y2="27.5592" gradientUnits="userSpaceOnUse">
            <stop stop-color="#2C4948" />
            <stop offset="1" stop-color="#405D5C" />
        </linearGradient>
        <linearGradient id="paint1_linear_5640_5570" x1="8.15259" y1="20.3207" x2="25.9504"
            y2="43.5484" gradientUnits="userSpaceOnUse">
            <stop stop-color="#4B7D7B" />
            <stop offset="1" stop-color="#D17A66" />
        </linearGradient>
        <linearGradient id="paint2_linear_5640_5570" x1="22.2302" y1="25.9316" x2="29.8223"
            y2="25.9316" gradientUnits="userSpaceOnUse">
            <stop stop-color="#2C4948" />
            <stop offset="1" stop-color="#405D5C" />
        </linearGradient>
        <linearGradient id="paint3_linear_5640_5570" x1="25.9546" y1="31.2001" x2="39.7295"
            y2="31.2001" gradientUnits="userSpaceOnUse">
            <stop stop-color="#2C4948" />
            <stop offset="1" stop-color="#405D5C" />
        </linearGradient>
        <linearGradient id="paint4_linear_5640_5570" x1="34.0831" y1="51.568" x2="6.62405"
            y2="32.6197" gradientUnits="userSpaceOnUse">
            <stop stop-color="#223837" />
            <stop offset="1" stop-color="#6FA19F" />
        </linearGradient>
        <linearGradient id="paint5_linear_5640_5570" x1="26.9791" y1="35.1984" x2="39.3352"
            y2="36.9089" gradientUnits="userSpaceOnUse">
            <stop stop-color="#2C4948" />
            <stop offset="1" stop-color="#405D5C" />
        </linearGradient>
        <linearGradient id="paint6_linear_5640_5570" x1="26.1048" y1="31.6383" x2="35.4676"
            y2="31.6383" gradientUnits="userSpaceOnUse">
            <stop stop-color="#223837" />
            <stop offset="1" stop-color="#6FA19F" />
        </linearGradient>
        <linearGradient id="paint7_linear_5640_5570" x1="31.8334" y1="13.3677" x2="25.4952"
            y2="41.0395" gradientUnits="userSpaceOnUse">
            <stop stop-color="#4B7D7B" />
            <stop offset="1" stop-color="#D17A66" />
        </linearGradient>
        <linearGradient id="paint8_linear_5640_5570" x1="26.1048" y1="38.918" x2="38.7014"
            y2="38.918" gradientUnits="userSpaceOnUse">
            <stop stop-color="#7F4A3E" />
            <stop offset="1" stop-color="#2C4948" />
        </linearGradient>
    </defs>
</svg>
    