<svg width="70" height="56" viewBox="0 0 70 56" fill="none" xmlns="http://www.w3.org/2000/svg">
    <path
        d="M10.5436 15.75C10.5436 15.75 9.86084 19.637 9.86084 22.9715C9.86084 26.3052 10.8879 29.893 12.6084 31.6135C14.329 33.334 16.7692 36.1742 16.7692 36.1742C16.7692 36.1742 15.7823 27.6126 14.3954 23.3977C13.0076 19.1837 10.5436 15.75 10.5436 15.75Z"
        fill="url(#paint0_linear_5640_5402)" />
    <path
        d="M6.01892 18.9453C6.01892 18.9453 6.67222 27.3119 7.83454 30.0898C9.98869 35.24 16.8356 36.176 16.8356 36.176C16.8356 36.176 13.656 24.302 6.01892 18.9453Z"
        fill="url(#paint1_linear_5640_5402)" />
    <path
        d="M14.6356 29.0189C16.3963 35.2068 16.716 35.7937 16.716 35.7937C16.716 35.7937 20.1833 27.7919 19.1701 22.5639C18.1562 17.3359 17.143 13.9219 17.143 13.9219C17.143 13.9219 12.8749 22.8311 14.6356 29.0189Z"
        fill="url(#paint2_linear_5640_5402)" />
    <path
        d="M25.8531 20.6953C25.8531 20.6953 26.9031 26.175 24.3842 31.2693C21.8653 36.3637 16.734 36.1514 16.734 36.1514C16.734 36.1514 16.8873 32.6571 19.2964 29.489C21.7046 26.3217 25.2219 22.7568 25.8531 20.6953Z"
        fill="url(#paint3_linear_5640_5402)" />
    <path
        d="M16.734 36.1622C16.734 36.1622 21.2603 34.2507 23.6301 32.1818C25.9998 30.1121 26.4974 27.2891 26.4974 27.2891C26.4974 27.2891 21.0046 28.5211 19.1628 30.1301C17.3209 31.7383 16.734 36.1622 16.734 36.1622Z"
        fill="url(#paint4_linear_5640_5402)" />
    <path
        d="M24.2095 19.4531C24.2095 19.4531 23.5931 28.4263 22.4177 30.2231C21.1045 32.2297 16.8356 36.1699 16.8356 36.1699C16.8356 36.1699 18.8381 23.004 24.2095 19.4531Z"
        fill="url(#paint5_linear_5640_5402)" />
    <path
        d="M21.1046 15.75C21.1046 15.75 23.1399 25.2814 16.8356 36.1742C16.8356 36.1742 13.2085 24.6404 21.1046 15.75Z"
        fill="url(#paint6_linear_5640_5402)" />
    <path
        d="M25.3735 31.1484C25.3735 31.1484 18.3979 32.3435 16.8356 36.174C16.8356 36.174 24.1284 35.9494 25.3735 31.1484Z"
        fill="url(#paint7_linear_5640_5402)" />
    <path
        d="M7.04028 21.2422C8.80344 24.8242 13.5142 34.3687 16.8356 36.1753C13.2437 34.5171 8.58048 24.9152 7.04028 21.2422Z"
        fill="#EE4A18" />
    <path
        d="M16.8356 36.1745C16.8356 36.1745 14.6126 33.1728 10.5896 32.0761C6.56735 30.9793 2.80005 31.5277 2.80005 31.5277C2.80005 31.5277 8.3387 37.177 16.8356 36.1745Z"
        fill="url(#paint8_linear_5640_5402)" />
    <path
        d="M3.99268 31.8359C7.55587 32.8876 13.9618 35.0778 16.7684 36.1688C13.9298 35.3434 7.49276 33.1811 3.99268 31.8359Z"
        fill="#EE4A18" />
    <path
        d="M67.4951 37.8144C67.4951 40.9005 53.3152 43.4022 35.8238 43.4022C18.3324 43.4022 4.15259 40.9005 4.15259 37.8144C4.15259 34.7283 18.3324 32.2266 35.8238 32.2266C53.3152 32.2266 67.4951 34.7283 67.4951 37.8144Z"
        fill="#5E7575" />
    <path
        d="M39.9927 17.3203L39.473 18.7859L40.1198 20.0212L40.9862 19.8941L41.1477 18.4621L41.9116 17.622L39.9927 17.3203Z"
        fill="#FC7575" />
    <path d="M55.4373 29.5208L53.6545 28.0938L52.943 28.9766L54.5193 30.3102L55.4373 29.5208Z"
        fill="#1D2134" />
    <path
        d="M46.9158 34.5836C46.815 34.5836 46.7158 34.5394 46.6486 34.4549L43.9248 31.0213C43.8075 30.8737 43.8329 30.6598 43.9797 30.5425C44.1272 30.4253 44.3412 30.4507 44.4584 30.5975L47.1822 34.0312C47.2994 34.1787 47.274 34.3926 47.1273 34.5099C47.0642 34.5599 46.9896 34.5836 46.9158 34.5836Z"
        fill="#412B12" />
    <path
        d="M25.7333 35.4495L42.7592 30.001C43.028 29.9149 43.3157 30.0633 43.4018 30.3322C43.4879 30.601 43.3395 30.8887 43.0706 30.974L26.0448 36.4225C25.4006 36.6282 25.0891 35.6552 25.7333 35.4495Z"
        fill="#412B12" />
    <path
        d="M32.1597 17.8927C31.0244 17.7509 29.2941 17.3697 28.6408 17.5181C27.9883 17.6656 26.853 18.2845 26.853 18.2845L37.6648 32.2791L43.1411 30.3495C43.1411 30.3495 43.1698 31.57 43.4247 32.1086C43.6796 32.6479 45.4395 32.3069 45.6379 32.1086C45.71 32.0364 46.0166 31.6733 46.3756 31.2422C47.3224 30.1061 47.1297 28.3864 45.9248 27.5281C45.7494 27.4027 45.583 27.315 45.4387 27.2847C44.6157 27.1142 39.7919 28.6044 39.423 27.9872C39.0541 27.3699 33.295 18.0353 32.1597 17.8927Z"
        fill="#0E463E" />
    <path
        d="M42.9427 29.0208C42.205 29.0208 38.6861 29.9855 38.0902 29.9855C37.4943 29.9855 30.258 19.6 29.5203 18.2943C29.3187 17.9377 29.0555 17.6828 28.776 17.5C28.7268 17.5049 28.6818 17.5123 28.6408 17.5221C27.9883 17.6697 26.853 18.2885 26.853 18.2885L37.6648 32.2831L43.1411 30.3536C43.1411 30.3536 43.1698 31.5741 43.4247 32.1126C43.646 32.579 44.9928 32.3872 45.4805 32.1979C45.033 31.0282 43.5821 29.0208 42.9427 29.0208Z"
        fill="#0B352F" />
    <path d="M41.5525 37.1785L46.3387 34.0628L46.0165 33.6562L41.2968 36.4588L41.5525 37.1785Z"
        fill="#563918" />
    <path
        d="M40.1444 25.9903C40.1444 25.9903 47.1962 24.4443 48.92 24.9427C50.6438 25.4411 52.4455 33.1986 53.0726 33.8249L52.2111 34.4684C52.2111 34.4684 48.5282 29.633 48.2151 27.7133C47.902 25.7936 42.21 27.8149 42.21 27.8149L40.1444 25.9903Z"
        fill="#485669" />
    <path
        d="M34.3163 19.0566C34.3163 19.0566 35.8229 18.6869 36.9762 19.8402C38.1295 20.9935 38.8738 21.7992 39.7443 21.564C40.6148 21.3287 39.6025 19.4262 39.6025 19.4262L40.8632 19C40.8632 19 42.4558 22.2575 42.064 23.3788C41.6722 24.5001 38.7344 23.3788 38.7344 23.3788L34.3163 19.0566Z"
        fill="#A13210" />
    <path d="M39.7369 16.8203L39.9722 19.9581H41.6763L41.9895 16.8539L39.7369 16.8203Z"
        fill="#C8C8DF" />
    <path
        d="M31.6909 19.5278C31.6909 19.5278 33.6794 18.7016 34.5811 19.0172C35.4827 19.3319 38.3033 22.0353 39.282 22.2705C40.2615 22.5058 40.8624 24.7779 40.8624 24.7779C40.8624 24.7779 39.382 27.9969 37.5975 28.528C35.8123 29.0592 33.1647 22.4869 32.6614 21.9844C32.1589 21.4803 30.8564 19.8221 31.6909 19.5278Z"
        fill="#D87306" />
    <path
        d="M48.5913 24.2395C45.8208 24.0739 47.9397 27.9879 47.9397 27.9879C49.1946 29.9814 52.2103 34.4684 52.2103 34.4684L53.0718 33.825C52.4455 33.1979 50.3832 24.3469 48.5913 24.2395Z"
        fill="#485669" />
    <path
        d="M40.1444 25.9903C40.1444 25.9903 47.1962 24.4443 48.92 24.9427C50.6438 25.4411 52.4455 33.1986 53.0726 33.8249L52.2111 34.4684C52.2111 34.4684 48.5282 29.633 48.2151 27.7133C47.902 25.7936 42.21 27.8149 42.21 27.8149L40.1444 25.9903Z"
        fill="#485669" />
    <path
        d="M40.8632 24.7794C40.8632 24.7794 47.1962 22.5859 48.4888 22.5859C49.7815 22.5859 53.9848 28.1098 54.4045 28.5295L53.6602 29.6599C53.6602 29.6599 49.3085 27.2475 48.1913 25.7573C48.1913 25.7573 41.0985 29.714 39.4443 29.7369C37.7902 29.7599 37.5984 28.5295 37.5984 28.5295L40.8632 24.7794Z"
        fill="#8192AA" />
    <path
        d="M38.8722 24.1538C38.8722 24.1538 40.7009 24.0234 41.0599 24.0234C41.419 24.0234 41.8403 24.7112 42.0067 25.1997C42.1731 25.6882 41.3075 24.3948 41.1919 24.3948C41.0763 24.3948 41.9255 25.5579 41.8108 25.6727C41.6968 25.7866 40.8763 24.3587 40.6837 24.5513C40.4911 24.7439 41.4034 25.4153 41.4034 25.6792C41.4034 25.9432 40.5378 24.9546 40.2771 24.9546C40.0156 24.9546 38.6935 25.0202 38.6935 25.0202L38.8722 24.1538Z"
        fill="#FC7575" />
    <path
        d="M33.3278 19.7653C33.3278 19.7653 33.8368 20.4554 34.0721 21.4423C34.3073 22.4293 34.8122 23.1432 35.3246 23.6563C35.8377 24.1695 39.232 23.5506 39.232 23.5506V24.9531C39.232 24.9531 35.0311 25.3064 34.0344 24.9531C32.9245 24.5604 30.3671 20.6431 31.4302 19.812C32.4942 18.98 33.3278 19.7653 33.3278 19.7653Z"
        fill="#E8AB6A" />
    <path
        d="M41.7903 38.2553L26.0416 18.3491C25.6227 17.8196 26.4227 17.1851 26.8424 17.7155L42.5911 37.6217C43.0108 38.1512 42.2092 38.7857 41.7903 38.2553Z"
        fill="#563918" />
    <path
        d="M30.6704 34.0186L29.9335 23.1028C29.89 22.4577 30.9089 22.3938 30.9532 23.0397L31.6901 33.9555C31.7335 34.6014 30.7138 34.6645 30.6704 34.0186Z"
        fill="#563918" />
    <path
        d="M37.723 32.6656C37.4722 32.6656 37.2533 32.4803 37.218 32.2254L36.282 25.4998C36.1885 24.8301 37.2008 24.69 37.2935 25.3588L38.2295 32.0836C38.2681 32.3631 38.0738 32.6213 37.7943 32.6598C37.7697 32.6639 37.7459 32.6656 37.723 32.6656Z"
        fill="#563918" />
    <path
        d="M39.8255 25.5389H32.136C31.4277 25.5389 31.4269 24.875 32.136 24.875H39.8255C40.1214 24.875 40.3607 25.0234 40.3607 25.207C40.3607 25.3906 40.1206 25.5389 39.8255 25.5389Z"
        fill="#563918" />
    <path
        d="M31.0933 15.2578C31.0933 15.2578 31.9024 15.7972 32.2909 16.6095C32.6794 17.4218 35.6025 19.0063 35.6025 19.0063C35.6025 19.0063 33.9008 19.4382 33.8541 19.485C33.8082 19.5309 30.5515 18.0792 30.5515 18.0792L31.0933 15.2578Z"
        fill="#A74326" />
    <path
        d="M33.6664 19.4544C33.7017 19.215 33.7804 18.9954 33.8328 18.638C33.9074 18.1273 33.9918 17.7478 33.9918 17.7478L32.7295 17.1953C32.7295 17.1953 32.5287 18.0207 32.3803 18.6765C32.282 19.1077 33.6427 19.6118 33.6664 19.4544Z"
        fill="#FC7575" />
    <path
        d="M32.7286 17.1953C32.7286 17.1953 32.695 17.3412 32.6442 17.5683C32.7466 17.7216 32.8925 17.8839 33.0966 18.0904C33.2999 18.297 33.5606 18.4953 33.8327 18.638C33.9081 18.1281 33.9917 17.7478 33.9917 17.7478L32.7286 17.1953Z"
        fill="#FD5E5A" />
    <path
        d="M35.7959 15.3972C35.7959 15.3972 34.6853 16.498 34.2631 16.6087C33.841 16.7193 32.9065 16.8661 32.9065 16.8661C32.9065 16.8661 32.4041 18.5235 32.3467 18.8907C32.3467 18.8907 30.7302 18.5317 31.6721 15.9308C32.0311 14.939 32.2073 14.3053 33.3295 13.9652C34.4516 13.6242 35.5386 14.3889 35.7959 15.3972Z"
        fill="#00147D" />
    <path
        d="M35.0197 14.9879C35.0197 14.9879 35.7 15.2789 35.7156 15.8018C35.7311 16.3256 35.5746 16.5723 35.582 16.8248C35.5893 17.0773 35.5123 17.5404 35.127 18.2289C34.7418 18.9175 33.7172 18.4158 33.1581 17.847C32.5286 17.2068 32.4827 17.0248 32.5778 16.0912C32.6721 15.1592 33.9336 14.4944 35.0197 14.9879Z"
        fill="#FC7575" />
    <path
        d="M34.8074 17.429C34.8033 17.3486 34.9082 17.4519 35.1262 17.2158C35.0623 17.0962 35.0344 16.9527 35.0385 16.8281C35.0811 17.0855 35.2107 17.1978 35.2262 17.2216C35.218 17.2281 35.0459 17.4544 34.85 17.4658C34.827 17.4667 34.8082 17.4503 34.8074 17.429Z"
        fill="#0028A6" />
    <path
        d="M34.4172 16.803C34.4639 16.8456 34.5377 16.8431 34.5819 16.7981C34.6262 16.753 34.6237 16.6825 34.577 16.6399C34.5303 16.5972 34.4565 16.5997 34.4123 16.6448C34.3688 16.6899 34.3705 16.7612 34.4172 16.803Z"
        fill="#0028A6" />
    <path
        d="M35.3836 16.8577C35.4303 16.9003 35.5041 16.8978 35.5483 16.8528C35.5926 16.8077 35.5901 16.7372 35.5434 16.6946C35.4967 16.6519 35.4229 16.6544 35.3786 16.6995C35.3344 16.7446 35.3368 16.815 35.3836 16.8577Z"
        fill="#0028A6" />
    <path
        d="M34.8615 16.5718C34.7304 16.5481 34.5967 16.5489 34.4631 16.5751C34.3951 16.5907 34.3353 16.6112 34.2746 16.6341C34.2139 16.6571 34.1541 16.6817 34.0951 16.7153C34.1639 16.721 34.2295 16.712 34.2943 16.6989C34.359 16.6874 34.4221 16.662 34.4803 16.6472C34.6033 16.6161 34.732 16.5972 34.8615 16.5718Z"
        fill="#00115B" />
    <path
        d="M35.7369 16.6308C35.6393 16.6185 35.5385 16.6259 35.4377 16.6513C35.3852 16.6661 35.3402 16.6849 35.2934 16.7046C35.2467 16.7251 35.2008 16.7464 35.1549 16.7743C35.2057 16.7751 35.2565 16.7652 35.3057 16.7529C35.3549 16.7415 35.4033 16.7193 35.4484 16.7054C35.541 16.6759 35.6377 16.657 35.7369 16.6308Z"
        fill="#00115B" />
    <path
        d="M34.8926 16.2344L34.8246 16.3664C34.8246 16.3664 34.4754 16.3147 34.3098 16.4369C34.3098 16.436 34.6065 16.1246 34.8926 16.2344Z"
        fill="#00115B" />
    <path
        d="M35.6787 16.2579L35.6427 16.3841C35.6427 16.3841 35.2935 16.3325 35.1271 16.4546C35.1279 16.4546 35.3927 16.1489 35.6787 16.2579Z"
        fill="#00115B" />
    <path
        d="M35.0574 17.8138C35.0574 17.8138 34.6615 17.7384 34.3385 17.5859C34.3385 17.5859 34.5975 18.0843 34.7877 18.0786C34.9795 18.0737 35.0574 17.8138 35.0574 17.8138Z"
        fill="white" />
    <path
        d="M35.7378 14.5736C35.7378 14.5736 36.287 14.7096 36.1673 15.2178C36.0476 15.726 34.6476 16.2285 33.741 16.0424C33.4008 15.9728 33.3885 16.1679 33.2443 16.2834C33.0049 16.4761 32.7918 16.7195 32.959 17.14C33.227 17.8122 33.5508 17.4974 33.5508 17.4974C33.5508 17.4974 33.2541 17.8663 32.4672 17.5884C31.6811 17.3105 31.659 16.167 32.3024 15.5539C32.9459 14.9408 33.5836 14.6793 34.0935 14.558C35.2009 14.2957 35.7378 14.5736 35.7378 14.5736Z"
        fill="#2846A6" />
    <path
        d="M32.9557 16.1021C33.0491 16.1103 33.4344 16.4071 33.3057 16.6776C33.177 16.9481 33.0704 16.9603 32.8196 16.8112C32.5671 16.662 32.718 16.0808 32.9557 16.1021Z"
        fill="#FC7575" />
    <path
        d="M33.1984 16.4969C33.1984 16.4969 33.0172 16.2461 32.9082 16.3559C32.8 16.4658 32.818 16.6699 32.9533 16.7453C33.0885 16.8207 33.3221 16.6478 33.1984 16.4969Z"
        fill="#FD5E5A" />
    <path
        d="M33.7581 17.1109C33.7458 17.2371 33.9048 17.3543 34.1147 17.3732C34.3245 17.392 34.5049 17.3052 34.5172 17.1789C34.5294 17.0527 34.3696 16.9355 34.1606 16.9166C33.9507 16.8978 33.7704 16.9847 33.7581 17.1109Z"
        fill="#FD5E5A" />
    <path
        d="M35.2492 17.3053C35.2599 17.1979 35.3918 17.1192 35.5599 17.1094C35.5402 17.229 35.5058 17.37 35.4484 17.5323C35.323 17.4848 35.2402 17.3971 35.2492 17.3053Z"
        fill="#FD5E5A" />
    <path
        d="M35.6024 19.0063C35.6024 19.0063 32.7032 18.421 31.9729 17.6907C31.1155 16.8333 31.0933 15.2578 31.0933 15.2578C31.0933 15.2578 30.5376 15.2873 30.2179 15.6078C29.8982 15.9275 28.0933 20.0096 31.431 19.8063C32.9622 19.7128 34.6016 20.2883 34.6016 20.2883L35.6024 19.0063Z"
        fill="#F3EEB5" />
    <path
        d="M53.9037 29.8102C53.9037 29.8102 53.6725 29.4052 53.3561 29.4774L53.2283 29.7692L53.8545 29.8634L53.9037 29.8102Z"
        fill="#36414F" />
    <path
        d="M55.2406 28.2422C55.2406 28.2422 55.7316 28.9701 55.9021 29.2037C56.0726 29.4365 57.0054 29.225 57.5562 29.3881C58.107 29.5504 57.9857 30.2988 57.9857 30.2988L56.3332 31.2234L55.1947 31.2857C55.1947 31.2857 54.4897 31.6751 54.1922 31.63C53.8946 31.5857 53.5151 29.9242 53.7061 29.7848C53.8971 29.6455 54.6758 29.1479 54.7414 28.743C54.8078 28.3365 55.2406 28.2422 55.2406 28.2422Z"
        fill="#603E6B" />
    <path
        d="M56.0324 29.542C55.3791 29.4444 55.125 29.0641 54.8471 28.9624C54.6381 28.887 54.4569 29.4756 53.7069 29.7797C53.961 29.5707 54.2815 29.2231 54.4487 29.0116C54.5241 28.9411 54.5766 28.7731 54.7905 28.7657C55.0012 28.76 55.2651 29.0223 55.4373 29.1674C55.616 29.3108 55.816 29.4362 56.0324 29.542Z"
        fill="#36414F" />
    <path d="M55.9775 29.1484L55.5422 29.6484L55.6193 29.7157L56.0865 29.2116L55.9775 29.1484Z"
        fill="#F3EEB5" />
    <path d="M56.1694 29.25L55.8079 29.7467L55.8792 29.7574L56.3259 29.2738L56.1694 29.25Z"
        fill="#F3EEB5" />
    <path
        d="M55.2128 30.9269C55.3267 30.8442 56.0398 30.9696 56.3136 30.9622C56.5103 30.9573 57.4604 30.1786 57.962 29.8359C58.0915 30.0614 58.0735 30.2474 58.0735 30.2474L56.3193 31.2581L55.1939 31.2843C55.1939 31.2843 54.489 31.6737 54.1914 31.6286C54.1111 31.6163 54.0242 31.486 53.9447 31.2999C54.4324 31.1065 55.1374 30.981 55.2128 30.9269Z"
        fill="#FF9739" />
    <path
        d="M56.5751 29.5863C57.2718 29.3978 57.8317 29.6773 57.6948 29.847C57.5308 30.0503 57.5505 29.4953 56.5751 29.5863Z"
        fill="#6D7887" />
    <path
        d="M52.1979 34.4508C52.1979 34.4508 51.9667 34.0459 51.6503 34.118L51.5225 34.4098L52.1487 34.5041L52.1979 34.4508Z"
        fill="#36414F" />
    <path
        d="M53.534 32.8828C53.534 32.8828 54.025 33.6107 54.1955 33.8443C54.366 34.0771 55.2988 33.8664 55.8496 34.0287C56.4005 34.191 56.2792 34.9394 56.2792 34.9394L54.6267 35.864L53.4881 35.9263C53.4881 35.9263 52.7832 36.3157 52.4856 36.2706C52.1881 36.2263 51.8086 34.5648 51.9996 34.4255C52.1905 34.2861 52.9693 33.7886 53.0348 33.3836C53.1004 32.9787 53.534 32.8828 53.534 32.8828Z"
        fill="#603E6B" />
    <path
        d="M54.3258 34.1826C53.6725 34.085 53.4184 33.7047 53.1406 33.6031C52.9307 33.5277 52.7504 34.1162 52.0004 34.4203C52.2545 34.2113 52.575 33.8637 52.7422 33.6522C52.8176 33.5818 52.8701 33.4137 53.084 33.4063C53.2947 33.4006 53.5586 33.6629 53.7316 33.808C53.9103 33.9514 54.1094 34.0768 54.3258 34.1826Z"
        fill="#36414F" />
    <path d="M54.2717 33.7891L53.8364 34.2891L53.9135 34.3563L54.3807 33.8522L54.2717 33.7891Z"
        fill="#F3EEB5" />
    <path d="M54.4627 33.8906L54.1012 34.3874L54.1725 34.398L54.6192 33.9144L54.4627 33.8906Z"
        fill="#F3EEB5" />
    <path
        d="M53.507 35.5676C53.6209 35.4848 54.334 35.6102 54.6078 35.6028C54.8045 35.5979 55.7545 34.8192 56.2562 34.4766C56.3857 34.702 56.3677 34.888 56.3677 34.888L54.6135 35.8987L53.4881 35.9249C53.4881 35.9249 52.7832 36.3143 52.4856 36.27C52.4053 36.2577 52.3184 36.1274 52.2389 35.9413C52.7266 35.7471 53.4315 35.6217 53.507 35.5676Z"
        fill="#FF9739" />
    <path
        d="M54.8693 34.2269C55.566 34.0384 56.1259 34.3179 55.989 34.4876C55.825 34.6909 55.8439 34.1359 54.8693 34.2269Z"
        fill="#6D7887" />
    <path
        d="M40.3279 17.6929L39.7369 18.7454L39.8083 17.7749C39.8083 17.7749 40.5238 17.0208 40.3279 17.6929Z"
        fill="#FC7575" />
    <path
        d="M41.9116 17.5312C41.9116 17.5312 40.4533 17.7575 40.6927 17.9968C40.932 18.2362 42.1263 18.0919 42.1263 17.9518C42.1263 17.8116 41.9116 17.5312 41.9116 17.5312Z"
        fill="#FC7575" />
    <path
        d="M41.892 18.0495C41.892 18.0495 40.9633 17.9273 40.9633 18.147C40.9633 18.3667 41.8739 18.6323 41.9895 18.5167C42.1059 18.4003 41.892 18.0495 41.892 18.0495Z"
        fill="#FC7575" />
    <path
        d="M41.819 18.5407C41.819 18.5407 41.1362 18.1136 41.055 18.3899C40.9739 18.6661 41.6673 19.1866 41.8518 19.0014C42.0362 18.8161 41.819 18.5407 41.819 18.5407Z"
        fill="#FC7575" />
    <path
        d="M28.381 27.8125C28.381 27.8125 30.1884 28.124 30.5367 28.2101C30.8859 28.2961 31.1302 29.065 31.1745 29.5798C31.2187 30.0945 30.6884 28.6306 30.5761 28.6027C30.4638 28.5748 31.0089 29.9085 30.8704 29.9921C30.7318 30.0757 30.2777 28.492 30.0441 28.633C29.8105 28.774 30.5351 29.6445 30.472 29.9003C30.4089 30.156 29.8056 28.9888 29.5515 28.9265C29.2982 28.8642 27.4834 28.0953 27.4834 28.0953L28.381 27.8125Z"
        fill="#FC7575" />
    <path
        d="M30.8081 37.4153C30.6991 37.4153 30.5917 37.3678 30.5188 37.2752L27.5646 33.5521C27.4376 33.3923 27.4646 33.1603 27.6245 33.0332C27.7843 32.9062 28.0163 32.9332 28.1433 33.0931L31.0975 36.8161C31.2245 36.976 31.1975 37.2079 31.0376 37.335C30.9696 37.3891 30.8885 37.4153 30.8081 37.4153Z"
        fill="#563918" />
    <path d="M24.9924 40.233L30.1827 36.8542L29.8335 36.4141L24.7153 39.4527L24.9924 40.233Z"
        fill="#563918" />
    <path
        d="M7.83711 38.3721L26.2998 32.4638C26.5917 32.3712 26.9031 32.531 26.9966 32.8228C27.09 33.1138 26.9294 33.4261 26.6376 33.5195L8.17482 39.4279C7.47727 39.65 7.13955 38.5951 7.83711 38.3721Z"
        fill="#8A6034" />
    <path
        d="M13.192 36.8151L12.3928 25.1616C12.3453 24.4722 13.4511 24.4042 13.4986 25.0943L14.2978 36.7479C14.3445 37.4372 13.2388 37.5045 13.192 36.8151Z"
        fill="#8A6034" />
    <path
        d="M14.8068 19.318C13.5757 19.1639 11.6986 18.7508 10.9912 18.9115C10.2838 19.0721 9.05261 19.7426 9.05261 19.7426L20.7767 34.9192L26.7153 32.8265C26.7153 32.8265 26.7465 34.1495 27.0235 34.7348C27.3006 35.3192 29.208 34.9504 29.4236 34.7348C29.6392 34.5192 32.1728 32.9503 32.1728 32.9503C32.1728 32.9503 31.5441 31.1322 30.6515 30.947C29.7588 30.7626 23.0849 30.9347 22.6849 30.265C22.2841 29.5961 16.0372 19.4721 14.8068 19.318Z"
        fill="#135D52" />
    <path
        d="M26.4998 31.3827C25.6998 31.3827 21.8841 32.4286 21.2382 32.4286C20.5923 32.4286 12.7454 21.1661 11.9453 19.7513C11.7265 19.3644 11.4412 19.0882 11.1388 18.8906C11.0855 18.8964 11.0363 18.9046 10.992 18.9144C10.2846 19.0751 9.05347 19.7456 9.05347 19.7456L20.7775 34.9222L26.7162 32.8295C26.7162 32.8295 26.7473 34.1525 27.0244 34.7377C27.2637 35.2435 28.7252 35.0353 29.2539 34.8303C28.7662 33.5598 27.1932 31.3827 26.4998 31.3827Z"
        fill="#0E463E" />
    <path
        d="M34.3155 29.6677L24.8382 27.3906L22.9923 28.7448L33.3622 31.8834C33.3622 31.8834 37.8869 37.1409 38.8714 37.7261C38.9181 37.754 39.4853 36.7728 39.7058 36.4203C37.9746 34.7654 34.3155 29.6677 34.3155 29.6677Z"
        fill="#032647" />
    <path
        d="M32.4999 30.9907L24.9915 27.3906C24.9915 27.3906 22.9358 28.5538 22.53 28.9603C22.1243 29.3661 20.4013 31.4661 20.9734 31.7366C21.5456 32.0071 30.1925 32.4375 30.1925 32.4375C30.1925 32.4375 33.7622 36.5302 35.5778 37.7917C37.3935 39.0532 38.1935 39.2688 38.1935 39.2688L38.8091 38.4688L32.4999 30.9907Z"
        fill="#163D55" />
    <path
        d="M38.8082 38.4679C36.7565 36.1785 33.2294 32.0358 32.4195 31.0587L32.4548 31.0858C31.9359 30.8325 28.0465 28.9669 24.9923 27.3906C27.3112 28.4202 30.4269 29.8833 32.5663 30.9046C34.0729 32.6981 36.5754 35.6556 38.8082 38.4679Z"
        fill="#5490B4" />
    <path
        d="M18.5529 19.4453C18.5529 19.4453 20.0619 20.5896 22.0374 21.9495C24.3636 23.5512 28.3072 27.075 28.699 27.8168C28.699 27.8168 27.7186 28.0849 27.7932 28.1586C28.0555 28.4209 27.0055 28.0644 26.6629 28.0021C26.2973 27.9357 25.7711 27.7152 25.5243 27.4373L18.5529 19.4453Z"
        fill="#6F1A00" />
    <path
        d="M18.5529 19.4384C18.7144 19.5999 21.4489 21.4032 22.1874 22.9492C22.926 24.4951 25.317 26.4279 25.6949 27.3739C26.0728 28.3198 22.5776 28.2239 22.2727 29.601C21.9678 30.9772 21.0907 31.9699 20.1448 31.0239C19.1989 30.078 16.0603 27.3066 15.7135 26.0624C15.3668 24.8172 14.5594 19.6696 15.3906 19.4392C16.2226 19.2073 18.5529 19.4384 18.5529 19.4384Z"
        fill="#A13210" />
    <path
        d="M16.2045 17.7693C16.1389 17.7455 14.9758 16.1078 14.9758 16.1078C14.9758 16.1078 14.1618 14.8651 14.4037 14.566C14.6463 14.2668 15.1586 13.3061 15.7824 13.1454C16.4062 12.9848 16.8775 13.0815 16.9431 13.1053C17.0086 13.129 17.5988 13.7446 17.5988 13.7446C17.5988 13.7446 17.348 13.5495 17.4791 14.4602C17.6103 15.3709 16.2045 17.7693 16.2045 17.7693Z"
        fill="#381A3F" />
    <path
        d="M17.7676 17.3086C17.752 17.5561 17.5094 19.5316 18.1126 19.8693C18.2971 19.9726 16.3806 20.0931 16.2462 19.6144C15.8314 18.1373 15.5216 16.3594 15.5216 16.3594L17.7676 17.3086Z"
        fill="#FC7575" />
    <path
        d="M15.5216 16.3594C15.5216 16.3594 15.6003 16.8143 15.7314 17.4537C16.1585 18.0086 17.0167 18.6357 17.7077 18.5488C17.6954 17.984 17.7594 17.4315 17.7676 17.3086L15.5216 16.3594Z"
        fill="#FD5E5A" />
    <path
        d="M15.1004 15.0182C15.0225 15.6658 15.2897 16.7543 16.0504 17.447C16.8111 18.1396 17.6791 18.3863 18.116 17.8454C18.5529 17.3044 18.0398 14.6707 17.475 14.0936C16.9111 13.5157 15.2192 14.0313 15.1004 15.0182Z"
        fill="#FC7575" />
    <path
        d="M15.743 17.5134C15.743 17.5134 15.402 16.6921 15.0339 16.5585C14.6659 16.4249 14.4913 16.3314 14.3569 16.0445C14.2224 15.7576 13.12 15.8019 13.165 15.2683C13.2093 14.7347 13.9733 14.3125 14.1708 13.3567C14.3683 12.401 14.6979 11.8215 15.7536 11.9067C16.8094 11.992 17.1037 12.5764 17.1037 12.5764C17.1037 12.5764 17.5143 12.3985 17.9143 12.8707C18.3143 13.342 18.2037 13.6895 18.0988 13.9789C18.0988 13.9789 17.9545 13.2666 17.7332 13.3699C17.5119 13.4731 17.9463 14.192 17.9463 14.192C17.9463 14.192 17.5192 13.9773 17.0282 13.6051C16.5373 13.2338 16.7668 13.7486 17.0266 14.3043C17.2864 14.8601 16.3176 14.5051 15.8413 14.1707C15.3651 13.8363 14.9405 14.3519 14.9011 14.9928C14.8634 15.633 15.9331 16.3765 15.743 17.5134Z"
        fill="#653870" />
    <path
        d="M15.5216 15.9108C15.5216 15.9108 15.0216 15.3829 14.9102 15.6895C14.7995 15.9952 15.1495 16.7501 15.5315 16.6698C15.9126 16.5887 15.5216 15.9108 15.5216 15.9108Z"
        fill="#FC7575" />
    <path
        d="M15.3389 15.9943C15.3389 15.9943 15.261 15.6393 15.1069 15.7992C14.952 15.959 15.284 16.4812 15.4512 16.4303C15.6184 16.3787 15.3389 15.9943 15.3389 15.9943Z"
        fill="#FD5E5A" />
    <path
        d="M17.2471 15.3828C17.3544 15.5279 17.4422 15.6869 17.5143 15.8525C17.6651 16.2123 17.6479 16.3853 17.652 16.4099C17.6077 16.4115 17.4922 16.4205 17.3348 16.4148C17.429 16.3902 17.5241 16.3705 17.6192 16.3541L17.5938 16.3853C17.5217 16.0435 17.3708 15.7197 17.2471 15.3828Z"
        fill="#172866" />
    <path
        d="M16.9667 17.0405C16.9281 17.0003 16.9888 16.9421 17.0273 16.9823C17.0396 16.9954 17.3363 17.2946 17.7077 17.1216C17.729 17.1118 17.7536 17.1208 17.7634 17.1421C17.8142 17.2511 17.3027 17.3741 16.9667 17.0405Z"
        fill="#172866" />
    <path
        d="M16.8053 15.5778C16.8528 15.6786 16.8331 15.7876 16.7626 15.8204C16.6922 15.8532 16.5962 15.7982 16.5487 15.6974C16.5012 15.5966 16.5208 15.4876 16.5913 15.4548C16.6626 15.422 16.7577 15.4769 16.8053 15.5778Z"
        fill="#2846A6" />
    <path
        d="M17.7964 15.1871C17.8439 15.2879 17.8242 15.397 17.7537 15.4298C17.6832 15.4625 17.5873 15.4076 17.5398 15.3068C17.4922 15.206 17.5119 15.097 17.5824 15.0642C17.6537 15.0314 17.7488 15.0863 17.7964 15.1871Z"
        fill="#2846A6" />
    <path
        d="M16.1504 15.4485C16.1504 15.4485 16.2348 15.1239 16.484 15.0075C16.7332 14.8911 16.7127 15.1386 16.6545 15.1665C16.5963 15.1936 16.1266 15.3977 16.1504 15.4485Z"
        fill="#172866" />
    <path
        d="M17.2856 14.6797C17.2856 14.6797 17.6225 14.7026 17.72 14.8371C17.72 14.8371 17.3823 14.8854 17.302 14.8199C17.2217 14.7535 17.2856 14.6797 17.2856 14.6797Z"
        fill="#172866" />
    <path
        d="M20.839 35.3429C20.5668 35.3429 20.33 35.142 20.2914 34.865L19.2758 27.5722C19.175 26.8459 20.2718 26.6935 20.3726 27.4197L21.3882 34.7125C21.4308 35.0158 21.2193 35.2953 20.916 35.3371C20.8906 35.3412 20.8644 35.3429 20.839 35.3429Z"
        fill="#8A6034" />
    <path d="M19.2816 27.6172H20.4005L20.4489 27.9647L19.3365 28.0098L19.2816 27.6172Z"
        fill="#563918" />
    <path
        d="M23.1457 27.6181H15.1897C14.4578 27.6181 14.4561 26.8984 15.1897 26.8984H23.1457C23.4514 26.8984 23.6998 27.0599 23.6998 27.2583C23.6998 27.4575 23.4514 27.6181 23.1457 27.6181Z"
        fill="#8A6034" />
    <path
        d="M15.1896 27.2583H23.1456C23.3497 27.2583 23.5267 27.3312 23.6226 27.4386C23.6702 27.3853 23.6997 27.3247 23.6997 27.2583C23.6997 27.0599 23.4513 26.8984 23.1456 26.8984H15.1896C14.6954 26.8984 14.5363 27.2247 14.7077 27.4378C14.7913 27.3353 14.9511 27.2583 15.1896 27.2583Z"
        fill="#DFAA74" />
    <path
        d="M15.4159 17.3359C15.1946 18.0745 14.8594 19.5245 14.8594 19.963C14.8594 20.4016 16.211 19.5057 16.8201 19.9901C17.4291 20.4745 19.7177 20.7057 19.7177 20.7057L19.0308 19.0212C19.0308 19.0212 18.4152 19.0212 18.2603 19.0212C17.4324 19.0204 15.4159 17.3359 15.4159 17.3359Z"
        fill="#E8AB6A" />
    <path
        d="M23.7686 26.0172C23.7686 26.0172 25.8637 25.8672 26.2752 25.8672C26.6867 25.8672 27.1695 26.6549 27.3597 27.2148C27.5507 27.7746 26.5588 26.2926 26.426 26.2926C26.2933 26.2926 27.2662 27.6254 27.1351 27.7566C27.0039 27.8877 26.0646 26.2516 25.8432 26.4721C25.6227 26.6926 26.667 27.4615 26.667 27.764C26.667 28.0664 25.676 26.9336 25.3768 26.9336C25.0777 26.9336 23.5629 27.0082 23.5629 27.0082L23.7686 26.0172Z"
        fill="#FC7575" />
    <path
        d="M17.3594 20.2559C17.3594 20.2559 18.3234 20.9583 18.7988 23.1772C19.2742 25.3961 19.6972 25.6757 20.798 25.5593C21.898 25.4437 24.235 25.6084 24.235 25.6084L24.6374 27.1683C24.6374 27.1683 19.2693 27.6618 17.3824 27.1364C15.4946 26.6109 13.656 20.4305 14.9872 19.8903C16.3168 19.3509 17.3594 20.2559 17.3594 20.2559Z"
        fill="#B45B40" />
    <path
        d="M17.4012 20.2031C17.4021 20.2039 17.4021 20.2039 17.4029 20.2048C17.4037 20.2056 17.4053 20.2064 17.4062 20.2072L17.4012 20.2031Z"
        fill="#D29D8C" />
    <path
        d="M19.8169 25.3328C18.7824 24.6516 19.148 21.695 17.4029 20.2031C16.7668 19.7113 15.916 19.5154 14.9865 19.8933C16.8283 19.3097 17.9562 20.6122 18.5193 22.4991C18.9111 23.7663 18.9546 25.6565 20.3735 25.6746C20.9382 25.6885 20.6538 25.5246 24.235 25.6106C20.5513 25.2246 20.3767 25.7106 19.8169 25.3328Z"
        fill="#D29D8C" />
    <path
        d="M38.7591 37.6491C38.7591 37.6491 38.3312 37.3884 38.073 37.618L38.1066 37.9557L38.741 37.7237L38.7591 37.6491Z"
        fill="#36414F" />
    <path
        d="M39.1837 35.5029C39.1837 35.5029 40.0247 35.9325 40.3058 36.0628C40.5878 36.1931 41.3477 35.5194 41.9477 35.3898C42.5477 35.2603 42.8264 36.021 42.8264 36.021L41.7673 37.7292L40.7362 38.3694C40.7362 38.3694 40.2821 39.0932 39.9804 39.2039C39.6796 39.3145 38.4533 37.9555 38.5591 37.7284C38.6648 37.5005 39.1304 36.6382 38.9796 36.2259C38.8296 35.8128 39.1837 35.5029 39.1837 35.5029Z"
        fill="#36414F" />
    <path
        d="M40.6075 36.3123C39.946 36.5549 39.51 36.3295 39.196 36.3762C38.9608 36.4123 39.1009 37.0549 38.5599 37.723C38.6878 37.3975 38.805 36.9098 38.8501 36.6262C38.8829 36.5213 38.8444 36.3385 39.0411 36.2213C39.2345 36.1082 39.619 36.218 39.8567 36.2664C40.0977 36.3098 40.3501 36.3246 40.6075 36.3123Z"
        fill="#29313B" />
    <path d="M40.3476 35.9766L40.2034 36.6659L40.3116 36.6897L40.4829 35.979L40.3476 35.9766Z"
        fill="#F3EEB5" />
    <path d="M40.5788 35.9723L40.5017 36.6215L40.5738 36.5944L40.737 35.9141L40.5788 35.9723Z"
        fill="#F3EEB5" />
    <path
        d="M40.5656 38.0262C40.6288 37.891 41.3607 37.6434 41.6124 37.4967C41.7935 37.3909 42.2722 36.1786 42.5616 35.6016C42.8009 35.7458 42.8821 35.9286 42.8821 35.9286L41.7739 37.7696L40.737 38.3697C40.737 38.3697 40.2829 39.0934 39.9812 39.2041C39.9001 39.2336 39.7509 39.1566 39.5787 39.023C39.932 38.5926 40.5247 38.1156 40.5656 38.0262Z"
        fill="#D87306" />
    <path
        d="M41.1345 36.0745C41.6862 35.5425 42.3559 35.5179 42.3173 35.7458C42.2706 36.0196 41.9977 35.4909 41.1345 36.0745Z"
        fill="#6D7887" />
    <path
        d="M25.2498 41.4114L8.17153 19.8256C7.71742 19.2518 8.58548 18.5633 9.0404 19.1387L26.1187 40.7245C26.5736 41.2991 25.7047 41.9868 25.2498 41.4114Z"
        fill="#8A6034" />
    <path
        d="M8.17224 19.8194C7.71158 19.253 8.56815 18.4735 9.11489 19.1793C10.0026 20.2842 22.425 35.7165 26.1194 40.7183C17.0224 29.486 8.76651 18.8342 9.0698 19.2145C8.57553 18.5481 7.74436 19.2547 8.17224 19.8194Z"
        fill="#DFAA74" />
    <path
        d="M13.4979 25.0931C13.4716 24.7087 13.1159 24.5603 12.8151 24.6234C13.0298 24.6669 13.2159 24.8193 13.2347 25.0931L14.0339 36.7467C14.0544 37.0516 13.8503 37.2344 13.6118 37.2844C13.9364 37.35 14.3258 37.1622 14.2971 36.7467L13.4979 25.0931Z"
        fill="#DFAA74" />
    <path d="M19.835 34.5312L20.5473 35.4665L19.5579 35.7829L19.2079 34.7321L19.835 34.5312Z"
        fill="#563918" />
    <path
        d="M13.0372 25.0452C13.0372 25.1182 12.9782 25.1764 12.9061 25.1764C12.8331 25.1764 12.7749 25.1174 12.7749 25.0452C12.7749 24.9723 12.8339 24.9141 12.9061 24.9141C12.9782 24.9133 13.0372 24.9723 13.0372 25.0452Z"
        fill="#563918" />
    <path
        d="M21.0324 34.9793C21.0324 35.0752 20.9545 35.1539 20.8578 35.1539C20.7611 35.1539 20.6832 35.076 20.6832 34.9793C20.6832 34.8826 20.7611 34.8047 20.8578 34.8047C20.9545 34.8047 21.0324 34.8834 21.0324 34.9793Z"
        fill="#563918" />
    <path
        d="M13.8979 36.9227C13.8979 36.9875 13.8217 37.0408 13.7274 37.0408C13.6331 37.0408 13.5569 36.9883 13.5569 36.9227C13.5569 36.8571 13.6331 36.8047 13.7274 36.8047C13.8217 36.8047 13.8979 36.858 13.8979 36.9227Z"
        fill="#563918" />
    <path
        d="M24.9589 40.0232C24.9589 40.1396 24.8646 40.2346 24.7474 40.2346C24.631 40.2346 24.5359 40.1404 24.5359 40.0232C24.5359 39.9059 24.6301 39.8125 24.7474 39.8125C24.8646 39.8125 24.9589 39.9068 24.9589 40.0232Z"
        fill="#563918" />
    <path
        d="M38.1992 36.9561C38.1992 36.9561 39.0402 37.3856 39.3214 37.5159C39.6033 37.6463 40.3632 36.9725 40.9632 36.843C41.5632 36.7135 41.8419 37.4741 41.8419 37.4741L40.7829 39.1824L39.7525 39.8225C39.7525 39.8225 39.2984 40.5463 38.9968 40.657C38.6959 40.7677 37.4697 39.4086 37.5754 39.1815C37.6812 38.9537 38.1467 38.0914 37.9959 37.679C37.8451 37.2659 38.1992 36.9561 38.1992 36.9561Z"
        fill="#485669" />
    <path
        d="M39.623 37.7654C38.9615 38.008 38.5255 37.7826 38.2115 37.8293C37.9763 37.8654 38.1164 38.5081 37.5754 39.1761C37.7033 38.8507 37.8205 38.363 37.8656 38.0794C37.8984 37.9744 37.8599 37.7916 38.0566 37.6744C38.25 37.5613 38.6345 37.6711 38.8722 37.7195C39.1132 37.763 39.3656 37.7777 39.623 37.7654Z"
        fill="#36414F" />
    <path d="M39.3632 37.4297L39.2197 38.1191L39.3271 38.1428L39.4984 37.4321L39.3632 37.4297Z"
        fill="#F3EEB5" />
    <path d="M39.5944 37.4254L39.5173 38.0738L39.5895 38.0475L39.7526 37.3672L39.5944 37.4254Z"
        fill="#F3EEB5" />
    <path
        d="M39.5812 39.4793C39.6443 39.3441 40.3762 39.0965 40.6279 38.9498C40.809 38.8441 41.2877 37.6318 41.5771 37.0547C41.8164 37.199 41.8976 37.3817 41.8976 37.3817L40.7894 39.2228L39.7525 39.8228C39.7525 39.8228 39.2984 40.5466 38.9967 40.6572C38.9156 40.6867 38.7664 40.6097 38.5942 40.4761C38.9475 40.0457 39.5402 39.5687 39.5812 39.4793Z"
        fill="#D87306" />
    <path
        d="M40.15 37.5276C40.7017 36.9956 41.3722 36.971 41.3328 37.1989C41.2861 37.4727 41.0132 36.944 40.15 37.5276Z"
        fill="#6D7887" />
    <defs>
        <linearGradient id="paint0_linear_5640_5402" x1="15.987" y1="36.0797" x2="9.62005"
            y2="17.0878" gradientUnits="userSpaceOnUse">
            <stop stop-color="#223837" />
            <stop offset="1" stop-color="#6FA19F" />
        </linearGradient>
        <linearGradient id="paint1_linear_5640_5402" x1="4.67296" y1="21.0566" x2="16.7603"
            y2="36.8315" gradientUnits="userSpaceOnUse">
            <stop stop-color="#4B7D7B" />
            <stop offset="1" stop-color="#D17A66" />
        </linearGradient>
        <linearGradient id="paint2_linear_5640_5402" x1="16.616" y1="34.9294" x2="16.8337"
            y2="22.1593" gradientUnits="userSpaceOnUse">
            <stop stop-color="#223837" />
            <stop offset="1" stop-color="#6FA19F" />
        </linearGradient>
        <linearGradient id="paint3_linear_5640_5402" x1="16.7339" y1="28.4246" x2="26.0701"
            y2="28.4246" gradientUnits="userSpaceOnUse">
            <stop stop-color="#2C4948" />
            <stop offset="1" stop-color="#405D5C" />
        </linearGradient>
        <linearGradient id="paint4_linear_5640_5402" x1="17.4283" y1="31.1458" x2="25.8029"
            y2="32.3052" gradientUnits="userSpaceOnUse">
            <stop stop-color="#2C4948" />
            <stop offset="1" stop-color="#405D5C" />
        </linearGradient>
        <linearGradient id="paint5_linear_5640_5402" x1="16.8356" y1="27.8112" x2="24.2098"
            y2="27.8112" gradientUnits="userSpaceOnUse">
            <stop stop-color="#223837" />
            <stop offset="1" stop-color="#6FA19F" />
        </linearGradient>
        <linearGradient id="paint6_linear_5640_5402" x1="20.7184" y1="16.3433" x2="16.4225"
            y2="35.0984" gradientUnits="userSpaceOnUse">
            <stop stop-color="#4B7D7B" />
            <stop offset="1" stop-color="#D17A66" />
        </linearGradient>
        <linearGradient id="paint7_linear_5640_5402" x1="16.8356" y1="33.6611" x2="25.3732"
            y2="33.6611" gradientUnits="userSpaceOnUse">
            <stop stop-color="#7F4A3E" />
            <stop offset="1" stop-color="#2C4948" />
        </linearGradient>
        <linearGradient id="paint8_linear_5640_5402" x1="22.2431" y1="42.2381" x2="3.63222"
            y2="29.3955" gradientUnits="userSpaceOnUse">
            <stop stop-color="#223837" />
            <stop offset="1" stop-color="#6FA19F" />
        </linearGradient>
    </defs>
</svg>
    