<svg width="80" height="80" viewBox="0 0 80 80" fill="none" xmlns="http://www.w3.org/2000/svg">
<path d="M52.0664 13.2031H18.707V66.7969H52.0664C53.199 66.7969 54.1172 65.8787 54.1172 64.7461V15.2539C54.1172 14.1213 53.199 13.2031 52.0664 13.2031Z" fill="#004053" fill-opacity="0.2"/>
<path d="M68.4726 33.8477H58.2187V31.7969C58.2187 31.0405 57.8024 30.3456 57.1356 29.9888C56.4687 29.6319 55.6596 29.671 55.0305 30.0905L42.7258 38.2936C42.1552 38.674 41.8125 39.3144 41.8125 40C41.8125 40.6856 42.1551 41.326 42.7258 41.7064L55.0305 49.9095C55.6613 50.33 56.4706 50.3672 57.1356 50.0112C57.8024 49.6544 58.2187 48.9594 58.2187 48.2031V46.1523H68.4726C69.6052 46.1523 70.5234 45.2341 70.5234 44.1016V35.8984C70.5234 34.7659 69.6052 33.8477 68.4726 33.8477ZM36.8593 5.38719C36.3246 5.00165 35.6372 4.89678 35.0117 5.10528L10.4023 13.3084C9.56492 13.5876 9 14.3713 9 15.2539V64.7461C9 65.6289 9.56479 66.4124 10.4023 66.6916L35.0117 74.8947C35.6425 75.1051 36.3297 74.9947 36.8593 74.6128C37.394 74.2275 37.7109 73.6085 37.7109 72.9492V7.05079C37.7109 6.39167 37.394 5.7726 36.8593 5.38719ZM27.457 42.0508C26.3244 42.0508 25.4062 41.1326 25.4062 40C25.4062 38.8674 26.3244 37.9492 27.457 37.9492C28.5896 37.9492 29.5078 38.8674 29.5078 40C29.5078 41.1326 28.5896 42.0508 27.457 42.0508Z" fill="#004053"/>
</svg>
