<svg width="70" height="56" viewBox="0 0 70 56" fill="none" xmlns="http://www.w3.org/2000/svg">
    <path
        d="M47.1957 17.9108L46.9415 23.2732C46.9415 23.2732 47.6637 25.7484 47.7241 26.5593C47.8068 27.6593 47.7427 28.0543 47.7427 28.0543L48.4918 27.9597C48.4918 27.9597 48.8167 23.9522 48.5052 23.3813C48.1936 22.8097 49.5039 17.6172 49.5039 17.6172L47.1957 17.9108Z"
        fill="#365352" />
    <path
        d="M52.5432 26.9377C52.5067 26.9012 52.3397 26.375 52.3397 26.375L51.8724 26.4965L51.9246 27.2537L52.5432 26.9377Z"
        fill="#1B2A29" />
    <path d="M47.2256 8.07823L47.1406 8.01562L47.0787 8.21164L47.2256 8.07823Z" fill="#14201F" />
    <path d="M43.8806 9.31238L43.8881 9.16406L44.0528 9.2207L43.8806 9.31238Z" fill="#14201F" />
    <path
        d="M48.8115 17.9452C48.8115 17.9452 50.3521 21.1477 50.6815 22.2731C51.0101 23.3985 51.748 27.0937 51.748 27.0937L52.5432 26.6279C52.5432 26.6279 51.9798 19.3128 50.7329 17.1484L48.8115 17.9452Z"
        fill="#1B2A29" />
    <path
        d="M35.1659 23.4531C35.1659 23.4531 35.666 23.9502 35.9597 23.8258C36.1639 23.7393 36.8257 24.0248 36.8257 24.0248L36.3502 24.9534L35.6742 24.7216L35.0586 24.2551L35.1659 23.4531Z"
        fill="#E55555" />
    <path d="M37.1703 22.9699L37.0354 22.8906L32.2316 31.0622L32.3665 31.1415L37.1703 22.9699Z"
        fill="#600202" />
    <path d="M37.1346 22.9406L37.0762 22.9062L32.2714 31.0769L32.3299 31.1113L37.1346 22.9406Z"
        fill="#9E0D0D" />
    <path d="M32.4536 31.0446L32.2583 30.9297L31.8816 31.5701L32.0769 31.685L32.4536 31.0446Z"
        fill="#2F2C35" />
    <path d="M32.0481 31.6809L31.9132 31.6016L31.8448 31.7178L31.9797 31.7972L32.0481 31.6809Z"
        fill="#070707" />
    <path d="M31.3023 32.896L31.2062 32.8394L31.8121 31.6797L32.0215 31.8034L31.3023 32.896Z"
        fill="#2F2C35" />
    <path d="M31.0958 33.1389L31.2158 32.8438L31.2926 32.8885L31.0958 33.1389Z" fill="#595563" />
    <path
        d="M38.2521 21.2352C38.1776 21.3276 38.1142 21.4402 38.1142 21.4402C38.0338 21.7062 37.8124 21.9425 37.8124 21.9425C37.6454 22.1445 37.5814 22.3681 37.5814 22.3681C37.5128 22.6088 37.3742 22.8011 37.3742 22.8011L37.155 22.9919L37.0201 22.9121L37.0671 22.6401L38.0352 20.7344L38.4996 21.0072L38.431 21.1234C38.3833 21.0958 38.314 21.1584 38.2521 21.2352Z"
        fill="#070707" />
    <path
        d="M37.3742 22.8002C37.1581 22.6206 37.5419 21.9126 37.8244 21.5437C38.0092 21.3015 38.1657 21.2448 38.2515 21.2344C38.1769 21.3268 38.1136 21.4393 38.1136 21.4393C38.0331 21.7054 37.8117 21.9417 37.8117 21.9417C37.6448 22.1436 37.5807 22.3672 37.5807 22.3672C37.5129 22.6072 37.3742 22.8002 37.3742 22.8002Z"
        fill="#DB0707" />
    <path
        d="M37.9943 21.4624C38.0695 21.364 38.1403 21.2962 38.2029 21.25C38.1127 21.2746 37.9786 21.3476 37.8243 21.5496C37.5419 21.9193 37.1573 22.6266 37.3742 22.8062C37.3742 22.8062 37.4293 22.7302 37.4867 22.6139C37.4338 22.3463 37.7513 21.7799 37.9943 21.4624Z"
        fill="#910707" />
    <path
        d="M32.184 31.3324C32.102 31.4717 32.017 31.5739 31.9947 31.5604C31.9716 31.547 32.02 31.4233 32.102 31.2839C32.184 31.1446 32.2689 31.0425 32.2913 31.0559C32.3144 31.0693 32.266 31.193 32.184 31.3324Z"
        fill="#595563" />
    <path d="M37.5374 23.0784L37.4186 22.9766L31.2498 30.1737L31.3687 30.2756L37.5374 23.0784Z"
        fill="#600202" />
    <path d="M37.5036 23.0441L37.452 23L31.288 30.201L31.3396 30.2451L37.5036 23.0441Z"
        fill="#9E0D0D" />
    <path d="M31.4714 30.1943L31.2993 30.0469L30.8159 30.6112L30.9879 30.7586L31.4714 30.1943Z"
        fill="#2F2C35" />
    <path d="M30.9627 30.7346L30.8439 30.6328L30.7561 30.7353L30.875 30.8371L30.9627 30.7346Z"
        fill="#070707" />
    <path d="M30.0129 31.8106L29.9287 31.7383L30.7284 30.7031L30.9132 30.8611L30.0129 31.8106Z"
        fill="#2F2C35" />
    <path d="M29.767 32.0191L29.9369 31.75L30.0047 31.8074L29.767 32.0191Z" fill="#595563" />
    <path
        d="M38.9051 21.5548C38.8157 21.6323 38.7329 21.7322 38.7329 21.7322C38.607 21.9804 38.3476 22.1734 38.3476 22.1734C38.1479 22.3434 38.045 22.5513 38.045 22.5513C37.9355 22.7764 37.7648 22.9418 37.7648 22.9418L37.5159 23.0909L37.3966 22.9888L37.4905 22.7294L38.7791 21.0234L39.1883 21.3737L39.1004 21.4766C39.0586 21.4416 38.9789 21.4907 38.9051 21.5548Z"
        fill="#070707" />
    <path
        d="M37.7655 22.9429C37.5844 22.7275 38.0868 22.0992 38.4303 21.7847C38.6547 21.579 38.8186 21.5506 38.9058 21.5551C38.8164 21.6326 38.7337 21.7325 38.7337 21.7325C38.6077 21.9807 38.3484 22.1737 38.3484 22.1737C38.1486 22.3436 38.0458 22.5516 38.0458 22.5516C37.9355 22.7781 37.7655 22.9429 37.7655 22.9429Z"
        fill="#DB0707" />
    <path
        d="M38.6122 21.7347C38.7038 21.6512 38.7851 21.5968 38.8551 21.5625C38.762 21.5714 38.6166 21.6191 38.4296 21.7906C38.0867 22.1043 37.5837 22.7334 37.7648 22.9488C37.7648 22.9488 37.8318 22.8832 37.9093 22.7788C37.9056 22.506 38.3178 22.0045 38.6122 21.7347Z"
        fill="#910707" />
    <path
        d="M31.1569 30.4197C31.0518 30.5426 30.9505 30.6276 30.9304 30.6105C30.9102 30.5933 30.9796 30.48 31.0846 30.3571C31.1897 30.2341 31.2911 30.1491 31.3112 30.1663C31.3313 30.1834 31.262 30.2967 31.1569 30.4197Z"
        fill="#595563" />
    <path
        d="M36.8249 24.0201C36.8249 24.0201 36.5514 23.7287 36.2354 23.719C35.9194 23.7085 36.6155 24.0804 36.4948 24.0909C36.374 24.1013 35.903 24.0044 35.947 24.1222C35.991 24.2399 36.5089 24.3167 36.4679 24.3651C36.4277 24.4136 35.9231 24.2772 35.9701 24.4091C36.017 24.5403 36.3748 24.5977 36.3636 24.6573C36.3517 24.7169 35.9649 24.5619 36.0573 24.6841C36.1497 24.8064 36.3077 24.9748 36.4038 24.9658C36.5 24.9576 36.6267 24.8779 36.6751 24.7639C36.7243 24.6506 36.813 24.6595 36.8227 24.3897C36.8339 24.1199 36.8249 24.0201 36.8249 24.0201Z"
        fill="#FC7575" />
    <path
        d="M42.0964 17.0118C42.0964 17.0118 40.8763 17.0782 40.6788 17.0782C40.4806 17.0782 40.1102 16.4476 39.8747 16.3895C39.6399 16.3314 39.9492 16.6653 40.023 16.8762C40.0975 17.0864 40.184 17.2347 40.0602 17.3584C39.9365 17.4821 38.8186 17.6215 38.905 17.8197C38.9915 18.018 40.1094 17.4829 40.1959 17.5693C40.2823 17.6558 38.8551 17.9308 38.9915 18.0672C39.1279 18.2036 40.295 17.7087 40.295 17.8689C40.295 18.0299 39.233 18.1015 39.3626 18.2311C39.4923 18.3608 40.6662 18.1 40.8644 18.0135C41.0627 17.9271 42.2946 17.7452 42.2946 17.7452L42.0964 17.0118Z"
        fill="#E55555" />
    <path
        d="M38.7239 16.7788C38.7239 16.7788 40.1094 16.6797 40.3814 16.6797C40.6535 16.6797 40.9725 17.2006 41.0992 17.5711C41.2251 17.9415 40.5693 16.9614 40.4821 16.9614C40.3941 16.9614 41.0373 17.8431 40.9509 17.9296C40.8644 18.016 40.2428 16.9338 40.0967 17.0799C39.9507 17.226 40.6416 17.7343 40.6416 17.934C40.6416 18.1338 39.9857 17.3847 39.7882 17.3847C39.5899 17.3847 38.5883 17.4339 38.5883 17.4339L38.7239 16.7788Z"
        fill="#FC7575" />
    <path
        d="M31.0548 24.925L29.6939 28.7595L23.8306 30.739L23.5094 29.4527C23.5094 29.4527 27.0473 27.6468 27.2821 27.6468C27.5169 27.6468 28.0363 27.6222 28.0363 27.6222L28.6303 24.4062L31.0548 24.925Z"
        fill="#032647" />
    <path
        d="M28.4746 15.0109C27.3485 17.5643 26.5279 17.5106 26.4996 17.5412C26.4832 17.5382 25.7259 17.7588 25.3093 16.9166L25.6082 16.7832C25.6641 16.9129 25.7722 17.0523 25.8922 17.1424C26.162 17.337 26.4139 17.2632 26.4407 17.2654C26.4616 17.2587 26.6509 17.2259 26.7761 17.1298C27.3447 16.7758 28.0274 15.546 28.3188 14.9453L28.4746 15.0109Z"
        fill="#1B2A29" />
    <path
        d="M20.2264 45.7965C20.2264 45.7965 34.9423 31.3429 36.6088 33.0087C38.2753 34.6751 44.2235 46.8309 44.2235 46.8309L26.2626 47.8744L20.2264 45.7965Z"
        fill="#494D53" />
    <path
        d="M8.40149 31.7212C8.40149 31.7212 15.9886 32.1833 17.1095 33.3043C18.2312 34.4259 16.45 34.6898 16.45 35.2174C16.45 35.7451 23.4431 38.4498 23.9052 40.231C24.3672 42.0123 25.5545 42.3425 26.2804 44.2556C27.0063 46.1688 28.1936 46.3007 28.1936 46.3007C28.1936 46.3007 31.3604 39.011 32.02 39.011C32.6795 39.011 33.0753 38.9119 33.6693 37.7246C34.2633 36.5374 35.2858 34.2612 36.374 33.1723C37.4629 32.0835 45.2139 32.6447 46.7314 32.2489C48.2488 31.8532 47.1935 30.3357 47.1935 29.6761C47.1935 29.0166 55.0772 27.3344 56.5618 25.8498C58.0465 24.3652 60.5864 22.0234 60.5864 22.0234C60.5864 22.0234 61.9518 39.7727 60.5864 41.1381C59.2211 42.5035 54.8924 42.5258 51.1316 46.2873C47.3701 50.0488 14.5867 48.7997 14.5867 48.7997C14.5867 48.7997 13.31 41.4079 11.8157 39.9136C10.3206 38.4185 8.40149 31.7212 8.40149 31.7212Z"
        fill="#919AA5" />
    <path
        d="M50.4534 33.9117C51.9261 36.5292 59.8636 38.5593 53.3877 39.5238C46.9118 40.4882 40.0431 37.8528 39.1234 42.0071C38.5503 44.5962 32.4061 47.3151 27.859 48.995C37.4152 48.9473 48.9867 48.4316 51.1309 46.2873C54.8924 42.5258 59.2204 42.5035 60.5857 41.1381C61.9511 39.7727 60.5857 22.0234 60.5857 22.0234C60.5857 22.0234 58.0458 24.3652 56.5611 25.8498C56.3279 26.0831 55.9373 26.3208 55.4439 26.5586C52.4426 29.507 49.7484 32.6596 50.4534 33.9117Z"
        fill="#9FA9B5" />
    <path
        d="M48.6758 8.80704C48.4418 8.20335 48.0095 7.81356 47.7062 7.92536C47.6697 7.93877 42.855 9.5583 42.8588 9.55756L43.7054 11.7443L48.532 10.1329L48.5267 10.1195C48.5349 10.1165 48.9098 9.41073 48.6758 8.80704Z"
        fill="#D9E021" />
    <path
        d="M44.1213 9.09375L43.8881 9.16977C44.143 9.37696 44.8495 10.0097 44.8495 10.6529H45.0574C45.0574 9.99258 44.4493 9.37771 44.1213 9.09375Z"
        fill="#263B3A" />
    <path
        d="M47.1405 8.02344L46.9192 8.09573C46.8648 8.49447 46.8201 9.31727 47.2717 9.76892L47.4185 9.6221C46.9945 9.19803 47.0906 8.32975 47.1405 8.02344Z"
        fill="#263B3A" />
    <path
        d="M43.8284 10.4335C44.0624 11.0372 44.0065 11.6215 43.7047 11.7385C43.4028 11.8555 42.9683 11.4605 42.735 10.8568C42.501 10.2531 42.5569 9.66879 42.8588 9.55178C43.1599 9.43477 43.5944 9.82978 43.8284 10.4335Z"
        fill="#6D7011" />
    <path d="M38.8968 16.7241L37.9897 16.625L38.0315 17.4992L38.7567 17.532L38.8968 16.7241Z"
        fill="#A97666" />
    <path d="M34.9944 23.4219L35.5325 23.6566L35.2851 24.4668L34.6113 24.1642L34.9944 23.4219Z"
        fill="#A97666" />
    <path
        d="M32.6378 19.2422C32.6378 19.2422 33.1282 21.5802 33.5776 22.0296C34.027 22.479 35.2844 23.1885 35.2844 23.3987C35.2844 23.6089 34.8267 24.3385 34.8267 24.3385C34.8267 24.3385 33.2437 24.0419 32.8353 23.4852C32.4269 22.9284 31.423 21.5921 31.423 21.5921L32.6378 19.2422Z"
        fill="#6F1A00" />
    <path
        d="M35.4335 30.3874L35.7174 30.9099L36.0849 31.5963L36.6088 30.8942L36.2004 30.0781L35.4335 30.3256V30.3874Z"
        fill="#271330" />
    <path
        d="M23.7569 29.6641L23.0295 30.1202L22.7835 30.2737L22.355 31.3596L22.4869 31.6264L24.0863 30.4228L23.7569 29.6641Z"
        fill="#271330" />
    <path
        d="M35.4088 30.5159C35.4088 30.5159 34.0733 28.0669 33.9496 26.5576L28.4083 24.8256L28.1854 23.613L30.8081 22.7969C30.8081 22.7969 34.9646 25.3942 35.2367 25.6663C35.5087 25.9383 36.5231 30.144 36.5231 30.144L35.4088 30.5159Z"
        fill="#163D55" />
    <path
        d="M55.2024 26.4382C53.1052 27.5397 50.6286 27.9742 48.3942 28.6755C48.0029 28.7985 47.6079 28.9245 47.2591 29.1406C47.1219 29.2256 46.9893 29.3292 46.914 29.4715C46.6039 30.0603 47.7405 31.4272 46.8387 31.8006C45.609 32.3096 38.2924 31.536 36.2682 32.6569C35.1703 33.2681 33.2423 37.5647 32.93 38.0298C31.6824 39.9049 32.5871 35.1104 27.9372 45.7093C27.2143 45.3106 26.949 44.6204 26.6337 43.9377C26.036 42.4397 24.9821 41.7905 24.4798 40.6346C24.2242 39.9832 24.2987 39.7343 23.4893 39.0113C22.4548 38.1117 21.1923 37.4663 19.979 36.8462C18.9736 36.3327 17.8981 35.8967 16.9434 35.2915C16.9083 35.2692 16.7809 35.2088 16.7809 35.1641C16.7809 35.0665 17.1915 34.831 17.2683 34.7676C17.5321 34.5522 17.7572 34.2653 17.7237 33.906C17.6894 33.5438 17.4241 33.2397 17.1446 33.0303C15.7352 32.0465 10.1135 31.779 8.40002 31.7201C9.84665 31.8617 15.7173 32.5012 16.8636 33.403C17 33.5095 17.2139 33.7719 17.2258 33.9537C17.2437 34.2206 16.8599 34.4084 16.681 34.5343C16.3315 34.7803 15.9566 35.1537 16.3427 35.5524C16.6266 35.846 17.0522 36.0592 17.4062 36.256C17.79 36.4699 18.1835 36.6666 18.5711 36.8753C24.1005 39.8543 23.294 40.0406 23.7054 40.9536C24.2771 42.3383 25.2646 42.8563 25.8027 44.2776C26.1277 45.1369 26.8812 46.512 27.8299 46.7907C28.6855 47.0419 28.8092 46.0618 29.082 45.4365C29.5009 44.4766 29.922 43.5152 30.4236 42.5947C30.9177 41.5796 31.3887 40.3506 32.1549 39.5017C33.954 39.4592 33.9399 37.7436 35.7308 34.822C36.1668 34.114 36.4418 33.7928 36.7131 33.5066C38.0204 32.8775 39.7368 32.9386 41.1506 32.8962C42.9401 32.8425 44.8063 32.9744 46.5793 32.6882C47.0258 32.6159 47.4849 32.4244 47.7234 32.0398C47.9209 31.7216 47.9358 31.3206 47.8806 30.9502C47.821 30.547 47.6869 30.1587 47.5535 29.7734C49.0187 28.9327 50.8186 28.5541 52.4046 27.9966C53.7171 27.5352 55.6071 27.0694 56.6073 26.0297C57.9041 24.683 59.2352 23.3698 60.5567 22.0469C58.8939 23.2908 57.5896 24.9901 55.824 26.0827C55.6213 26.2094 55.4141 26.3271 55.2024 26.4382Z"
        fill="#485669" />
    <path
        d="M31.1286 17.0313C31.1286 17.0313 30.7329 17.0067 30.2626 17.7982C29.7923 18.5898 28.8279 21.6328 28.4321 22.548C28.0364 23.4632 28.0364 23.5624 28.0364 23.9335C28.0364 24.3047 31.2031 23.587 31.5743 23.2158C31.9455 22.8447 32.8607 19.5296 33.009 18.7873C33.1573 18.0457 31.1286 17.0313 31.1286 17.0313Z"
        fill="#D87306" />
    <path
        d="M30.8812 16.3873C30.8812 16.3873 32.6297 19.1262 31.6727 20.5371C30.7165 21.9487 29.1991 22.2453 29.1991 22.2453L28.7347 22.9966C28.7347 22.9966 31.4812 22.5546 32.1706 20.1406C32.86 17.7266 31.0549 15.9453 31.0549 15.9453L30.8812 16.3873Z"
        fill="#1B2A29" />
    <path
        d="M31.1733 13.7969C31.1733 13.7969 31.7442 14.177 32.0185 14.7509C32.2928 15.324 34.3558 16.4427 34.3558 16.4427C34.3558 16.4427 33.1551 16.7475 33.1223 16.7803C33.0895 16.8131 30.7917 15.7883 30.7917 15.7883L31.1733 13.7969Z"
        fill="#A74326" />
    <path
        d="M32.9887 16.7583C33.0141 16.5891 33.0685 16.4341 33.1058 16.1821C33.1587 15.8222 33.2175 15.5539 33.2175 15.5539L32.3262 15.1641C32.3262 15.1641 32.1846 15.7461 32.0795 16.209C32.0117 16.5131 32.9723 16.8693 32.9887 16.7583Z"
        fill="#FC7575" />
    <path
        d="M32.327 15.1641C32.327 15.1641 32.3039 15.2669 32.2673 15.4272C32.3396 15.5352 32.4425 15.6493 32.5863 15.7961C32.7294 15.9422 32.9143 16.0823 33.1058 16.1821C33.1587 15.8222 33.2176 15.5546 33.2176 15.5546L32.327 15.1641Z"
        fill="#FD5E5A" />
    <path
        d="M34.4921 13.8888C34.4921 13.8888 33.7088 14.6654 33.4107 14.7436C33.1125 14.8219 32.4537 14.9255 32.4537 14.9255C32.4537 14.9255 32.0997 16.0949 32.0587 16.3542C32.0587 16.3542 30.9176 16.1008 31.5824 14.2652C31.8358 13.5653 31.9596 13.1182 32.7518 12.8782C33.5433 12.6382 34.3102 13.1778 34.4921 13.8888Z"
        fill="#00147D" />
    <path
        d="M33.9436 13.6025C33.9436 13.6025 34.4236 13.8075 34.4347 14.1772C34.4459 14.5468 34.3356 14.7205 34.3408 14.8994C34.346 15.0775 34.2916 15.4047 34.0196 15.8906C33.7476 16.3765 33.0246 16.0225 32.6304 15.6216C32.1862 15.1699 32.1534 15.041 32.2205 14.3829C32.2875 13.7233 33.1782 13.2545 33.9436 13.6025Z"
        fill="#FC7575" />
    <path
        d="M33.7938 15.3225C33.7908 15.2659 33.8653 15.3389 34.0189 15.172C33.9734 15.0877 33.954 14.9864 33.957 14.8984C33.9868 15.0803 34.0785 15.1593 34.0889 15.1757C34.0837 15.1802 33.9615 15.3404 33.8236 15.3479C33.8079 15.3486 33.7945 15.3374 33.7938 15.3225Z"
        fill="#0028A6" />
    <path
        d="M33.5187 14.8792C33.5515 14.909 33.6037 14.9075 33.635 14.8754C33.6663 14.8434 33.6648 14.7935 33.632 14.7636C33.5992 14.7338 33.547 14.7353 33.5157 14.7666C33.4844 14.7994 33.4859 14.8494 33.5187 14.8792Z"
        fill="#0028A6" />
    <path
        d="M34.2006 14.9181C34.2334 14.948 34.2856 14.9465 34.3169 14.9144C34.3482 14.8824 34.3467 14.8324 34.3131 14.8026C34.2803 14.7728 34.2282 14.7743 34.1969 14.8064C34.1663 14.8384 34.1678 14.8883 34.2006 14.9181Z"
        fill="#0028A6" />
    <path
        d="M33.8326 14.7154C33.7402 14.6983 33.6455 14.699 33.5516 14.7177C33.5032 14.7289 33.4614 14.7438 33.4189 14.7594C33.3765 14.7758 33.334 14.793 33.2922 14.8168C33.3407 14.8205 33.3876 14.8138 33.4331 14.8049C33.4793 14.7967 33.5233 14.7788 33.5643 14.7684C33.6507 14.7467 33.7409 14.7341 33.8326 14.7154Z"
        fill="#00115B" />
    <path
        d="M34.4503 14.7539C34.3818 14.7457 34.3102 14.7502 34.2394 14.7688C34.2029 14.7793 34.1708 14.7927 34.1373 14.8068C34.1045 14.821 34.0717 14.8359 34.0397 14.856C34.0754 14.8568 34.1112 14.8501 34.1463 14.8411C34.1813 14.8329 34.2156 14.8173 34.2469 14.8076C34.3117 14.786 34.3803 14.7726 34.4503 14.7539Z"
        fill="#00115B" />
    <path
        d="M33.8549 14.4775L33.8072 14.5706C33.8072 14.5706 33.5612 14.5341 33.4435 14.6206C33.4435 14.6198 33.6529 14.4 33.8549 14.4775Z"
        fill="#00115B" />
    <path
        d="M34.4093 14.4933L34.384 14.582C34.384 14.582 34.138 14.5455 34.0203 14.632C34.0203 14.632 34.2073 14.4158 34.4093 14.4933Z"
        fill="#00115B" />
    <path
        d="M33.9712 15.5985C33.9712 15.5985 33.6917 15.5456 33.4644 15.4375C33.4644 15.4375 33.647 15.7893 33.7819 15.7856C33.916 15.7811 33.9712 15.5985 33.9712 15.5985Z"
        fill="white" />
    <path
        d="M34.4512 13.3095C34.4512 13.3095 34.8387 13.4057 34.7545 13.7641C34.6703 14.1226 33.682 14.4774 33.0426 14.3462C32.8026 14.297 32.7936 14.4349 32.6923 14.5161C32.5231 14.6518 32.3733 14.824 32.491 15.1206C32.6803 15.5953 32.9084 15.3725 32.9084 15.3725C32.9084 15.3725 32.699 15.6333 32.1437 15.4366C31.5885 15.2406 31.5736 14.4334 32.0275 14.0004C32.4813 13.5674 32.9315 13.3833 33.2915 13.2976C34.0718 13.1135 34.4512 13.3095 34.4512 13.3095Z"
        fill="#2846A6" />
    <path
        d="M32.4872 14.391C32.5535 14.397 32.8248 14.6064 32.7339 14.7972C32.643 14.988 32.5677 14.9969 32.3911 14.8911C32.2137 14.786 32.3203 14.3761 32.4872 14.391Z"
        fill="#FC7575" />
    <path
        d="M32.6587 14.6659C32.6587 14.6659 32.5305 14.4886 32.4537 14.5668C32.377 14.6443 32.3904 14.7889 32.4858 14.8418C32.5812 14.8947 32.7466 14.7725 32.6587 14.6659Z"
        fill="#FD5E5A" />
    <path
        d="M33.0537 15.0999C33.0448 15.1886 33.1573 15.2721 33.3056 15.2855C33.4539 15.2989 33.5806 15.2378 33.5896 15.1484C33.5985 15.0597 33.486 14.9762 33.3377 14.9628C33.1894 14.9494 33.0627 15.0105 33.0537 15.0999Z"
        fill="#FD5E5A" />
    <path
        d="M34.106 15.2394C34.1135 15.1634 34.2066 15.1083 34.3251 15.1016C34.311 15.1858 34.2871 15.2849 34.2469 15.3997C34.1582 15.3654 34.1 15.3043 34.106 15.2394Z"
        fill="#FD5E5A" />
    <path
        d="M34.355 16.4419C34.355 16.4419 32.3091 16.029 31.7934 15.5133C31.1882 14.9081 31.1725 13.7969 31.1725 13.7969C31.1725 13.7969 30.7805 13.8177 30.5547 14.0436C30.3288 14.2694 28.4351 17.4712 30.7909 17.3281C31.8716 17.2625 32.9322 17.3646 32.9322 17.3646L34.355 16.4419Z"
        fill="#F3EEB5" />
    <path
        d="M30.7329 17.0373C30.7329 17.0373 30.5637 17.9242 31.0548 18.4146C31.546 18.905 35.186 18.7447 35.549 18.6292C35.9119 18.5137 37.1625 18.0084 37.7394 17.9189C38.317 17.8295 38.4705 16.6825 38.2231 16.4358C37.9757 16.1884 36.2086 17.038 35.3507 17.038C34.4936 17.0373 31.2404 16.5305 30.7329 17.0373Z"
        fill="#D3AC5E" />
    <path
        d="M31.0548 17.5272C31.0548 17.5272 31.7062 15.5395 31.2777 14.979C30.8491 14.4186 30.0569 13.9073 29.1498 14.2203C28.2428 14.5334 27.385 16.843 27.0556 17.3044C26.7254 17.7665 26.1321 17.8156 26.1321 18.6072C26.1321 19.3987 25.4226 20.5367 25.4226 21.4937C25.4226 22.4506 28.21 23.4069 28.7541 23.1594C29.2982 22.9127 31.0548 17.5272 31.0548 17.5272Z"
        fill="#4F5411" />
    <path
        d="M26.4944 21.8746C26.0957 21.604 25.7223 21.5623 25.4331 21.5959C25.6157 22.5178 28.2287 23.4002 28.7542 23.161C28.7884 23.1453 28.8287 23.1081 28.8719 23.0537C28.2868 22.8107 27.1301 22.3069 26.4944 21.8746Z"
        fill="#3B3F0D" />
    <path
        d="M27.5497 16.6189L26.9893 16.3842C26.9893 16.3842 28.4605 13.7384 29.96 14.1438L27.5497 16.6189Z"
        fill="#3B3F0D" />
    <path
        d="M28.1846 17.0719C28.1846 17.0719 26.9728 19.5791 27.1211 20.0404C27.2694 20.5025 28.4768 21.2597 28.9866 21.0622C29.4964 20.8647 30.4362 18.0937 30.4362 18.0937C30.4362 18.0937 30.106 16.8573 28.1846 17.0719Z"
        fill="#3B3F0D" />
    <path
        d="M48.5543 11.2777C48.5543 11.2777 48.4462 9.59033 47.7807 9.36078C47.1151 9.13123 44.4142 10.5682 43.8426 10.5682C43.2709 10.5682 42.8126 12.2563 43.8426 13.2863C44.8726 14.3163 45.7639 17.1126 46.4049 17.7528C47.0451 18.393 51.4252 18.2894 51.1487 16.4888C50.8714 14.6882 48.5543 11.2777 48.5543 11.2777Z"
        fill="#263B3A" />
    <path
        d="M44.57 11.9531L44.257 12.4487C43.812 13.5868 43.97 15.5984 43.5698 15.7638C42.8931 16.0441 41.6134 16.884 41.6134 16.884C41.6134 16.884 42.0964 17.1464 42.0964 17.8745C42.0964 17.8745 43.7621 17.5667 44.4798 17.3193C45.1975 17.0718 46.2752 13.6994 46.2752 13.6994L44.57 11.9531Z"
        fill="#AA5E04" />
    <path
        d="M46.3826 9.97686C46.4042 9.94556 46.4035 8.84327 46.4035 8.84327C46.4035 8.84327 46.3722 8.02866 46.1687 7.97201C45.9652 7.91537 45.4309 7.6493 45.1007 7.776C44.7705 7.9027 44.5909 8.09573 44.5693 8.12704C44.5477 8.15834 44.4799 8.62117 44.4799 8.62117C44.4799 8.62117 44.5298 8.45422 44.7608 8.90289C44.9919 9.3523 46.3826 9.97686 46.3826 9.97686Z"
        fill="#381A3F" />
    <path
        d="M45.5411 10.2709C45.6268 10.3767 46.3639 11.1824 46.2015 11.5252C46.1515 11.6303 47.2374 11.6102 46.955 10.8179C46.6718 10.0257 46.2432 9.13281 46.2432 9.13281L45.5411 10.2709Z"
        fill="#FC7575" />
    <path
        d="M46.2432 9.13281C46.2432 9.13281 46.3528 9.36087 46.4973 9.6888C46.4824 10.0726 46.2991 10.6256 45.9622 10.8068C45.7878 10.5504 45.5836 10.3238 45.5411 10.2709L46.2432 9.13281Z"
        fill="#FD5E5A" />
    <path
        d="M46.004 8.39873C46.2447 8.66331 46.4713 9.23495 46.352 9.78647C46.232 10.338 45.9227 10.7241 45.5553 10.6219C45.1879 10.5191 44.5797 9.17831 44.6483 8.74082C44.7176 8.30333 45.6373 7.99552 46.004 8.39873Z"
        fill="#FC7575" />
    <path
        d="M46.5101 9.71767C46.5101 9.71767 46.4013 9.24217 46.5235 9.06553C46.6457 8.8889 46.6942 8.79126 46.6629 8.62059C46.6316 8.44992 47.1384 8.11901 46.9491 7.89467C46.7598 7.67034 46.2835 7.72474 45.8915 7.36029C45.4995 6.99584 45.1671 6.84157 44.7229 7.2157C44.2779 7.58984 44.3323 7.94461 44.3323 7.94461C44.3323 7.94461 44.0923 7.99603 44.0633 8.33365C44.0342 8.67202 44.1944 8.79126 44.3331 8.88741C44.3331 8.88741 44.1713 8.52296 44.3025 8.49911C44.4337 8.47526 44.4687 8.93436 44.4687 8.93436C44.4687 8.93436 44.5909 8.70257 44.6923 8.3806C44.7937 8.05789 44.8548 8.36197 44.9151 8.69288C44.9755 9.0238 45.296 8.55724 45.4026 8.25614C45.5091 7.95504 45.8632 8.05044 46.0845 8.32471C46.3051 8.59748 46.0636 9.26974 46.5101 9.71767Z"
        fill="#653870" />
    <path
        d="M46.0988 8.92747C46.0988 8.92747 46.1546 8.53246 46.3015 8.63382C46.4483 8.73518 46.5318 9.18385 46.3358 9.26956C46.1398 9.35452 46.0988 8.92747 46.0988 8.92747Z"
        fill="#FC7575" />
    <path
        d="M46.2089 8.91288C46.2089 8.91288 46.1307 8.72953 46.2506 8.75189C46.3706 8.77425 46.3885 9.11261 46.2976 9.14317C46.2067 9.17373 46.2089 8.91288 46.2089 8.91288Z"
        fill="#FD5E5A" />
    <path
        d="M45.1596 9.24219C45.1581 9.34131 45.1692 9.43969 45.1894 9.53658C45.2363 9.74526 45.2989 9.81756 45.3049 9.82948C45.325 9.81607 45.3794 9.78327 45.4487 9.73036C45.3988 9.74899 45.3503 9.7706 45.3026 9.79371L45.3243 9.79967C45.2468 9.62527 45.2117 9.43224 45.1596 9.24219Z"
        fill="#172866" />
    <path
        d="M45.8139 9.89343C45.8184 9.86287 45.7729 9.85691 45.7685 9.88672C45.767 9.89641 45.7297 10.1245 45.5091 10.1655C45.4964 10.1677 45.4882 10.1796 45.4905 10.1923C45.5017 10.2564 45.77 10.1491 45.8139 9.89343Z"
        fill="#172866" />
    <path
        d="M45.4205 9.1943C45.4317 9.25467 45.4749 9.29715 45.5166 9.28895C45.5591 9.2815 45.5844 9.22635 45.5733 9.16598C45.5621 9.10561 45.5189 9.06313 45.4771 9.07133C45.4346 9.07878 45.4093 9.13393 45.4205 9.1943Z"
        fill="#2846A6" />
    <path
        d="M44.8533 9.32711C44.8645 9.38748 44.9077 9.42996 44.9494 9.42177C44.9919 9.41431 45.0165 9.35916 45.0061 9.29879C44.9949 9.23842 44.9517 9.19594 44.9099 9.20414C44.8682 9.21234 44.8421 9.26674 44.8533 9.32711Z"
        fill="#2846A6" />
    <path
        d="M45.6716 8.92303C45.6716 8.92303 45.5307 8.80527 45.3824 8.8321C45.2341 8.85968 45.322 8.96402 45.3563 8.95731C45.3906 8.9506 45.6656 8.89247 45.6716 8.92303Z"
        fill="#172866" />
    <path
        d="M44.9196 8.94531C44.9196 8.94531 44.7765 9.06232 44.7758 9.154C44.7758 9.154 44.942 9.06829 44.9569 9.01313C44.9718 8.95724 44.9196 8.94531 44.9196 8.94531Z"
        fill="#172866" />
    <path
        d="M27.5005 18.3003L29.9145 19.4831L30.4362 18.1021V17.7719C30.4362 17.7719 29.8675 17.0721 28.5886 16.7986C28.5886 16.8001 27.979 16.569 27.5005 18.3003Z"
        fill="#727641" />
    <path
        d="M51.0556 17.0752C50.8648 17.4226 50.6628 17.6476 50.1433 17.8906C49.9585 17.9756 49.524 18.1172 49.0254 18.258C48.9754 18.2729 48.9255 18.2871 48.8733 18.2998C48.0028 18.5405 47.0011 18.7611 46.8021 18.6858C46.4742 18.5651 46.4377 17.3801 46.3177 16.4008C45.8124 12.2644 44.4582 12.2249 44.5685 11.9528C44.7407 11.525 45.1401 11.3461 45.1401 11.3461C45.325 11.1636 45.7341 10.972 46.1932 10.8058C46.2491 10.7872 46.3058 10.7663 46.3617 10.7477C47.031 10.5211 47.7576 10.3594 48.0282 10.3594C48.5104 10.3594 49.1565 11.0696 49.3824 12.1421C49.6074 13.2161 51.2449 16.7302 51.0556 17.0752Z"
        fill="#F7931E" />
    <path
        d="M47.4179 10.6233C47.3329 10.8231 47.046 11.0347 46.7091 11.195C46.6614 11.2196 46.6092 11.2427 46.5593 11.2635C46.1747 11.4253 45.7596 11.5147 45.5121 11.4543C45.3214 11.4089 44.9077 10.9513 44.9077 10.9513C45.3422 10.9013 45.7141 10.7895 46.0257 10.6561C46.0793 10.633 46.1315 10.6084 46.1814 10.5831C46.8567 10.2566 47.1935 9.84375 47.1935 9.84375L47.4179 10.6233Z"
        fill="#FFCB57" />
    <path
        d="M49.0261 18.2569C48.9762 18.2718 48.9262 18.286 48.874 18.2987C48.7429 17.5467 48.2361 14.956 47.3365 14.6027C46.2439 14.1727 46.5472 11.869 46.5592 11.2578V11.2243C46.5532 11.1662 46.3952 10.9918 46.1932 10.8047C46.1396 10.7548 46.0829 10.7026 46.0248 10.6512C46.0784 10.6281 46.1306 10.6035 46.1805 10.5781C46.2387 10.6303 46.3013 10.6862 46.3609 10.7466C46.5271 10.9083 46.6792 11.079 46.7082 11.1893C46.7127 11.2019 46.7142 11.2139 46.7142 11.2243C46.7142 11.424 46.3631 14.052 47.3917 14.4567C48.374 14.8412 48.8912 17.4677 49.0261 18.2569Z"
        fill="#A18A82" />
    <path
        d="M44.5648 11.717C44.5648 11.717 45.6425 13.1122 45.9026 14.412C46.1627 15.7118 45.9309 16.0009 45.9309 16.0009L46.323 16.6963C46.323 16.6963 46.8029 14.8972 46.63 13.9104C46.4571 12.9236 45.0358 11.2266 45.0358 11.2266L44.5648 11.717Z"
        fill="#563918" />
    <path
        d="M48.1706 10.1406L47.5825 10.2666C47.5825 10.2666 48.3785 13.3529 49.9906 13.4415L49.8318 13.0316C49.8326 13.0316 48.4307 11.4218 48.1706 10.1406Z"
        fill="#563918" />
    <path
        d="M36.0849 31.5961C36.0849 31.5961 35.906 31.3717 35.7226 31.444L35.6742 31.6319H36.061L36.0849 31.5961Z"
        fill="#36414F" />
    <path
        d="M36.7362 30.5234C36.7362 30.5234 37.1036 30.9199 37.2289 31.0451C37.3548 31.1711 37.8959 30.9579 38.2439 31.0064C38.592 31.0548 38.592 31.5184 38.592 31.5184L37.6872 32.2279L37.0075 32.3688C37.0075 32.3688 36.6207 32.6684 36.4373 32.6684C36.254 32.6684 35.862 31.6973 35.9641 31.5959C36.0654 31.4946 36.4858 31.1227 36.4858 30.8707C36.485 30.6203 36.7362 30.5234 36.7362 30.5234Z"
        fill="#485669" />
    <path
        d="M37.3414 31.2415C36.9382 31.2415 36.7482 31.0351 36.5701 30.9986C36.4367 30.9717 36.3852 31.3444 35.9626 31.5971C36.0953 31.4472 36.2548 31.208 36.3345 31.0649C36.3726 31.015 36.3882 30.9091 36.5164 30.8853C36.6424 30.8629 36.8279 30.9971 36.9457 31.0701C37.0679 31.1394 37.2006 31.1976 37.3414 31.2415Z"
        fill="#36414F" />
    <path d="M37.2692 31.0078L37.056 31.3499L37.1097 31.3842L37.3415 31.0361L37.2692 31.0078Z"
        fill="#F3EEB5" />
    <path d="M37.3943 31.0469L37.2251 31.3808H37.2691L37.4912 31.0469H37.3943Z" fill="#F3EEB5" />
    <path
        d="M36.9829 32.1522C37.0433 32.0918 37.4852 32.103 37.6499 32.0739C37.7684 32.0531 38.2641 31.4956 38.5331 31.2422C38.633 31.3667 38.6404 31.4814 38.6404 31.4814L37.6827 32.2528L37.0075 32.3713C37.0075 32.3713 36.6207 32.6709 36.4373 32.6709C36.3874 32.6709 36.3226 32.6001 36.2562 32.4943C36.5305 32.3318 36.9426 32.1924 36.9829 32.1522Z"
        fill="#D87306" />
    <path
        d="M37.6724 31.2156C38.0733 31.0382 38.4385 31.1567 38.3722 31.2714C38.2932 31.4093 38.2507 31.0717 37.6724 31.2156Z"
        fill="#6D7887" />
    <path
        d="M48.4231 28.047C48.4231 28.047 48.4224 27.7936 48.5915 27.7422L48.7309 27.845L48.4611 28.0589L48.4231 28.047Z"
        fill="#36414F" />
    <path
        d="M47.3678 27.6711C47.3678 27.6711 47.3328 28.1473 47.3157 28.3039C47.2985 28.4596 46.8014 28.6124 46.5853 28.8382C46.3691 29.0641 46.6285 29.3838 46.6285 29.3838L47.6578 29.3734L48.2115 29.0946C48.2115 29.0946 48.649 29.0879 48.7779 28.9866C48.9061 28.8852 48.6363 27.999 48.5081 27.9849C48.3807 27.9707 47.8784 27.9469 47.7375 27.7732C47.5974 27.5988 47.3678 27.6711 47.3678 27.6711Z"
        fill="#603E6B" />
    <path
        d="M47.3462 28.5047C47.6279 28.2819 47.6451 28.0345 47.7487 27.9107C47.8269 27.8183 48.0714 28.0471 48.5074 27.9882C48.3307 27.9584 48.0855 27.8809 47.9499 27.8265C47.8955 27.8131 47.8254 27.7483 47.7218 27.8027C47.6212 27.8571 47.5668 28.0523 47.5251 28.1671C47.4803 28.2834 47.42 28.3959 47.3462 28.5047Z"
        fill="#36414F" />
    <path d="M47.265 28.2969L47.6056 28.4154L47.587 28.4683L47.2307 28.3565L47.265 28.2969Z"
        fill="#F3EEB5" />
    <path d="M47.2016 28.3984L47.5064 28.5348L47.4751 28.5587L47.1338 28.4514L47.2016 28.3984Z"
        fill="#F3EEB5" />
    <path
        d="M48.1064 28.9311C48.0303 28.9229 47.7277 29.1748 47.5966 29.2456C47.5027 29.2963 46.8438 29.186 46.5144 29.1599C46.5144 29.3015 46.5733 29.3842 46.5733 29.3842L47.6741 29.3872L48.2122 29.0958C48.2122 29.0958 48.6497 29.0891 48.7786 28.9877C48.8136 28.9601 48.8189 28.8752 48.8062 28.7656C48.523 28.8051 48.1563 28.937 48.1064 28.9311Z"
        fill="#FF9739" />
    <path
        d="M47.1003 28.6641C46.7209 28.7632 46.5324 29.0471 46.6427 29.0896C46.7746 29.1411 46.6159 28.8847 47.1003 28.6641Z"
        fill="#6D7887" />
    <path
        d="M22.785 30.2105C22.785 30.2105 23.057 30.1196 23.0518 29.9221L22.8916 29.8125L22.7589 30.1755L22.785 30.2105Z"
        fill="#36414F" />
    <path
        d="M23.5697 31.1887C23.5697 31.1887 23.0719 31.3981 22.9109 31.4726C22.7499 31.5479 22.764 32.1292 22.5993 32.4393C22.4346 32.7493 21.9986 32.5906 21.9986 32.5906L21.6424 31.4972L21.743 30.81C21.743 30.81 21.5939 30.3442 21.6573 30.1713C21.7206 29.9992 22.767 29.9641 22.8274 30.0946C22.8878 30.225 23.0935 30.7474 23.3297 30.8332C23.5645 30.9196 23.5697 31.1887 23.5697 31.1887Z"
        fill="#485669" />
    <path
        d="M22.6881 31.5176C22.826 31.139 23.0861 31.0309 23.1808 30.8767C23.2516 30.7604 22.9192 30.5845 22.8267 30.1016C22.9221 30.2775 23.0921 30.5092 23.1994 30.633C23.2329 30.6859 23.3276 30.7366 23.306 30.8655C23.2844 30.9922 23.0943 31.1196 22.9855 31.2053C22.8774 31.2963 22.7775 31.4006 22.6881 31.5176Z"
        fill="#36414F" />
    <path d="M22.934 31.5284L22.6858 31.2109L22.6351 31.2497L22.8826 31.5866L22.934 31.5284Z"
        fill="#F3EEB5" />
    <path d="M22.8514 31.6322L22.5957 31.3594L22.5808 31.4004L22.8178 31.7231L22.8514 31.6322Z"
        fill="#F3EEB5" />
    <path
        d="M21.9562 30.8622C21.992 30.9397 21.8303 31.3511 21.8012 31.5158C21.7803 31.6343 22.1343 32.2909 22.2797 32.63C22.1284 32.6815 22.0181 32.6494 22.0181 32.6494L21.6223 31.4853L21.7431 30.81C21.7431 30.81 21.594 30.3442 21.6573 30.1713C21.6745 30.1244 21.7632 30.0878 21.8854 30.0625C21.942 30.3755 21.9324 30.8108 21.9562 30.8622Z"
        fill="#D87306" />
    <path
        d="M22.5994 31.8359C22.6284 32.2734 22.3922 32.576 22.3065 32.4739C22.2044 32.3532 22.536 32.4284 22.5994 31.8359Z"
        fill="#6D7887" />
    <path
        d="M18.6434 33.7031C18.6434 33.7031 18.2477 33.9998 18.2477 34.1734C18.2477 34.3463 18.4459 34.6191 18.4459 34.6191L18.8916 34.2971V34.0743L18.6434 33.7031Z"
        fill="#485669" />
    <path
        d="M19.1628 35.0625L19.0637 35.2108L19.1129 35.3673H19.3276L19.4021 35.2145C19.4021 35.2153 19.2612 35.0625 19.1628 35.0625Z"
        fill="#485669" />
    <path
        d="M17.3562 35.0606C17.3562 35.0606 17.2653 35.0114 17.3562 35.1761C17.4471 35.3409 17.4717 35.2917 17.5872 35.2917C17.7028 35.2917 17.8593 35.077 17.8593 34.995C17.8593 34.9123 17.4225 34.7804 17.3562 35.0606Z"
        fill="#485669" />
    <path
        d="M35.8798 32.4888C35.8798 32.4888 35.4244 32.2503 35.1859 32.4888C34.9474 32.7273 35.0719 33.3288 35.0719 33.3288L35.8798 33.5926L36.2562 32.8771L35.8798 32.4888Z"
        fill="#485669" />
    <path
        d="M33.9488 32.9892C33.9488 32.9892 33.5695 32.8521 33.685 33.1815C33.8005 33.5117 34.1799 33.2643 34.1799 33.1815C34.1791 33.0995 33.9488 32.9892 33.9488 32.9892Z"
        fill="#485669" />
    <path
        d="M32.6289 34.0513C32.6289 34.0513 32.5961 34.3979 32.8435 34.3151C33.091 34.2332 33.2065 33.7875 32.6289 34.0513Z"
        fill="#485669" />
    <path d="M49.0448 12.375L46.0718 14.0877L46.1918 14.3292L49.1648 12.6165L49.0448 12.375Z"
        fill="#563918" />
    <path
        d="M51.8814 26.9827C51.8814 26.9827 51.9202 27.3762 51.7883 27.6184C51.6571 27.8606 51.8867 28.0059 51.8867 28.0059C51.8867 28.0059 52.9763 27.9784 53.0575 27.915C53.1388 27.8517 52.6476 26.9096 52.6476 26.9096L52.5768 26.8396C52.3905 26.6555 52.0834 26.686 51.9366 26.9022L51.8814 26.9827Z"
        fill="#603E6B" />
    <path
        d="M51.7525 27.8115C51.7108 27.9524 51.8263 28.0045 51.8263 28.0045C51.8263 28.0045 52.977 27.9792 53.0583 27.9151C53.0754 27.9017 53.1164 27.8175 53.0404 27.7422C52.7251 27.7757 52.0394 27.8048 51.7525 27.8115Z"
        fill="#FF9739" />
    <path
        d="M52.2601 27.2631C52.1215 27.2631 52.0067 27.2259 51.9985 27.2236C51.9858 27.2191 51.9791 27.2057 51.9828 27.1931C51.9866 27.1804 52.0007 27.1729 52.0134 27.1774C52.0171 27.1782 52.3764 27.2937 52.5776 27.1081C52.5873 27.0992 52.6029 27.0992 52.6119 27.1096C52.6208 27.1193 52.6201 27.1349 52.6104 27.1439C52.509 27.2378 52.3764 27.2631 52.2601 27.2631Z"
        fill="#FFDA88" />
    <path
        d="M52.2601 27.4194C52.1215 27.4194 52.0067 27.3821 51.9985 27.3799C51.9858 27.3754 51.9791 27.362 51.9828 27.3493C51.9866 27.3366 52.0007 27.3299 52.0134 27.3337C52.0171 27.3351 52.3764 27.4499 52.5776 27.2643C52.5873 27.2554 52.6029 27.2554 52.6119 27.2658C52.6208 27.2755 52.6201 27.2912 52.6104 27.3001C52.509 27.3933 52.3764 27.4194 52.2601 27.4194Z"
        fill="#FFDA88" />
    <path
        d="M52.9621 27.7447C52.3725 27.5442 52.2533 27.3989 51.7935 27.8155C52.0603 27.3117 52.5156 27.3974 52.9621 27.7447Z"
        fill="#806589" />
    <path
        d="M49.2527 14.5312C49.2527 14.5312 49.2222 14.9195 49.4495 15.2184C49.6768 15.5173 50.1657 15.7289 50.1873 15.7014L50.0062 15.3473L50.0711 14.6296L49.2527 14.5312Z"
        fill="#55330A" />
    <path d="M52.5422 20.1607L52.649 20.0859L48.1155 13.6032L48.0086 13.678L52.5422 20.1607Z"
        fill="#600202" />
    <path d="M52.5777 20.1418L52.6241 20.1094L48.0898 13.6274L48.0434 13.6599L52.5777 20.1418Z"
        fill="#9E0D0D" />
    <path d="M52.8239 20.6007L52.979 20.4922L52.6235 19.9842L52.4684 20.0927L52.8239 20.6007Z"
        fill="#2F2C35" />
    <path d="M52.9138 20.6763L53.0206 20.6016L52.9561 20.5094L52.8493 20.5841L52.9138 20.6763Z"
        fill="#070707" />
    <path d="M53.5449 21.5567L53.6209 21.503L53.0411 20.5781L52.8749 20.6944L53.5449 21.5567Z"
        fill="#2F2C35" />
    <path d="M53.7327 21.7526L53.6135 21.5156L53.5524 21.5581L53.7327 21.7526Z" fill="#595563" />
    <path
        d="M46.9975 12.3128C47.0653 12.3851 47.1257 12.4746 47.1257 12.4746C47.2099 12.6907 47.4096 12.8726 47.4096 12.8726C47.5617 13.0298 47.6295 13.2117 47.6295 13.2117C47.7018 13.4077 47.83 13.559 47.83 13.559L48.0245 13.7036L48.1318 13.6283L48.0752 13.4047L47.1443 11.8828L46.7761 12.1407L46.841 12.2331C46.879 12.2055 46.9408 12.2532 46.9975 12.3128Z"
        fill="#070707" />
    <path
        d="M47.8307 13.5579C47.9991 13.3939 47.6324 12.8305 47.3731 12.5421C47.2031 12.3527 47.0697 12.3162 46.9974 12.3125C47.0653 12.3848 47.1256 12.4742 47.1256 12.4742C47.2099 12.6904 47.4096 12.8722 47.4096 12.8722C47.5616 13.0295 47.6295 13.2113 47.6295 13.2113C47.7025 13.4073 47.8307 13.5579 47.8307 13.5579Z"
        fill="#DB0707" />
    <path
        d="M47.2263 12.4835C47.157 12.4068 47.0943 12.3553 47.0385 12.3203C47.1152 12.3352 47.2315 12.3866 47.3731 12.5446C47.6325 12.8338 47.9984 13.3965 47.8307 13.5605C47.8307 13.5605 47.78 13.5009 47.7249 13.4077C47.7502 13.1819 47.4491 12.7317 47.2263 12.4835Z"
        fill="#910707" />
    <path
        d="M52.708 20.3101C52.7855 20.4204 52.8622 20.5002 52.8809 20.4875C52.8988 20.4748 52.8511 20.3749 52.7735 20.2646C52.696 20.1543 52.6193 20.0746 52.6006 20.0873C52.5828 20.0999 52.6312 20.1998 52.708 20.3101Z"
        fill="#595563" />
    <path d="M53.9208 19.3274L54.0035 19.2266L47.8871 14.2097L47.8044 14.3105L53.9208 19.3274Z"
        fill="#600202" />
    <path d="M53.9381 19.3016L53.974 19.2578L47.8599 14.2378L47.824 14.2815L53.9381 19.3016Z"
        fill="#9E0D0D" />
    <path d="M54.3018 19.6697L54.4219 19.5234L53.9426 19.13L53.8225 19.2763L54.3018 19.6697Z"
        fill="#2F2C35" />
    <path d="M54.4089 19.7258L54.4916 19.625L54.4046 19.5536L54.3218 19.6545L54.4089 19.7258Z"
        fill="#070707" />
    <path d="M55.2569 20.3923L55.3158 20.3208L54.5078 19.5859L54.3789 19.7432L55.2569 20.3923Z"
        fill="#2F2C35" />
    <path d="M55.4886 20.5327L55.3098 20.3359L55.2628 20.3933L55.4886 20.5327Z" fill="#595563" />
    <path
        d="M46.4579 13.2601C46.5428 13.3107 46.6248 13.3808 46.6248 13.3808C46.7642 13.5664 47.0057 13.6871 47.0057 13.6871C47.1942 13.7974 47.309 13.9539 47.309 13.9539C47.432 14.1231 47.5959 14.2342 47.5959 14.2342L47.8225 14.3206L47.9052 14.2193L47.7905 14.0195L46.4832 12.8047L46.1978 13.152L46.285 13.2235C46.3148 13.1885 46.3871 13.2176 46.4579 13.2601Z"
        fill="#070707" />
    <path
        d="M47.596 14.2316C47.7137 14.0281 47.2092 13.5847 46.8812 13.3767C46.6666 13.2403 46.528 13.2411 46.4572 13.2575C46.5421 13.3082 46.6241 13.3782 46.6241 13.3782C46.7635 13.5638 47.005 13.6845 47.005 13.6845C47.1935 13.7948 47.3083 13.9514 47.3083 13.9514C47.432 14.1205 47.596 14.2316 47.596 14.2316Z"
        fill="#DB0707" />
    <path
        d="M46.7232 13.3578C46.636 13.3026 46.5615 13.2698 46.4989 13.2512C46.5764 13.2445 46.7031 13.2631 46.8812 13.3772C47.2092 13.5851 47.7137 14.0293 47.596 14.232C47.596 14.232 47.5311 14.188 47.4529 14.1135C47.4164 13.8892 47.005 13.5367 46.7232 13.3578Z"
        fill="#910707" />
    <path
        d="M54.1143 19.4231C54.2187 19.5088 54.3141 19.5639 54.3282 19.5468C54.3424 19.5297 54.2693 19.4469 54.165 19.3612C54.0607 19.2755 53.9653 19.2204 53.9511 19.2375C53.9369 19.2546 54.01 19.3374 54.1143 19.4231Z"
        fill="#595563" />
    <path
        d="M49.6604 15.2813C49.6604 15.2813 49.5486 15.0555 49.3794 15.0115C49.211 14.9675 48.6006 15.332 48.6274 15.402C48.6535 15.4721 48.8369 15.5041 48.8003 15.5675C48.7638 15.6308 48.9002 15.6338 48.9278 15.7322C48.9829 15.9275 49.0731 15.9185 49.1201 15.9446C49.167 15.9722 49.8803 15.8693 49.6604 15.2813Z"
        fill="#FC7575" />
    <path d="M49.6656 14.7188L49.3429 15.0757L49.6455 15.5117L50.0964 15.1026L49.6656 14.7188Z"
        fill="#FC7575" />
    <path
        d="M48.1705 10.1406C48.1705 10.1406 51.4603 10.7309 52.2041 11.4747C52.9479 12.2185 50.1873 15.7065 50.1873 15.7065L49.8743 15.0715C49.8124 14.9456 49.717 14.8382 49.5993 14.7622L49.252 14.5364C49.252 14.5364 50.5071 12.8013 50.5071 12.3713C50.5071 11.9413 49.4077 12.2476 49.4077 12.2476C49.4077 12.2476 47.7875 10.5587 48.1705 10.1406Z"
        fill="#F9A94B" />
</svg>
    