<svg width="23" height="21" viewBox="0 0 23 21" fill="none" xmlns="http://www.w3.org/2000/svg">
<path d="M22.6266 20.0107L19.7003 8.21828C19.6748 8.11566 19.6088 8.02792 19.5172 7.97452L15.7311 5.77725C15.73 5.77661 15.7287 5.77644 15.7276 5.7758C15.7268 5.77534 15.7262 5.77465 15.7254 5.7742C15.6961 5.75773 15.6651 5.74554 15.6334 5.73727C15.6297 5.73629 15.6258 5.73655 15.622 5.7357C15.5927 5.72895 15.5631 5.72509 15.5333 5.72523C15.5235 5.72528 15.5139 5.72766 15.5041 5.72845C15.4805 5.73036 15.4573 5.73283 15.4343 5.73901C15.4222 5.74225 15.4109 5.74771 15.3991 5.75215C15.3841 5.75775 15.3686 5.76137 15.3543 5.76886L11.8135 7.6182C12.2767 6.74993 12.6084 5.68568 12.6084 4.40625C12.6084 2.25247 10.856 0.5 8.70218 0.5C6.54841 0.5 4.79594 2.25247 4.79594 4.40625C4.79594 5.29755 4.96159 6.07981 5.21519 6.76965L3.13921 7.97452C3.04766 8.02792 2.98166 8.11566 2.95611 8.21828L0.0115413 20.0835C-0.0231725 20.2243 0.0226039 20.3727 0.13056 20.4692C0.203421 20.534 0.296499 20.5684 0.390722 20.5684C0.436499 20.5684 0.483038 20.5603 0.527288 20.5436L6.26869 18.4016L11.1722 20.5359C11.1781 20.5385 11.1846 20.5375 11.1906 20.5397C11.2351 20.5567 11.2811 20.5684 11.3282 20.5684C11.3753 20.5684 11.4213 20.5567 11.4659 20.5397C11.4718 20.5375 11.4784 20.5385 11.4842 20.5359L16.3878 18.4016L22.1292 20.5436C22.1734 20.5603 22.2199 20.5684 22.2657 20.5684H22.2699C22.4893 20.5756 22.664 20.3944 22.664 20.1777C22.664 20.1178 22.6506 20.0614 22.6266 20.0107ZM8.70218 1.28125C10.4253 1.28125 11.8272 2.68315 11.8272 4.40625C11.8272 5.91856 11.3048 7.09502 10.6761 7.96899C10.6756 7.96982 10.6748 7.97025 10.6744 7.97108C9.94654 8.98191 9.0765 9.58642 8.70218 9.81511C8.0041 9.38863 5.57719 7.6701 5.57719 4.40625C5.57719 2.68315 6.97909 1.28125 8.70218 1.28125ZM2.37971 13.7849C2.4638 13.662 2.5595 13.5245 2.67 13.3731C2.78964 13.2094 2.7582 12.9871 2.61045 12.8551L2.74315 12.3203C2.76354 12.3848 2.79453 12.4462 2.84853 12.4946C2.9233 12.5613 3.01638 12.5941 3.10908 12.5941C3.21627 12.5941 3.32308 12.5502 3.40014 12.464C3.68319 12.1478 3.95861 11.8831 4.21992 11.6774C4.38929 11.5443 4.41828 11.2986 4.28477 11.1289C4.15163 10.9599 3.90635 10.9301 3.73621 11.064C3.44794 11.2911 3.14768 11.578 2.84364 11.9153L3.67441 8.56732L5.52845 7.49136C5.82044 8.06676 6.16875 8.55993 6.52752 8.97089L6.40605 10.6838C6.40483 10.6829 6.40428 10.6815 6.40307 10.6807C5.96895 10.377 5.46389 10.29 4.93441 10.4258C4.72536 10.4792 4.59948 10.6921 4.65288 10.9012C4.70629 11.1106 4.91915 11.2365 5.12819 11.1827C5.43871 11.1033 5.7065 11.1468 5.95522 11.3208C6.0235 11.3685 6.10132 11.3913 6.17876 11.3913C6.24137 11.3913 6.30312 11.3757 6.35903 11.3468L5.9083 17.7024L0.948431 19.5529L2.37971 13.7849ZM7.02157 13.0481C7.04088 13.092 7.05965 13.1364 7.07941 13.1801C7.14426 13.3246 7.28655 13.4101 7.43571 13.4101C7.48911 13.4101 7.54366 13.399 7.59592 13.3754C7.79276 13.2869 7.88012 13.0557 7.79123 12.8589C7.74126 12.7475 7.69282 12.6346 7.64437 12.522C7.53298 12.2638 7.41816 11.9964 7.27968 11.7389C7.2434 11.6714 7.18703 11.6253 7.1249 11.5903L7.2583 9.7082C7.9164 10.2883 8.46393 10.582 8.52137 10.612C8.57821 10.6414 8.64001 10.6562 8.70218 10.6562C8.76436 10.6562 8.82616 10.6414 8.883 10.612C8.96268 10.5703 9.98414 10.0178 10.9376 8.89846V15.1808C10.9303 15.1834 10.9227 15.1823 10.9155 15.1854C10.8548 15.2114 10.7919 15.232 10.7247 15.2469C10.5157 15.2938 10.2765 15.2736 10.0251 15.1843C9.82142 15.1141 9.59864 15.219 9.52654 15.4227C9.45482 15.626 9.56164 15.8492 9.76496 15.9213C10.0125 16.0087 10.2582 16.0529 10.4951 16.0529C10.6324 16.0529 10.7675 16.038 10.8945 16.0094C10.9092 16.0062 10.923 15.9991 10.9376 15.9955V19.5815L6.68955 17.7325L7.02157 13.0481ZM11.7188 19.5815V15.0581C11.7243 15.0626 11.7269 15.0691 11.7326 15.0733C11.8024 15.1244 11.8833 15.1492 11.9638 15.1492C12.0839 15.1492 12.2022 15.0943 12.2788 14.9901C12.5154 14.6682 12.7183 14.3069 12.8972 13.9876L12.9338 13.9224C13.0395 13.7343 12.9727 13.4963 12.7847 13.3906C12.5958 13.285 12.3582 13.3517 12.2525 13.5398L12.2159 13.6054C12.0604 13.8828 11.8974 14.1639 11.7188 14.4215V8.54901L15.1876 6.73741L15.4692 10.7106C15.3022 10.7687 15.1357 10.8295 14.9739 10.9046C14.7786 10.9958 14.6936 11.2281 14.7843 11.4238C14.8507 11.5661 14.9919 11.6496 15.1391 11.6496C15.194 11.6496 15.2501 11.6382 15.3035 11.6134C15.3766 11.5794 15.4526 11.5555 15.5269 11.5256L15.9669 17.7325L11.7188 19.5815ZM16.7481 17.7024L16.2935 11.2897C16.3138 11.2855 16.3337 11.2781 16.3541 11.2742C16.5662 11.2346 16.7058 11.0305 16.6657 10.8184C16.6279 10.6159 16.4392 10.4852 16.238 10.5072L15.9768 6.82324L18.982 8.56732L19.6437 11.234C19.5571 11.2592 19.4774 11.3101 19.4245 11.3913C19.3067 11.5722 19.3578 11.8144 19.5386 11.9319C19.6546 12.0075 19.7672 12.0944 19.8789 12.1817L21.708 19.5529L16.7481 17.7024Z" fill="#004053"/>
<path d="M18.7846 10.6951C18.3707 10.5525 17.9419 10.4636 17.5108 10.4311C17.2972 10.4125 17.108 10.5757 17.092 10.7913C17.0756 11.0064 17.2369 11.1941 17.4521 11.2101C17.8164 11.2376 18.1792 11.3127 18.5305 11.4336C18.5725 11.4481 18.6152 11.455 18.6575 11.455C18.8196 11.455 18.9711 11.3535 19.0268 11.1914C19.097 10.9877 18.9886 10.7653 18.7846 10.6951Z" fill="#004053"/>
<path d="M8.3559 13.8168C8.22392 13.6451 7.97901 13.6138 7.80811 13.7451C7.63683 13.8767 7.60517 14.1219 7.7364 14.2928C8.00419 14.6411 8.30898 14.9642 8.61721 15.2278C8.69083 15.2904 8.78086 15.3213 8.87089 15.3213C8.98113 15.3213 9.09061 15.2747 9.16805 15.1843C9.30805 15.0203 9.2886 14.7739 9.12457 14.6335C8.85677 14.405 8.59089 14.1223 8.3559 13.8168Z" fill="#004053"/>
<path d="M13.8719 11.5746C13.5343 11.8374 13.2242 12.1411 12.9507 12.4775C12.8149 12.645 12.84 12.891 13.0075 13.0272C13.08 13.086 13.167 13.1146 13.2535 13.1146C13.3672 13.1146 13.4798 13.0654 13.5572 12.9704C13.7933 12.6797 14.0607 12.4176 14.3518 12.191C14.5219 12.0587 14.5525 11.8134 14.4201 11.6429C14.2877 11.4735 14.0428 11.4415 13.8719 11.5746Z" fill="#004053"/>
<path d="M10.655 4.40625C10.655 3.32936 9.77879 2.45312 8.7019 2.45312C7.62502 2.45312 6.74878 3.32936 6.74878 4.40625C6.74878 5.48314 7.62502 6.35938 8.7019 6.35938C9.77879 6.35938 10.655 5.48314 10.655 4.40625ZM7.53003 4.40625C7.53003 3.76004 8.05569 3.23438 8.7019 3.23438C9.34811 3.23438 9.87378 3.76004 9.87378 4.40625C9.87378 5.05246 9.34811 5.57812 8.7019 5.57812C8.05569 5.57812 7.53003 5.05246 7.53003 4.40625Z" fill="#004053"/>
</svg>
