<svg width="20" height="20" viewBox="0 0 20 20" fill="none" xmlns="http://www.w3.org/2000/svg">
    <path fill-rule="evenodd" clip-rule="evenodd"
        d="M10.0001 14.1524C9.86504 14.1524 9.73968 14.0824 9.66974 13.9685C9.41746 13.5665 9.07734 13.0604 8.68352 12.4761C7.09839 10.1228 4.92737 6.90209 4.92737 5.0728C4.92737 2.2752 7.20257 0 10.0001 0C12.7977 0 15.0729 2.2752 15.0729 5.0728C15.0729 6.90204 12.9019 10.1244 11.3168 12.4761C10.9229 13.0604 10.5828 13.5665 10.3306 13.9685C10.2604 14.084 10.1352 14.1524 10.0001 14.1524ZM10.0001 0.781191C7.63376 0.781191 5.70851 2.70649 5.70851 5.0728C5.70851 6.66282 7.8877 9.89822 9.33123 12.0399C9.57696 12.4061 9.80321 12.7398 10.0001 13.0408C10.197 12.7398 10.4232 12.4061 10.669 12.0399C12.1109 9.89822 14.2901 6.66278 14.2901 5.0728C14.2917 2.70644 12.3664 0.781191 10.0001 0.781191Z"
        fill="white" />
    <path fill-rule="evenodd" clip-rule="evenodd"
        d="M10.0001 7.78082C8.47032 7.78082 7.22693 6.53582 7.22693 5.00757C7.22693 3.47777 8.47193 2.23438 10.0001 2.23438C11.53 2.23438 12.7734 3.47938 12.7734 5.00757C12.7733 6.53582 11.5299 7.78082 10.0001 7.78082ZM10.0001 3.014C8.90161 3.014 8.00812 3.90749 8.00812 5.00601C8.00812 6.10457 8.90161 6.99806 10.0001 6.99806C11.0987 6.99806 11.9922 6.10457 11.9922 5.00601C11.9921 3.90744 11.0987 3.014 10.0001 3.014Z"
        fill="white" />
    <path fill-rule="evenodd" clip-rule="evenodd"
        d="M7.1113 20.0003C7.07061 20.0003 7.0283 19.9938 6.98761 19.9807L1.21173 18.0538C1.05223 18.0001 0.944824 17.852 0.944824 17.6828V6.45325C0.944824 6.32795 1.00503 6.20914 1.10755 6.13592C1.21007 6.0627 1.34031 6.04314 1.45911 6.08222L6.5417 7.77641C6.63609 7.80733 6.7142 7.87409 6.7614 7.96027C6.95831 8.32318 7.1878 8.72195 7.44654 9.14507C7.484 9.20689 7.50351 9.27693 7.50351 9.34849V19.6096C7.50351 19.735 7.44331 19.8537 7.34079 19.927C7.27241 19.9742 7.19264 20.0003 7.1113 20.0003ZM1.72602 17.4028L6.72071 19.0677L6.72066 9.45755C6.50746 9.10599 6.32033 8.78054 6.14778 8.46967L1.72602 6.99361V17.4028Z"
        fill="white" />
    <path fill-rule="evenodd" clip-rule="evenodd"
        d="M7.11134 20.0032C7.02996 20.0032 6.95023 19.9771 6.88347 19.93C6.781 19.8567 6.72075 19.7379 6.72075 19.6126L6.7207 9.35144C6.7207 9.1757 6.83794 9.02271 7.00555 8.97552C7.17478 8.92832 7.35384 8.99992 7.44496 9.14802C8.06015 10.1603 8.73555 11.1612 9.32961 12.0449C9.57533 12.4111 9.80159 12.7463 9.99846 13.0458C10.1954 12.7463 10.4216 12.4111 10.6673 12.0449C11.263 11.1612 11.9368 10.1603 12.552 9.14802C12.6431 8.99831 12.8221 8.92832 12.9914 8.97552C13.1606 9.02271 13.2763 9.1757 13.2763 9.35144V17.6873C13.2763 17.8549 13.1688 18.0047 13.0093 18.0584L7.23347 19.9837C7.1943 19.9967 7.15365 20.0032 7.11134 20.0032ZM7.50189 10.7055V19.0706L12.4966 17.4057V10.7055C12.0946 11.3272 11.6894 11.9277 11.3167 12.4827C10.9229 13.0669 10.5827 13.5731 10.3305 13.9751C10.2589 14.089 10.1336 14.1589 9.99846 14.1589C9.86341 14.1589 9.73806 14.089 9.66812 13.9751C9.41584 13.5714 9.07572 13.0669 8.68189 12.4827C8.30915 11.9277 7.9055 11.3272 7.50189 10.7055Z"
        fill="white" />
    <path fill-rule="evenodd" clip-rule="evenodd"
        d="M18.6646 20.0001C18.6239 20.0001 18.5816 19.9936 18.541 19.9806L12.7651 18.0553C12.6056 18.0016 12.4982 17.8535 12.4982 17.6843L12.4982 9.34841C12.4982 9.27681 12.5177 9.20682 12.5551 9.145C13.1313 8.19619 13.5528 7.40849 13.8424 6.73637C13.9222 6.54919 14.1321 6.45641 14.3242 6.5199L18.7883 8.0074C18.9478 8.0611 19.0552 8.2092 19.0552 8.37843V19.6096C19.0552 19.7349 18.995 19.8537 18.8925 19.9269C18.8257 19.9741 18.746 20.0001 18.6646 20.0001ZM13.2794 17.4027L18.2741 19.0676L18.274 8.66L14.412 7.37269C14.1305 7.9781 13.7562 8.6649 13.2794 9.45748V17.4027Z"
        fill="white" />
</svg>
    