<svg xmlns="http://www.w3.org/2000/svg" width="18.551" height="25" viewBox="0 0 18.551 25">
  <g id="sort-numeric-up" transform="translate(-30.4 -6.527)" opacity="0.38">
    <path id="Path_420" data-name="Path 420" d="M31.581,12.434,34.29,9.725v21.8h1.671V9.725l2.709,2.709,1.181-1.181L35.126,6.527,30.4,11.253l1.181,1.181Z" transform="translate(0)"/>
    <path id="Path_421" data-name="Path 421" d="M128.707,28.8h-2.088V21.28h-1.671v1.671h-1.671v1.671h1.671V28.8h-2.088v1.671h5.848Z" transform="translate(-79.755 -12.726)"/>
    <path id="Path_422" data-name="Path 422" d="M123.517,114.336h-1v1.671h1a4.014,4.014,0,0,0,4.01-4.01V109.3a2.906,2.906,0,0,0-2.9-2.9h-.23a2.906,2.906,0,0,0-2.9,2.9v.23a2.906,2.906,0,0,0,2.9,2.9h.23a2.885,2.885,0,0,0,1.226-.272A2.342,2.342,0,0,1,123.517,114.336Zm1.107-3.571h-.23a1.234,1.234,0,0,1-1.232-1.232v-.23a1.234,1.234,0,0,1,1.232-1.232h.23a1.234,1.234,0,0,1,1.232,1.232v.23a1.234,1.234,0,0,1-1.232,1.232Z" transform="translate(-78.576 -86.15)"/>
  </g>
</svg>
