<svg width="17" height="18" viewBox="0 0 17 18" fill="none" xmlns="http://www.w3.org/2000/svg">
<path fill-rule="evenodd" clip-rule="evenodd" d="M12.1963 0C12.2579 0.51287 12.2053 1.03177 12.0411 1.52566C11.877 2.01955 11.6048 2.47831 11.2411 2.8745C10.8774 3.2707 10.4295 3.59621 9.9242 3.83156C9.4189 4.06691 8.86663 4.20728 8.30026 4.24428C8.22118 3.2167 8.58237 2.20114 9.30854 1.41009C10.0347 0.619032 11.0695 0.113766 12.1963 0Z" fill="#1A1818"/>
<path fill-rule="evenodd" clip-rule="evenodd" d="M12.59 4.00781C13.3424 4.07047 14.0702 4.28407 14.7207 4.63321C15.3712 4.98235 15.9283 5.45833 16.3519 6.0268C15.6814 6.38957 15.124 6.90162 14.7319 7.5146C14.3398 8.12759 14.126 8.82127 14.111 9.53013C14.1058 10.3325 14.3743 11.1166 14.8795 11.7748C15.3847 12.4329 16.1019 12.9327 16.9324 13.2056C16.9324 13.2056 14.7116 17.9942 12.2167 17.9942C10.8141 17.9942 10.7201 17.2618 8.85799 17.2618C7.23907 17.2618 6.69354 17.9942 5.4602 17.9942C3.10773 17.9942 0.0675049 13.3264 0.0675049 9.53013C0.0675049 5.58736 3.1452 4.00781 5.07447 4.00781C6.76863 4.00781 7.47403 4.91477 8.83634 4.91477C9.98503 4.91477 10.8891 4.00781 12.59 4.00781Z" fill="#1A1818"/>
</svg>
