<svg width="24" height="24" viewBox="0 0 24 24" fill="none" xmlns="http://www.w3.org/2000/svg">
<path d="M8.25 5.28125C7.95703 5.30078 7.80078 5.45703 7.78125 5.75V17C7.80078 17.293 7.95703 17.4492 8.25 17.4688H10.5938V15.5938C10.6133 15.2031 10.75 14.8711 11.0039 14.5977C11.2773 14.3438 11.6094 14.207 12 14.1875C12.3906 14.207 12.7227 14.3438 12.9961 14.5977C13.25 14.8711 13.3867 15.2031 13.4062 15.5938V17.4688H15.75C16.043 17.4492 16.1992 17.293 16.2188 17V5.75C16.1992 5.45703 16.043 5.30078 15.75 5.28125H8.25ZM6.375 5.75C6.39453 5.22266 6.58008 4.7832 6.93164 4.43164C7.2832 4.08008 7.72266 3.89453 8.25 3.875H15.75C16.2773 3.89453 16.7168 4.08008 17.0684 4.43164C17.4199 4.7832 17.6055 5.22266 17.625 5.75V17C17.6055 17.5273 17.4199 17.9668 17.0684 18.3184C16.7168 18.6699 16.2773 18.8555 15.75 18.875H8.25C7.72266 18.8555 7.2832 18.6699 6.93164 18.3184C6.58008 17.9668 6.39453 17.5273 6.375 17V5.75ZM8.95312 6.92188C8.97266 6.62891 9.12891 6.47266 9.42188 6.45312H10.8281C11.1211 6.47266 11.2773 6.62891 11.2969 6.92188V8.32812C11.2773 8.62109 11.1211 8.77734 10.8281 8.79688H9.42188C9.12891 8.77734 8.97266 8.62109 8.95312 8.32812V6.92188ZM13.1719 6.45312H14.5781C14.8711 6.47266 15.0273 6.62891 15.0469 6.92188V8.32812C15.0273 8.62109 14.8711 8.77734 14.5781 8.79688H13.1719C12.8789 8.77734 12.7227 8.62109 12.7031 8.32812V6.92188C12.7227 6.62891 12.8789 6.47266 13.1719 6.45312ZM8.95312 10.6719C8.97266 10.3789 9.12891 10.2227 9.42188 10.2031H10.8281C11.1211 10.2227 11.2773 10.3789 11.2969 10.6719V12.0781C11.2773 12.3711 11.1211 12.5273 10.8281 12.5469H9.42188C9.12891 12.5273 8.97266 12.3711 8.95312 12.0781V10.6719ZM13.1719 10.2031H14.5781C14.8711 10.2227 15.0273 10.3789 15.0469 10.6719V12.0781C15.0273 12.3711 14.8711 12.5273 14.5781 12.5469H13.1719C12.8789 12.5273 12.7227 12.3711 12.7031 12.0781V10.6719C12.7227 10.3789 12.8789 10.2227 13.1719 10.2031Z" fill="#CECECE"/>
</svg>
