<svg xmlns="http://www.w3.org/2000/svg" width="21.909" height="20.054" viewBox="0 0 21.909 20.054">
  <g id="child-friendly" transform="translate(-6.08 -24.32)" opacity="0.44">
    <path id="Path_423" data-name="Path 423" d="M26,37.369l.879-3.3V32.118a8.583,8.583,0,0,0-8.541-7.8H16.849v7.8H11.472l-.828-3.656a1.493,1.493,0,0,0-1.452-1.171H6.08v1.485H9.192l1.879,8.293a3.713,3.713,0,1,0,4.646,3.218h4.864q-.018.183-.019.371A3.713,3.713,0,1,0,26,37.369ZM18.334,25.805a7.065,7.065,0,0,1,7.017,6.313H18.334ZM12.021,42.887a2.228,2.228,0,1,1,2.228-2.228A2.228,2.228,0,0,1,12.021,42.887Zm9.04-4.085H15.235a3.721,3.721,0,0,0-2.66-1.815L11.808,33.6H25.389v.274l-.822,3.081q-.146-.012-.292-.013A3.715,3.715,0,0,0,21.062,38.8Zm3.214,4.085A2.228,2.228,0,1,1,26.5,40.659,2.228,2.228,0,0,1,24.275,42.887Z"/>
  </g>
</svg>
