<svg xmlns="http://www.w3.org/2000/svg" width="16.38" height="15.305" viewBox="0 0 16.38 15.305">
  <g id="hospital-bed" opacity="0.51">
    <path id="Path_429" data-name="Path 429" d="M25.455,85.913h-4.68c-.646,0-1.169.857-1.17,1.913v5.739H13.17V84H12V99.3h1.17V95.479H27.21V99.3h1.17V90.7C28.378,88.056,27.069,85.916,25.455,85.913Zm1.755,7.652H20.775V87.826h4.68c.969,0,1.754,1.285,1.755,2.87Z" transform="translate(-12 -84)"/>
    <path id="Path_430" data-name="Path 430" d="M39.348,91.913a1.435,1.435,0,1,1-1.435,1.435,1.435,1.435,0,0,1,1.435-1.435m0-1.913A3.348,3.348,0,1,0,42.7,93.348,3.348,3.348,0,0,0,39.348,90Z" transform="translate(-32.174 -89.043)"/>
  </g>
</svg>
