<svg width="17" height="15" viewBox="0 0 17 15" fill="none" xmlns="http://www.w3.org/2000/svg">
<path d="M6.26855 0.5C6.45605 0.5 6.64355 0.6875 6.64355 0.875V2H11.1436V0.875C11.1436 0.6875 11.3076 0.5 11.5186 0.5C11.7061 0.5 11.8936 0.6875 11.8936 0.875V2H12.6436C13.4639 2 14.1436 2.67969 14.1436 3.5V4.25V5V11C14.1436 11.8438 13.4639 12.5 12.6436 12.5H5.14355C4.2998 12.5 3.64355 11.8438 3.64355 11V5V4.25V3.5C3.64355 2.67969 4.2998 2 5.14355 2H5.89355V0.875C5.89355 0.6875 6.05762 0.5 6.26855 0.5ZM13.3936 5H10.9561V6.6875H13.3936V5ZM13.3936 7.4375H10.9561V9.3125H13.3936V7.4375ZM13.3936 10.0625H10.9561V11.75H12.6436C13.042 11.75 13.3936 11.4219 13.3936 11V10.0625ZM10.2061 9.3125V7.4375H7.58105V9.3125H10.2061ZM7.58105 10.0625V11.75H10.2061V10.0625H7.58105ZM6.83105 9.3125V7.4375H4.39355V9.3125H6.83105ZM4.39355 10.0625V11C4.39355 11.4219 4.72168 11.75 5.14355 11.75H6.83105V10.0625H4.39355ZM4.39355 6.6875H6.83105V5H4.39355V6.6875ZM7.58105 6.6875H10.2061V5H7.58105V6.6875ZM12.6436 2.75H5.14355C4.72168 2.75 4.39355 3.10156 4.39355 3.5V4.25H13.3936V3.5C13.3936 3.10156 13.042 2.75 12.6436 2.75Z" fill="#898989"/>
</svg>
