<svg width="15" height="14" viewBox="0 0 15 14" fill="none" xmlns="http://www.w3.org/2000/svg">
<path d="M13.174 2.5H11.027L10.777 1.75C10.6565 1.38583 10.4242 1.06897 10.1131 0.844531C9.80204 0.620094 9.42808 0.499527 9.0445 0.500001H5.9555C5.57202 0.499708 5.19821 0.620353 4.88726 0.844773C4.5763 1.06919 4.34403 1.38596 4.2235 1.75L3.973 2.5H1.826C1.34188 2.50053 0.877734 2.69308 0.535408 3.03541C0.193081 3.37774 0.000529386 3.84188 0 4.326V11.676C0.00105831 12.1598 0.193843 12.6234 0.536113 12.9653C0.878382 13.3072 1.34222 13.4995 1.826 13.5H13.176C13.6598 13.4989 14.1234 13.3062 14.4653 12.9639C14.8072 12.6216 14.9995 12.1578 15 11.674V4.324C14.9989 3.84023 14.8062 3.3766 14.4639 3.0347C14.1216 2.69281 13.6578 2.50053 13.174 2.5ZM14 11.674C13.9997 11.893 13.9126 12.1029 13.7578 12.2578C13.6029 12.4126 13.393 12.4997 13.174 12.5H1.826C1.60701 12.4997 1.39707 12.4126 1.24222 12.2578C1.08737 12.1029 1.00026 11.893 1 11.674V4.324C1.00079 4.10536 1.08814 3.89593 1.24293 3.74152C1.39772 3.5871 1.60736 3.50026 1.826 3.5H4.3335C4.4384 3.49992 4.54061 3.46685 4.62568 3.40548C4.71074 3.3441 4.77435 3.25752 4.8075 3.158L5.172 2.0645C5.22673 1.90003 5.33189 1.75697 5.47253 1.65564C5.61317 1.55431 5.78216 1.49985 5.9555 1.5H9.0445C9.21792 1.49981 9.38699 1.55431 9.52766 1.65575C9.66832 1.75718 9.77342 1.90039 9.828 2.065L10.1925 3.158C10.2256 3.25752 10.2893 3.3441 10.3743 3.40548C10.4594 3.46685 10.5616 3.49992 10.6665 3.5H13.174C13.393 3.50027 13.6029 3.58738 13.7578 3.74222C13.9126 3.89707 13.9997 4.10701 14 4.326V11.674Z" fill="#004053"/>
<path d="M7.5 4C6.75832 4 6.0333 4.21993 5.41661 4.63199C4.79993 5.04404 4.31928 5.62971 4.03545 6.31494C3.75162 7.00016 3.67736 7.75416 3.82206 8.48159C3.96675 9.20902 4.3239 9.8772 4.84835 10.4016C5.3728 10.9261 6.04098 11.2833 6.76841 11.4279C7.49584 11.5726 8.24984 11.4984 8.93506 11.2145C9.62029 10.9307 10.206 10.4501 10.618 9.83339C11.0301 9.2167 11.25 8.49168 11.25 7.75C11.2489 6.75576 10.8535 5.80255 10.1505 5.09952C9.44745 4.39649 8.49424 4.00106 7.5 4ZM7.5 10.5C6.9561 10.5 6.42442 10.3387 5.97218 10.0365C5.51995 9.73437 5.16747 9.30488 4.95933 8.80238C4.75119 8.29988 4.69673 7.74695 4.80284 7.2135C4.90895 6.68005 5.17086 6.19005 5.55546 5.80546C5.94005 5.42086 6.43006 5.15895 6.9635 5.05284C7.49695 4.94673 8.04988 5.00119 8.55238 5.20933C9.05488 5.41747 9.48437 5.76995 9.78654 6.22218C10.0887 6.67442 10.25 7.2061 10.25 7.75C10.2492 8.4791 9.95922 9.17811 9.44367 9.69367C8.92811 10.2092 8.2291 10.4992 7.5 10.5Z" fill="#004053"/>
<path d="M12.5 5.5C12.7761 5.5 13 5.27614 13 5C13 4.72386 12.7761 4.5 12.5 4.5C12.2239 4.5 12 4.72386 12 5C12 5.27614 12.2239 5.5 12.5 5.5Z" fill="#004053"/>
</svg>
