<svg width="40" height="40" viewBox="0 0 40 40" fill="none" xmlns="http://www.w3.org/2000/svg">
<path d="M37.8009 36.1759C37.596 35.8012 37.3762 35.4325 37.1468 35.07C37.1454 35.0677 37.1456 35.0652 37.1441 35.0629C37.1428 35.0608 37.1406 35.0599 37.1393 35.0579C36.8606 34.6184 36.5665 34.1883 36.256 33.7735C36.1561 33.64 35.9672 33.6132 35.8341 33.7127C35.7009 33.8124 35.6736 34.0015 35.7733 34.1345C36.0133 34.4552 36.2422 34.7857 36.4628 35.1221C33.6324 36.7655 31.279 35.9963 29.3777 35.3697C27.6445 34.7977 26.148 34.304 25.2129 36.1369C24.6056 37.3269 23.6632 37.3267 22.9806 37.1167C21.8938 36.7824 21.0978 35.8252 21.1541 35.3779C21.1837 35.1417 21.5281 35.0757 21.812 35.0616C23.5581 34.9763 24.5401 33.9595 24.8506 33.1145C25.0349 32.6132 24.9872 32.1659 24.723 31.9183C24.5909 31.7943 24.2925 31.6211 23.7786 31.8489C23.5953 31.93 23.1485 32.0936 22.9633 31.844C22.7486 31.5556 22.8896 30.8332 23.497 30.1245C24.1025 29.4181 24.3509 28.6948 24.2353 27.9744C24.1418 27.3927 23.825 26.9228 23.5113 26.5843C27.3033 27.256 30.8156 29.0211 33.6402 31.7264C33.7604 31.8419 33.9514 31.8372 34.0664 31.7169C34.1814 31.5969 34.1774 31.406 34.0572 31.2908C33.2204 30.4895 32.3222 29.7725 31.3785 29.1344V10.3592C31.5506 10.2688 35.5249 8.13787 35.8468 4.94227C35.8593 4.83827 35.8674 4.734 35.8674 4.62667C35.8674 3.17827 34.6826 2 33.2264 2C32.4525 2 31.7353 2.33067 31.2377 2.90093C30.7397 2.33067 30.0226 2 29.2489 2C27.7925 2 26.6077 3.17827 26.6084 4.60733C26.601 4.72013 26.4888 7.3432 30.7756 10.1532V28.7412C28.8845 27.5585 26.816 26.7011 24.6426 26.1989V21.9143C25.5842 21.3589 28.5537 19.4009 28.8301 16.6559C28.8426 16.5525 28.8508 16.4476 28.8508 16.3403C28.8508 14.8923 27.666 13.7143 26.2096 13.7143C25.4353 13.7143 24.7184 14.0445 24.2212 14.6145C23.7234 14.0445 23.0062 13.7143 22.2324 13.7143C20.7761 13.7143 19.5913 14.8923 19.592 16.3209C19.5845 16.4363 19.4653 19.1715 24.04 22.0481V26.0677C22.7366 25.8083 21.3998 25.6728 20.0437 25.6728C12.5449 25.6728 5.70315 29.7671 2.18835 36.358C2.11009 36.5048 2.16542 36.6876 2.31249 36.7657C2.35755 36.7899 2.40622 36.8013 2.45395 36.8013C2.56169 36.8013 2.66609 36.7435 2.72009 36.6417C3.06449 35.9959 3.44329 35.3761 3.85089 34.7815C4.03635 34.688 4.70502 34.3861 5.23955 34.6015C5.56262 34.7313 5.79715 35.0429 5.93649 35.5273C6.28902 36.7543 7.71142 37.446 9.01062 37.446C9.18782 37.446 9.36289 37.4332 9.53235 37.4071C10.451 37.2655 11.01 36.7347 10.9916 36.0217C10.9689 35.1539 11.3122 34.3808 11.846 34.0985C12.3189 33.8491 12.9309 33.9765 13.6146 34.4691C14.2068 34.8948 14.902 34.8628 15.5225 34.3797C16.3488 33.7361 16.9756 32.2655 16.578 31.2609C16.4257 30.8771 15.9913 30.2504 14.7777 30.3603C12.37 30.5829 10.5942 30.0836 10.3297 29.4936C10.2005 29.2051 10.4696 28.8593 10.729 28.612C13.5374 27.1051 16.7234 26.2757 20.0436 26.2757C20.8369 26.2757 21.6224 26.328 22.3993 26.4204C22.4206 26.4472 22.4448 26.4724 22.4757 26.4912C22.4858 26.4975 23.4893 27.1195 23.6404 28.0731C23.7254 28.6093 23.5232 29.1676 23.0392 29.732C22.2833 30.614 22.053 31.6304 22.4794 32.2036C22.6273 32.4028 23.0738 32.8204 24.0224 32.4001C24.178 32.3311 24.2808 32.3299 24.3106 32.358C24.3532 32.3979 24.4029 32.5847 24.2846 32.9064C24.0376 33.5788 23.2341 34.3884 21.7822 34.4595C20.801 34.5076 20.5926 35.0083 20.5557 35.3025C20.4502 36.1433 21.5425 37.3049 22.8032 37.6928C23.0933 37.7817 23.3733 37.8256 23.6404 37.8256C24.5326 37.8256 25.2776 37.3357 25.7497 36.4109C26.4202 35.0969 27.339 35.3317 29.1886 35.942C31.1053 36.5743 33.7116 37.4257 36.785 35.6312C36.9536 35.906 37.1178 36.1833 37.272 36.4649C37.3268 36.5651 37.4301 36.6219 37.5366 36.6219C37.5856 36.6219 37.635 36.6097 37.681 36.5845C37.8272 36.5048 37.8808 36.3217 37.8009 36.1759ZM27.2104 4.62667C27.2104 3.5108 28.1249 2.60307 29.2489 2.60307C29.9582 2.60307 30.6061 2.9628 30.9818 3.56547C31.0918 3.74307 31.3836 3.7424 31.4933 3.56547C31.8689 2.9628 32.5168 2.60307 33.2262 2.60307C34.3502 2.60307 35.2645 3.51093 35.2645 4.62667C35.2645 4.70907 35.2578 4.78987 35.2474 4.87587C34.9905 7.42733 31.9612 9.3276 31.2468 9.742C27.1398 7.10747 27.2088 4.66813 27.2104 4.62667ZM20.194 16.3403C20.194 15.2248 21.1084 14.3173 22.2322 14.3173C22.9418 14.3173 23.5898 14.6767 23.9654 15.2795C24.0205 15.3677 24.1172 15.4213 24.2212 15.4213H24.2213C24.3253 15.4211 24.422 15.3673 24.477 15.2791C24.852 14.6767 25.4996 14.3173 26.2094 14.3173C27.3334 14.3173 28.248 15.2248 28.248 16.3403C28.248 16.4227 28.2413 16.5035 28.2309 16.5895C27.974 19.1409 24.9446 21.0412 24.2305 21.4556C20.1234 18.8213 20.1924 16.3817 20.194 16.3403ZM9.77995 29.7404C10.2785 30.8529 12.7498 31.1525 14.8332 30.9608C15.459 30.9013 15.8576 31.0783 16.0177 31.4827C16.2844 32.1567 15.8558 33.3561 15.1522 33.9043C14.7409 34.2241 14.3422 34.2503 13.9672 33.9799C12.8522 33.1773 12.0449 33.3121 11.5644 33.5659C10.8216 33.9587 10.3602 34.9289 10.3892 36.0375C10.4038 36.6016 9.73089 36.7664 9.44089 36.8112C8.30515 36.9888 6.82435 36.4339 6.51582 35.3605C6.32275 34.6888 5.96902 34.2451 5.46475 34.0423C5.12395 33.9048 4.76609 33.9027 4.45022 33.9543C5.90969 32.0464 7.69435 30.4431 9.70435 29.2027C9.67755 29.4147 9.71555 29.5969 9.77995 29.7404Z" fill="#F47B3D"/>
<path d="M34.2831 31.9348C34.1626 32.0496 34.1581 32.2403 34.273 32.3609C34.5621 32.6641 34.8471 32.9832 35.1198 33.3093C35.1795 33.3807 35.265 33.4176 35.3512 33.4176C35.4193 33.4176 35.488 33.3944 35.5445 33.3473C35.6722 33.2404 35.689 33.0504 35.5822 32.9228C35.301 32.5867 35.0073 32.2576 34.7093 31.9451C34.5945 31.8243 34.4035 31.8201 34.2831 31.9348Z" fill="#F47B3D"/>
<path d="M20.3811 28.6389C19.9172 27.9115 18.641 27.4275 17.552 27.8962C17.0758 28.1013 16.9734 28.3971 16.9712 28.6094C16.9654 29.2442 17.8538 29.6965 18.1262 29.8201C18.5064 29.9925 18.9822 30.1287 19.4136 30.1287C19.7339 30.1287 20.03 30.0535 20.2444 29.8622C20.6047 29.5405 20.6571 29.0719 20.3811 28.6389ZM19.843 29.4126C19.6211 29.6101 18.99 29.5497 18.375 29.271C17.8071 29.0137 17.5731 28.7167 17.574 28.615C17.5743 28.5801 17.6422 28.5137 17.7906 28.4495C18.6436 28.0826 19.5784 28.5015 19.8728 28.963C20.0447 29.2325 19.9035 29.3587 19.843 29.4126Z" fill="#F47B3D"/>
<path d="M25.2039 19.239V18.7036H25.7445C25.9109 18.7036 26.0458 18.5686 26.0458 18.4022V17.2867C26.0458 17.1203 25.9109 16.9852 25.7445 16.9852H25.2039V16.4499C25.2039 16.2835 25.069 16.1484 24.9026 16.1484H23.7798C23.6134 16.1484 23.4785 16.2835 23.4785 16.4499V16.9852H22.9381C22.7717 16.9852 22.6367 17.1203 22.6367 17.2867V18.4022C22.6367 18.5686 22.7717 18.7036 22.9381 18.7036H23.4785V19.239C23.4785 19.4054 23.6134 19.5404 23.7798 19.5404H24.9026C25.069 19.5406 25.2039 19.4055 25.2039 19.239ZM24.6011 18.4022V18.9375H24.081V18.4022C24.081 18.2358 23.9461 18.1007 23.7797 18.1007H23.2393V17.5883H23.7797C23.9461 17.5883 24.081 17.4532 24.081 17.2868V16.7515H24.6011V17.2868C24.6011 17.4532 24.7361 17.5883 24.9025 17.5883H25.443V18.1007H24.9025C24.7361 18.1007 24.6011 18.2358 24.6011 18.4022Z" fill="#F47B3D"/>
<path d="M9.70461 8.09975C9.72821 8.14229 9.76168 8.17829 9.80221 8.20509L11.5071 9.32935C12.0187 9.66682 12.6061 9.83695 13.1954 9.83695C13.701 9.83695 14.2081 9.71175 14.6703 9.45922L22.971 4.87082C23.7089 4.42375 24.0325 4.10428 23.7525 3.59842C23.0891 2.40055 20.7809 2.66708 19.7951 3.20562L16.7093 4.89335L14.3815 4.40482C14.2195 4.37242 14.0587 4.47508 14.0246 4.63802C13.9905 4.80082 14.0947 4.96042 14.2577 4.99482L16.6945 5.50628C16.7154 5.51055 16.7362 5.51282 16.7567 5.51282C16.7631 5.51282 16.7687 5.51002 16.775 5.50975C16.787 5.50895 16.7983 5.50562 16.8102 5.50348C16.8353 5.49895 16.859 5.49242 16.8818 5.48175C16.8879 5.47882 16.8947 5.47908 16.9009 5.47588L18.8451 4.41242L19.2431 5.13122C19.2981 5.23068 19.4009 5.28682 19.507 5.28682C19.5563 5.28682 19.6065 5.27468 19.6527 5.24882C19.7982 5.16842 19.8511 4.98495 19.7703 4.83935L19.3738 4.12322L19.8151 3.88188L20.213 4.60069C20.2681 4.70015 20.371 4.75628 20.4771 4.75628C20.5265 4.75628 20.5766 4.74415 20.6229 4.71828C20.7683 4.63788 20.8213 4.45442 20.7406 4.30882L20.3547 3.61175C21.2991 3.24162 22.853 3.21788 23.225 3.88988C23.2329 3.90388 23.2382 3.91442 23.2421 3.92189C23.2097 3.96802 23.0919 4.09295 22.6691 4.34895L14.3799 8.93082C13.5767 9.37002 12.6029 9.33015 11.839 8.82655L10.1961 7.74282L9.94635 7.29255L12.4626 7.82068C12.5329 7.83468 12.6058 7.82429 12.6691 7.79029L14.4961 6.79108L15.7143 7.59309C15.7655 7.62682 15.8229 7.64282 15.8798 7.64282C15.9779 7.64282 16.0739 7.59509 16.1319 7.50709C16.2234 7.36815 16.1849 7.18109 16.0458 7.08949L12.6355 4.84429L12.5163 4.62948L13.1953 4.77175C13.3569 4.80442 13.5179 4.70215 13.5521 4.53855C13.5862 4.37575 13.4819 4.21615 13.3189 4.18175L11.9954 3.90415C11.8803 3.88095 11.7613 3.92508 11.6911 4.02028C11.6211 4.11508 11.6129 4.24202 11.6701 4.34535L12.1442 5.20149C12.1678 5.24402 12.2014 5.28029 12.2419 5.30709L13.9258 6.41575L12.4775 7.20775L9.42528 6.56709C9.30941 6.54295 9.19074 6.58802 9.12088 6.68322C9.05088 6.77802 9.04261 6.90495 9.09981 7.00829L9.70461 8.09975Z" fill="#F47B3D"/>
<path d="M32.2204 7.52777V6.9927H32.7609C32.9273 6.9927 33.0623 6.85763 33.0623 6.69123V5.57577C33.0623 5.40937 32.9273 5.2743 32.7609 5.2743H32.2204V4.73897C32.2204 4.57257 32.0855 4.4375 31.9191 4.4375H30.7963C30.6299 4.4375 30.4949 4.57257 30.4949 4.73897V5.2743H29.9544C29.788 5.2743 29.6531 5.40937 29.6531 5.57577V6.69123C29.6531 6.85763 29.788 6.9927 29.9544 6.9927H30.4949V7.52777C30.4949 7.69417 30.6299 7.82923 30.7963 7.82923H31.9191C32.0855 7.82923 32.2204 7.69417 32.2204 7.52777ZM31.6177 6.69123V7.2263H31.0976V6.69123C31.0976 6.52483 30.9627 6.38977 30.7963 6.38977H30.2557V5.87737H30.7963C30.9627 5.87737 31.0976 5.7423 31.0976 5.5759V5.04057H31.6177V5.5759C31.6177 5.7423 31.7527 5.87737 31.9191 5.87737H32.4596V6.38977H31.9191C31.7525 6.38963 31.6177 6.5247 31.6177 6.69123Z" fill="#F47B3D"/>
<path d="M8.32324 19.2561V28.7192C8.32324 28.8856 8.45817 29.0207 8.62457 29.0207C8.79097 29.0207 8.9259 28.8856 8.9259 28.7192V19.2368C8.9259 19.2005 8.91697 19.1667 8.90524 19.1344C9.8235 18.5957 12.835 16.6295 13.1135 13.8641C13.126 13.7608 13.1342 13.6555 13.1342 13.5485C13.1342 12.1001 11.9494 10.9219 10.493 10.9219C9.71897 10.9219 9.00177 11.2525 8.50457 11.8228C8.00684 11.2525 7.28964 10.9219 6.51577 10.9219C5.0595 10.9219 3.8747 12.1001 3.87537 13.5292C3.86777 13.6445 3.74857 16.3795 8.32324 19.2561ZM4.47737 13.5487C4.47737 12.4328 5.39177 11.5251 6.51564 11.5251C7.22524 11.5251 7.8731 11.8848 8.24884 12.4875C8.30377 12.5757 8.40057 12.6297 8.50457 12.6297C8.60857 12.6295 8.7055 12.5757 8.76044 12.4875C9.13537 11.8848 9.78297 11.5251 10.4928 11.5251C11.6168 11.5251 12.5314 12.4329 12.5314 13.5487C12.5314 13.6308 12.5247 13.7119 12.5143 13.7979C12.2574 16.3493 9.22804 18.2493 8.51377 18.6636C4.40683 16.0295 4.47563 13.5901 4.47737 13.5487Z" fill="#F47B3D"/>
<path d="M7.22125 15.9147H7.76166V16.4498C7.76166 16.6162 7.89659 16.7512 8.06299 16.7512H9.18552C9.35192 16.7512 9.48685 16.6162 9.48685 16.4498V15.9147H10.0278C10.1942 15.9147 10.3291 15.7796 10.3291 15.6132V14.4974C10.3291 14.331 10.1942 14.1959 10.0278 14.1959H9.48685V13.6608C9.48685 13.4944 9.35192 13.3594 9.18552 13.3594H8.06299C7.89659 13.3594 7.76166 13.4944 7.76166 13.6608V14.1959H7.22125C7.05485 14.1959 6.91992 14.331 6.91992 14.4974V15.6132C6.91992 15.7796 7.05472 15.9147 7.22125 15.9147ZM7.52259 14.7988H8.06299C8.22939 14.7988 8.36432 14.6638 8.36432 14.4974V13.9623H8.88419V14.4974C8.88419 14.6638 9.01912 14.7988 9.18552 14.7988H9.72645V15.3116H9.18552C9.01912 15.3116 8.88419 15.4467 8.88419 15.6131V16.1482H8.36432V15.6131C8.36432 15.4467 8.22939 15.3116 8.06299 15.3116H7.52259V14.7988Z" fill="#F47B3D"/>
</svg>
