<svg width="24" height="24" viewBox="0 0 24 24" fill="none" xmlns="http://www.w3.org/2000/svg">
<path d="M12 5.27344C10.8867 5.27344 9.87109 5.54688 8.95312 6.09375C8.03516 6.62109 7.29297 7.36328 6.72656 8.32031C6.17969 9.27734 5.90625 10.293 5.90625 11.3672C5.90625 12.4414 6.17969 13.457 6.72656 14.4141C7.29297 15.3711 8.03516 16.1133 8.95312 16.6406C9.87109 17.1875 10.8867 17.4609 12 17.4609C13.1133 17.4609 14.1289 17.1875 15.0469 16.6406C15.9648 16.1133 16.707 15.3711 17.2734 14.4141C17.8203 13.457 18.0938 12.4414 18.0938 11.3672C18.0938 10.293 17.8203 9.27734 17.2734 8.32031C16.707 7.36328 15.9648 6.62109 15.0469 6.09375C14.1289 5.54688 13.1133 5.27344 12 5.27344ZM12 18.8672C10.6328 18.8477 9.38281 18.5156 8.25 17.8711C7.11719 17.207 6.19922 16.2891 5.49609 15.1172C4.83203 13.9258 4.5 12.6758 4.5 11.3672C4.5 10.0586 4.83203 8.80859 5.49609 7.61719C6.19922 6.44531 7.11719 5.52734 8.25 4.86328C9.38281 4.21875 10.6328 3.88672 12 3.86719C13.3672 3.88672 14.6172 4.21875 15.75 4.86328C16.8828 5.52734 17.8008 6.44531 18.5039 7.61719C19.168 8.80859 19.5 10.0586 19.5 11.3672C19.5 12.6758 19.168 13.9258 18.5039 15.1172C17.8008 16.2891 16.8828 17.207 15.75 17.8711C14.6172 18.5156 13.3672 18.8477 12 18.8672ZM10.8281 13.7109H11.5312V11.8359H10.8281C10.3984 11.7969 10.1641 11.5625 10.125 11.1328C10.1641 10.7031 10.3984 10.4688 10.8281 10.4297H12.2344C12.6641 10.4688 12.8984 10.7031 12.9375 11.1328V13.7109H13.1719C13.6016 13.75 13.8359 13.9844 13.875 14.4141C13.8359 14.8438 13.6016 15.0781 13.1719 15.1172H10.8281C10.3984 15.0781 10.1641 14.8438 10.125 14.4141C10.1641 13.9844 10.3984 13.75 10.8281 13.7109ZM12 9.49219C11.7266 9.49219 11.502 9.4043 11.3262 9.22852C11.1504 9.05273 11.0625 8.82812 11.0625 8.55469C11.0625 8.28125 11.1504 8.05664 11.3262 7.88086C11.502 7.70508 11.7266 7.61719 12 7.61719C12.2734 7.61719 12.498 7.70508 12.6738 7.88086C12.8496 8.05664 12.9375 8.28125 12.9375 8.55469C12.9375 8.82812 12.8496 9.05273 12.6738 9.22852C12.498 9.4043 12.2734 9.49219 12 9.49219Z" fill="#004053"/>
</svg>
