<svg id="brand-wechat" xmlns="http://www.w3.org/2000/svg" width="39" height="39" viewBox="0 0 39 39">
  <path id="Path_345" data-name="Path 345" d="M0,0H39V39H0Z" fill="none"/>
  <path id="Path_346" data-name="Path 346" d="M19.938,10c4.937,0,8.938,3.274,8.938,7.313a6.87,6.87,0,0,1-3.25,5.639v3.3l-3.192-1.914a10.8,10.8,0,0,1-2.5.289C15,24.625,11,21.351,11,17.313S15,10,19.938,10Z" transform="translate(6.875 6.25)" fill="none" stroke="#fff" stroke-linecap="round" stroke-linejoin="round" stroke-width="2"/>
  <path id="Path_347" data-name="Path 347" d="M16.945,23.009A13.2,13.2,0,0,1,9.131,22.8L5.25,25.125V20.573A9.062,9.062,0,0,1,2,13.75C2,8.365,7.093,4,13.375,4c6.146,0,11.152,4.176,11.375,9.4v.379" transform="translate(1.25 2.5)" fill="none" stroke="#fff" stroke-linecap="round" stroke-linejoin="round" stroke-width="2"/>
  <path id="Path_348" data-name="Path 348" d="M10,8h.016" transform="translate(6.25 5)" fill="none" stroke="#fff" stroke-linecap="round" stroke-linejoin="round" stroke-width="2"/>
  <path id="Path_349" data-name="Path 349" d="M7,8h.016" transform="translate(4.375 5)" fill="none" stroke="#fff" stroke-linecap="round" stroke-linejoin="round" stroke-width="2"/>
  <path id="Path_350" data-name="Path 350" d="M15,14h.016" transform="translate(9.375 8.75)" fill="none" stroke="#fff" stroke-linecap="round" stroke-linejoin="round" stroke-width="2"/>
  <path id="Path_351" data-name="Path 351" d="M18,14h.016" transform="translate(11.25 8.75)" fill="none" stroke="#fff" stroke-linecap="round" stroke-linejoin="round" stroke-width="2"/>
</svg>
