<svg width="15" height="13" viewBox="0 0 15 13" fill="none" xmlns="http://www.w3.org/2000/svg">
<path d="M6.01502 12.4104C8.82721 12.4104 11.1069 10.1307 11.1069 7.31849C11.1069 4.50629 8.82721 2.22656 6.01502 2.22656C3.20283 2.22656 0.923096 4.50629 0.923096 7.31849C0.923096 10.1307 3.20283 12.4104 6.01502 12.4104Z" fill="#B0EF8F"/>
<path d="M6.07271 11.2577L6.00813 11.1477C5.02159 9.46683 2.39999 5.89977 2.37351 5.86395L2.33569 5.81257L3.22886 4.92988L6.05613 6.90408C7.83625 4.59411 9.49698 3.00751 10.5803 2.081C11.7653 1.0675 12.5367 0.600909 12.5445 0.596438L12.562 0.585938H14.0771L13.9323 0.714822C10.2103 4.03 6.1761 11.0761 6.13591 11.1469L6.07271 11.2577Z" fill="#009045"/>
</svg>
