<svg width="10" height="16" viewBox="0 0 10 16" fill="none" xmlns="http://www.w3.org/2000/svg">
<path d="M5 8.375C5.58594 8.375 6.13281 8.22852 6.64062 7.93555C7.14844 7.64258 7.54883 7.24219 7.8418 6.73438C8.13477 6.22656 8.28125 5.67969 8.28125 5.09375C8.28125 4.50781 8.13477 3.96094 7.8418 3.45312C7.54883 2.94531 7.14844 2.54492 6.64062 2.25195C6.13281 1.95898 5.58594 1.8125 5 1.8125C4.41406 1.8125 3.86719 1.95898 3.35938 2.25195C2.85156 2.54492 2.45117 2.94531 2.1582 3.45312C1.86523 3.96094 1.71875 4.50781 1.71875 5.09375C1.71875 5.67969 1.86523 6.22656 2.1582 6.73438C2.45117 7.24219 2.85156 7.64258 3.35938 7.93555C3.86719 8.22852 4.41406 8.375 5 8.375ZM9.21875 5.09375C9.19922 6.20703 8.83789 7.14453 8.13477 7.90625C7.43164 8.6875 6.54297 9.14648 5.46875 9.2832V15.4062C5.44922 15.6992 5.29297 15.8555 5 15.875C4.70703 15.8555 4.55078 15.6992 4.53125 15.4062V9.2832C3.45703 9.14648 2.56836 8.6875 1.86523 7.90625C1.16211 7.14453 0.800781 6.20703 0.78125 5.09375C0.820312 3.90234 1.23047 2.90625 2.01172 2.10547C2.8125 1.32422 3.80859 0.914062 5 0.875C6.19141 0.914062 7.1875 1.32422 7.98828 2.10547C8.76953 2.90625 9.17969 3.90234 9.21875 5.09375ZM3.59375 5.09375C3.57422 5.38672 3.41797 5.54297 3.125 5.5625C2.83203 5.54297 2.67578 5.38672 2.65625 5.09375C2.67578 4.42969 2.90039 3.87305 3.33008 3.42383C3.7793 2.99414 4.33594 2.76953 5 2.75C5.29297 2.76953 5.44922 2.92578 5.46875 3.21875C5.44922 3.51172 5.29297 3.66797 5 3.6875C4.60938 3.70703 4.27734 3.84375 4.00391 4.09766C3.75 4.37109 3.61328 4.70312 3.59375 5.09375Z" fill="#C4C4C4"/>
</svg>
