<svg xmlns="http://www.w3.org/2000/svg" width="22.737" height="18.189" viewBox="0 0 22.737 18.189">
  <path id="Icon_fa-solid-tree-city" data-name="Icon fa-solid-tree-city" d="M10.232,1.705A1.706,1.706,0,0,1,11.937,0h3.411a1.706,1.706,0,0,1,1.705,1.705V6.821h1.421V4.263a.853.853,0,0,1,1.705,0V6.821h.853a1.706,1.706,0,0,1,1.705,1.705v7.958a1.706,1.706,0,0,1-1.705,1.705H11.937a1.706,1.706,0,0,1-1.705-1.705Zm2.274,1.137V3.979a.57.57,0,0,0,.568.568h1.137a.57.57,0,0,0,.568-.568V2.842a.57.57,0,0,0-.568-.568H13.074A.57.57,0,0,0,12.505,2.842Zm.568,2.842a.57.57,0,0,0-.568.568V7.389a.57.57,0,0,0,.568.568h1.137a.57.57,0,0,0,.568-.568V6.253a.57.57,0,0,0-.568-.568Zm-.568,3.979V10.8a.57.57,0,0,0,.568.568h1.137a.57.57,0,0,0,.568-.568V9.663a.57.57,0,0,0-.568-.568H13.074A.57.57,0,0,0,12.505,9.663Zm6.253-.568a.57.57,0,0,0-.568.568V10.8a.57.57,0,0,0,.568.568h1.137a.57.57,0,0,0,.568-.568V9.663a.57.57,0,0,0-.568-.568Zm-.568,3.979v1.137a.57.57,0,0,0,.568.568h1.137a.57.57,0,0,0,.568-.568V13.074a.57.57,0,0,0-.568-.568H18.758A.57.57,0,0,0,18.189,13.074ZM7.958,5.684a2.761,2.761,0,0,1-.071.568,2.808,2.808,0,0,1-1.634,5.116H5.684v5.684a1.145,1.145,0,0,1-1.137,1.137,1.122,1.122,0,0,1-1.137-1.137V11.368H2.842a2.825,2.825,0,0,1-1.67-5.116,2.872,2.872,0,0,1-.036-.568,3.411,3.411,0,1,1,6.821,0Z" opacity="0.29"/>
</svg>
