<svg width="12" height="12" viewBox="0 0 12 12" fill="none" xmlns="http://www.w3.org/2000/svg">
    <path
        d="M6.00001 11.208C3.13201 11.208 0.792007 8.868 0.792007 6C0.792007 3.132 3.13201 0.792 6.00001 0.792C8.86801 0.792 11.208 3.132 11.208 6C11.208 8.868 8.86801 11.208 6.00001 11.208ZM6.00001 1.272C3.39601 1.272 1.27201 3.396 1.27201 6C1.27201 8.604 3.39601 10.728 6.00001 10.728C8.60401 10.728 10.728 8.604 10.728 6C10.728 3.396 8.60401 1.272 6.00001 1.272ZM6.00001 10.392C5.86801 10.392 5.76001 10.284 5.76001 10.152V9.444C5.76001 9.312 5.86801 9.204 6.00001 9.204C6.13201 9.204 6.24001 9.312 6.24001 9.444V10.152C6.24001 10.284 6.13201 10.392 6.00001 10.392ZM8.94001 9.18C8.88001 9.18 8.82001 9.156 8.77201 9.108L8.26801 8.604C8.17201 8.508 8.17201 8.364 8.26801 8.268C8.36401 8.172 8.50801 8.172 8.60401 8.268L9.10801 8.772C9.20401 8.868 9.20401 9.012 9.10801 9.108C9.06001 9.156 9.00001 9.18 8.94001 9.18ZM3.06001 9.18C3.00001 9.18 2.94001 9.156 2.89201 9.108C2.79601 9.012 2.79601 8.868 2.89201 8.772L3.39601 8.268C3.49201 8.172 3.63601 8.172 3.73201 8.268C3.82801 8.364 3.82801 8.508 3.73201 8.604L3.22801 9.108C3.18001 9.156 3.12001 9.18 3.06001 9.18ZM7.16401 7.692C7.10401 7.692 7.04401 7.668 6.99601 7.62L5.83201 6.456C5.78401 6.408 5.76001 6.348 5.76001 6.288V3.492C5.76001 3.36 5.86801 3.252 6.00001 3.252C6.13201 3.252 6.24001 3.36 6.24001 3.492V6.18L7.33201 7.272C7.42801 7.368 7.42801 7.512 7.33201 7.608C7.28401 7.668 7.22401 7.692 7.16401 7.692ZM10.152 6.24H9.44401C9.31201 6.24 9.20401 6.132 9.20401 6C9.20401 5.868 9.31201 5.76 9.44401 5.76H10.152C10.284 5.76 10.392 5.868 10.392 6C10.392 6.132 10.284 6.24 10.152 6.24ZM2.55601 6.24H1.84801C1.71601 6.24 1.60801 6.132 1.60801 6C1.60801 5.868 1.71601 5.76 1.84801 5.76H2.55601C2.68801 5.76 2.79601 5.868 2.79601 6C2.79601 6.132 2.68801 6.24 2.55601 6.24ZM8.43601 3.804C8.37601 3.804 8.31601 3.78 8.26801 3.732C8.17201 3.636 8.17201 3.492 8.26801 3.396L8.77201 2.892C8.86801 2.796 9.01201 2.796 9.10801 2.892C9.20401 2.988 9.20401 3.132 9.10801 3.228L8.60401 3.732C8.56801 3.78 8.49601 3.804 8.43601 3.804ZM3.56401 3.804C3.50401 3.804 3.44401 3.78 3.39601 3.732L2.89201 3.228C2.79601 3.132 2.79601 2.988 2.89201 2.892C2.98801 2.796 3.13201 2.796 3.22801 2.892L3.73201 3.396C3.82801 3.492 3.82801 3.636 3.73201 3.732C3.68401 3.78 3.62401 3.804 3.56401 3.804ZM6.00001 2.796C5.86801 2.796 5.76001 2.688 5.76001 2.556V1.848C5.76001 1.716 5.86801 1.608 6.00001 1.608C6.13201 1.608 6.24001 1.716 6.24001 1.848V2.556C6.24001 2.688 6.13201 2.796 6.00001 2.796Z"
        fill="#F47B3D" />
</svg>
    