<svg width="15" height="15" viewBox="0 0 15 15" fill="none" xmlns="http://www.w3.org/2000/svg">
<g clip-path="url(#clip0_3665_6575)">
<path d="M7.50024 14.0122C3.91523 14.0122 0.990234 11.0872 0.990234 7.50219C0.990234 3.91719 3.91523 0.992188 7.50024 0.992188C11.0852 0.992188 14.0102 3.91719 14.0102 7.50219C14.0102 11.0872 11.0852 14.0122 7.50024 14.0122ZM7.50024 1.59219C4.24523 1.59219 1.59023 4.24719 1.59023 7.50219C1.59023 10.7572 4.24523 13.4122 7.50024 13.4122C10.7552 13.4122 13.4102 10.7572 13.4102 7.50219C13.4102 4.24719 10.7552 1.59219 7.50024 1.59219ZM7.50024 12.9922C7.33523 12.9922 7.20023 12.8572 7.20023 12.6922V11.8072C7.20023 11.6422 7.33523 11.5072 7.50024 11.5072C7.66524 11.5072 7.80023 11.6422 7.80023 11.8072V12.6922C7.80023 12.8572 7.66524 12.9922 7.50024 12.9922ZM11.1752 11.4772C11.1002 11.4772 11.0252 11.4472 10.9652 11.3872L10.3352 10.7572C10.2152 10.6372 10.2152 10.4572 10.3352 10.3372C10.4552 10.2172 10.6352 10.2172 10.7552 10.3372L11.3852 10.9672C11.5052 11.0872 11.5052 11.2672 11.3852 11.3872C11.3252 11.4472 11.2502 11.4772 11.1752 11.4772ZM3.82523 11.4772C3.75023 11.4772 3.67523 11.4472 3.61523 11.3872C3.49523 11.2672 3.49523 11.0872 3.61523 10.9672L4.24523 10.3372C4.36523 10.2172 4.54523 10.2172 4.66523 10.3372C4.78523 10.4572 4.78523 10.6372 4.66523 10.7572L4.03523 11.3872C3.97523 11.4472 3.90023 11.4772 3.82523 11.4772ZM8.95524 9.61719C8.88024 9.61719 8.80523 9.58719 8.74523 9.52719L7.29023 8.07219C7.23023 8.01219 7.20023 7.93719 7.20023 7.86219V4.36719C7.20023 4.20219 7.33523 4.06719 7.50024 4.06719C7.66524 4.06719 7.80023 4.20219 7.80023 4.36719V7.72719L9.16523 9.09219C9.28523 9.21219 9.28523 9.39219 9.16523 9.51219C9.10524 9.58719 9.03024 9.61719 8.95524 9.61719ZM12.6902 7.80219H11.8052C11.6402 7.80219 11.5052 7.66719 11.5052 7.50219C11.5052 7.33719 11.6402 7.20219 11.8052 7.20219H12.6902C12.8552 7.20219 12.9902 7.33719 12.9902 7.50219C12.9902 7.66719 12.8552 7.80219 12.6902 7.80219ZM3.19523 7.80219H2.31023C2.14523 7.80219 2.01023 7.66719 2.01023 7.50219C2.01023 7.33719 2.14523 7.20219 2.31023 7.20219H3.19523C3.36023 7.20219 3.49523 7.33719 3.49523 7.50219C3.49523 7.66719 3.36023 7.80219 3.19523 7.80219ZM10.5452 4.75719C10.4702 4.75719 10.3952 4.72719 10.3352 4.66719C10.2152 4.54719 10.2152 4.36719 10.3352 4.24719L10.9652 3.61719C11.0852 3.49719 11.2652 3.49719 11.3852 3.61719C11.5052 3.73719 11.5052 3.91719 11.3852 4.03719L10.7552 4.66719C10.7102 4.72719 10.6202 4.75719 10.5452 4.75719ZM4.45523 4.75719C4.38023 4.75719 4.30523 4.72719 4.24523 4.66719L3.61523 4.03719C3.49523 3.91719 3.49523 3.73719 3.61523 3.61719C3.73523 3.49719 3.91523 3.49719 4.03523 3.61719L4.66523 4.24719C4.78523 4.36719 4.78523 4.54719 4.66523 4.66719C4.60523 4.72719 4.53023 4.75719 4.45523 4.75719ZM7.50024 3.49719C7.33523 3.49719 7.20023 3.36219 7.20023 3.19719V2.31219C7.20023 2.14719 7.33523 2.01219 7.50024 2.01219C7.66524 2.01219 7.80023 2.14719 7.80023 2.31219V3.19719C7.80023 3.36219 7.66524 3.49719 7.50024 3.49719Z" fill="#C4C4C4"/>
</g>
<defs>
<clipPath id="clip0_3665_6575">
<rect width="15" height="15" fill="white"/>
</clipPath>
</defs>
</svg>
