<svg width="17" height="19" viewBox="0 0 17 19" fill="none" xmlns="http://www.w3.org/2000/svg">
<path d="M1.27344 2.82031L6.85938 9.5L1.27344 16.2188C1.0651 16.4792 0.973958 16.7786 1 17.1172C1.02604 17.4557 1.16927 17.7422 1.42969 17.9766C1.71615 18.1849 2.02865 18.276 2.36719 18.25C2.70573 18.224 2.99219 18.0807 3.22656 17.8203L8.5 11.4531L13.7734 17.8203C14.0078 18.0807 14.2943 18.224 14.6328 18.25C14.9714 18.276 15.2708 18.1849 15.5312 17.9766C15.8177 17.7422 15.974 17.4557 16 17.1172C16.026 16.7786 15.9349 16.4792 15.7266 16.2188L10.1406 9.5L15.7266 2.82031C15.9349 2.53385 16.026 2.22135 16 1.88281C15.974 1.54427 15.8177 1.25781 15.5312 1.02344C15.2708 0.815104 14.9714 0.723958 14.6328 0.75C14.2943 0.776042 14.0078 0.932292 13.7734 1.21875L8.5 7.54688L3.22656 1.21875C2.99219 0.932292 2.70573 0.776042 2.36719 0.75C2.02865 0.723958 1.71615 0.815104 1.42969 1.02344C1.16927 1.25781 1.02604 1.54427 1 1.88281C0.973958 2.22135 1.0651 2.53385 1.27344 2.82031Z" fill="white"/>
</svg>
