<svg width="24" height="24" viewBox="0 0 24 24" fill="none" xmlns="http://www.w3.org/2000/svg">
<path d="M19.7344 5.75C20.1152 5.75 20.4375 6.07227 20.4375 6.45312V16.2969C20.4375 16.707 20.1152 17 19.7344 17H5.20312C4.29492 17 3.5625 16.2676 3.5625 15.3594V7.39062C3.5625 7.00977 3.85547 6.6875 4.26562 6.6875H5.49609C5.70117 6.16016 6.22852 5.75 6.84375 5.75H19.7344ZM4.96875 15.3594C4.96875 15.5059 5.05664 15.5938 5.20312 15.5938C5.32031 15.5938 5.4375 15.5059 5.4375 15.3594V8.09375H4.96875V15.3594ZM19.0312 15.5938V7.15625H6.84375V15.3594C6.84375 15.4473 6.81445 15.5352 6.81445 15.5938H19.0312ZM8.60156 12.0781C8.39648 12.0781 8.25 11.9316 8.25 11.7266V8.91406C8.25 8.73828 8.39648 8.5625 8.60156 8.5625H12.5859C12.7617 8.5625 12.9375 8.73828 12.9375 8.91406V11.7266C12.9375 11.9316 12.7617 12.0781 12.5859 12.0781H8.60156ZM9.42188 9.73438V10.9062H11.7656V9.73438H9.42188ZM8.25 13.8359V13.1328C8.25 12.957 8.39648 12.7812 8.60156 12.7812H12.5859C12.7617 12.7812 12.9375 12.957 12.9375 13.1328V13.8359C12.9375 14.041 12.7617 14.1875 12.5859 14.1875H8.60156C8.39648 14.1875 8.25 14.041 8.25 13.8359ZM13.875 13.8359V13.1328C13.875 12.957 14.0215 12.7812 14.2266 12.7812H17.2734C17.4492 12.7812 17.625 12.957 17.625 13.1328V13.8359C17.625 14.041 17.4492 14.1875 17.2734 14.1875H14.2266C14.0215 14.1875 13.875 14.041 13.875 13.8359ZM13.875 9.61719V8.91406C13.875 8.73828 14.0215 8.5625 14.2266 8.5625H17.2734C17.4492 8.5625 17.625 8.73828 17.625 8.91406V9.61719C17.625 9.82227 17.4492 9.96875 17.2734 9.96875H14.2266C14.0215 9.96875 13.875 9.82227 13.875 9.61719ZM13.875 11.7266V11.0234C13.875 10.8477 14.0215 10.6719 14.2266 10.6719H17.2734C17.4492 10.6719 17.625 10.8477 17.625 11.0234V11.7266C17.625 11.9316 17.4492 12.0781 17.2734 12.0781H14.2266C14.0215 12.0781 13.875 11.9316 13.875 11.7266Z" fill="#004053"/>
</svg>
