<svg xmlns="http://www.w3.org/2000/svg" width="22.737" height="24" viewBox="0 0 22.737 24">
  <path id="Icon_material-location-city" data-name="Icon material-location-city" d="M19.658,14.368V6.789L15.868,3,12.079,6.789V9.316H4.5V27H27.237V14.368ZM9.553,24.474H7.026V21.947H9.553Zm0-5.053H7.026V16.895H9.553Zm0-5.053H7.026V11.842H9.553Zm7.579,10.105H14.605V21.947h2.526Zm0-5.053H14.605V16.895h2.526Zm0-5.053H14.605V11.842h2.526Zm0-5.053H14.605V6.789h2.526Zm7.579,15.158H22.184V21.947h2.526Zm0-5.053H22.184V16.895h2.526Z" transform="translate(-4.5 -3)" opacity="0.29"/>
</svg>
