<svg xmlns="http://www.w3.org/2000/svg" width="13.818" height="21.156" viewBox="0 0 13.818 21.156">
  <g id="cup-straw" transform="translate(-42 -0.24)" opacity="0.45">
    <g id="Group_738" data-name="Group 738" transform="translate(42 0.24)">
      <path id="Path_362" data-name="Path 362" d="M55.771.656a.662.662,0,0,1-.371.861L52.416,2.71l-.53,2.551a5,5,0,0,1,1.287.486,1.318,1.318,0,0,1,.741,1.086,1.061,1.061,0,0,1-.015.175L52.627,19.013a1.7,1.7,0,0,1-.694,1.231,7.469,7.469,0,0,1-7.97,0,1.7,1.7,0,0,1-.694-1.231L42.013,7.008A1.033,1.033,0,0,1,42,6.833a1.318,1.318,0,0,1,.741-1.086,5.1,5.1,0,0,1,1.311-.492,16.8,16.8,0,0,1,3.905-.408,19.553,19.553,0,0,1,2.628.168L51.2,2.083a.662.662,0,0,1,.4-.471L54.91.288a.662.662,0,0,1,.861.368ZM50.3,6.313a18.523,18.523,0,0,0-2.341-.142,15.575,15.575,0,0,0-3.584.368,4.348,4.348,0,0,0-.858.294,4.389,4.389,0,0,0,.858.294,15.575,15.575,0,0,0,3.584.368,18.633,18.633,0,0,0,2.1-.113Zm.387,2.325a19.737,19.737,0,0,1-2.727.181,16.8,16.8,0,0,1-3.905-.408q-.291-.072-.576-.168l1.109,10.631a.38.38,0,0,0,.135.285,6.159,6.159,0,0,0,6.455,0,.375.375,0,0,0,.135-.285L52.439,8.243q-.284.1-.576.168a11.756,11.756,0,0,1-1.178.225Zm-7.4-1.958a.022.022,0,0,1,.007.008Zm9.355,0-.007.008A.022.022,0,0,1,52.634,6.679Zm-.237.154a4.2,4.2,0,0,0-.8-.278l-.131.589.073-.017A4.389,4.389,0,0,0,52.4,6.833Z" transform="translate(-42 -0.24)"/>
    </g>
  </g>
</svg>
