<svg width="24" height="24" viewBox="0 0 24 24" fill="none" xmlns="http://www.w3.org/2000/svg">
<path d="M6.84375 7.62109C6.86328 8.5 7.25391 9.17383 8.01562 9.64258C8.79688 10.0723 9.57812 10.0723 10.3594 9.64258C11.1211 9.17383 11.5117 8.5 11.5312 7.62109C11.5117 6.74219 11.1211 6.06836 10.3594 5.59961C9.57812 5.16992 8.79688 5.16992 8.01562 5.59961C7.25391 6.06836 6.86328 6.74219 6.84375 7.62109ZM12.9375 7.62109C12.9375 8.30469 12.7715 8.92969 12.4395 9.49609C12.1074 10.0625 11.6484 10.5215 11.0625 10.873C10.4766 11.2051 9.85156 11.3711 9.1875 11.3711C8.52344 11.3711 7.89844 11.2051 7.3125 10.873C6.72656 10.5215 6.26758 10.0625 5.93555 9.49609C5.60352 8.92969 5.4375 8.30469 5.4375 7.62109C5.4375 6.9375 5.60352 6.3125 5.93555 5.74609C6.26758 5.17969 6.72656 4.7207 7.3125 4.36914C7.89844 4.03711 8.52344 3.87109 9.1875 3.87109C9.85156 3.87109 10.4766 4.03711 11.0625 4.36914C11.6484 4.7207 12.1074 5.17969 12.4395 5.74609C12.7715 6.3125 12.9375 6.9375 12.9375 7.62109ZM10.5352 14.1836H7.83984C6.86328 14.2031 6.02344 14.5156 5.32031 15.1211C4.63672 15.7266 4.2168 16.5078 4.06055 17.4648H14.3145C14.1582 16.5078 13.7383 15.7266 13.0547 15.1211C12.3516 14.5156 11.5117 14.2031 10.5352 14.1836ZM7.83984 12.7773H9.1875H10.5352C12 12.8164 13.2305 13.3242 14.2266 14.3008C15.2031 15.2969 15.7109 16.5273 15.75 17.9922C15.75 18.2461 15.6621 18.4512 15.4863 18.6074C15.3301 18.7832 15.125 18.8711 14.8711 18.8711H3.50391C3.25 18.8711 3.04492 18.7832 2.88867 18.6074C2.71289 18.4512 2.625 18.2461 2.625 17.9922C2.66406 16.5273 3.17188 15.2969 4.14844 14.3008C5.14453 13.3242 6.375 12.8164 7.83984 12.7773ZM16.4531 9.73047H20.6719C21.1016 9.76953 21.3359 10.0039 21.375 10.4336C21.3359 10.8633 21.1016 11.0977 20.6719 11.1367H16.4531C16.0234 11.0977 15.7891 10.8633 15.75 10.4336C15.7891 10.0039 16.0234 9.76953 16.4531 9.73047Z" fill="#004053"/>
</svg>
