<svg xmlns="http://www.w3.org/2000/svg" width="22" height="21.941" viewBox="0 0 22 21.941">
  <g id="diploma_scroll" data-name="diploma scroll" transform="translate(0.07 0.07)" opacity="0.25">
    <path id="Path_380" data-name="Path 380" d="M17.222,11.473a7.579,7.579,0,0,1-1.989-.579c2.879-2.569,6.054-4.841,6.1-4.868l.137-.1.082-.151a3.964,3.964,0,0,0,.383-1.715A4.009,4.009,0,0,0,20.5.993,4,4,0,0,0,15.766.477L15.593.66A75.134,75.134,0,0,1,8.877,8.736a68.777,68.777,0,0,1-8.24,6.287L.1,15.36v.315A6.107,6.107,0,0,0-.07,17.108,6.224,6.224,0,0,0,1.057,20.68a3.893,3.893,0,0,0,2.8,1.191c.073,0,.146,0,.219-.009a1.329,1.329,0,0,0,.141,0,2.738,2.738,0,0,0,2.295-1.241c.333-.42,2.824-3.568,5.48-6.442a7.29,7.29,0,0,1,.812,2.153,7.7,7.7,0,0,1,.064,1.027,8.516,8.516,0,0,1-.611,3.189l2.309-2.8,1.82,1.369a16.6,16.6,0,0,0-.8-4.567A7.3,7.3,0,0,0,14.334,12.9a8.174,8.174,0,0,0,1.88,1.2,17.086,17.086,0,0,0,4.211.922l-1.3-1.734,2.737-2.368a12.291,12.291,0,0,1-3.8.589c-.3,0-.589-.009-.881-.027Zm-.616-9.9a2.589,2.589,0,0,1,1.154-.265,2.618,2.618,0,0,1,1.788.707,2.623,2.623,0,0,1,.99,2.058,2.685,2.685,0,0,1-.173.94A64.953,64.953,0,0,0,14.69,9.543a2.746,2.746,0,0,0-.912-1.775,2.178,2.178,0,0,0-1.423-.525,2.617,2.617,0,0,0-.274.014C14.224,4.835,16.154,2.207,16.606,1.577ZM3.658,16.127a.639.639,0,0,1,.36-.114c.018,0,.036,0,.055,0h.091a1.585,1.585,0,0,1,.63.356L3.6,17.359a1.773,1.773,0,0,1-.173-.771c0-.068,0-.141.009-.21A.471.471,0,0,1,3.658,16.127Zm1.779,3.682a1.364,1.364,0,0,1-1.191.693,1.285,1.285,0,0,1-.187-.009,1.69,1.69,0,0,1-.228.009,2.545,2.545,0,0,1-1.8-.748,4.719,4.719,0,0,1-.8-2.633,4.821,4.821,0,0,1,.1-1L2.3,15.5a1.874,1.874,0,0,0-.274.657c-.009.1-.014.21-.014.324a4.086,4.086,0,0,0,.748,2.359l.484.6,2.327-1.916a3.175,3.175,0,0,1,.141.958,3.238,3.238,0,0,1-.287,1.346Zm1.177-3.353a3.872,3.872,0,0,0-2.108-1.743,1.338,1.338,0,0,0-.26-.023A2.088,2.088,0,0,0,4,14.7a1.7,1.7,0,0,0-.228-.014,2.25,2.25,0,0,0-.251.014,60.349,60.349,0,0,0,5.457-4.179,3.252,3.252,0,0,1,1.551.73,2.4,2.4,0,0,1,.657,1.656c0,.046,0,.087,0,.128-1.56,1.679-3.08,3.472-4.106,4.8a3.735,3.735,0,0,0-.488-1.4Z" transform="translate(0)" fill="#444"/>
    <path id="Path_381" data-name="Path 381" d="M0,0H21.9V21.9H0Z" transform="translate(-0.038 -0.038)" fill="none"/>
  </g>
</svg>
