<svg xmlns="http://www.w3.org/2000/svg" width="16.433" height="16.433" viewBox="0 0 16.433 16.433">
  <g id="face-cool" transform="translate(0 0)" opacity="0.44">
    <path id="Path_426" data-name="Path 426" d="M58.92,117.53a4.7,4.7,0,0,0,4.02-2.283l-1-.587a3.521,3.521,0,0,1-6.033,0l-1,.587a4.7,4.7,0,0,0,4.02,2.283Z" transform="translate(-50.704 -104.618)"/>
    <path id="Path_427" data-name="Path 427" d="M20.216,12a8.216,8.216,0,1,0,8.216,8.216A8.216,8.216,0,0,0,20.216,12Zm0,1.174a7.043,7.043,0,0,1,6.391,4.108H25.5a.587.587,0,0,0-.587-.587h-9.39a.587.587,0,0,0-.587.587H13.825A7.043,7.043,0,0,1,20.216,13.174Zm0,14.085a7.043,7.043,0,0,1-7.043-7.043,6.96,6.96,0,0,1,.235-1.761h1.526v1.174A1.174,1.174,0,0,0,16.108,20.8h1.943a1.174,1.174,0,0,0,1.174-.98l.305-1.954H20.9l.323,1.954a1.174,1.174,0,0,0,1.174.98h1.925A1.174,1.174,0,0,0,25.5,19.629V18.456h1.526a6.96,6.96,0,0,1,.235,1.761,7.043,7.043,0,0,1-7.043,7.043Z" transform="translate(-12 -12)"/>
  </g>
</svg>
