<svg width="20" height="19" viewBox="0 0 20 19" fill="none" xmlns="http://www.w3.org/2000/svg">
<path d="M0 2.39062C0 1.92188 0.15625 1.53125 0.46875 1.21875C0.78125 0.90625 1.17188 0.75 1.64062 0.75H18.3594C18.8281 0.75 19.2188 0.90625 19.5312 1.21875C19.8438 1.53125 20 1.92188 20 2.39062C20 2.75521 19.8828 3.09375 19.6484 3.40625L13.125 11.4141V17C13.125 17.3385 13.0078 17.638 12.7734 17.8984C12.513 18.1328 12.2135 18.25 11.875 18.25C11.5625 18.25 11.3021 18.1589 11.0938 17.9766L7.46094 15.125C7.07031 14.7865 6.875 14.3698 6.875 13.875V11.4141L0.351562 3.40625C0.117188 3.11979 0 2.78125 0 2.39062ZM2.14844 2.625L8.55469 10.4766C8.6849 10.6328 8.75 10.8281 8.75 11.0625V13.7188L11.25 15.7109V11.0625C11.25 10.8542 11.3151 10.6589 11.4453 10.4766L17.8516 2.625H2.14844Z" fill="white"/>
</svg>
