<svg width="19" height="18" viewBox="0 0 19 18" fill="none" xmlns="http://www.w3.org/2000/svg">
<path d="M4.71868 9.00032C4.71868 8.1085 4.96439 7.27307 5.39126 6.55774V3.52344H2.35696C1.15267 5.08749 0.499878 6.99365 0.499878 9.00032C0.499878 11.007 1.15267 12.9132 2.35696 14.4772H5.39126V11.4429C4.96439 10.7276 4.71868 9.89214 4.71868 9.00032Z" fill="#FBBD00"/>
<path d="M9.50003 13.7787L7.39062 15.8881L9.50003 17.9975C11.5067 17.9975 13.4129 17.3447 14.9769 16.1404V13.1094H11.9458C11.2243 13.5378 10.3853 13.7787 9.50003 13.7787Z" fill="#0F9D58"/>
<path d="M5.39124 11.4453L2.35693 14.4796C2.59537 14.7893 2.855 15.0858 3.13594 15.3668C4.83583 17.0667 7.09595 18.0028 9.49997 18.0028V13.784C7.75535 13.784 6.22628 12.8447 5.39124 11.4453Z" fill="#31AA52"/>
<path d="M18.5001 9.00035C18.5001 8.45279 18.4505 7.9042 18.3527 7.36989L18.2736 6.9375H9.5V11.1563H13.7699C13.3552 11.9811 12.7177 12.654 11.9458 13.1124L14.9769 16.1434C15.2865 15.905 15.5831 15.6454 15.864 15.3644C17.5639 13.6645 18.5001 11.4044 18.5001 9.00035Z" fill="#3C79E6"/>
<path d="M12.8809 5.6192L13.2538 5.99207L16.237 3.00896L15.8641 2.63608C14.1642 0.936188 11.9041 0 9.50003 0L7.39062 2.1094L9.50003 4.2188C10.7771 4.2188 11.9778 4.71613 12.8809 5.6192Z" fill="#CF2D48"/>
<path d="M9.5 4.2188V0C7.09599 0 4.83587 0.936188 3.13594 2.63605C2.855 2.91699 2.59537 3.21353 2.35693 3.52323L5.39124 6.55753C6.22632 5.15819 7.75539 4.2188 9.5 4.2188Z" fill="#EB4132"/>
</svg>
