<svg xmlns="http://www.w3.org/2000/svg" width="19" height="14.964" viewBox="0 0 19 14.964">
  <g id="gym" transform="translate(-12.776 -30.456)" opacity="0.55">
    <g id="Group_739" data-name="Group 739" transform="translate(12.776 30.456)">
      <path id="Path_368" data-name="Path 368" d="M137.8,35.992,134.656,31.5l1.5-1.047,3.142,4.488Z" transform="translate(-120.744 -30.456)"/>
      <path id="Path_369" data-name="Path 369" d="M44.942,44.689l-1.571-2.246-7.481,5.238,1.571,2.244-1.5,1.048-4.19-5.985,1.5-1.047,1.571,2.245,7.481-5.238L40.753,38.7l1.5-1.047,4.19,5.984-1.5,1.048Z" transform="translate(-29.607 -36.834)"/>
      <path id="Path_370" data-name="Path 370" d="M157.991,36.927l1.5-1.047-1.047-1.5-1.5,1.047Z" transform="translate(-140.487 -33.936)"/>
      <path id="Path_371" data-name="Path 371" d="M21.343,117.536,18.2,113.048,16.7,114.1l3.142,4.488Z" transform="translate(-16.256 -103.62)"/>
      <path id="Path_372" data-name="Path 372" d="M15.319,136.832l-1.5,1.047-1.047-1.5,1.5-1.047Z" transform="translate(-12.776 -123.364)"/>
    </g>
  </g>
</svg>
