<svg xmlns="http://www.w3.org/2000/svg" width="25.066" height="23.5" viewBox="0 0 25.066 23.5">
  <g id="heart" transform="translate(-0.001 0.001)">
    <g id="Group_767" data-name="Group 767" transform="translate(0.001 -0.001)">
      <path id="Path_397" data-name="Path 397" d="M12.534,4.3,11.411,3.15C8.774.44,3.94,1.375,2.194,4.782c-.819,1.6-1,3.917.492,6.87,1.441,2.843,4.44,6.249,9.848,9.959,5.408-3.71,8.405-7.116,9.848-9.959,1.5-2.955,1.313-5.267.492-6.87-1.745-3.407-6.58-4.344-9.217-1.634Zm0,19.195C-11.487,7.626,5.138-4.763,12.259,1.79c.094.086.186.175.276.268q.133-.139.276-.266C19.929-4.766,36.556,7.624,12.534,23.5Z" transform="translate(-0.001 0.001)" fill="#fff"/>
    </g>
  </g>
</svg>
