<svg width="8" height="17" viewBox="0 0 8 17" fill="none" xmlns="http://www.w3.org/2000/svg">
<path d="M4.32227 1.02148L7.13477 3.83398C7.33008 4.04883 7.33008 4.26367 7.13477 4.47852C6.91992 4.67383 6.70508 4.67383 6.49023 4.47852L4.46875 2.48633V14.2637L6.49023 12.2715C6.70508 12.0762 6.91992 12.0762 7.13477 12.2715C7.33008 12.4863 7.33008 12.7012 7.13477 12.916L4.32227 15.7285C4.10742 15.9238 3.89258 15.9238 3.67773 15.7285L0.865234 12.916C0.669922 12.7012 0.669922 12.4863 0.865234 12.2715C1.08008 12.0762 1.29492 12.0762 1.50977 12.2715L3.53125 14.2637V2.42773L1.27539 4.50781C1.04102 4.68359 0.816406 4.67383 0.601562 4.47852C0.425781 4.24414 0.435547 4.01953 0.630859 3.80469L3.67773 0.992188C3.89258 0.816406 4.10742 0.826172 4.32227 1.02148Z" fill="#C4C4C4"/>
</svg>
