<svg xmlns="http://www.w3.org/2000/svg" width="29" height="29" viewBox="0 0 29 29">
  <g id="Layer_2" data-name="Layer 2" transform="translate(0.124 0.507)">
    <g id="invisible_box" data-name="invisible box" transform="translate(-0.124 -0.602)">
      <rect id="Rectangle_1689" data-name="Rectangle 1689" width="29" height="29" transform="translate(0 0.095)" fill="none"/>
    </g>
    <g id="icons_Q2" data-name="icons Q2" transform="translate(2.353 1.185)">
      <path id="Path_344" data-name="Path 344" d="M15.873,4.968l9.5,8.667V24.559H21.215V16.188A1.187,1.187,0,0,0,20.028,15H11.717a1.187,1.187,0,0,0-1.187,1.187v8.371H6.374V13.636l9.5-8.667m0-2.968a.653.653,0,0,0-.416.178L4.356,12.211A1.187,1.187,0,0,0,4,13.1V26.933h8.9V17.376h5.937v9.558h8.9V13.1a1.187,1.187,0,0,0-.356-.89L16.288,2.178A.653.653,0,0,0,15.873,2Z" transform="translate(-3.999 -2)" fill="#fff"/>
    </g>
  </g>
</svg>
