<svg width="24" height="24" viewBox="0 0 24 24" fill="none" xmlns="http://www.w3.org/2000/svg">
<path d="M12.4688 4.05078L20.2031 10.6133C20.4961 10.9062 20.5156 11.2383 20.2617 11.6094C19.9688 11.9023 19.6465 11.9219 19.2949 11.668L18.5625 11.082V16.5312C18.543 17.1953 18.3184 17.752 17.8887 18.2012C17.4395 18.6309 16.8828 18.8555 16.2188 18.875H7.78125C7.11719 18.8555 6.56055 18.6309 6.11133 18.2012C5.68164 17.752 5.45703 17.1953 5.4375 16.5312V11.082L4.70508 11.668C4.35352 11.9219 4.03125 11.9023 3.73828 11.6094C3.48438 11.2383 3.50391 10.9062 3.79688 10.6133L11.5312 4.05078C11.8438 3.81641 12.1562 3.81641 12.4688 4.05078ZM6.84375 16.5312C6.84375 16.8047 6.93164 17.0293 7.10742 17.2051C7.2832 17.3809 7.50781 17.4688 7.78125 17.4688H9.1875V13.0156C9.1875 12.6836 9.30469 12.4102 9.53906 12.1953C9.75391 11.9609 10.0273 11.8438 10.3594 11.8438H13.6406C13.9727 11.8438 14.2461 11.9609 14.4609 12.1953C14.6953 12.4102 14.8125 12.6836 14.8125 13.0156V17.4688H16.2188C16.4922 17.4688 16.7168 17.3809 16.8926 17.2051C17.0684 17.0293 17.1562 16.8047 17.1562 16.5312V9.88086L12 5.51562L6.84375 9.88086V16.5312ZM10.5938 17.4688H13.4062V13.25H10.5938V17.4688Z" fill="#CECECE"/>
</svg>
