<svg width="24" height="24" viewBox="0 0 24 24" fill="none" xmlns="http://www.w3.org/2000/svg">
<path d="M12 17.4609C12.1172 17.4805 12.3027 17.3926 12.5566 17.1973C12.8105 17.0215 13.0938 16.6406 13.4062 16.0547C13.6602 15.5273 13.875 14.9023 14.0508 14.1797H9.94922C10.125 14.9023 10.3398 15.5273 10.5938 16.0547C10.9062 16.6406 11.1895 17.0215 11.4434 17.1973C11.6973 17.3926 11.8828 17.4805 12 17.4609ZM9.74414 12.7734H14.2852C14.3242 12.3242 14.3438 11.8555 14.3438 11.3672C14.3438 10.8789 14.3242 10.4102 14.2852 9.96094H9.74414C9.68555 10.4102 9.65625 10.8789 9.65625 11.3672C9.65625 11.8555 9.68555 12.3242 9.74414 12.7734ZM9.94922 8.55469H14.0508C13.875 7.83203 13.6602 7.20703 13.4062 6.67969C13.0938 6.09375 12.8105 5.71289 12.5566 5.53711C12.3027 5.3418 12.1172 5.25391 12 5.27344C11.8828 5.25391 11.6973 5.3418 11.4434 5.53711C11.1895 5.71289 10.9062 6.09375 10.5938 6.67969C10.3398 7.20703 10.125 7.83203 9.94922 8.55469ZM15.6914 9.96094C15.7305 10.4102 15.75 10.8789 15.75 11.3672C15.75 11.8555 15.7305 12.3242 15.6914 12.7734H17.918C18.0352 12.3242 18.0938 11.8555 18.0938 11.3672C18.0938 10.8789 18.0352 10.4102 17.918 9.96094H15.6914ZM17.4199 8.55469C16.7559 7.32422 15.7891 6.41602 14.5195 5.83008C14.9297 6.5918 15.252 7.5 15.4863 8.55469H17.4199ZM8.51367 8.55469C8.72852 7.5 9.05078 6.5918 9.48047 5.83008C8.21094 6.41602 7.24414 7.32422 6.58008 8.55469H8.51367ZM6.08203 9.96094C5.96484 10.4102 5.90625 10.8789 5.90625 11.3672C5.90625 11.8555 5.96484 12.3242 6.08203 12.7734H8.30859C8.26953 12.3242 8.25 11.8555 8.25 11.3672C8.25 10.8789 8.26953 10.4102 8.30859 9.96094H6.08203ZM14.5195 16.9043C15.7891 16.3184 16.7559 15.4102 17.4199 14.1797H15.4863C15.2715 15.2344 14.9492 16.1426 14.5195 16.9043ZM9.48047 16.9043C9.07031 16.1426 8.74805 15.2344 8.51367 14.1797H6.58008C7.24414 15.4102 8.21094 16.3184 9.48047 16.9043ZM12 18.8672C10.6328 18.8477 9.38281 18.5156 8.25 17.8711C7.11719 17.207 6.19922 16.2891 5.49609 15.1172C4.83203 13.9258 4.5 12.6758 4.5 11.3672C4.5 10.0586 4.83203 8.80859 5.49609 7.61719C6.19922 6.44531 7.11719 5.52734 8.25 4.86328C9.38281 4.21875 10.6328 3.88672 12 3.86719C13.3672 3.88672 14.6172 4.21875 15.75 4.86328C16.8828 5.52734 17.8008 6.44531 18.5039 7.61719C19.168 8.80859 19.5 10.0586 19.5 11.3672C19.5 12.6758 19.168 13.9258 18.5039 15.1172C17.8008 16.2891 16.8828 17.207 15.75 17.8711C14.6172 18.5156 13.3672 18.8477 12 18.8672Z" fill="#004053"/>
</svg>
