<svg width="11" height="11" viewBox="0 0 11 11" fill="none" xmlns="http://www.w3.org/2000/svg">
<path d="M2.34375 11H0.164062V3.99219H2.34375V11ZM1.24219 3.05469C0.5625 3.05469 0 2.46875 0 1.76562C0 1.08594 0.5625 0.523438 1.24219 0.523438C1.94531 0.523438 2.50781 1.08594 2.50781 1.76562C2.50781 2.46875 1.94531 3.05469 1.24219 3.05469ZM10.4766 11H8.32031V7.60156C8.32031 6.78125 8.29688 5.75 7.17188 5.75C6.04688 5.75 5.88281 6.61719 5.88281 7.53125V11H3.70312V3.99219H5.78906V4.95312H5.8125C6.11719 4.41406 6.82031 3.82812 7.875 3.82812C10.0781 3.82812 10.5 5.28125 10.5 7.15625V11H10.4766Z" fill="#004053"/>
</svg>
