<svg width="24" height="24" viewBox="0 0 24 24" fill="none" xmlns="http://www.w3.org/2000/svg">
<path d="M9.65625 7.62109V9.49609H14.3438V7.62109C14.3242 6.95703 14.0996 6.40039 13.6699 5.95117C13.2207 5.52148 12.6641 5.29688 12 5.27734C11.3359 5.29688 10.7793 5.52148 10.3301 5.95117C9.90039 6.40039 9.67578 6.95703 9.65625 7.62109ZM8.25 9.49609V7.62109C8.26953 6.56641 8.63086 5.67773 9.33398 4.95508C10.0566 4.25195 10.9453 3.89063 12 3.87109C13.0547 3.89063 13.9434 4.25195 14.666 4.95508C15.3691 5.67773 15.7305 6.56641 15.75 7.62109V9.49609H16.6875C17.2148 9.51562 17.6543 9.70117 18.0059 10.0527C18.3574 10.4043 18.543 10.8438 18.5625 11.3711V16.9961C18.543 17.5234 18.3574 17.9629 18.0059 18.3145C17.6543 18.666 17.2148 18.8516 16.6875 18.8711H7.3125C6.78516 18.8516 6.3457 18.666 5.99414 18.3145C5.64258 17.9629 5.45703 17.5234 5.4375 16.9961V11.3711C5.45703 10.8438 5.64258 10.4043 5.99414 10.0527C6.3457 9.70117 6.78516 9.51562 7.3125 9.49609H8.25ZM6.84375 11.3711V16.9961C6.86328 17.2891 7.01953 17.4453 7.3125 17.4648H16.6875C16.9805 17.4453 17.1367 17.2891 17.1562 16.9961V11.3711C17.1367 11.0781 16.9805 10.9219 16.6875 10.9023H7.3125C7.01953 10.9219 6.86328 11.0781 6.84375 11.3711Z" fill="#004053"/>
</svg>
