<svg width="19" height="19" viewBox="0 0 19 19" fill="none" xmlns="http://www.w3.org/2000/svg">
<path d="M3.4834 3.23438H11.0996C11.3155 3.23438 11.4903 3.05947 11.4903 2.84375C11.4903 2.62803 11.3155 2.45312 11.0996 2.45312H3.4834C3.26768 2.45312 3.09277 2.62803 3.09277 2.84375C3.09277 3.05947 3.26768 3.23438 3.4834 3.23438Z" fill="#004053"/>
<path d="M3.4834 5.1875H11.0996C11.3155 5.1875 11.4903 5.0126 11.4903 4.79688C11.4903 4.58115 11.3155 4.40625 11.0996 4.40625H3.4834C3.26768 4.40625 3.09277 4.58115 3.09277 4.79688C3.09277 5.0126 3.26768 5.1875 3.4834 5.1875Z" fill="#004053"/>
<path d="M3.4834 7.14062H11.0996C11.3155 7.14062 11.4903 6.96572 11.4903 6.75C11.4903 6.53428 11.3155 6.35938 11.0996 6.35938H3.4834C3.26768 6.35938 3.09277 6.53428 3.09277 6.75C3.09277 6.96572 3.26768 7.14062 3.4834 7.14062Z" fill="#004053"/>
<path d="M11.0996 8.3125H5.52637C5.31065 8.3125 5.13574 8.4874 5.13574 8.70312C5.13574 8.91885 5.31065 9.09375 5.52637 9.09375H11.0996C11.3156 9.09375 11.4903 8.91885 11.4903 8.70312C11.4903 8.4874 11.3156 8.3125 11.0996 8.3125Z" fill="#004053"/>
<path d="M17.318 4.42413V2.26735C17.318 2.05163 17.1432 1.87672 16.9273 1.87672H13.1508V0.890625C13.1508 0.674904 12.9761 0.5 12.7602 0.5H1.82285C1.60713 0.5 1.43223 0.674904 1.43223 0.890625V4.42413C0.62902 4.51359 0 5.1886 0 6.01529V7.74411V18.5153C0 18.731 0.174904 18.9059 0.390625 18.9059H18.3594C18.5753 18.9059 18.75 18.731 18.75 18.5153V7.74411V6.01529C18.75 5.1886 18.1212 4.51359 17.318 4.42413ZM17.9688 8.42818V16.4141L11.8765 12.0238L17.9688 8.42818ZM17.9688 6.01529V7.52114L17.318 7.90523V5.20757C17.6896 5.28897 17.9688 5.61971 17.9688 6.01529ZM16.5367 2.65797V8.36631L13.1508 10.3647V6.95485H15.2668C15.4827 6.95485 15.6574 6.77995 15.6574 6.56422C15.6574 6.3485 15.4827 6.1736 15.2668 6.1736H13.1508V5.00172H15.2668C15.4827 5.00172 15.6574 4.82682 15.6574 4.6111C15.6574 4.39538 15.4827 4.22047 15.2668 4.22047H13.1508V2.65797H16.5367ZM12.3695 1.28125V10.8257L11.1845 11.5251L10.5171 11.0442C9.83353 10.5521 8.91609 10.5521 8.23326 11.0442L7.56581 11.5252L2.21348 8.36641V1.28125H12.3695ZM0.78125 8.4283L6.87366 12.024L0.78125 16.4143V8.4283ZM1.43223 5.20757V7.90533L0.78125 7.52114V6.01529C0.78125 5.61971 1.06061 5.28897 1.43223 5.20757ZM0.78125 18.1247V17.3773L8.68988 11.6782C9.09958 11.3829 9.65042 11.3829 10.0601 11.6782L17.9688 17.3775V18.1247H0.78125Z" fill="#004053"/>
</svg>
