<svg width="12" height="11" viewBox="0 0 12 11" fill="none" xmlns="http://www.w3.org/2000/svg">
    <path
        d="M11.8093 2.41254C11.7788 2.38614 11.7431 2.36659 11.7044 2.35521C11.6658 2.34383 11.6251 2.34089 11.5852 2.34659L10.0305 2.56875C10.016 1.91593 9.74971 1.29399 9.28736 0.832898C8.825 0.371802 8.20233 0.10723 7.54948 0.0944704C6.89662 0.0817104 6.2641 0.32175 5.78408 0.764427C5.30406 1.2071 5.01369 1.81817 4.97365 2.46992L3.00255 2.71631L0.414844 2.34659C0.374949 2.34088 0.334293 2.34381 0.29563 2.35518C0.256967 2.36656 0.2212 2.38611 0.190751 2.41251C0.160302 2.43891 0.135882 2.47155 0.119147 2.50821C0.102411 2.54487 0.0937499 2.5847 0.09375 2.625V10.125C0.0937498 10.1927 0.118162 10.2581 0.162506 10.3093C0.206849 10.3604 0.26815 10.3938 0.335156 10.4034L2.96016 10.7784C2.96147 10.7786 2.96283 10.7786 2.96414 10.7787C2.9736 10.7799 2.98311 10.7806 2.99264 10.7809C2.99461 10.7809 2.9966 10.7812 2.99859 10.7812H2.99993C3.01083 10.7811 3.02173 10.7805 3.03255 10.7791C3.0333 10.7791 3.03405 10.7791 3.0349 10.779L6 10.4084L8.96513 10.7791C8.9659 10.7791 8.96669 10.7791 8.96747 10.7792C8.97827 10.7805 8.98913 10.7812 9 10.7813C9.00844 10.7813 9.01685 10.7807 9.02527 10.78C9.02787 10.7798 9.03047 10.7794 9.03307 10.7791C9.0353 10.7789 9.03755 10.7787 9.03977 10.7784L11.6648 10.4034C11.7318 10.3938 11.7931 10.3604 11.8375 10.3093C11.8818 10.2581 11.9062 10.1927 11.9062 10.125V2.625C11.9062 2.58471 11.8976 2.54488 11.8809 2.50823C11.8641 2.47157 11.8397 2.43894 11.8093 2.41254ZM7.5 0.656252C8.02195 0.656872 8.52235 0.864492 8.89143 1.23357C9.26051 1.60265 9.46813 2.10305 9.46875 2.625C9.46875 3.28967 9.15403 4.01789 8.76441 4.6647C8.76361 4.66592 8.76291 4.66723 8.76206 4.66847C8.32076 5.40017 7.78416 6.02726 7.49993 6.33956C7.21622 6.02785 6.68109 5.40242 6.24028 4.67248C6.23859 4.66971 6.23702 4.6669 6.23524 4.6642C5.84583 4.01754 5.53125 3.28953 5.53125 2.625C5.53187 2.10305 5.73949 1.60265 6.10857 1.23357C6.47765 0.864492 6.97805 0.656872 7.5 0.656252ZM8.71875 10.1814L6.28125 9.87673V5.74371C6.59317 6.16835 6.93393 6.57102 7.30113 6.94887C7.35388 7.00161 7.42541 7.03124 7.5 7.03124C7.57459 7.03124 7.64612 7.00161 7.69887 6.94887C8.06607 6.57102 8.40683 6.16835 8.71875 5.74371V10.1814ZM3.28125 3.24828L4.99922 3.03354C5.09025 3.66856 5.37682 4.31585 5.71875 4.89682V9.87682L3.28125 10.1815V3.24828ZM0.65625 2.94928L2.71875 3.24394V10.1757L0.65625 9.88106V2.94928ZM11.3438 9.88106L9.28125 10.1757V4.89673C9.60338 4.34942 9.87638 3.74313 9.98304 3.1436L11.3438 2.94907V9.88106Z"
        fill="#F47B3D" />
    <path
        d="M7.5 7.47724L7.32387 7.30113C7.27098 7.2491 7.19967 7.22007 7.12548 7.22037C7.05128 7.22068 6.98021 7.25028 6.92775 7.30275C6.87528 7.35521 6.84568 7.42628 6.84537 7.50048C6.84507 7.57467 6.8741 7.64598 6.92614 7.69887L7.10224 7.875L6.92614 8.05113C6.89967 8.07717 6.87862 8.10819 6.8642 8.14241C6.84979 8.17662 6.84229 8.21335 6.84213 8.25048C6.84198 8.2876 6.84918 8.32439 6.86332 8.35872C6.87746 8.39305 6.89826 8.42424 6.92451 8.45049C6.95076 8.47675 6.98195 8.49754 7.01628 8.51168C7.05061 8.52582 7.0874 8.53302 7.12453 8.53287C7.16165 8.53272 7.19838 8.52522 7.2326 8.5108C7.26681 8.49638 7.29783 8.47533 7.32387 8.44887L7.5 8.27276L7.67614 8.44887C7.72902 8.5009 7.80033 8.52993 7.87453 8.52963C7.94872 8.52933 8.01979 8.49972 8.07226 8.44726C8.12472 8.39479 8.15433 8.32372 8.15463 8.24953C8.15493 8.17533 8.1259 8.10402 8.07387 8.05113L7.89776 7.875L8.07387 7.69887C8.1259 7.64598 8.15493 7.57467 8.15463 7.50048C8.15433 7.42628 8.12472 7.35521 8.07226 7.30275C8.01979 7.25028 7.94872 7.22068 7.87453 7.22037C7.80033 7.22007 7.72902 7.2491 7.67614 7.30113L7.5 7.47724Z"
        fill="#F47B3D" />
    <path
        d="M7.5 4.03125C7.77813 4.03125 8.05001 3.94878 8.28127 3.79426C8.51253 3.63973 8.69277 3.42011 8.79921 3.16315C8.90564 2.90619 8.93349 2.62344 8.87923 2.35065C8.82497 2.07787 8.69104 1.8273 8.49437 1.63063C8.2977 1.43396 8.04713 1.30003 7.77435 1.24577C7.50156 1.19151 7.21881 1.21936 6.96185 1.3258C6.70489 1.43223 6.48527 1.61247 6.33075 1.84373C6.17622 2.07499 6.09375 2.34687 6.09375 2.625C6.09417 2.99783 6.24247 3.35527 6.5061 3.6189C6.76973 3.88254 7.12717 4.03083 7.5 4.03125ZM7.5 1.78125C7.66688 1.78125 7.83001 1.83074 7.96876 1.92345C8.10752 2.01616 8.21566 2.14794 8.27952 2.30211C8.34338 2.45629 8.36009 2.62594 8.32754 2.78961C8.29498 2.95328 8.21462 3.10362 8.09662 3.22162C7.97862 3.33962 7.82828 3.41998 7.66461 3.45254C7.50094 3.48509 7.33129 3.46839 7.17711 3.40452C7.02294 3.34066 6.89116 3.23252 6.79845 3.09376C6.70574 2.95501 6.65625 2.79188 6.65625 2.625C6.6565 2.4013 6.74547 2.18683 6.90365 2.02865C7.06183 1.87047 7.2763 1.7815 7.5 1.78125Z"
        fill="#F47B3D" />
</svg>
    