<svg xmlns="http://www.w3.org/2000/svg" width="22" height="17.6" viewBox="0 0 22 17.6">
  <path id="Icon_fa-solid-mosque" data-name="Icon fa-solid-mosque" d="M13.75,0a.554.554,0,0,1,.44.22,16.841,16.841,0,0,0,4.589,3.833c.179.117.361.241.55.364A3.545,3.545,0,0,1,20.9,7.377,3.592,3.592,0,0,1,19.876,9.9H7.624A3.619,3.619,0,0,1,6.6,7.377a3.536,3.536,0,0,1,1.571-2.96c.186-.124.371-.244.55-.364A16.841,16.841,0,0,0,13.31.22.554.554,0,0,1,13.75,0ZM9.9,17.6V15.125a.825.825,0,0,0-1.65,0V17.6H6.6a1.1,1.1,0,0,1-1.1-1.1V12.1A1.1,1.1,0,0,1,6.6,11H20.9A1.1,1.1,0,0,1,22,12.1v4.4a1.1,1.1,0,0,1-1.1,1.1H19.25V15.125a.825.825,0,0,0-1.65,0V17.6H15.4V15.606a2.2,2.2,0,0,0-.791-1.691L13.75,13.2l-.859.715a2.2,2.2,0,0,0-.791,1.691V17.6ZM2.42.179a.547.547,0,0,1,.66,0l.55.413A4.681,4.681,0,0,1,5.5,4.331V4.4H0V4.331A4.681,4.681,0,0,1,1.87.591L2.42.179ZM0,5.5H5.5v4.7a2.2,2.2,0,0,0-1.1,1.9v4.4a2.227,2.227,0,0,0,.2.921,1.628,1.628,0,0,1-.749.179H1.65A1.65,1.65,0,0,1,0,15.95Z" opacity="0.25"/>
</svg>
