<svg width="24" height="24" viewBox="0 0 24 24" fill="none" xmlns="http://www.w3.org/2000/svg">
<path d="M6.84375 4.57812V5.39844L9.33398 4.7832C10.4863 4.50977 11.5996 4.62695 12.6738 5.13477C13.3574 5.48633 14.0703 5.66211 14.8125 5.66211C15.5547 5.66211 16.2773 5.48633 16.9805 5.13477L17.2441 4.98828C17.5762 4.85156 17.8691 4.87109 18.123 5.04688C18.3965 5.20312 18.543 5.45703 18.5625 5.80859V14.0117C18.543 14.4219 18.3379 14.7148 17.9473 14.8906L16.9512 15.2715C15.5254 15.7793 14.1387 15.7012 12.791 15.0371C11.6387 14.4902 10.4375 14.3633 9.1875 14.6562L6.84375 15.2422V18.1719C6.80469 18.6016 6.57031 18.8359 6.14062 18.875C5.71094 18.8359 5.47656 18.6016 5.4375 18.1719V15.5938V14.1582V5.75V4.57812C5.47656 4.14844 5.71094 3.91406 6.14062 3.875C6.57031 3.91406 6.80469 4.14844 6.84375 4.57812ZM6.84375 6.86328V13.8066L8.86523 13.2793C10.4277 12.9082 11.9414 13.0742 13.4062 13.7773C14.4023 14.2656 15.418 14.3242 16.4531 13.9531L17.1562 13.6895V6.59961C16.3164 6.93164 15.457 7.07812 14.5781 7.03906C13.6992 7.01953 12.8496 6.80469 12.0293 6.39453C11.2676 6.02344 10.4863 5.93555 9.68555 6.13086L6.84375 6.86328Z" fill="#004053"/>
</svg>
