<svg width="19" height="20" viewBox="0 0 19 20" fill="none" xmlns="http://www.w3.org/2000/svg">
<path d="M9.75 0C10.1146 0 10.4141 0.117188 10.6484 0.351562C10.8828 0.585938 11 0.885417 11 1.25V1.99219C12.4583 2.30469 13.6432 3.02083 14.5547 4.14062C15.4922 5.26042 15.974 6.58854 16 8.125V8.86719C16.026 10.7682 16.6641 12.4219 17.9141 13.8281L18.1875 14.1797C18.526 14.5703 18.5911 15.013 18.3828 15.5078C18.1484 15.9766 17.7708 16.224 17.25 16.25H2.25C1.72917 16.224 1.35156 15.9766 1.11719 15.5078C0.908854 15.013 0.973958 14.5703 1.3125 14.1797L1.625 13.8281C2.84896 12.3958 3.47396 10.7422 3.5 8.86719V8.125C3.52604 6.58854 4.00781 5.26042 4.94531 4.14062C5.85677 3.02083 7.04167 2.30469 8.5 1.99219V1.25C8.5 0.885417 8.61719 0.585938 8.85156 0.351562C9.08594 0.117188 9.38542 0 9.75 0ZM11.5078 19.2578C11.013 19.7526 10.4271 20 9.75 20C9.07292 20 8.48698 19.7526 7.99219 19.2578C7.4974 18.763 7.25 18.1771 7.25 17.5H9.75H12.25C12.25 18.1771 12.0026 18.763 11.5078 19.2578Z" fill="white"/>
</svg>
