<svg width="24" height="24" viewBox="0 0 24 24" fill="none" xmlns="http://www.w3.org/2000/svg">
<path d="M18.5625 6.21875H5.4375C5.14453 6.23828 4.98828 6.39453 4.96875 6.6875V16.0625C4.98828 16.3555 5.14453 16.5117 5.4375 16.5312H18.5625C18.8555 16.5117 19.0117 16.3555 19.0312 16.0625V6.6875C19.0117 6.39453 18.8555 6.23828 18.5625 6.21875ZM5.4375 4.8125H18.5625C19.0898 4.83203 19.5293 5.01758 19.8809 5.36914C20.2324 5.7207 20.418 6.16016 20.4375 6.6875V16.0625C20.418 16.5898 20.2324 17.0293 19.8809 17.3809C19.5293 17.7324 19.0898 17.918 18.5625 17.9375H5.4375C4.91016 17.918 4.4707 17.7324 4.11914 17.3809C3.76758 17.0293 3.58203 16.5898 3.5625 16.0625V6.6875C3.58203 6.16016 3.76758 5.7207 4.11914 5.36914C4.4707 5.01758 4.91016 4.83203 5.4375 4.8125ZM9.65625 11.375C8.95312 11.3555 8.41602 11.043 8.04492 10.4375C7.69336 9.8125 7.69336 9.1875 8.04492 8.5625C8.41602 7.95703 8.95312 7.64453 9.65625 7.625C10.3594 7.64453 10.8965 7.95703 11.2676 8.5625C11.6191 9.1875 11.6191 9.8125 11.2676 10.4375C10.8965 11.043 10.3594 11.3555 9.65625 11.375ZM8.71875 12.3125H10.5938C11.2578 12.332 11.8145 12.5566 12.2637 12.9863C12.6934 13.4355 12.918 13.9922 12.9375 14.6562C12.918 14.9492 12.7617 15.1055 12.4688 15.125H6.84375C6.55078 15.1055 6.39453 14.9492 6.375 14.6562C6.39453 13.9922 6.61914 13.4355 7.04883 12.9863C7.49805 12.5566 8.05469 12.332 8.71875 12.3125ZM14.5781 8.09375H16.9219C17.3516 8.13281 17.5859 8.36719 17.625 8.79688C17.5859 9.22656 17.3516 9.46094 16.9219 9.5H14.5781C14.1484 9.46094 13.9141 9.22656 13.875 8.79688C13.9141 8.36719 14.1484 8.13281 14.5781 8.09375ZM14.5781 10.9062H16.9219C17.3516 10.9453 17.5859 11.1797 17.625 11.6094C17.5859 12.0391 17.3516 12.2734 16.9219 12.3125H14.5781C14.1484 12.2734 13.9141 12.0391 13.875 11.6094C13.9141 11.1797 14.1484 10.9453 14.5781 10.9062Z" fill="#004053"/>
</svg>
