<svg width="17" height="16" viewBox="0 0 17 16" fill="none" xmlns="http://www.w3.org/2000/svg">
<path d="M8.5 0.875C8.79297 0.894531 8.94922 1.05078 8.96875 1.34375V6.29492L10.5215 4.77148C10.7363 4.57617 10.9512 4.57617 11.166 4.77148C11.3613 4.98633 11.3613 5.20117 11.166 5.41602L8.82227 7.75977C8.60742 7.95508 8.39258 7.95508 8.17773 7.75977L5.83398 5.41602C5.63867 5.20117 5.63867 4.98633 5.83398 4.77148C6.04883 4.57617 6.26367 4.57617 6.47852 4.77148L8.03125 6.29492V1.34375C8.05078 1.05078 8.20703 0.894531 8.5 0.875ZM3.98828 14.3223C4.49609 14.6934 5.0625 14.8984 5.6875 14.9375C6.3125 14.8984 6.87891 14.6934 7.38672 14.3223C7.67969 14.127 7.93359 13.9121 8.14844 13.6777C8.38281 13.4824 8.61719 13.4824 8.85156 13.6777C9.06641 13.9121 9.32031 14.127 9.61328 14.3223C10.1211 14.6934 10.6875 14.8984 11.3125 14.9375C11.9375 14.8984 12.5039 14.6934 13.0117 14.3223C13.3047 14.127 13.5586 13.9121 13.7734 13.6777C14.0078 13.4824 14.2422 13.4824 14.4766 13.6777C14.6914 13.9121 14.9453 14.127 15.2383 14.3223C15.6094 14.5957 16.0391 14.791 16.5273 14.9082C16.7812 14.9668 16.918 15.1133 16.9375 15.3477C16.8984 15.6797 16.7227 15.8457 16.4102 15.8457C15.7266 15.6895 15.1602 15.4355 14.7109 15.084C14.4766 14.9277 14.2812 14.7812 14.125 14.6445C13.9688 14.7812 13.7734 14.9277 13.5391 15.084C13.2656 15.2793 12.9336 15.4551 12.543 15.6113C12.1719 15.7871 11.7617 15.875 11.3125 15.875C10.8633 15.875 10.4531 15.7871 10.082 15.6113C9.69141 15.4551 9.35938 15.2793 9.08594 15.084C8.85156 14.9277 8.65625 14.7812 8.5 14.6445C8.34375 14.7812 8.14844 14.9277 7.91406 15.084C7.64063 15.2793 7.30859 15.4551 6.91797 15.6113C6.54688 15.7871 6.13672 15.875 5.6875 15.875C5.23828 15.875 4.82812 15.7871 4.45703 15.6113C4.06641 15.4551 3.73438 15.2793 3.46094 15.084C3.22656 14.9277 3.03125 14.7812 2.875 14.6445C2.71875 14.7812 2.52344 14.9277 2.28906 15.084C1.83984 15.416 1.27344 15.6602 0.589844 15.8164C0.277344 15.8359 0.101562 15.6797 0.0625 15.3477C0.0820312 15.1133 0.21875 14.9668 0.472656 14.9082C0.960938 14.791 1.39062 14.5957 1.76172 14.3223C2.03516 14.127 2.28906 13.9121 2.52344 13.6777C2.75781 13.4824 2.99219 13.4824 3.22656 13.6777C3.44141 13.9121 3.69531 14.127 3.98828 14.3223ZM5.6875 11.1875C6.3125 11.1484 6.87891 10.9434 7.38672 10.5723C7.67969 10.377 7.93359 10.1621 8.14844 9.92773C8.38281 9.73242 8.61719 9.73242 8.85156 9.92773C9.06641 10.1621 9.32031 10.377 9.61328 10.5723C10.1211 10.9434 10.6875 11.1484 11.3125 11.1875C11.9375 11.1484 12.5039 10.9434 13.0117 10.5723C13.3047 10.377 13.5586 10.1621 13.7734 9.92773C14.0078 9.73242 14.2422 9.73242 14.4766 9.92773C14.6914 10.1621 14.9453 10.377 15.2383 10.5723C15.6094 10.8457 16.0391 11.041 16.5273 11.1582C16.7812 11.2168 16.918 11.3633 16.9375 11.5977C16.8984 11.9297 16.7227 12.0957 16.4102 12.0957C15.7266 11.9395 15.1602 11.6855 14.7109 11.334C14.4766 11.1777 14.2812 11.0312 14.125 10.8945C13.9688 11.0312 13.7734 11.1777 13.5391 11.334C13.2656 11.5293 12.9336 11.7051 12.543 11.8613C12.1719 12.0371 11.7617 12.125 11.3125 12.125C10.8633 12.125 10.4531 12.0371 10.082 11.8613C9.69141 11.7051 9.35938 11.5293 9.08594 11.334C8.85156 11.1777 8.65625 11.0312 8.5 10.8945C8.34375 11.0312 8.14844 11.1777 7.91406 11.334C7.64063 11.5293 7.30859 11.7051 6.91797 11.8613C6.54688 12.0371 6.13672 12.125 5.6875 12.125C5.23828 12.125 4.82812 12.0371 4.45703 11.8613C4.06641 11.7051 3.73438 11.5293 3.46094 11.334C3.22656 11.1777 3.03125 11.0312 2.875 10.8945C2.71875 11.0312 2.52344 11.1777 2.28906 11.334C1.83984 11.666 1.27344 11.9102 0.589844 12.0664C0.277344 12.0859 0.101562 11.9297 0.0625 11.5977C0.0820312 11.3633 0.21875 11.2168 0.472656 11.1582C0.960938 11.041 1.39062 10.8457 1.76172 10.5723C2.03516 10.377 2.28906 10.1621 2.52344 9.92773C2.75781 9.73242 2.99219 9.73242 3.22656 9.92773C3.44141 10.1621 3.69531 10.377 3.98828 10.5723C4.49609 10.9434 5.0625 11.1484 5.6875 11.1875Z" fill="#C4C4C4"/>
</svg>
