<svg width="24" height="24" viewBox="0 0 24 24" fill="none" xmlns="http://www.w3.org/2000/svg">
<path d="M5.4375 6.45312C5.47656 6.02344 5.71094 5.78906 6.14062 5.75H17.8594C18.2891 5.78906 18.5234 6.02344 18.5625 6.45312C18.5234 6.88281 18.2891 7.11719 17.8594 7.15625H6.14062C5.71094 7.11719 5.47656 6.88281 5.4375 6.45312ZM5.4375 11.1406C5.47656 10.7109 5.71094 10.4766 6.14062 10.4375H17.8594C18.2891 10.4766 18.5234 10.7109 18.5625 11.1406C18.5234 11.5703 18.2891 11.8047 17.8594 11.8438H6.14062C5.71094 11.8047 5.47656 11.5703 5.4375 11.1406ZM18.5625 15.8281C18.5234 16.2578 18.2891 16.4922 17.8594 16.5312H6.14062C5.71094 16.4922 5.47656 16.2578 5.4375 15.8281C5.47656 15.3984 5.71094 15.1641 6.14062 15.125H17.8594C18.2891 15.1641 18.5234 15.3984 18.5625 15.8281Z" fill="#CECECE"/>
</svg>
