<svg xmlns="http://www.w3.org/2000/svg" width="17.367" height="19.849" viewBox="0 0 17.367 19.849">
  <path id="Icon_fa-solid-passport" data-name="Icon fa-solid-passport" d="M0,2.481A2.483,2.483,0,0,1,2.481,0H14.886a2.483,2.483,0,0,1,2.481,2.481V17.367a2.483,2.483,0,0,1-2.481,2.481H2.481A2.483,2.483,0,0,1,0,17.367Zm7.094,8.327A3.729,3.729,0,0,1,5.013,8.063H6.528A8.477,8.477,0,0,0,7.094,10.808Zm1.6.357H8.672a4.054,4.054,0,0,1-.353-.64,7.151,7.151,0,0,1-.55-2.462H9.595a7.061,7.061,0,0,1-.55,2.462,4.054,4.054,0,0,1-.353.64Zm1.578-.357a8.713,8.713,0,0,0,.566-2.745h1.516a3.729,3.729,0,0,1-2.082,2.745Zm.566-3.985a8.477,8.477,0,0,0-.566-2.745,3.729,3.729,0,0,1,2.082,2.745H10.839Zm-2.167-3.1H8.7a4.054,4.054,0,0,1,.353.64A7.151,7.151,0,0,1,9.6,6.823H7.773a7.061,7.061,0,0,1,.55-2.462,4.054,4.054,0,0,1,.353-.64Zm-1.578.357a8.713,8.713,0,0,0-.566,2.745H5.013A3.729,3.729,0,0,1,7.094,4.078Zm6.552,3.365a4.962,4.962,0,1,0-4.962,4.962A4.962,4.962,0,0,0,13.646,7.443Zm-9.3,7.443a.62.62,0,0,0,0,1.241h8.684a.62.62,0,1,0,0-1.241Z" opacity="0.29"/>
</svg>
