<svg width="60" height="60" viewBox="0 0 60 60" fill="none" xmlns="http://www.w3.org/2000/svg">
<path d="M10.8889 32.9229C16.0381 34.6221 22.8368 35.5581 30.0322 35.5581C37.2354 35.5581 44.022 34.6338 49.1422 32.9555C54.5046 31.1976 57.4579 28.7622 57.4579 26.0978C57.4579 23.8373 55.3853 22.1603 53.6465 21.1512C51.4155 19.8566 48.2387 18.7605 44.4526 17.9769L43.9039 7.89151C43.873 7.32296 43.7172 6.76821 43.4475 6.26672C43.1779 5.76523 42.8011 5.32931 42.3438 4.98997C41.8866 4.65064 41.3602 4.41623 40.8021 4.3034C40.2441 4.19058 39.6679 4.20212 39.1148 4.33721L33.5953 5.68486C31.2326 6.25908 28.7668 6.25908 26.4042 5.68486L20.8854 4.33721C20.3322 4.20212 19.7561 4.19058 19.198 4.3034C18.6399 4.41623 18.1136 4.65064 17.6563 4.98997C17.1991 5.32931 16.8223 5.76523 16.5526 6.26672C16.283 6.76821 16.1272 7.32296 16.0963 7.89151L15.5509 17.9192C15.5179 17.927 15.4853 17.9345 15.452 17.9427C11.6885 18.7291 8.52221 19.8363 6.29424 21.1449C3.83986 22.5863 2.54248 24.2769 2.54248 26.0332C2.54225 28.7005 5.5065 31.1465 10.8889 32.9229ZM17.5004 7.96791C17.5201 7.60566 17.6194 7.25221 17.7912 6.93269C17.9631 6.61317 18.2032 6.33543 18.4945 6.11923C18.7858 5.90302 19.1212 5.75366 19.4768 5.68177C19.8324 5.60987 20.1994 5.61721 20.5519 5.70326L26.0714 7.05092C28.6531 7.67858 31.3476 7.67858 33.9293 7.05092L39.4488 5.70326C39.8012 5.61721 40.1683 5.60987 40.5239 5.68177C40.8795 5.75366 41.2149 5.90302 41.5062 6.11923C41.7975 6.33543 42.0376 6.61317 42.2094 6.93269C42.3812 7.25221 42.4805 7.60566 42.5003 7.96791L43.2929 22.5371L39.6953 23.6577C33.3933 25.717 26.5994 25.7162 20.2979 23.6555L16.7078 22.5371L17.5004 7.96791ZM15.4713 19.3762L15.2738 23.0074C15.2653 23.1637 15.3092 23.3183 15.3985 23.4468C15.4878 23.5754 15.6174 23.6704 15.7669 23.717L19.8706 24.9951C23.1331 26.0629 26.5439 26.6076 29.9767 26.6089C33.4214 26.6052 36.8442 26.0616 40.1206 24.9981L44.2339 23.717C44.3834 23.6704 44.513 23.5754 44.6023 23.4468C44.6916 23.3183 44.7354 23.1637 44.7269 23.0074L44.5313 19.4301C51.5486 20.9389 56.0509 23.5337 56.0509 26.0981C56.0509 28.0765 53.3728 30.089 48.7032 31.6196C43.7208 33.2528 37.0899 34.1522 30.0313 34.1522C22.9815 34.1522 16.3395 33.2415 11.3287 31.5879C6.63783 30.0398 3.94756 28.0154 3.94756 26.0332C3.9485 23.4834 8.46103 20.8823 15.4713 19.3762Z" fill="white"/>
<path d="M40.5311 55.7724C42.0481 55.774 43.541 55.3942 44.8729 54.6681C46.2047 53.9419 47.3327 52.8927 48.153 51.6167C48.9734 50.3408 49.4599 48.8791 49.5679 47.366C49.6758 45.8529 49.4016 44.3369 48.7706 42.9575C48.1396 41.578 47.172 40.3793 45.9567 39.4715C44.7414 38.5637 43.3174 37.9759 41.8156 37.7622C40.3138 37.5484 38.7824 37.7156 37.3621 38.2484C35.9418 38.7811 34.6782 39.6623 33.6874 40.811C32.341 39.8136 31.1864 39.3623 30.0077 39.3623C28.845 39.3623 27.7062 39.8011 26.3839 40.7694C24.8434 39.0117 22.6822 37.9188 20.3535 37.7199C18.0248 37.521 15.7095 38.2315 13.8933 39.7025C12.077 41.1734 10.9009 43.2905 10.6116 45.6097C10.3222 47.9289 10.9422 50.2701 12.3414 52.1422C13.7406 54.0143 15.8103 55.2718 18.1165 55.6511C20.4227 56.0305 22.7862 55.502 24.7113 54.1767C26.6364 52.8514 27.9735 50.8321 28.4422 48.5424C28.9109 46.2527 28.4749 43.8705 27.2254 41.8953C29.3054 40.3678 30.76 40.3825 32.8528 41.9412C31.9983 43.3109 31.526 44.8842 31.4849 46.498C31.4438 48.1118 31.8353 49.7071 32.6189 51.1185C33.4025 52.5298 34.5496 53.7057 35.9411 54.5241C37.3326 55.3425 38.9178 55.7735 40.5321 55.7724H40.5311ZM19.5747 54.3662C18.0629 54.3662 16.585 53.9179 15.3279 53.0779C14.0709 52.238 13.0911 51.0441 12.5126 49.6474C11.934 48.2506 11.7826 46.7136 12.0776 45.2308C12.3725 43.748 13.1006 42.386 14.1696 41.317C15.2387 40.2479 16.6007 39.5199 18.0835 39.225C19.5663 38.9301 21.1033 39.0814 22.5 39.66C23.8968 40.2386 25.0906 41.2184 25.9305 42.4754C26.7705 43.7325 27.2188 45.2104 27.2187 46.7223C27.2165 48.7489 26.4104 50.6919 24.9774 52.1249C23.5443 53.5579 21.6013 54.364 19.5747 54.3662ZM40.5311 39.0784C42.043 39.0783 43.5209 39.5266 44.7779 40.3665C46.035 41.2065 47.0148 42.4003 47.5934 43.7971C48.1719 45.1938 48.3233 46.7308 48.0284 48.2136C47.7335 49.6964 47.0055 51.0584 45.9364 52.1275C44.8674 53.1965 43.5054 53.9246 42.0226 54.2195C40.5398 54.5145 39.0028 54.3631 37.606 53.7845C36.2093 53.206 35.0154 52.2262 34.1755 50.9692C33.3355 49.7121 32.8872 48.2342 32.8872 46.7224C32.8894 44.6958 33.6955 42.7528 35.1285 41.3197C36.5615 39.8867 38.5045 39.0806 40.5311 39.0784Z" fill="white"/>
</svg>
