<svg id="Group_750" data-name="Group 750" xmlns="http://www.w3.org/2000/svg" width="21.054" height="27.936" viewBox="0 0 21.054 27.936">
  <g id="Group_1" data-name="Group 1" transform="translate(0 0)">
    <path id="Path_1" data-name="Path 1" d="M19.978,28.336a.848.848,0,0,0-.831.668,1.64,1.64,0,0,1-.327.714,1.237,1.237,0,0,1-1.054.386,1.258,1.258,0,0,1-1.054-.386A1.64,1.64,0,0,1,16.385,29a.848.848,0,0,0-.831-.668h0a.854.854,0,0,0-.831,1.041,2.925,2.925,0,0,0,3.044,2.429,2.919,2.919,0,0,0,3.044-2.429.857.857,0,0,0-.831-1.041Z" transform="translate(-7.322 -3.87)" fill="#fff"/>
    <path id="Path_2" data-name="Path 2" d="M27.437,24.9c-1.008-1.437-2.991-2.279-2.991-8.713,0-6.6-2.7-9.258-5.211-9.895-.236-.064-.406-.149-.406-.418V5.672A1.678,1.678,0,0,0,17.258,3.93h-.039a1.678,1.678,0,0,0-1.571,1.741v.205c0,.262-.17.354-.406.418-2.52.644-5.211,3.291-5.211,9.895,0,6.434-1.983,7.269-2.991,8.713a1.416,1.416,0,0,0,1.041,2.251H26.416A1.418,1.418,0,0,0,27.437,24.9Zm-2.553.411H9.619A.313.313,0,0,1,9.4,24.8a8.693,8.693,0,0,0,1.375-2.364,17.216,17.216,0,0,0,.936-6.243,11.552,11.552,0,0,1,1.368-6.144,4.21,4.21,0,0,1,2.533-1.954,2.261,2.261,0,0,0,1.218-.743.493.493,0,0,1,.779-.014,2.334,2.334,0,0,0,1.231.757,4.21,4.21,0,0,1,2.533,1.954,11.552,11.552,0,0,1,1.368,6.144,17.216,17.216,0,0,0,.936,6.243,8.785,8.785,0,0,0,1.407,2.4A.3.3,0,0,1,24.884,25.313Z" transform="translate(-6.775 -3.93)" fill="#fff"/>
  </g>
  <g id="Ellipse_1" data-name="Ellipse 1" transform="translate(12.866 2.506)" fill="#fff" stroke="#fff" stroke-width="1">
    <ellipse cx="4.094" cy="4.094" rx="4.094" ry="4.094" stroke="none"/>
    <ellipse cx="4.094" cy="4.094" rx="3.594" ry="3.594" fill="none"/>
  </g>
</svg>
