<svg width="24" height="24" viewBox="0 0 24 24" fill="none" xmlns="http://www.w3.org/2000/svg">
<path d="M12 3.86719C12.2734 3.86719 12.498 3.95508 12.6738 4.13086C12.8496 4.30664 12.9375 4.53125 12.9375 4.80469V5.33203C14.0312 5.52734 14.9199 6.02539 15.6035 6.82617C16.3066 7.62695 16.668 8.59375 16.6875 9.72656V10.6934C16.707 12.0605 17.1367 13.2812 17.9766 14.3555L18.416 14.9121C18.5723 15.1465 18.6016 15.3906 18.5039 15.6445C18.3672 15.8984 18.1523 16.0352 17.8594 16.0547H6.14062C5.84766 16.0352 5.63281 15.8984 5.49609 15.6445C5.37891 15.3906 5.4082 15.1465 5.58398 14.9121L6.02344 14.3555C6.86328 13.2812 7.29297 12.0605 7.3125 10.6934V9.72656C7.33203 8.59375 7.69336 7.62695 8.39648 6.82617C9.08008 6.02539 9.96875 5.52734 11.0625 5.33203V4.80469C11.0625 4.53125 11.1504 4.30664 11.3262 4.13086C11.502 3.95508 11.7266 3.86719 12 3.86719ZM12 6.67969H11.7656C10.9062 6.69922 10.1836 6.99219 9.59766 7.55859C9.03125 8.14453 8.73828 8.86719 8.71875 9.72656V10.6934C8.69922 12.1387 8.30859 13.457 7.54688 14.6484H16.4531C15.6719 13.457 15.2812 12.1387 15.2812 10.6934V9.72656C15.2617 8.86719 14.9688 8.14453 14.4023 7.55859C13.8164 6.99219 13.0938 6.69922 12.2344 6.67969H12ZM13.875 16.9922C13.875 17.5 13.6895 17.9395 13.3184 18.3105C12.9473 18.6816 12.5078 18.8672 12 18.8672C11.4922 18.8672 11.0527 18.6816 10.6816 18.3105C10.3105 17.9395 10.125 17.5 10.125 16.9922H12H13.875Z" fill="#004053"/>
</svg>
