<svg xmlns="http://www.w3.org/2000/svg" width="18" height="16.506" viewBox="0 0 18 16.506">
  <g id="animal" transform="translate(-6.11 -12.152)" opacity="0.41">
    <path id="Path_373" data-name="Path 373" d="M51.365,82.663a4.935,4.935,0,0,0-9.515,0l-.685,2.481a3,3,0,0,0,2.893,3.8h5.1a3,3,0,0,0,2.893-3.8Zm-.776,4.37a1.787,1.787,0,0,1-1.433.71h-5.1a1.8,1.8,0,0,1-1.736-2.279l.685-2.481a3.735,3.735,0,0,1,7.2,0l.685,2.481a1.787,1.787,0,0,1-.3,1.57Z" transform="translate(-31.498 -60.285)"/>
    <path id="Path_374" data-name="Path 374" d="M10.987,55.985a3.115,3.115,0,0,0-1.9-3.29,2.179,2.179,0,0,0-1.9.113,2.576,2.576,0,0,0-.658,3.556A3.01,3.01,0,0,0,8.04,57.687a2.4,2.4,0,0,0,.858.164,2.068,2.068,0,0,0,1.042-.277,2.18,2.18,0,0,0,1.048-1.588ZM9.8,55.8a.93.93,0,0,1-1.334.77,1.809,1.809,0,0,1-.9-.8,1.415,1.415,0,0,1,.218-1.917.881.881,0,0,1,.444-.115,1.2,1.2,0,0,1,.426.083A1.918,1.918,0,0,1,9.8,55.8Z" transform="translate(0 -36.393)"/>
    <path id="Path_375" data-name="Path 375" d="M46.715,17.105a2.245,2.245,0,0,0,1.405.518,2.062,2.062,0,0,0,.438-.047,2.576,2.576,0,0,0,1.71-3.187,3.01,3.01,0,0,0-1.035-1.719A2.179,2.179,0,0,0,47.39,12.2a2.576,2.576,0,0,0-1.71,3.187A3.01,3.01,0,0,0,46.715,17.105Zm.93-3.733a.835.835,0,0,1,.178-.019,1.068,1.068,0,0,1,.662.254,1.808,1.808,0,0,1,.611,1.036A1.415,1.415,0,0,1,48.3,16.4a1,1,0,0,1-.839-.235,1.809,1.809,0,0,1-.611-1.036,1.415,1.415,0,0,1,.792-1.759Z" transform="translate(-35.598)"/>
    <path id="Path_376" data-name="Path 376" d="M142.532,52.808a2.179,2.179,0,0,0-1.9-.113,3.115,3.115,0,0,0-1.9,3.29,2.179,2.179,0,0,0,1.048,1.588,2.068,2.068,0,0,0,1.042.277,2.4,2.4,0,0,0,.858-.164,3.01,3.01,0,0,0,1.509-1.322A2.576,2.576,0,0,0,142.532,52.808Zm-.382,2.956a1.809,1.809,0,0,1-.9.8.93.93,0,0,1-1.333-.77,1.917,1.917,0,0,1,1.142-1.979,1.2,1.2,0,0,1,.426-.083.881.881,0,0,1,.444.115A1.415,1.415,0,0,1,142.15,55.765Z" transform="translate(-119.501 -36.393)"/>
    <path id="Path_377" data-name="Path 377" d="M102.767,17.576a2.062,2.062,0,0,0,.438.047,2.245,2.245,0,0,0,1.405-.518,3.01,3.01,0,0,0,1.035-1.719,2.576,2.576,0,0,0-1.71-3.187,2.179,2.179,0,0,0-1.844.471,3.01,3.01,0,0,0-1.035,1.719A2.576,2.576,0,0,0,102.767,17.576Zm-.537-2.932a1.808,1.808,0,0,1,.611-1.036,1.068,1.068,0,0,1,.662-.254.835.835,0,0,1,.177.019,1.415,1.415,0,0,1,.792,1.759,1.809,1.809,0,0,1-.611,1.036,1,1,0,0,1-.839.235A1.415,1.415,0,0,1,102.23,14.645Z" transform="translate(-85.508 -0.001)"/>
  </g>
</svg>
