<svg width="50" height="46" viewBox="0 0 50 46" fill="none" xmlns="http://www.w3.org/2000/svg">
<path d="M49.5801 34.6209C47.8005 31.4074 40.0072 29.3607 33.1256 28.9726C32.5036 28.3068 31.8724 27.6064 31.2251 26.8702C25.311 20.1082 22.9162 10.2815 22.0217 5.07573C21.9154 3.97265 21.7985 3.05563 21.7001 2.37252C21.6204 1.82896 21.4529 0.695312 20.2741 0.695312C19.8966 0.695312 19.5325 0.857452 19.2733 1.14585C18.8534 1.62562 18.9158 2.14127 18.9903 2.73667C19.074 3.41978 19.2002 4.33414 19.3797 5.37741C19.8834 10.6629 20.1213 20.7261 16.0532 28.7201C15.6292 29.5534 15.2066 30.3535 14.7866 31.1163C7.17404 33.3305 1.03136 37.279 0.131617 40.5536C-0.193991 41.7391 0.0890884 42.8754 0.930351 43.7552C1.90983 44.7786 3.06607 45.2969 4.36717 45.2969C7.96879 45.2969 12.0741 41.2859 16.5688 33.3796C18.5703 32.8534 20.5572 32.4865 22.4776 32.2925C23.2258 32.2168 24.4365 32.0586 25.1808 31.9443C27.2315 31.628 29.5519 31.5004 31.9361 31.5788C37.4542 37.3148 41.9662 40.2227 45.3472 40.2227C47.1626 40.2214 48.6657 39.3363 49.5774 37.7308C50.1383 36.7367 50.1409 35.631 49.5801 34.6209ZM4.36584 42.6389C3.80234 42.6389 3.32124 42.4103 2.84944 41.9172C2.65673 41.7165 2.61421 41.5438 2.69395 41.2593C3.15777 39.5728 7.05443 36.6822 12.7492 34.5837C9.5317 39.6605 6.45239 42.6389 4.36584 42.6389ZM24.7728 29.3208C24.0658 29.4298 22.9175 29.5787 22.2078 29.6531C20.9173 29.7807 19.591 29.984 18.2527 30.2578C18.3085 30.1488 18.3643 30.0385 18.4201 29.9282C20.415 26.009 21.6509 21.3096 22.1081 15.9231C23.9382 21.0451 26.3251 25.3059 29.2236 28.6205C29.3087 28.7188 29.3977 28.8185 29.4828 28.9195C27.8096 28.9594 26.2307 29.0962 24.7728 29.3208ZM47.2596 36.4257C46.8184 37.2072 46.1911 37.57 45.2914 37.57C43.1782 37.57 39.9275 35.5699 36.0375 31.9018C42.0579 32.658 46.4662 34.4801 47.257 35.9087C47.3713 36.1161 47.3713 36.2264 47.2596 36.4257Z" fill="#E5252A"/>
</svg>
