<svg xmlns="http://www.w3.org/2000/svg" width="16.362" height="16.339" viewBox="0 0 16.362 16.339">
  <g id="paint-brush-alt" transform="translate(-12 -12.23)" opacity="0.53">
    <path id="Path_411" data-name="Path 411" d="M27.677,12.892a2.392,2.392,0,0,0-3.305,0L13.2,24.065A4.064,4.064,0,0,0,12,26.957v1.612h1.61a4.062,4.062,0,0,0,2.892-1.2L27.677,16.2A2.337,2.337,0,0,0,27.677,12.892Zm-10.47,8.817,1.653,1.653L17.619,24.6l-1.653-1.653Zm-1.53,4.836a2.9,2.9,0,0,1-2.066.855h-.442v-.444a2.9,2.9,0,0,1,.855-2.066l1.116-1.116,1.653,1.653ZM26.851,15.371l-7.165,7.164-1.653-1.653L25.2,13.718a1.2,1.2,0,0,1,1.653,0A1.169,1.169,0,0,1,26.851,15.371Z" transform="translate(0 0)"/>
  </g>
</svg>
