<svg width="19" height="19" viewBox="0 0 19 19" fill="none" xmlns="http://www.w3.org/2000/svg">
<path d="M17.0855 14.0804L14.5548 12.3121C14.2239 12.0817 13.8371 11.9598 13.436 11.9598C12.7979 11.9598 12.1992 12.2726 11.8345 12.796L11.2471 13.6379C10.2625 12.9776 9.16369 12.0556 8.11674 11.0086C7.06961 9.96149 6.1476 8.86285 5.48765 7.87828L6.32899 7.29101C7.21228 6.67589 7.42953 5.45557 6.81288 4.57017L5.04496 2.03989C4.67512 1.51098 4.07851 1.19531 3.44908 1.19531C3.23107 1.19531 3.01707 1.23365 2.81317 1.30899C2.582 1.39463 2.36666 1.49934 2.15533 1.6319L1.8059 1.87795C1.71854 1.94604 1.63729 2.02024 1.55947 2.09806C1.13318 2.52435 0.830482 3.06375 0.659965 3.70157C-0.0684518 6.43232 1.73609 10.561 5.15024 13.9751C8.01737 16.8422 11.4619 18.6235 14.1394 18.6237H14.14C14.5981 18.6237 15.0299 18.5703 15.424 18.4654C16.0618 18.2949 16.6012 17.9922 17.0269 17.5663C17.1049 17.4886 17.1793 17.4072 17.2587 17.3044L17.5051 16.9527C17.6258 16.7593 17.7305 16.5437 17.8164 16.3122C18.1143 15.5073 17.8139 14.5895 17.0855 14.0804ZM17.0836 16.041C17.0164 16.2229 16.9352 16.3902 16.8541 16.521L16.6306 16.8401C16.5827 16.9018 16.5301 16.9584 16.4747 17.0135C16.1471 17.3416 15.7255 17.576 15.2224 17.7105C14.8943 17.798 14.5302 17.8425 14.14 17.8425C14.1398 17.8425 14.1396 17.8425 14.1394 17.8425C11.6614 17.8423 8.4286 16.1487 5.70261 13.4228C2.52936 10.2495 0.766204 6.33485 1.41489 3.90317C1.54936 3.40002 1.78377 2.97849 2.11184 2.65043C2.16677 2.5955 2.22361 2.54266 2.27015 2.50604L2.58677 2.28288C2.73554 2.18999 2.90282 2.10893 3.0844 2.04179C3.20113 1.9985 3.32396 1.97656 3.44908 1.97656C3.82368 1.97656 4.18093 2.16768 4.40466 2.48754L6.17201 5.01707C6.54223 5.54845 6.41234 6.28088 5.88229 6.65014L4.73063 7.4539C4.55973 7.5731 4.51262 7.80561 4.62344 7.98204C5.32057 9.09078 6.36504 10.3618 7.56438 11.561C8.76334 12.7601 10.0342 13.8046 11.1433 14.5021C11.3199 14.6129 11.5523 14.5656 11.6717 14.3949L12.4756 13.2427C12.8319 12.731 13.5933 12.5942 14.1079 12.953L16.638 14.7209C17.075 15.0263 17.2583 15.5691 17.0836 16.041Z" fill="#004053"/>
<path d="M15.7836 3.34205C14.0999 1.65825 11.8649 0.649258 9.49025 0.500866C9.27625 0.486561 9.08952 0.651165 9.07598 0.866314C9.06244 1.08165 9.22609 1.26705 9.44143 1.28059C11.6259 1.41716 13.682 2.34546 15.2312 3.89442C16.7799 5.44319 17.7081 7.49912 17.8448 9.68361C17.8578 9.89055 18.0296 10.0498 18.2343 10.0498C18.2425 10.0498 18.2507 10.0496 18.2591 10.0491C18.4744 10.0355 18.6381 9.85012 18.6245 9.63478C18.476 7.26032 17.467 5.02548 15.7836 3.34205Z" fill="#004053"/>
<path d="M9.29494 3.61629C10.9095 3.71738 12.4291 4.40345 13.5739 5.54824C14.7185 6.69303 15.4046 8.21243 15.5057 9.82662C15.5186 10.0336 15.6905 10.1928 15.8951 10.1928C15.9033 10.1928 15.9115 10.1926 15.9199 10.1921C16.1353 10.1785 16.2989 9.99313 16.2854 9.77779C16.1725 7.97343 15.4057 6.27513 14.1263 4.99587C12.8468 3.71642 11.1483 2.94948 9.34377 2.83656C9.12767 2.82455 8.94304 2.98686 8.92949 3.20201C8.91595 3.41735 9.0796 3.60275 9.29494 3.61629Z" fill="#004053"/>
<path d="M9.14846 5.96032C10.1927 6.02574 11.1758 6.46958 11.9166 7.21021C12.6572 7.95102 13.1011 8.93388 13.1667 9.97796C13.1796 10.1851 13.3517 10.3442 13.5561 10.3442C13.5644 10.3442 13.5727 10.344 13.5809 10.3434C13.7963 10.3299 13.9599 10.1443 13.9464 9.92913C13.869 8.69489 13.3442 7.53331 12.469 6.65784C11.5935 5.78256 10.4315 5.25784 9.19729 5.1806C8.97909 5.16591 8.79655 5.3309 8.78301 5.54604C8.76947 5.76138 8.93312 5.94678 9.14846 5.96032Z" fill="#004053"/>
</svg>
