<svg width="24" height="24" viewBox="0 0 24 24" fill="none" xmlns="http://www.w3.org/2000/svg">
<path d="M17.625 6.21875H6.375C6.08203 6.23828 5.92578 6.39453 5.90625 6.6875V16.0625L6.05273 15.8867L8.39648 12.6055C8.5332 12.4102 8.71875 12.3125 8.95312 12.3125C9.1875 12.3125 9.38281 12.4102 9.53906 12.6055L10.418 13.8652L12.8496 10.7012C12.9863 10.5254 13.1719 10.4375 13.4062 10.4375C13.6406 10.4375 13.8262 10.5254 13.9629 10.7012L17.9473 15.8574L18.0938 16.0625V6.6875C18.0742 6.39453 17.918 6.23828 17.625 6.21875ZM6.375 4.8125H17.625C18.1523 4.83203 18.5918 5.01758 18.9434 5.36914C19.2949 5.7207 19.4805 6.16016 19.5 6.6875V16.0625C19.4805 16.5898 19.2949 17.0293 18.9434 17.3809C18.5918 17.7324 18.1523 17.918 17.625 17.9375H6.375C5.84766 17.918 5.4082 17.7324 5.05664 17.3809C4.70508 17.0293 4.51953 16.5898 4.5 16.0625V6.6875C4.51953 6.16016 4.70508 5.7207 5.05664 5.36914C5.4082 5.01758 5.84766 4.83203 6.375 4.8125ZM8.71875 10.4375C8.19141 10.418 7.78125 10.1836 7.48828 9.73438C7.25391 9.26562 7.25391 8.79688 7.48828 8.32812C7.78125 7.87891 8.19141 7.64453 8.71875 7.625C9.24609 7.64453 9.65625 7.87891 9.94922 8.32812C10.1836 8.79688 10.1836 9.26562 9.94922 9.73438C9.65625 10.1836 9.24609 10.418 8.71875 10.4375Z" fill="#004053"/>
</svg>
