<svg width="24" height="24" viewBox="0 0 24 24" fill="none" xmlns="http://www.w3.org/2000/svg">
<path d="M11.2969 5.625L6.63867 7.58789C6.46289 7.68555 6.375 7.8125 6.375 7.96875C6.375 8.84766 6.51172 9.85352 6.78516 10.9863C7.07812 12.0996 7.58594 13.2031 8.30859 14.2969C9.01172 15.3906 10.0078 16.3086 11.2969 17.0508V5.625ZM12.7031 17.0508C13.9922 16.3086 14.9883 15.3906 15.6914 14.2969C16.4141 13.2031 16.9219 12.0996 17.2148 10.9863C17.4883 9.85352 17.625 8.84766 17.625 7.96875C17.625 7.8125 17.5371 7.68555 17.3613 7.58789L12.7031 5.625V17.0508ZM17.918 6.29883C18.25 6.43555 18.5137 6.65039 18.709 6.94336C18.9238 7.23633 19.0312 7.57812 19.0312 7.96875C19.0508 8.96484 18.8848 10.1367 18.5332 11.4844C18.1816 12.832 17.5469 14.1406 16.6289 15.4102C15.7305 16.6992 14.4414 17.7637 12.7617 18.6035C12.2539 18.8379 11.7461 18.8379 11.2383 18.6035C9.55859 17.7637 8.26953 16.6992 7.37109 15.4102C6.45312 14.1406 5.81836 12.832 5.4668 11.4844C5.11523 10.1367 4.94922 8.96484 4.96875 7.96875C4.96875 7.57812 5.07617 7.23633 5.29102 6.94336C5.48633 6.65039 5.75 6.43555 6.08203 6.29883L11.6191 3.95508C11.7363 3.89648 11.8633 3.86719 12 3.86719C12.1367 3.86719 12.2637 3.89648 12.3809 3.95508L17.918 6.29883Z" fill="#004053"/>
</svg>
