<svg id="Layer_6" data-name="Layer 6" xmlns="http://www.w3.org/2000/svg" width="25.217" height="20.625" viewBox="0 0 25.217 20.625">
  <g id="Group_819" data-name="Group 819">
    <path id="Path_435" data-name="Path 435" d="M20.332,6h-.344L2.8,11.042A1.146,1.146,0,0,0,2,12.187v5.156a1.26,1.26,0,0,0,.8,1.146l2.693.745.917,5.9a1.661,1.661,0,0,0,1.661,1.49H10.65a1.833,1.833,0,0,0,1.26-.573,1.891,1.891,0,0,0,.344-1.49l-.63-3.495,8.365,2.464h.344a1.146,1.146,0,0,0,1.146-1.146V7.146A1.146,1.146,0,0,0,20.332,6ZM9.905,24.333H8.588L7.9,19.979l1.2.344ZM19.187,20.9l-14.9-4.411V13.047l14.9-4.354Z" transform="translate(-1.998 -6)" fill="#fff"/>
    <path id="Path_436" data-name="Path 436" d="M39.139,12.732a.859.859,0,0,0,.516-.115l2.292-1.146a1.153,1.153,0,1,0-1.031-2.062l-2.292,1.146a1.146,1.146,0,0,0-.516,1.547,1.2,1.2,0,0,0,1.031.63Z" transform="translate(-17.367 -7.404)" fill="#fff"/>
    <path id="Path_437" data-name="Path 437" d="M41.946,28.658l-2.292-1.146a1.2,1.2,0,0,0-1.547.458,1.146,1.146,0,0,0,.516,1.547l2.292,1.146a.859.859,0,0,0,.516.115,1.2,1.2,0,0,0,1.031-.63,1.089,1.089,0,0,0-.516-1.49Z" transform="translate(-17.367 -15.137)" fill="#fff"/>
    <path id="Path_438" data-name="Path 438" d="M39.146,21.592h2.292a1.146,1.146,0,1,0,0-2.292H39.146a1.146,1.146,0,0,0,0,2.292Z" transform="translate(-17.374 -11.68)" fill="#fff"/>
  </g>
</svg>
