<svg width="13" height="11" viewBox="0 0 13 11" fill="none" xmlns="http://www.w3.org/2000/svg">
<path d="M3.88281 8.6875C4.1875 8.45312 4.58594 8.40625 4.9375 8.52344C5.54688 8.75781 6.25 8.875 7 8.875C9.90625 8.875 11.875 7 11.875 5.125C11.875 3.27344 9.90625 1.375 7 1.375C4.07031 1.375 2.125 3.27344 2.125 5.125C2.125 5.875 2.40625 6.60156 2.94531 7.23438C3.15625 7.44531 3.25 7.75 3.22656 8.05469C3.20312 8.47656 3.08594 8.875 2.96875 9.22656C3.36719 9.03906 3.69531 8.82812 3.88281 8.6875ZM1.49219 9.625C1.53906 9.57812 1.5625 9.50781 1.60938 9.4375C1.84375 9.0625 2.05469 8.54688 2.10156 7.96094C1.39844 7.16406 1 6.20312 1 5.125C1 2.45312 3.67188 0.25 7 0.25C10.3047 0.25 13 2.45312 13 5.125C13 7.82031 10.3047 10 7 10C6.10938 10 5.28906 9.85938 4.53906 9.60156C4.28125 9.78906 3.8125 10.0703 3.27344 10.3047C2.92188 10.4688 2.52344 10.6094 2.10156 10.6797C2.07812 10.6797 2.05469 10.7031 2.05469 10.7031C1.9375 10.7266 1.84375 10.7266 1.72656 10.75C1.60938 10.75 1.49219 10.7734 1.35156 10.7734C1.21094 10.7734 1.07031 10.6797 1.02344 10.5391C0.953125 10.3984 1 10.2344 1.09375 10.1172C1.1875 10.0234 1.28125 9.92969 1.35156 9.8125C1.39844 9.74219 1.44531 9.69531 1.46875 9.64844C1.46875 9.64844 1.46875 9.64844 1.46875 9.625H1.49219Z" fill="#F47B3D"/>
</svg>
