<svg xmlns="http://www.w3.org/2000/svg" width="16.745" height="14.353" viewBox="0 0 16.745 14.353">
  <g id="md-paper" transform="translate(-12.16 -24.32)" opacity="0.52">
    <path id="Path_412" data-name="Path 412" d="M28.307,24.32H18.14a.616.616,0,0,0-.6.617v1.177H13.73a1.574,1.574,0,0,0-1.57,1.57V35.44a3.24,3.24,0,0,0,3.215,3.233H25.829a3.084,3.084,0,0,0,3.076-3.065V24.918A.6.6,0,0,0,28.307,24.32ZM17.542,27.31v7.177h-1.57V28.028a1.825,1.825,0,0,0-.123-.718Zm-.635,9.546a2.207,2.207,0,0,1-1.514.62,2.042,2.042,0,0,1-2.037-2.037V28.028a.71.71,0,1,1,1.42,0v7.057a.6.6,0,0,0,.6.6h2.149A1.967,1.967,0,0,1,16.907,36.857Zm10.8-1.248a1.889,1.889,0,0,1-1.88,1.869H17.965a3.125,3.125,0,0,0,.774-2.037V25.553h8.971Z"/>
    <path id="Path_413" data-name="Path 413" d="M94.24,51.68h5.98v2.093H94.24Z" transform="translate(-74.006 -24.669)"/>
    <path id="Path_414" data-name="Path 414" d="M94.24,85.12h5.98v1.2H94.24Z" transform="translate(-74.006 -54.82)"/>
    <path id="Path_415" data-name="Path 415" d="M94.24,109.44h5.98v1.2H94.24Z" transform="translate(-74.006 -76.747)"/>
    <path id="Path_416" data-name="Path 416" d="M97.48,133.76H91.5s0,1.2-.3,1.2h5.558C97.48,134.956,97.48,134.171,97.48,133.76Z" transform="translate(-71.265 -98.675)"/>
  </g>
</svg>
