<svg width="23" height="24" viewBox="0 0 23 24" fill="none" xmlns="http://www.w3.org/2000/svg">
<path d="M3.86567 3.875H19.3344C19.7641 3.91406 19.9985 4.14844 20.0375 4.57812C19.9985 5.00781 19.7641 5.24219 19.3344 5.28125H3.86567C3.43599 5.24219 3.20161 5.00781 3.16255 4.57812C3.20161 4.14844 3.43599 3.91406 3.86567 3.875ZM4.10005 6.21875H5.5063V12.5469C5.52583 12.6836 5.60395 12.7617 5.74067 12.7812H11.6H17.4594C17.5961 12.7617 17.6743 12.6836 17.6938 12.5469V6.21875H19.1V12.5469C19.0805 13.0156 18.9243 13.4062 18.6313 13.7188C18.3188 14.0117 17.9282 14.168 17.4594 14.1875H12.3032V15.5352L14.4418 17.6738C14.7153 18.0059 14.7153 18.3379 14.4418 18.6699C14.1098 18.9434 13.7778 18.9434 13.4458 18.6699L11.6 16.8242L9.75434 18.6699C9.42231 18.9434 9.09028 18.9434 8.75825 18.6699C8.48481 18.3379 8.48481 18.0059 8.75825 17.6738L10.8969 15.5352V14.1875H5.74067C5.27192 14.168 4.8813 14.0117 4.5688 13.7188C4.27583 13.4062 4.11958 13.0156 4.10005 12.5469V6.21875Z" fill="#004053"/>
</svg>
