<svg width="19" height="19" viewBox="0 0 19 19" fill="none" xmlns="http://www.w3.org/2000/svg">
    <path
        d="M12.9375 7.5625C12.9375 6.55469 12.6914 5.61719 12.1992 4.75C11.6836 3.88281 10.9922 3.19141 10.125 2.67578C9.23438 2.18359 8.29688 1.9375 7.3125 1.9375C6.32812 1.9375 5.39062 2.18359 4.5 2.67578C3.63281 3.19141 2.94141 3.88281 2.42578 4.75C1.93359 5.61719 1.6875 6.55469 1.6875 7.5625C1.6875 8.57031 1.93359 9.50781 2.42578 10.375C2.94141 11.2422 3.63281 11.9336 4.5 12.4492C5.39062 12.9414 6.32812 13.1875 7.3125 13.1875C8.29688 13.1875 9.23438 12.9414 10.125 12.4492C10.9922 11.9336 11.6836 11.2422 12.1992 10.375C12.6914 9.50781 12.9375 8.57031 12.9375 7.5625ZM11.8477 13.293C10.582 14.3242 9.07031 14.8516 7.3125 14.875C5.25 14.8281 3.52734 14.1133 2.14453 12.7305C0.761719 11.3477 0.046875 9.625 0 7.5625C0.046875 5.5 0.761719 3.77734 2.14453 2.39453C3.52734 1.01172 5.25 0.296875 7.3125 0.25C9.375 0.296875 11.0977 1.01172 12.4805 2.39453C13.8633 3.77734 14.5781 5.5 14.625 7.5625C14.6016 9.32031 14.0742 10.832 13.043 12.0977L17.7539 16.8086C18.082 17.207 18.082 17.6055 17.7539 18.0039C17.3555 18.332 16.957 18.332 16.5586 18.0039L11.8477 13.293Z"
        fill="white" />
</svg>
    