<svg xmlns="http://www.w3.org/2000/svg" width="28.714" height="28.714" viewBox="0 0 28.714 28.714">
  <g id="settings" transform="translate(-3.286 -3.286)">
    <path id="Path_353" data-name="Path 353" d="M13.871,4.955a2.558,2.558,0,0,1,4.972,0,2.559,2.559,0,0,0,3.819,1.582,2.56,2.56,0,0,1,3.517,3.517,2.559,2.559,0,0,0,1.581,3.817,2.558,2.558,0,0,1,0,4.972,2.559,2.559,0,0,0-1.582,3.819,2.56,2.56,0,0,1-3.517,3.517,2.559,2.559,0,0,0-3.817,1.581,2.558,2.558,0,0,1-4.972,0,2.559,2.559,0,0,0-3.819-1.582A2.56,2.56,0,0,1,6.535,22.66a2.559,2.559,0,0,0-1.581-3.817,2.558,2.558,0,0,1,0-4.972,2.559,2.559,0,0,0,1.582-3.819,2.56,2.56,0,0,1,3.517-3.517,2.556,2.556,0,0,0,3.817-1.581Z" transform="translate(1.286 1.286)" fill="none" stroke="#fff" stroke-linecap="round" stroke-linejoin="round" stroke-width="2"/>
    <path id="Path_354" data-name="Path 354" d="M9,13.452A4.452,4.452,0,1,0,13.452,9,4.452,4.452,0,0,0,9,13.452" transform="translate(4.191 4.191)" fill="none" stroke="#fff" stroke-linecap="round" stroke-linejoin="round" stroke-width="2"/>
  </g>
</svg>
