<svg width="24" height="24" viewBox="0 0 24 24" fill="none" xmlns="http://www.w3.org/2000/svg">
<path d="M8.71875 5.28125C8.42578 5.30078 8.26953 5.45703 8.25 5.75V17C8.26953 17.293 8.42578 17.4492 8.71875 17.4688H15.2812C15.5742 17.4492 15.7305 17.293 15.75 17V5.75C15.7305 5.45703 15.5742 5.30078 15.2812 5.28125H8.71875ZM6.84375 5.75C6.86328 5.22266 7.04883 4.7832 7.40039 4.43164C7.75195 4.08008 8.19141 3.89453 8.71875 3.875H15.2812C15.8086 3.89453 16.248 4.08008 16.5996 4.43164C16.9512 4.7832 17.1367 5.22266 17.1562 5.75V17C17.1367 17.5273 16.9512 17.9668 16.5996 18.3184C16.248 18.6699 15.8086 18.8555 15.2812 18.875H8.71875C8.19141 18.8555 7.75195 18.6699 7.40039 18.3184C7.04883 17.9668 6.86328 17.5273 6.84375 17V5.75ZM11.0625 15.5938H12.9375C13.2305 15.6133 13.3867 15.7695 13.4062 16.0625C13.3867 16.3555 13.2305 16.5117 12.9375 16.5312H11.0625C10.7695 16.5117 10.6133 16.3555 10.5938 16.0625C10.6133 15.7695 10.7695 15.6133 11.0625 15.5938Z" fill="#004053"/>
</svg>
