<svg width="24" height="24" viewBox="0 0 24 24" fill="none" xmlns="http://www.w3.org/2000/svg">
<path d="M18.5625 7.61719C18.543 8.41797 18.2695 9.08203 17.7422 9.60938C17.2148 10.1367 16.5508 10.4102 15.75 10.4297C14.8711 10.4102 14.168 10.0879 13.6406 9.46289L11.0039 10.7812C11.043 10.9766 11.0625 11.1719 11.0625 11.3672C11.0625 11.5625 11.043 11.7578 11.0039 11.9531L13.6406 13.2715C14.168 12.6465 14.8711 12.3242 15.75 12.3047C16.5508 12.3242 17.2148 12.5977 17.7422 13.125C18.2695 13.6523 18.543 14.3164 18.5625 15.1172C18.543 15.918 18.2695 16.582 17.7422 17.1094C17.2148 17.6367 16.5508 17.9102 15.75 17.9297C14.9492 17.9102 14.2852 17.6367 13.7578 17.1094C13.2305 16.582 12.957 15.918 12.9375 15.1172C12.9375 14.9219 12.957 14.7266 12.9961 14.5312L10.3594 13.2129C9.83203 13.8379 9.12891 14.1602 8.25 14.1797C7.44922 14.1602 6.78516 13.8867 6.25781 13.3594C5.73047 12.832 5.45703 12.168 5.4375 11.3672C5.45703 10.5664 5.73047 9.90234 6.25781 9.375C6.78516 8.84766 7.44922 8.57422 8.25 8.55469C9.12891 8.57422 9.83203 8.89648 10.3594 9.52148L12.9961 8.20312C12.957 8.00781 12.9375 7.8125 12.9375 7.61719C12.957 6.81641 13.2305 6.15234 13.7578 5.625C14.2852 5.09766 14.9492 4.82422 15.75 4.80469C16.5508 4.82422 17.2148 5.09766 17.7422 5.625C18.2695 6.15234 18.543 6.81641 18.5625 7.61719ZM8.25 12.7734C8.77734 12.7539 9.1875 12.5195 9.48047 12.0703C9.71484 11.6016 9.71484 11.1328 9.48047 10.6641C9.1875 10.2148 8.77734 9.98047 8.25 9.96094C7.72266 9.98047 7.3125 10.2148 7.01953 10.6641C6.78516 11.1328 6.78516 11.6016 7.01953 12.0703C7.3125 12.5195 7.72266 12.7539 8.25 12.7734ZM17.1562 7.61719C17.1367 7.08984 16.9023 6.67969 16.4531 6.38672C15.9844 6.15234 15.5156 6.15234 15.0469 6.38672C14.5977 6.67969 14.3633 7.08984 14.3438 7.61719C14.3633 8.14453 14.5977 8.55469 15.0469 8.84766C15.5156 9.08203 15.9844 9.08203 16.4531 8.84766C16.9023 8.55469 17.1367 8.14453 17.1562 7.61719ZM15.75 16.5234C16.2773 16.5039 16.6875 16.2695 16.9805 15.8203C17.2148 15.3516 17.2148 14.8828 16.9805 14.4141C16.6875 13.9648 16.2773 13.7305 15.75 13.7109C15.2227 13.7305 14.8125 13.9648 14.5195 14.4141C14.2852 14.8828 14.2852 15.3516 14.5195 15.8203C14.8125 16.2695 15.2227 16.5039 15.75 16.5234Z" fill="#004053"/>
</svg>
