<svg width="12" height="12" viewBox="0 0 12 12" fill="none" xmlns="http://www.w3.org/2000/svg">
    <path
        d="M11.8239 4.90738L11.0739 4.15738C11.0211 4.10463 10.9496 4.075 10.875 4.075H7.03125V2.0125H9.75C9.82459 2.01249 9.89613 1.98286 9.94887 1.93011L10.6989 1.18011C10.7516 1.12737 10.7812 1.05584 10.7812 0.981247C10.7812 0.906658 10.7516 0.835124 10.6989 0.78238L9.94887 0.0323797C9.89613 -0.0203657 9.82459 -0.0499995 9.75 -0.0500031H7.03125V-0.518753C7.03125 -0.593345 7.00162 -0.664882 6.94888 -0.717627C6.89613 -0.770371 6.82459 -0.800003 6.75 -0.800003H5.25C5.17541 -0.800003 5.10387 -0.770371 5.05113 -0.717627C4.99838 -0.664882 4.96875 -0.593345 4.96875 -0.518753V2.2H1.5C1.42541 2.2 1.35388 2.22963 1.30113 2.28238L0.551135 3.03238C0.498394 3.08512 0.468765 3.15666 0.468765 3.23125C0.468765 3.30584 0.498394 3.37737 0.551135 3.43011L1.30113 4.18011C1.35388 4.23286 1.42541 4.26249 1.5 4.2625H4.96875V10.7312C4.96875 10.8058 4.99838 10.8774 5.05113 10.9301C5.10387 10.9829 5.17541 11.0125 5.25 11.0125C5.32459 11.0125 5.39613 10.9829 5.44888 10.9301C5.50162 10.8774 5.53125 10.8058 5.53125 10.7312V-0.237503H6.46875V10.7312C6.46875 10.8058 6.49838 10.8774 6.55113 10.9301C6.60387 10.9829 6.67541 11.0125 6.75 11.0125C6.82459 11.0125 6.89613 10.9829 6.94888 10.9301C7.00162 10.8774 7.03125 10.8058 7.03125 10.7312V6.1375H10.875C10.9496 6.13749 11.0211 6.10786 11.0739 6.05511L11.8239 5.30511C11.8766 5.25237 11.9062 5.18084 11.9062 5.10625C11.9062 5.03166 11.8766 4.96012 11.8239 4.90738ZM1.61651 3.7L1.14776 3.23125L1.61651 2.7625H4.96875V3.7H1.61651ZM9.6335 0.512497L10.1022 0.981247L9.6335 1.45H7.03125V0.512497H9.6335ZM10.7585 5.575H7.03125V4.6375H10.7585L11.2272 5.10625L10.7585 5.575Z"
        fill="#F47B3D" />
</svg>
    