<svg xmlns="http://www.w3.org/2000/svg" width="17.875" height="19.862" viewBox="0 0 17.875 19.862">
  <path id="Icon_material-round-assignment-ind" data-name="Icon material-round-assignment-ind" d="M20.389,3.486H16.238a2.967,2.967,0,0,0-5.6,0H6.486A1.992,1.992,0,0,0,4.5,5.472v13.9a1.992,1.992,0,0,0,1.986,1.986h13.9a1.992,1.992,0,0,0,1.986-1.986V5.472A1.992,1.992,0,0,0,20.389,3.486Zm-6.952,0a.993.993,0,1,1-.993.993A1,1,0,0,1,13.438,3.486Zm0,3.972a2.979,2.979,0,1,1-2.979,2.979A2.975,2.975,0,0,1,13.438,7.458ZM19.4,19.375H7.479v-1.39c0-1.986,3.972-3.079,5.958-3.079S19.4,16,19.4,17.985Z" transform="translate(-4.5 -1.5)" opacity="0.28"/>
</svg>
