<svg xmlns="http://www.w3.org/2000/svg" width="18.361" height="18.361" viewBox="0 0 18.361 18.361">
  <g id="face-satisfied" transform="translate(-12 -12)" opacity="0.41">
    <path id="Path_407" data-name="Path 407" d="M21.181,12a9.181,9.181,0,1,0,9.181,9.181A9.181,9.181,0,0,0,21.181,12Zm0,17.05a7.869,7.869,0,1,1,7.869-7.869A7.869,7.869,0,0,1,21.181,29.05Z"/>
    <path id="Path_408" data-name="Path 408" d="M55.639,66a1.626,1.626,0,1,0,1.163.476A1.639,1.639,0,0,0,55.639,66Z" transform="translate(-37.41 -48.098)"/>
    <path id="Path_409" data-name="Path 409" d="M109.639,66a1.626,1.626,0,1,0,1.163.476A1.639,1.639,0,0,0,109.639,66Z" transform="translate(-85.508 -48.098)"/>
    <path id="Path_410" data-name="Path 410" d="M59.392,117.867a5.246,5.246,0,0,0,4.492-2.551l-1.121-.656a3.935,3.935,0,0,1-6.741,0l-1.121.656a5.246,5.246,0,0,0,4.492,2.551Z" transform="translate(-38.211 -91.44)"/>
  </g>
</svg>
