<svg width="40" height="40" viewBox="0 0 40 40" fill="none" xmlns="http://www.w3.org/2000/svg">
<path d="M18.1064 24.8053C17.6058 24.791 16.8826 25.0463 16.8826 25.6566V26.0709H12.8977C12.7277 26.0709 12.5898 26.2087 12.5898 26.3787C12.5898 26.5487 12.7277 26.6866 12.8977 26.6866H19.6516C19.8216 26.6866 19.9594 26.5487 19.9594 26.3787C19.9594 26.2087 19.8216 26.0709 19.6516 26.0709H19.2185C19.2185 26.0709 19.2185 25.6569 19.2185 25.6566C19.2185 25.107 18.6714 24.8213 18.1064 24.8053ZM17.4984 25.6565C17.4985 25.3255 18.6029 25.3491 18.6029 25.6565V26.0707H17.4984C17.4984 26.0707 17.4984 25.6573 17.4984 25.6565Z" fill="#F47B3D"/>
<path d="M19.7669 19.3789C19.9369 19.3789 20.0747 19.241 20.0747 19.071V17.1047C20.0747 16.9347 19.9369 16.7969 19.7669 16.7969C19.5969 16.7969 19.459 16.9347 19.459 17.1047V19.071C19.459 19.241 19.5969 19.3789 19.7669 19.3789Z" fill="#F47B3D"/>
<path d="M9.29843 17.3634C9.4059 17.4736 9.5835 17.5143 9.72536 17.3728L14.111 13.0147L16.4951 15.362L16.3007 15.5551L15.593 14.852C15.4731 14.7324 15.279 14.7324 15.159 14.852L14.506 15.5008L13.8152 14.8146C13.6954 14.695 13.5014 14.6954 13.3811 14.8146L12.651 15.5404C12.5306 15.6603 12.5299 15.8552 12.6498 15.9759C12.7696 16.0963 12.9646 16.0971 13.0852 15.9771L13.5982 15.467L14.289 16.1532C14.4088 16.2728 14.603 16.2728 14.723 16.1532L15.3759 15.5044L16.0836 16.2075C16.1436 16.2672 16.2222 16.297 16.3006 16.297C16.379 16.297 16.4576 16.2672 16.5175 16.2075L16.9336 15.7939L17.1124 15.9699C17.2335 16.0894 17.4286 16.088 17.5478 15.9666C17.6672 15.8455 17.6656 15.6506 17.5444 15.5312L14.3258 12.3622C14.2055 12.2434 14.0124 12.244 13.8928 12.3632C13.8928 12.3632 9.3051 16.9226 9.29136 16.9362C9.1535 17.0734 9.19096 17.2531 9.29843 17.3634Z" fill="#F47B3D"/>
<path d="M17.5336 10.424L20.5321 7.44418L22.8899 9.76618L22.5491 10.1047L21.8725 9.43258C21.7527 9.31298 21.5585 9.31298 21.4385 9.43258L20.8147 10.0524L20.1543 9.39631C20.0344 9.27671 19.8403 9.27684 19.7203 9.39618L19.0144 10.0974C18.8939 10.2172 18.8931 10.4122 19.0129 10.5328C19.1331 10.6536 19.3276 10.654 19.4484 10.5343L19.9373 10.0486L20.5977 10.7048C20.7176 10.8244 20.9117 10.8244 21.0317 10.7048L21.6556 10.085L22.3321 10.7571C22.3921 10.8168 22.4707 10.8466 22.5491 10.8466C22.6276 10.8466 22.7061 10.8168 22.766 10.7571L23.3285 10.1982L25.2196 12.0606L24.7821 12.578H20.8721C19.2148 12.578 17.8665 13.919 17.8665 15.5672V16.7035C17.8665 16.8735 18.0044 17.0114 18.1744 17.0114C18.3444 17.0114 18.4823 16.8735 18.4823 16.7035V15.5672C18.4823 14.2586 19.5544 13.1938 20.8721 13.1938H24.2617L23.5549 14.0299H21.3059C20.2875 14.0299 19.4589 14.8539 19.4589 15.8667C19.4589 16.0367 19.5968 16.1746 19.7668 16.1746C19.9368 16.1746 20.0747 16.0367 20.0747 15.8667C20.0747 15.1934 20.6271 14.6455 21.3059 14.6455H23.0345C23.0345 14.6455 22.4432 15.3451 22.4412 15.3475C22.1889 15.6459 22.6528 16.0506 22.9116 15.7451L26.2713 11.7703L27.6137 13.191L27.0812 13.7202L26.5441 13.1866C26.4243 13.067 26.2301 13.067 26.1101 13.1866L25.3049 13.987C25.1844 14.1067 25.1837 14.3016 25.3036 14.4223C25.3637 14.483 25.4428 14.5131 25.5219 14.5131C25.6004 14.5131 25.6789 14.4834 25.7388 14.4236L26.3271 13.839L26.8641 14.3726C26.984 14.4922 27.1781 14.4922 27.2981 14.3726L28.0367 13.6386L29.9113 15.6224C30.0284 15.7462 30.2232 15.7514 30.3467 15.6348C30.4703 15.5179 30.4757 15.3231 30.3591 15.1995L26.4823 11.097C26.4221 11.0331 26.3367 10.9964 26.2499 11.0007C26.1621 11.0031 26.0799 11.0426 26.0232 11.1096L25.618 11.589L20.7471 6.79164C20.6272 6.67311 20.4337 6.67378 20.3141 6.79271L17.0996 9.98738C16.9791 10.1071 16.9784 10.302 17.0983 10.4227C17.218 10.5435 17.4132 10.5442 17.5336 10.424Z" fill="#F47B3D"/>
<path d="M15.5653 12.2548C15.6439 12.2548 15.7224 12.225 15.7823 12.1653L16.7556 11.1982C16.8761 11.0785 16.8768 10.8836 16.7569 10.7629C16.6372 10.6421 16.4421 10.6414 16.3216 10.7616C16.3216 10.7616 15.3508 11.7262 15.3483 11.7286C15.1596 11.9161 15.2996 12.2548 15.5653 12.2548Z" fill="#F47B3D"/>
<path d="M34.7975 8.30601C34.8536 8.40788 34.9588 8.46548 35.0676 8.46548C35.1177 8.46548 35.1687 8.45308 35.2157 8.42721C35.3645 8.34521 35.4191 8.15801 35.3369 8.00895L34.2127 5.96601V4.44068C34.2127 4.27068 34.0748 4.13281 33.9048 4.13281C33.7348 4.13281 33.5969 4.27068 33.5969 4.44068V6.04521C33.5969 6.09721 33.61 6.14815 33.6351 6.19375L34.7975 8.30601Z" fill="#F47B3D"/>
<path d="M37.9074 12.8743L35.7379 8.93148C35.656 8.78268 35.4691 8.72815 35.3196 8.81028C35.1708 8.89228 35.1163 9.07948 35.1984 9.22855L37.3679 13.1713C37.527 13.4603 37.6111 13.7871 37.6111 14.1163V21.8832C37.6111 22.3419 37.2346 22.7152 36.7719 22.7152C36.3094 22.7152 35.9331 22.3419 35.9331 21.8832V15.1565C35.969 15.0268 35.994 14.8933 35.994 14.7551C35.994 14.3512 35.8359 13.9717 35.5486 13.6864L32.3392 10.4971C32.2188 10.3769 32.0238 10.3776 31.9039 10.4984C31.784 10.6189 31.7847 10.8139 31.9052 10.9337L35.1146 14.1231C35.2846 14.2921 35.3782 14.5165 35.3782 14.7551C35.3782 14.9936 35.2846 15.2181 35.1146 15.3871C34.7619 15.7368 34.1887 15.7368 33.8378 15.3881L30.3562 11.8964C29.3306 10.8681 28.7656 9.50441 28.7656 8.05615V4.44068C28.7656 4.27068 28.6278 4.13281 28.4578 4.13281C28.2878 4.13281 28.1499 4.27068 28.1499 4.44068V8.05601C28.1499 9.66841 28.7786 11.1865 29.9202 12.3311L33.4028 15.8237C33.5448 15.9649 33.7092 16.0703 33.8838 16.1436V21.902C33.8838 22.7349 34.565 23.4127 35.4023 23.4127C35.6747 23.4127 35.9411 23.3365 36.174 23.1995C36.357 23.2821 36.5584 23.3308 36.772 23.3308C37.5743 23.3308 38.2268 22.6813 38.2268 21.8832V14.1163C38.2267 13.6833 38.1163 13.254 37.9074 12.8743ZM34.4994 21.902V16.2624C34.7855 16.258 35.0703 16.1751 35.3174 16.0113V21.8832C35.3174 22.2173 35.4364 22.5216 35.6282 22.7669C35.5552 22.786 35.4799 22.7971 35.4023 22.7971C34.9044 22.7969 34.4994 22.3953 34.4994 21.902Z" fill="#F47B3D"/>
<path d="M4.78446 8.42721C4.83153 8.45308 4.88246 8.46548 4.93259 8.46548C5.04139 8.46548 5.14659 8.40788 5.20273 8.30601L6.36513 6.19375C6.39019 6.14815 6.40326 6.09721 6.40326 6.04521V4.44068C6.40326 4.27068 6.26539 4.13281 6.09539 4.13281C5.92539 4.13281 5.78753 4.27068 5.78753 4.44068V5.96601L4.66326 8.00895C4.58113 8.15788 4.63566 8.34521 4.78446 8.42721Z" fill="#F47B3D"/>
<path d="M6.11624 21.9017V16.1435C6.29117 16.0699 6.45584 15.9643 6.59824 15.8227L10.0798 12.3312C11.2213 11.1864 11.8501 9.66828 11.8501 8.05601V4.44068C11.8501 4.27068 11.7122 4.13281 11.5422 4.13281C11.3722 4.13281 11.2344 4.27068 11.2344 4.44068V8.05601C11.2344 9.50401 10.6694 10.8679 9.64384 11.8964L6.16317 15.3871C5.81077 15.7368 5.23784 15.7369 4.88544 15.3869C4.71544 15.218 4.6217 14.9936 4.6217 14.7551C4.6217 14.5165 4.71544 14.292 4.88544 14.1231L8.09477 10.9337C8.2153 10.814 8.21597 10.6191 8.0961 10.4984C7.97637 10.3776 7.7813 10.3769 7.66077 10.4971L4.45144 13.6863C4.1641 13.9717 4.00597 14.3512 4.00597 14.7551C4.00597 14.8933 4.03104 15.0268 4.0669 15.1565V21.8829C4.0669 22.3416 3.69037 22.7149 3.2277 22.7149C2.76517 22.7149 2.3889 22.3416 2.3889 21.8829V14.1161C2.3889 13.7871 2.47304 13.4604 2.6321 13.1711L4.80144 9.22868C4.88344 9.07988 4.82904 8.89255 4.67997 8.81055C4.53104 8.72841 4.3437 8.78281 4.26184 8.93201L2.09277 12.8744C1.88384 13.2543 1.77344 13.6837 1.77344 14.1161V21.8829C1.77344 22.6812 2.42584 23.3305 3.22797 23.3305C3.44157 23.3305 3.6429 23.2819 3.82584 23.1992C4.05864 23.3364 4.3253 23.4127 4.5981 23.4127C5.4353 23.4128 6.11624 22.7349 6.11624 21.9017ZM5.50064 16.2623V21.9019C5.50064 22.3955 5.0957 22.7972 4.5981 22.7972C4.5205 22.7972 4.44597 22.7841 4.3733 22.7651C4.56437 22.5201 4.68277 22.2164 4.68277 21.8831V16.0115C4.9297 16.1751 5.2145 16.2579 5.50064 16.2623Z" fill="#F47B3D"/>
<path d="M32.429 21.1641H28.7744C28.6044 21.1641 28.4666 21.3019 28.4666 21.4719C28.4666 21.6419 28.6044 21.7798 28.7744 21.7798H32.429C32.599 21.7798 32.7368 21.6419 32.7368 21.4719C32.7368 21.3019 32.5991 21.1641 32.429 21.1641Z" fill="#F47B3D"/>
<path d="M23.0189 21.4723C23.0189 21.3023 22.881 21.1645 22.711 21.1645H21.9675V16.7766C21.9675 16.6066 21.8297 16.4688 21.6597 16.4688C21.4897 16.4688 21.3518 16.6066 21.3518 16.7766V21.1645H20.0745V20.1519C20.0745 19.9819 19.9366 19.8441 19.7666 19.8441C19.5966 19.8441 19.4587 19.9819 19.4587 20.1519V21.1645H18.4819V17.6484C18.4819 17.4784 18.3441 17.3405 18.1741 17.3405C18.0041 17.3405 17.8662 17.4784 17.8662 17.6484V21.1645H7.72339C7.55339 21.1645 7.41553 21.3023 7.41553 21.4723C7.41553 21.6423 7.55339 21.7802 7.72339 21.7802H22.711C22.881 21.7802 23.0189 21.6423 23.0189 21.4723Z" fill="#F47B3D"/>
<path d="M30.7421 25.6338C30.9316 25.2961 31.0304 24.9192 31.0304 24.5266C31.0304 24.3566 30.8925 24.2188 30.7225 24.2188C30.5525 24.2188 30.4146 24.3566 30.4146 24.5266C30.4146 24.8973 30.2932 25.2496 30.0637 25.5453C30.0073 25.618 29.9864 25.712 30.0066 25.8018C30.0269 25.8916 30.0861 25.9676 30.1684 26.0089C30.8301 26.3425 31.2412 27.0057 31.2412 27.7397C31.2412 28.8105 30.3636 29.6818 29.285 29.6818C29.164 29.6818 28.6161 29.689 27.8809 29.6992C27.7109 29.7016 27.575 29.8413 27.5774 30.0113C27.5798 30.1798 27.717 30.3148 27.8852 30.3148H27.8897C28.6201 30.3046 29.1646 30.2974 29.285 30.2974C30.7032 30.2974 31.8568 29.1501 31.8568 27.7397C31.8568 26.887 31.4372 26.1074 30.7421 25.6338Z" fill="#F47B3D"/>
<path d="M22.6325 30.3883C22.7654 30.3883 23.2902 30.3815 23.9913 30.3719C24.1613 30.3695 24.2973 30.2299 24.2949 30.0599C24.2925 29.8914 24.1553 29.7563 23.9871 29.7563C23.9857 29.7563 23.9841 29.7563 23.9827 29.7563C23.2861 29.7658 22.7646 29.7727 22.6323 29.7727C21.7837 29.7727 21.0651 29.1434 20.9609 28.3089C20.9399 28.1402 20.7865 28.0207 20.6173 28.0414C20.4486 28.0625 20.3289 28.2163 20.3498 28.385C20.4925 29.5271 21.4738 30.3883 22.6325 30.3883Z" fill="#F47B3D"/>
<path d="M27.3756 23.4962C27.1887 23.8395 27.7253 24.1417 27.9161 23.7909C28.0563 23.5341 28.1436 23.2503 28.1767 22.9587C28.8768 22.7183 29.684 22.9681 30.1091 23.5678C30.2075 23.7065 30.3996 23.7394 30.5384 23.641C30.6771 23.5426 30.7097 23.3505 30.6116 23.2117C30.1807 22.6037 29.4773 22.2407 28.7301 22.2407C28.5364 22.2407 28.3456 22.265 28.1597 22.3129C27.9735 21.2361 27.0277 20.4141 25.8928 20.4141C24.7276 20.4141 23.7621 21.2801 23.6128 22.3993C23.5579 22.3958 23.5027 22.3941 23.4476 22.3941C22.0293 22.3941 20.8755 23.5414 20.8755 24.9517C20.8755 25.4182 21.0061 25.8775 21.2477 26.2749C20.9483 26.5002 20.7045 26.7981 20.5457 27.1374C20.4651 27.3097 20.5636 27.5189 20.7479 27.5662C20.8897 27.6027 21.0415 27.531 21.1033 27.3986C21.3739 26.8213 21.9957 26.4291 22.6325 26.4291C22.8025 26.4291 22.9404 26.2913 22.9404 26.1213C22.9404 25.9513 22.8025 25.8134 22.6325 25.8134C22.3403 25.8134 22.0591 25.8754 21.7971 25.9814C21.6 25.6726 21.4912 25.3225 21.4912 24.9515C21.4912 23.8809 22.3689 23.0097 23.4476 23.0097C23.58 23.0097 23.706 23.031 23.8363 23.0486C24.0401 23.0761 24.2131 22.9019 24.2084 22.7019C24.2084 21.7799 24.964 21.0298 25.8928 21.0298C27.1269 21.0298 27.9713 22.4023 27.3756 23.4962Z" fill="#F47B3D"/>
<path d="M29.8116 35.2514H27.3155L26.893 28.7235C26.8819 28.5538 26.7306 28.4214 26.5659 28.4362C26.3962 28.447 26.2676 28.5935 26.2786 28.7633L26.6987 35.2514H25.0804L25.6516 26.4314C25.6582 26.3066 25.7627 26.2087 25.8895 26.2087C26.0162 26.2087 26.1207 26.3066 26.1275 26.4349L26.2206 27.8722C26.2314 28.0418 26.3812 28.1703 26.5476 28.1595C26.7174 28.1487 26.8459 28.0022 26.835 27.8325L26.7423 26.3987C26.7183 25.9469 26.3436 25.5931 25.8896 25.5931C25.4355 25.5931 25.0608 25.9469 25.0371 26.3953L24.4636 35.2514H21.2255V32.6698C21.4535 32.6698 21.6591 32.6387 21.8356 32.4821C21.9931 32.3423 22.0854 32.1387 22.0854 31.9282V31.371C22.0854 30.9623 21.7516 30.6297 21.3414 30.6297H19.2186V29.8206H19.7862C19.9562 29.8206 20.094 29.6827 20.094 29.5127C20.094 29.3427 19.9562 29.2049 19.7862 29.2049H6.65298C6.46778 29.2049 6.31711 29.0561 6.31711 28.873V27.019C6.31711 26.8358 6.46778 26.6867 6.65298 26.6867H11.7096C11.8796 26.6867 12.0175 26.5489 12.0175 26.3789C12.0175 26.2089 11.8796 26.071 11.7096 26.071H10.9042C10.9042 26.071 10.9042 25.6571 10.9042 25.6567C10.9042 24.7893 9.66391 24.6647 9.06885 24.9491C8.80245 25.0765 8.56858 25.3474 8.56858 25.6567V26.071H6.65298C6.12831 26.071 5.70138 26.4962 5.70138 27.0189V28.8729C5.70138 29.3954 6.12831 29.8205 6.65298 29.8205H8.56845V30.6295H6.32351C5.93685 30.6295 5.62231 30.943 5.62231 31.3283V31.9707C5.62231 32.3561 5.93685 32.6695 6.32351 32.6695H6.56165V35.4956C6.56165 35.6656 6.69951 35.8034 6.86951 35.8034C7.03951 35.8034 7.17738 35.6656 7.17738 35.4956V32.6698H7.70858V35.4958C7.70858 35.6658 7.84645 35.8037 8.01645 35.8037C8.18645 35.8037 8.32431 35.6658 8.32431 35.4958V32.6698H19.4631V35.2514H17.1907C17.0207 35.2514 16.8828 35.3893 16.8828 35.5593C16.8828 35.7293 17.0207 35.8671 17.1907 35.8671H29.8118C29.9818 35.8671 30.1196 35.7293 30.1196 35.5593C30.1195 35.3893 29.9816 35.2514 29.8116 35.2514ZM9.18418 25.6567C9.18431 25.3317 10.2884 25.3437 10.2884 25.6567V26.071H9.18418C9.18418 26.071 9.18418 25.6577 9.18418 25.6567ZM18.603 30.6297H17.4984V29.8206H18.603V30.6297ZM10.9043 30.6297V29.8206H16.8827V30.6297H10.9043ZM9.18418 29.8206H10.2886V30.6297H9.18418V29.8206ZM6.23791 31.971V31.3286C6.23791 31.2829 6.27631 31.2454 6.32338 31.2454H21.3414C21.412 31.2454 21.4696 31.3017 21.4696 31.371V31.9282C21.4696 31.9977 21.412 32.0542 21.3414 32.0542H6.32351C6.27631 32.0542 6.23791 32.0167 6.23791 31.971ZM20.0787 32.6698H20.6099V35.2514H20.0787V32.6698Z" fill="#F47B3D"/>
<path d="M15.9339 35.25H13.4785C13.3085 35.25 13.1707 35.3879 13.1707 35.5579C13.1707 35.7279 13.3085 35.8657 13.4785 35.8657H15.9339C16.1039 35.8657 16.2417 35.7279 16.2417 35.5579C16.2417 35.3879 16.104 35.25 15.9339 35.25Z" fill="#F47B3D"/>
</svg>
