<svg width="68" height="72" viewBox="0 0 68 72" fill="none" xmlns="http://www.w3.org/2000/svg">
<path d="M66.3077 36C66.3077 18.1855 51.8145 3.69231 34 3.69231C16.1856 3.69231 1.69232 18.1855 1.69232 36C1.69232 53.8145 16.1856 68.3077 34 68.3077C51.8145 68.3077 66.3077 53.8145 66.3077 36ZM34 65.2308C17.882 65.2308 4.76924 52.118 4.76924 36C4.76924 19.882 17.882 6.76923 34 6.76923C50.118 6.76923 63.2308 19.882 63.2308 36C63.2308 52.118 50.118 65.2308 34 65.2308Z" fill="#004053"/>
<path d="M34 11.3846C20.4271 11.3846 9.38464 22.4271 9.38464 36C9.38464 49.5731 20.4271 60.6154 34 60.6154C47.5731 60.6154 58.6154 49.5731 58.6154 36C58.6154 22.4271 47.5731 11.3846 34 11.3846ZM35.5385 57.4829V54.398C45.001 53.6135 52.4616 45.6615 52.4616 36C52.4616 35.1503 51.7726 34.4615 50.9231 34.4615C50.0736 34.4615 49.3846 35.1503 49.3846 36C49.3846 44.4832 42.4833 51.3846 34 51.3846C33.1503 51.3846 32.4616 52.0735 32.4616 52.9231V57.4829C21.3006 56.6914 12.4616 47.3591 12.4616 36C12.4616 24.6411 21.3006 15.3086 32.4616 14.5171V17.602C22.9991 18.3865 15.5385 26.3385 15.5385 36C15.5385 36.8495 16.2273 37.5385 17.077 37.5385C17.9266 37.5385 18.6154 36.8495 18.6154 36C18.6154 27.5169 25.517 20.6154 34 20.6154C34.8496 20.6154 35.5385 19.9266 35.5385 19.0769V14.5171C46.6996 15.3088 55.5385 24.6411 55.5385 36C55.5385 47.3591 46.6996 56.6914 35.5385 57.4829Z" fill="#004053"/>
<path d="M1.69233 57.5385C2.542 57.5385 3.23079 56.8497 3.23079 56C3.23079 55.1503 2.542 54.4615 1.69233 54.4615C0.842662 54.4615 0.15387 55.1503 0.15387 56C0.15387 56.8497 0.842662 57.5385 1.69233 57.5385Z" fill="#9AD6CC"/>
<path d="M66.3077 57.5385C67.1574 57.5385 67.8461 56.8497 67.8461 56C67.8461 55.1503 67.1574 54.4615 66.3077 54.4615C65.458 54.4615 64.7692 55.1503 64.7692 56C64.7692 56.8497 65.458 57.5385 66.3077 57.5385Z" fill="#9AD6CC"/>
<path d="M66.3077 17.5385C67.1574 17.5385 67.8461 16.8497 67.8461 16C67.8461 15.1503 67.1574 14.4615 66.3077 14.4615C65.458 14.4615 64.7692 15.1503 64.7692 16C64.7692 16.8497 65.458 17.5385 66.3077 17.5385Z" fill="#9AD6CC"/>
<path d="M1.69233 19.0769C2.542 19.0769 3.23079 18.3881 3.23079 17.5385C3.23079 16.6888 2.542 16 1.69233 16C0.842662 16 0.15387 16.6888 0.15387 17.5385C0.15387 18.3881 0.842662 19.0769 1.69233 19.0769Z" fill="#9AD6CC"/>
<path d="M10.9231 69.8461C11.7728 69.8461 12.4616 69.1574 12.4616 68.3077C12.4616 67.458 11.7728 66.7692 10.9231 66.7692C10.0734 66.7692 9.38464 67.458 9.38464 68.3077C9.38464 69.1574 10.0734 69.8461 10.9231 69.8461Z" fill="#9AD6CC"/>
<path d="M55.5385 3.69231C56.3881 3.69231 57.0769 3.00352 57.0769 2.15385C57.0769 1.30418 56.3881 0.615387 55.5385 0.615387C54.6888 0.615387 54 1.30418 54 2.15385C54 3.00352 54.6888 3.69231 55.5385 3.69231Z" fill="#9AD6CC"/>
<path d="M7.07694 12.9231C10.046 12.9231 12.4616 10.5075 12.4616 7.53847C12.4616 4.56939 10.046 2.15385 7.07694 2.15385C4.10786 2.15385 1.69232 4.56939 1.69232 7.53847C1.69232 10.5075 4.10786 12.9231 7.07694 12.9231ZM7.07694 5.23078C8.3494 5.23078 9.38463 6.26601 9.38463 7.53847C9.38463 8.81093 8.3494 9.84616 7.07694 9.84616C5.80448 9.84616 4.76925 8.81093 4.76925 7.53847C4.76925 6.26601 5.80448 5.23078 7.07694 5.23078Z" fill="#F47B3D"/>
<path d="M58.6154 62.1539C56.0705 62.1539 54 64.2243 54 66.7692C54 69.3142 56.0705 71.3846 58.6154 71.3846C61.1603 71.3846 63.2308 69.3142 63.2308 66.7692C63.2308 64.2243 61.1603 62.1539 58.6154 62.1539ZM58.6154 68.3077C57.7671 68.3077 57.0769 67.6175 57.0769 66.7692C57.0769 65.9209 57.7671 65.2308 58.6154 65.2308C59.4637 65.2308 60.1538 65.9209 60.1538 66.7692C60.1538 67.6175 59.4637 68.3077 58.6154 68.3077Z" fill="#F47B3D"/>
<path d="M39.9992 27.6383L30.2085 37.4291L28.0326 35.2532C26.2331 33.4539 23.3051 33.454 21.5055 35.2534C19.7018 37.0571 19.7015 39.9765 21.5055 41.7806L29.1205 49.3955C29.7214 49.9963 30.6954 49.9962 31.2963 49.3955L46.5263 34.1655C48.3298 32.362 48.3301 29.4423 46.5263 27.6383C44.7269 25.8389 41.7988 25.8391 39.9992 27.6383ZM44.3506 31.9899L30.2085 46.132L23.6814 39.6049C23.0815 39.0051 23.0815 38.0291 23.6814 37.4291C24.2812 36.8294 25.2572 36.8294 25.8571 37.4291L29.1206 40.6928C29.7212 41.2932 30.6957 41.2934 31.2965 40.6928L42.1751 29.8142C42.7746 29.2143 43.7508 29.2142 44.3508 29.8142C44.9518 30.4154 44.952 31.3885 44.3506 31.9899Z" fill="#F47B3D"/>
</svg>
