<svg width="40" height="40" viewBox="0 0 40 40" fill="none" xmlns="http://www.w3.org/2000/svg">
<path d="M16.8664 4.18349L18.0632 2.99389L21.744 6.65243L21.1439 7.19002L19.382 5.43949C19.2643 5.32269 19.0736 5.32269 18.9559 5.43949L16.8352 7.54722L15.8491 6.56736C15.7308 6.44989 15.5394 6.45056 15.4215 6.56869C15.3039 6.68749 15.3046 6.87869 15.423 6.99643L16.6222 8.18789C16.6811 8.24629 16.7582 8.27576 16.8352 8.27576C16.9123 8.27576 16.9894 8.24629 17.0483 8.18789L19.169 6.08016L20.92 7.82029C21.0335 7.93309 21.2155 7.93802 21.3348 7.83082L22.1734 7.07936L29.1239 13.9882C29.1828 14.0466 29.2599 14.076 29.337 14.076C29.4147 14.076 29.4923 14.0462 29.5514 13.9868C29.6691 13.8684 29.6684 13.6768 29.55 13.5591L18.2762 2.35323C18.1584 2.23643 17.9678 2.23643 17.85 2.35323L16.4402 3.75443C16.3218 3.87216 16.3211 4.06376 16.4388 4.18216C16.5566 4.30029 16.7482 4.30096 16.8664 4.18349Z" fill="#F47B3D"/>
<path d="M6.656 13.9068C6.71507 13.9662 6.79267 13.996 6.8704 13.996C6.94747 13.996 7.02453 13.9666 7.08347 13.9082L16.1565 4.89175C16.2749 4.77402 16.2756 4.58242 16.1579 4.46402C16.0403 4.34588 15.8487 4.34522 15.7304 4.46269L6.65733 13.4791C6.53893 13.5968 6.53827 13.7884 6.656 13.9068Z" fill="#F47B3D"/>
<path d="M31.6902 7.58026L33.9936 9.84946L33.4632 10.3765L32.2569 9.17812C32.1392 9.06132 31.9485 9.06132 31.8308 9.17812L30.7088 10.2932L29.5284 9.12039C29.4106 9.00359 29.22 9.00359 29.1022 9.12039L27.9816 10.2341C27.8632 10.3519 27.8625 10.5435 27.9802 10.6619C28.0978 10.7803 28.2894 10.7803 28.4077 10.6632L29.3153 9.76106L30.4957 10.9339C30.6134 11.0507 30.8041 11.0507 30.9218 10.9339L32.0438 9.81879L33.2501 11.0172C33.309 11.0756 33.3861 11.1051 33.4632 11.1051C33.5402 11.1051 33.6173 11.0756 33.6762 11.0172L34.4244 10.2739L35.506 11.3393C35.5649 11.3971 35.6416 11.4263 35.7182 11.4263C35.7964 11.4263 35.8744 11.3961 35.9336 11.336C36.0506 11.2169 36.0494 11.0256 35.9305 10.9083L32.1148 7.14919C31.9956 7.03279 31.8044 7.03332 31.6872 7.15252C31.57 7.27146 31.5713 7.46279 31.6902 7.58026Z" fill="#F47B3D"/>
<path d="M26.6482 9.177C26.7073 9.23634 26.7849 9.2662 26.8626 9.2662C26.9397 9.2662 27.0167 9.23674 27.0757 9.17834L30.1786 6.09487L31.1031 7.00554C31.2221 7.1226 31.4135 7.12167 31.5307 7.0026C31.6478 6.88354 31.6466 6.6922 31.5277 6.57514L30.3899 5.4542C30.2717 5.3378 30.0819 5.33834 29.9646 5.45487L26.6495 8.74927C26.5311 8.867 26.5305 9.0586 26.6482 9.177Z" fill="#F47B3D"/>
<path d="M2.49168 11.1412C2.56834 11.1412 2.64501 11.112 2.70394 11.054L3.59074 10.1802L4.19434 10.7801C4.25328 10.8385 4.33034 10.868 4.40741 10.868C4.48448 10.868 4.56154 10.8385 4.62048 10.7801L5.61314 9.79357L6.53448 10.7092C6.65221 10.826 6.84288 10.826 6.96061 10.7092L7.93101 9.74437L8.67034 10.4792C8.78861 10.5966 8.98021 10.596 9.09781 10.4778C9.21554 10.3594 9.21488 10.1678 9.09648 10.0501L8.14408 9.10371C8.02634 8.98691 7.83568 8.98691 7.71794 9.10371L6.74754 10.0685L5.82621 9.1529C5.70848 9.0361 5.51781 9.0361 5.40008 9.1529L4.40741 10.1394L4.02168 9.75584L7.19794 6.62637L9.80221 9.2141C9.92048 9.33157 10.1121 9.3309 10.2297 9.21277C10.3474 9.09437 10.3467 8.90277 10.2283 8.78504L7.41181 5.98637C7.29421 5.86957 7.10448 5.86891 6.98648 5.98571L2.27954 10.6234C2.16061 10.7405 2.15928 10.9318 2.27648 11.0509C2.33554 11.111 2.41368 11.1412 2.49168 11.1412Z" fill="#F47B3D"/>
<path d="M22.8469 5.6895L23.8939 4.6491L24.7585 5.50843C24.8763 5.62523 25.067 5.6255 25.1848 5.50817L25.5064 5.1883L26.3359 6.01243C26.3948 6.07083 26.4718 6.1003 26.5489 6.1003C26.626 6.1003 26.7031 6.07083 26.762 6.01243L27.5064 5.2727L28.1586 5.92083C28.2176 5.97923 28.2947 6.0087 28.3717 6.0087C28.4495 6.0087 28.5271 5.97883 28.5861 5.9195C28.7039 5.8011 28.7032 5.6095 28.5848 5.49177L25.5993 2.5251C25.4816 2.4083 25.2909 2.4083 25.1732 2.5251L23.6793 4.0095L22.4205 5.26043C22.3021 5.37817 22.3015 5.56977 22.4192 5.68817C22.5369 5.80657 22.7285 5.80657 22.8469 5.6895ZM25.3864 3.16577L27.0776 4.8463L26.5491 5.37163L25.7195 4.54723C25.6017 4.43043 25.4109 4.43017 25.2932 4.5475L24.9716 4.86737L24.323 4.2227L25.3864 3.16577Z" fill="#F47B3D"/>
<path d="M16.8113 9.39982C16.5389 9.23836 16.2404 9.13636 15.924 9.09676C14.6688 8.93662 13.5165 9.82662 13.3577 11.076C13.2808 11.6789 13.444 12.276 13.8173 12.7576C14.1933 13.2425 14.7367 13.5518 15.3476 13.6285C15.4452 13.6409 15.5421 13.6469 15.6381 13.6469C16.7765 13.6469 17.7673 12.8021 17.9141 11.65C17.9141 11.6497 17.9141 11.6497 17.9143 11.6497C17.9504 11.3646 17.9331 11.0798 17.8629 10.8024C17.714 10.2189 17.3307 9.70782 16.8113 9.39982ZM17.3144 11.5732C17.1971 12.4924 16.3497 13.1422 15.4232 13.0288C14.9727 12.972 14.572 12.744 14.2952 12.3868C14.0211 12.0334 13.9012 11.5949 13.9575 11.152C14.0653 10.3042 14.7953 9.68289 15.6345 9.68289C15.7052 9.68289 15.7768 9.68742 15.8485 9.69636C16.0821 9.72582 16.3024 9.80102 16.5031 9.92009C16.8855 10.1468 17.1676 10.5228 17.2769 10.9512C17.3284 11.1546 17.3411 11.3638 17.3144 11.5732Z" fill="#F47B3D"/>
<path d="M37.9676 14.477C37.9085 14.3209 37.7337 14.2414 37.5778 14.3011L34.0617 15.6314C33.9056 15.6905 33.8268 15.865 33.8858 16.0211C33.9316 16.1422 34.0466 16.2166 34.1686 16.2166C34.2042 16.2166 34.2405 16.2103 34.2756 16.1969L37.7917 14.8666C37.948 14.8078 38.0266 14.6333 37.9676 14.477Z" fill="#F47B3D"/>
<path d="M33.4509 21.2756H31.9832L31 20.33L31.5749 17.2274L33.1131 16.6454C33.2692 16.5863 33.348 16.4118 33.2889 16.2556C33.2299 16.0995 33.0547 16.0207 32.8992 16.0798L31.2019 16.7222C31.1029 16.7595 31.0308 16.8459 31.0116 16.9499L30.4017 20.241L27.3585 21.9547C27.2708 22.0039 27.2133 22.0938 27.2055 22.1942L26.8953 26.0823L23.7195 31.9072H23.3136C23.192 31.0039 22.5364 30.2694 21.6747 30.0319L21.1527 24.8192C21.0535 23.8554 20.3932 23.0307 19.4711 22.718L17.2635 21.9696C17.2187 21.867 17.1656 21.7674 17.0945 21.6768L16.8277 21.3364C16.8287 21.331 16.8321 21.3268 16.8328 21.3212L17.3656 17.1415C17.5528 15.6738 16.5053 14.3212 15.0308 14.1256C14.3063 14.0299 13.5885 14.2218 13.0101 14.6672C12.8193 14.814 12.654 14.9842 12.5116 15.1698C12.5081 15.165 12.5059 15.1594 12.5021 15.1547C12.3592 14.9694 12.1524 14.8506 11.9197 14.8204C10.7184 14.662 9.61213 15.5103 9.45493 16.7062L9.27092 18.1086C9.24932 18.2743 9.36586 18.4262 9.53146 18.4478C9.69879 18.4698 9.84879 18.353 9.87066 18.1872L10.0545 16.7848C10.1684 15.9194 10.9716 15.3043 11.8423 15.4202C11.9147 15.4296 11.9789 15.4664 12.0232 15.5238C12.0667 15.5802 12.0857 15.6504 12.0764 15.7206L11.9787 16.465L11.3713 21.0122C11.3709 21.0148 11.3708 21.0174 11.3704 21.0202C11.3301 21.1398 11.2135 21.2206 11.082 21.2035L10.148 21.0824C9.97426 21.0602 9.82013 20.9715 9.71399 20.8338C9.60879 20.6972 9.56346 20.5283 9.58572 20.358L9.72733 19.28C9.74893 19.1143 9.63239 18.9628 9.46679 18.9408C9.29999 18.9202 9.14946 19.036 9.12759 19.2014L8.98599 20.2794C8.94266 20.61 9.03106 20.9378 9.23479 21.2026C9.43973 21.4686 9.73639 21.6388 10.0704 21.6822L11.0044 21.8032C11.0424 21.8082 11.0804 21.8104 11.1179 21.8104C11.1949 21.8104 11.2689 21.7971 11.3409 21.7779C11.4432 23.0402 12.3132 24.1518 13.5845 24.5218L18.0115 25.81L18.5085 30.27V32.2099C18.5085 32.3768 18.6439 32.5124 18.8108 32.5124H19.9865L18.3556 33.2748L16.2068 34.3915L14.0579 35.2648H11.7615C11.9684 34.8396 12.0397 34.363 11.9588 33.888C11.9016 33.5527 11.7713 33.2423 11.5827 32.9704L13.9791 28.709C13.9917 28.6863 14.0013 28.6624 14.008 28.6375L14.8116 25.5724C14.8539 25.4107 14.7573 25.2456 14.5957 25.2034C14.4345 25.16 14.2689 25.2572 14.2267 25.419L13.4329 28.4466L11.1513 32.5035C11.1076 32.4678 11.0641 32.4319 11.0175 32.399L9.46666 31.3072L11.6387 27.6618C11.6607 27.6247 11.6745 27.5836 11.6793 27.5411L12.0755 24.0676C12.0945 23.9019 11.9752 23.752 11.8095 23.733C11.6427 23.7146 11.4937 23.8334 11.4748 23.9994L11.086 27.4082L8.80853 31.2304L7.60772 32.9147C7.56092 32.9803 7.54239 33.0616 7.55586 33.1411C7.56946 33.2204 7.61412 33.291 7.67986 33.3376L10.4179 35.2647H8.85439C8.80026 35.2647 8.74706 35.2795 8.70052 35.307L5.87733 36.9755C5.73359 37.0604 5.68586 37.2458 5.77093 37.3895C5.82733 37.485 5.92812 37.5382 6.03159 37.5382C6.08372 37.5382 6.13693 37.5244 6.18506 37.4959L8.93693 35.8698H14.0791L16.9603 36.5967C16.9845 36.6026 17.0095 36.6059 17.0343 36.6059C17.0735 36.6059 17.1125 36.598 17.1492 36.583L18.8836 35.8698H21.0629C21.2299 35.8698 21.3652 35.7343 21.3652 35.5672C21.3652 35.4002 21.2299 35.2647 21.0629 35.2647H18.824C18.7845 35.2647 18.7455 35.2726 18.7091 35.2876L17.0115 35.9858L15.0848 35.4996L16.4596 34.9399L18.6225 33.817L21.4143 32.5123H23.0337H23.8987C24.0093 32.5123 24.1111 32.4516 24.164 32.3546L27.2445 26.7044L27.8973 27.3103L27.9623 28.9476C27.9688 29.1103 28.1027 29.2379 28.2643 29.2379C28.2683 29.2379 28.2723 29.2376 28.2764 29.2376C28.4432 29.2311 28.5731 29.0903 28.5665 28.9234L28.5091 27.4763H29.2275C29.3944 27.4763 29.5297 27.3408 29.5297 27.1738C29.5297 27.0068 29.3944 26.8712 29.2275 26.8712H28.3132L27.4989 26.1156L27.7951 22.4024L30.6253 20.8088L31.4807 21.6315L31.0469 22.3795C30.9633 22.5239 31.0125 22.7088 31.1568 22.7926C31.2045 22.8204 31.2567 22.8336 31.3081 22.8336C31.4124 22.8336 31.514 22.7795 31.5701 22.6827L32.0352 21.8806H33.4507C33.6176 21.8806 33.7529 21.7451 33.7529 21.578C33.7533 21.4111 33.618 21.2756 33.4509 21.2756ZM9.13532 31.8135L10.6693 32.8935C11.0405 33.1547 11.2868 33.544 11.3627 33.9892C11.4263 34.3623 11.3639 34.7372 11.1861 35.0659L8.27653 33.0179L9.13532 31.8135ZM13.4327 19.8988L13.6095 18.5114C13.8811 18.4124 14.4885 18.2611 14.9809 18.64L14.8523 19.6502C14.8419 19.7302 14.8643 19.8112 14.9141 19.8746L16.6184 22.0496C16.7388 22.2035 16.7916 22.3944 16.7673 22.5876C16.7429 22.7815 16.6435 22.9544 16.4881 23.0742C16.1668 23.3195 15.7035 23.2615 15.4555 22.9432L13.6248 20.5967C13.4689 20.3964 13.4009 20.1488 13.4327 19.8988ZM13.3789 15.1462C13.8288 14.8 14.3871 14.6498 14.9513 14.7252C16.0969 14.8768 16.9108 15.9266 16.7659 17.0646L16.3063 20.6707L15.4681 19.6011L15.7921 17.0563C15.8133 16.891 15.6961 16.7394 15.5305 16.7184C15.3631 16.6991 15.2135 16.8142 15.1925 16.9802L15.0649 17.9818C14.5732 17.7344 14.0581 17.771 13.6931 17.8572L13.8461 16.6551C13.8673 16.4898 13.7501 16.3382 13.5845 16.3172C13.4169 16.2979 13.2675 16.413 13.2465 16.579L12.8333 19.8222C12.8172 19.9484 12.8217 20.0732 12.836 20.1966C12.3269 20.1743 12.1403 20.0978 12.1204 20.0888C12.1181 20.0875 12.1155 20.0876 12.1132 20.0863L12.5793 16.5351C12.6507 15.9818 12.9345 15.4883 13.3789 15.1462ZM13.7532 23.9411C12.5408 23.5886 11.7793 22.401 11.9625 21.1552C11.9715 21.1208 11.9816 21.087 11.9863 21.051L12.0328 20.6963C12.2181 20.749 12.5335 20.8012 13.0453 20.8066C13.078 20.8612 13.1079 20.9172 13.1477 20.9683L14.9784 23.3152C15.242 23.6531 15.6384 23.8303 16.0392 23.8303C16.3249 23.8303 16.6129 23.74 16.8563 23.5538C17.1408 23.3346 17.3223 23.0184 17.3671 22.6634C17.3679 22.6568 17.3668 22.6503 17.3676 22.6436L19.2767 23.2908C19.9757 23.5276 20.4759 24.152 20.5511 24.8806L21.0585 29.9487H19.0809L18.59 25.5426C18.5764 25.4212 18.4912 25.3198 18.374 25.2856L13.7532 23.9411ZM21.3473 31.9074H19.1129V30.5538H21.0753C21.8853 30.5538 22.5615 31.138 22.7039 31.9074H21.3473Z" fill="#F47B3D"/>
<path d="M37.3309 17.5425L36.9123 18.009L35.9769 16.4589C35.8907 16.3158 35.7052 16.2696 35.562 16.3562C35.4189 16.4425 35.3731 16.6282 35.4593 16.7712L36.4132 18.3521L34.7483 18.9328C34.5907 18.9876 34.5073 19.1601 34.5624 19.318C34.6059 19.4426 34.7228 19.5208 34.8479 19.5208C34.8808 19.5208 34.9144 19.5152 34.9475 19.5037L36.964 18.8004C36.9675 18.7992 36.9697 18.796 36.9731 18.7948C36.9965 18.7857 37.0163 18.7698 37.0372 18.7548C37.0523 18.7438 37.0689 18.7358 37.0819 18.7224C37.0841 18.72 37.0875 18.7192 37.0896 18.7168L37.7809 17.9461C37.8925 17.8221 37.8821 17.6309 37.7579 17.5193C37.6333 17.4073 37.4423 17.4181 37.3309 17.5425Z" fill="#F47B3D"/>
<path d="M23.8371 17.1205C23.7409 17.1389 23.6595 17.2029 23.6189 17.2921L22.4191 19.9234L19.859 20.5631C19.6971 20.6035 19.5985 20.7678 19.639 20.9295C19.6733 21.067 19.7966 21.1589 19.9321 21.1589C19.9562 21.1589 19.981 21.1559 20.0055 21.1497L22.7071 20.4745C22.7963 20.4522 22.8707 20.3905 22.9088 20.3065L24.1042 17.685L27.2485 17.0834C27.4125 17.0522 27.5201 16.8938 27.4886 16.7298C27.4571 16.5654 27.2982 16.4589 27.135 16.4897L23.8371 17.1205Z" fill="#F47B3D"/>
<path d="M6.95143 28.7582L7.8477 25.2378L9.41223 24.0259C9.54423 23.9235 9.56837 23.7337 9.4661 23.6018C9.36397 23.4693 9.17397 23.4457 9.04197 23.5477L7.3953 24.8235C7.34197 24.8649 7.3041 24.923 7.28757 24.9882L6.4021 28.4663L2.3701 30.2366C2.21717 30.3038 2.1477 30.4819 2.21477 30.6351C2.26463 30.7483 2.37557 30.8159 2.49183 30.8159C2.53237 30.8159 2.5737 30.8077 2.61317 30.7903L6.7801 28.9607C6.8653 28.9233 6.92837 28.8485 6.95143 28.7582Z" fill="#F47B3D"/>
</svg>
