<svg width="24" height="24" viewBox="0 0 24 24" fill="none" xmlns="http://www.w3.org/2000/svg">
<path d="M15.75 17.4609C16.043 17.4414 16.1992 17.2852 16.2188 16.9922V8.55469H13.875C13.6016 8.55469 13.377 8.4668 13.2012 8.29102C13.0254 8.11523 12.9375 7.89062 12.9375 7.61719V5.27344H8.25C7.95703 5.29297 7.80078 5.44922 7.78125 5.74219V16.9922C7.80078 17.2852 7.95703 17.4414 8.25 17.4609H15.75ZM6.375 5.74219C6.39453 5.21484 6.58008 4.77539 6.93164 4.42383C7.2832 4.07227 7.72266 3.88672 8.25 3.86719H13.1133C13.6211 3.86719 14.0605 4.05273 14.4316 4.42383L17.0684 7.06055C17.4395 7.43164 17.625 7.88086 17.625 8.4082V16.9922C17.6055 17.5195 17.4199 17.959 17.0684 18.3105C16.7168 18.6621 16.2773 18.8477 15.75 18.8672H8.25C7.72266 18.8477 7.2832 18.6621 6.93164 18.3105C6.58008 17.959 6.39453 17.5195 6.375 16.9922V5.74219Z" fill="#004053"/>
</svg>
