<svg width="24" height="24" viewBox="0 0 24 24" fill="none" xmlns="http://www.w3.org/2000/svg">
<path d="M18.0938 11.375C18.0938 10.2617 17.8203 9.24609 17.2734 8.32812C16.7461 7.41016 16.0039 6.66797 15.0469 6.10156C14.0898 5.55469 13.0742 5.28125 12 5.28125C10.9258 5.28125 9.91016 5.55469 8.95312 6.10156C7.99609 6.66797 7.25391 7.41016 6.72656 8.32812C6.17969 9.24609 5.90625 10.2617 5.90625 11.375C5.90625 12.4883 6.17969 13.5039 6.72656 14.4219C7.25391 15.3398 7.99609 16.082 8.95312 16.6484C9.91016 17.1953 10.9258 17.4688 12 17.4688C13.0742 17.4688 14.0898 17.1953 15.0469 16.6484C16.0039 16.082 16.7461 15.3398 17.2734 14.4219C17.8203 13.5039 18.0938 12.4883 18.0938 11.375ZM4.5 11.375C4.51953 10.0078 4.85156 8.75781 5.49609 7.625C6.16016 6.49219 7.07812 5.57422 8.25 4.87109C9.44141 4.20703 10.6914 3.875 12 3.875C13.3086 3.875 14.5586 4.20703 15.75 4.87109C16.9219 5.57422 17.8398 6.49219 18.5039 7.625C19.1484 8.75781 19.4805 10.0078 19.5 11.375C19.4805 12.7422 19.1484 13.9922 18.5039 15.125C17.8398 16.2578 16.9219 17.1758 15.75 17.8789C14.5586 18.543 13.3086 18.875 12 18.875C10.6914 18.875 9.44141 18.543 8.25 17.8789C7.07812 17.1758 6.16016 16.2578 5.49609 15.125C4.85156 13.9922 4.51953 12.7422 4.5 11.375ZM9.1875 11.375C9.1875 10.8672 9.31445 10.3984 9.56836 9.96875C9.82227 9.53906 10.1641 9.19727 10.5938 8.94336C11.043 8.68945 11.5117 8.5625 12 8.5625C12.4883 8.5625 12.957 8.68945 13.4062 8.94336C13.8359 9.19727 14.1777 9.53906 14.4316 9.96875C14.6855 10.3984 14.8125 10.8672 14.8125 11.375C14.8125 11.8828 14.6855 12.3516 14.4316 12.7812C14.1777 13.2109 13.8359 13.5527 13.4062 13.8066C12.957 14.0605 12.4883 14.1875 12 14.1875C11.5117 14.1875 11.043 14.0605 10.5938 13.8066C10.1641 13.5527 9.82227 13.2109 9.56836 12.7812C9.31445 12.3516 9.1875 11.8828 9.1875 11.375ZM12.7031 11.375C12.6641 10.9453 12.4297 10.7109 12 10.6719C11.5703 10.7109 11.3359 10.9453 11.2969 11.375C11.3359 11.8047 11.5703 12.0391 12 12.0781C12.4297 12.0391 12.6641 11.8047 12.7031 11.375Z" fill="#CECECE"/>
</svg>
