<svg width="24" height="24" viewBox="0 0 24 24" fill="none" xmlns="http://www.w3.org/2000/svg">
<path d="M17.3613 8.44531C17.8691 7.58594 18.1133 7 18.0938 6.6875C18.0742 6.29688 17.9375 5.96484 17.6836 5.69141C17.4102 5.4375 17.0781 5.30078 16.6875 5.28125C16.2969 5.30078 15.9648 5.4375 15.6914 5.69141C15.4375 5.96484 15.3008 6.29688 15.2812 6.6875C15.2617 7 15.5059 7.58594 16.0137 8.44531C16.2285 8.77734 16.4531 9.08984 16.6875 9.38281C16.9219 9.08984 17.1465 8.77734 17.3613 8.44531ZM17.0098 11.2285C16.8926 11.3652 16.7559 11.4141 16.5996 11.375H14.1094C13.7773 11.375 13.5039 11.4922 13.2891 11.7266C13.0547 11.9414 12.9375 12.2148 12.9375 12.5469C12.9375 12.8789 13.0547 13.1523 13.2891 13.3672C13.5039 13.6016 13.7773 13.7188 14.1094 13.7188H16.9219C17.6445 13.7383 18.25 13.9922 18.7383 14.4805C19.2266 14.9688 19.4805 15.5742 19.5 16.2969C19.4805 17.0195 19.2266 17.625 18.7383 18.1133C18.25 18.6016 17.6445 18.8555 16.9219 18.875H8.60156C8.85547 18.582 9.14844 18.2207 9.48047 17.791C9.55859 17.6934 9.63672 17.5859 9.71484 17.4688H16.9219C17.2539 17.4688 17.5273 17.3516 17.7422 17.1172C17.9766 16.9023 18.0938 16.6289 18.0938 16.2969C18.0938 15.9648 17.9766 15.6914 17.7422 15.4766C17.5273 15.2422 17.2539 15.125 16.9219 15.125H14.1094C13.3867 15.1055 12.7812 14.8516 12.293 14.3633C11.8047 13.875 11.5508 13.2695 11.5312 12.5469C11.5508 11.8242 11.8047 11.2188 12.293 10.7305C12.7812 10.2422 13.3867 9.98828 14.1094 9.96875H15.3691C14.9785 9.44141 14.6367 8.88477 14.3438 8.29883C14.0508 7.73242 13.8945 7.19531 13.875 6.6875C13.8945 5.88672 14.168 5.22266 14.6953 4.69531C15.2227 4.16797 15.8867 3.89453 16.6875 3.875C17.4883 3.89453 18.1523 4.16797 18.6797 4.69531C19.207 5.22266 19.4805 5.88672 19.5 6.6875C19.4805 7.19531 19.3242 7.74219 19.0312 8.32812C18.7188 8.91406 18.377 9.4707 18.0059 9.99805C17.6152 10.5059 17.2832 10.916 17.0098 11.2285ZM7.98633 15.8281C8.49414 15.0469 8.73828 14.5 8.71875 14.1875C8.69922 13.7969 8.5625 13.4648 8.30859 13.1914C8.03516 12.9375 7.70312 12.8008 7.3125 12.7812C6.92188 12.8008 6.58984 12.9375 6.31641 13.1914C6.0625 13.4648 5.92578 13.7969 5.90625 14.1875C5.88672 14.5 6.13086 15.0469 6.63867 15.8281C6.85352 16.1602 7.07812 16.4727 7.3125 16.7656C7.54688 16.4727 7.77148 16.1602 7.98633 15.8281ZM8.54297 17.4688C8.32812 17.7422 8.13281 17.9766 7.95703 18.1719C7.83984 18.2891 7.74219 18.3965 7.66406 18.4941C7.66406 18.4941 7.66406 18.5039 7.66406 18.5234C7.64453 18.5234 7.63477 18.5234 7.63477 18.5234C7.41992 18.7188 7.20508 18.7188 6.99023 18.5234C6.73633 18.25 6.41406 17.8691 6.02344 17.3809C5.63281 16.8926 5.28125 16.3652 4.96875 15.7988C4.67578 15.2324 4.51953 14.6953 4.5 14.1875C4.51953 13.3867 4.79297 12.7227 5.32031 12.1953C5.84766 11.668 6.51172 11.3945 7.3125 11.375C8.11328 11.3945 8.77734 11.668 9.30469 12.1953C9.83203 12.7227 10.1055 13.3867 10.125 14.1875C10.1055 14.7148 9.93945 15.2715 9.62695 15.8574C9.29492 16.4434 8.93359 16.9805 8.54297 17.4688Z" fill="#CECECE"/>
</svg>
