<svg width="12" height="11" viewBox="0 0 12 11" fill="none" xmlns="http://www.w3.org/2000/svg">
    <path
        d="M4.84766 0.640625C5.12109 0.380208 5.44661 0.25 5.82422 0.25C6.22786 0.263021 6.56641 0.39974 6.83984 0.660156C7.10026 0.933594 7.23698 1.27214 7.25 1.67578C7.25 2.05339 7.11328 2.38542 6.83984 2.67188L2.48438 7.02734C2.32812 7.18359 2.25 7.36589 2.25 7.57422C2.25 7.80859 2.32812 7.9974 2.48438 8.14062C2.6276 8.29688 2.81641 8.375 3.05078 8.375C3.25911 8.375 3.44141 8.29688 3.59766 8.14062L8.57812 3.16016C8.86458 2.88672 9.19661 2.75 9.57422 2.75C9.97786 2.76302 10.3164 2.89974 10.5898 3.16016C10.8503 3.43359 10.987 3.77214 11 4.17578C11 4.55339 10.8633 4.88542 10.5898 5.17188L8.24609 7.51562C7.9987 7.76302 7.875 8.05599 7.875 8.39453C7.88802 8.74609 8.00521 9.03906 8.22656 9.27344C8.46094 9.49479 8.75391 9.61198 9.10547 9.625C9.27474 9.625 9.4375 9.58594 9.59375 9.50781L10.5508 9.03906C10.7331 8.96094 10.8698 9.00651 10.9609 9.17578C11.0391 9.35807 10.9935 9.49479 10.8242 9.58594L9.86719 10.0742C9.63281 10.1914 9.37891 10.25 9.10547 10.25C8.58464 10.237 8.14844 10.0547 7.79688 9.70312C7.44531 9.35156 7.26302 8.91536 7.25 8.39453C7.26302 7.88672 7.44531 7.45052 7.79688 7.08594L10.1406 4.72266C10.2969 4.56641 10.375 4.38411 10.375 4.17578C10.375 3.94141 10.2969 3.7526 10.1406 3.60938C9.9974 3.45312 9.80859 3.375 9.57422 3.375C9.36589 3.375 9.18359 3.45312 9.02734 3.60938L4.04688 8.58984C3.76042 8.86328 3.42839 9 3.05078 9C2.64714 8.98698 2.30859 8.85026 2.03516 8.58984C1.77474 8.31641 1.63802 7.97786 1.625 7.57422C1.625 7.19661 1.76172 6.86458 2.03516 6.57812L6.39062 2.22266C6.54688 2.06641 6.625 1.88411 6.625 1.67578C6.625 1.44141 6.54688 1.2526 6.39062 1.10938C6.2474 0.953125 6.05859 0.875 5.82422 0.875C5.60286 0.875 5.41406 0.946615 5.25781 1.08984L1.52734 4.54688C1.37109 4.66406 1.22135 4.65755 1.07812 4.52734C0.960938 4.37109 0.967448 4.22135 1.09766 4.07812L4.84766 0.640625Z"
        fill="#F47B3D" />
</svg>
    