<svg xmlns="http://www.w3.org/2000/svg" width="20.886" height="19.741" viewBox="0 0 20.886 19.741">
  <g id="Icon_akar-people-group" data-name="Icon akar-people-group" transform="translate(-1.036 -2)" opacity="0.36">
    <path id="Path_382" data-name="Path 382" d="M19.284,24.877l-.568-4.545A2.661,2.661,0,0,0,16.074,18H14.119a2.661,2.661,0,0,0-2.64,2.331l-.569,4.545a1.774,1.774,0,0,0,1.762,1.994h4.85a1.774,1.774,0,0,0,1.761-1.994Z" transform="translate(-3.619 -6.129)" fill="none" stroke="#000" stroke-linecap="round" stroke-linejoin="round" stroke-width="2"/>
    <path id="Path_383" data-name="Path 383" d="M18.822,5.661A2.661,2.661,0,1,1,16.161,3,2.661,2.661,0,0,1,18.822,5.661Z" transform="translate(-4.682)" fill="none" stroke="#000" stroke-width="2"/>
    <path id="Path_384" data-name="Path 384" d="M6.548,12.274A1.774,1.774,0,1,1,4.774,10.5,1.774,1.774,0,0,1,6.548,12.274Z" transform="translate(-0.392 -3.065)" fill="none" stroke="#000" stroke-width="2"/>
    <path id="Path_385" data-name="Path 385" d="M30.548,12.274A1.774,1.774,0,1,1,28.774,10.5,1.774,1.774,0,0,1,30.548,12.274Z" transform="translate(-10.199 -3.065)" fill="none" stroke="#000" stroke-width="2"/>
    <path id="Path_386" data-name="Path 386" d="M4.382,21H4.111a1.774,1.774,0,0,0-1.75,1.483l-.3,1.774a1.774,1.774,0,0,0,1.75,2.066H7.044M18.575,21h.271a1.774,1.774,0,0,1,1.75,1.483l.3,1.774a1.774,1.774,0,0,1-1.75,2.066H15.914" transform="translate(0 -7.355)" fill="none" stroke="#000" stroke-linecap="round" stroke-linejoin="round" stroke-width="2"/>
  </g>
</svg>
