<svg width="24" height="24" viewBox="0 0 24 24" fill="none" xmlns="http://www.w3.org/2000/svg">
<path d="M6.3457 14.9785L8.39648 17.0293C8.61133 17.2051 8.82617 17.2051 9.04102 17.0293L17.6543 8.41602C17.8301 8.20117 17.8301 7.98633 17.6543 7.77148L15.6035 5.7207C15.3887 5.54492 15.1738 5.54492 14.959 5.7207L13.7871 6.89258L14.666 7.77148C14.8613 7.98633 14.8613 8.20117 14.666 8.41602C14.4512 8.61133 14.2363 8.61133 14.0215 8.41602L13.1426 7.53711L11.9121 8.76758L12.791 9.64648C12.9863 9.86133 12.9863 10.0762 12.791 10.291C12.5762 10.4863 12.3613 10.4863 12.1465 10.291L11.2676 9.41211L10.0371 10.6426L10.916 11.5215C11.1113 11.7363 11.1113 11.9512 10.916 12.166C10.7012 12.3613 10.4863 12.3613 10.2715 12.166L9.39258 11.2871L8.16211 12.5176L9.04102 13.3965C9.23633 13.6113 9.23633 13.8262 9.04102 14.041C8.82617 14.2363 8.61133 14.2363 8.39648 14.041L7.51758 13.1621L6.3457 14.334C6.16992 14.5488 6.16992 14.7637 6.3457 14.9785ZM7.40039 18.0254L5.34961 15.9746C4.99805 15.584 4.82227 15.1445 4.82227 14.6562C4.82227 14.1484 4.99805 13.709 5.34961 13.3379L13.9629 4.72461C14.3535 4.37305 14.793 4.19727 15.2812 4.19727C15.7891 4.19727 16.2285 4.37305 16.5996 4.72461L18.6504 6.77539C19.002 7.16602 19.1777 7.60547 19.1777 8.09375C19.1777 8.60156 19.002 9.04102 18.6504 9.41211L10.0371 18.0254C9.64648 18.377 9.20703 18.5527 8.71875 18.5527C8.21094 18.5527 7.77148 18.377 7.40039 18.0254Z" fill="#004053"/>
</svg>
