<svg width="90" height="90" viewBox="0 0 90 90" fill="none" xmlns="http://www.w3.org/2000/svg">
<path d="M3.73499 38.4389V83.1779C3.73499 85.2029 5.38199 86.8499 7.41599 86.8499H82.584C84.609 86.8499 86.256 85.2029 86.256 83.1779V38.5199C86.256 38.5109 86.256 38.5019 86.256 38.4929C86.274 38.1239 86.13 37.7819 85.878 37.5209C85.869 37.5119 85.86 37.4939 85.851 37.4849C85.833 37.4669 85.824 37.4489 85.806 37.4309L48.906 4.6349C46.683 2.6549 43.326 2.6549 41.103 4.6349L4.20299 37.4309C4.19399 37.4399 4.19399 37.4399 4.18499 37.4489C4.12199 37.5119 4.05899 37.5749 4.00499 37.6469C4.00499 37.6559 3.99599 37.6559 3.99599 37.6649C3.83399 37.8809 3.73499 38.1419 3.73499 38.4389ZM83.556 82.7729L56.286 61.9649L83.556 41.1659V82.7729ZM80.91 84.1499H9.08999L36.747 63.0449L38.025 62.0729C42.129 58.9409 47.871 58.9409 51.975 62.0729L80.91 84.1499ZM6.43499 82.7819V41.1659L33.705 61.9739L6.43499 82.7819ZM42.885 6.6509C44.091 5.5799 45.9 5.5799 47.106 6.6509L82.791 38.3579L54.063 60.2729L53.613 59.9309C48.546 56.0609 41.463 56.0609 36.396 59.9309L35.946 60.2729L7.20899 38.3579L42.885 6.6509Z" fill="#004053"/>
<path d="M45 51.0299C51.939 51.0299 57.591 45.3779 57.591 38.4389C57.591 31.4999 51.948 25.8479 45 25.8479C38.052 25.8479 32.409 31.4999 32.409 38.4389C32.409 45.3779 38.061 51.0299 45 51.0299ZM45 28.5479C50.454 28.5479 54.891 32.9849 54.891 38.4389C54.891 43.8929 50.454 48.3299 45 48.3299C39.546 48.3299 35.109 43.8929 35.109 38.4389C35.109 32.9849 39.546 28.5479 45 28.5479Z" fill="#004053"/>
<path d="M42.129 43.0559C42.381 43.3619 42.75 43.5419 43.146 43.5509H43.182C43.56 43.5509 43.929 43.3889 44.181 43.1099L50.985 35.5679C51.489 35.0189 51.444 34.1639 50.886 33.6599C50.337 33.1559 49.482 33.2009 48.978 33.7589L43.227 40.1219L41.067 37.4669C40.599 36.8909 39.744 36.8009 39.168 37.2689C38.592 37.7369 38.502 38.5919 38.97 39.1679L42.129 43.0559Z" fill="#004053"/>
<path d="M50.742 72.1079H39.258C38.511 72.1079 37.908 72.7109 37.908 73.4579C37.908 74.2049 38.511 74.8079 39.258 74.8079H50.733C51.48 74.8079 52.083 74.2049 52.083 73.4579C52.083 72.7109 51.48 72.1079 50.742 72.1079Z" fill="#004053"/>
<path d="M32.319 79.2001C32.319 79.9471 32.922 80.5501 33.669 80.5501H56.331C57.078 80.5501 57.681 79.9471 57.681 79.2001C57.681 78.4531 57.078 77.8501 56.331 77.8501H33.669C32.922 77.8501 32.319 78.4531 32.319 79.2001Z" fill="#004053"/>
</svg>
