<svg width="12" height="8" viewBox="0 0 12 8" fill="none" xmlns="http://www.w3.org/2000/svg">
<path d="M11.1493 0.941981C10.9766 0.848775 10.7816 0.804884 10.5856 0.81511C10.3896 0.825337 10.2002 0.889287 10.0381 0.999961L7.97608 2.38378V1.28346C7.97573 0.980466 7.85522 0.689981 7.64097 0.475732C7.42672 0.261483 7.13624 0.140968 6.83324 0.140625H1.50001C1.19702 0.140968 0.906534 0.261483 0.692285 0.475732C0.478036 0.689981 0.357521 0.980466 0.357178 1.28346V6.61669C0.357521 6.91968 0.478036 7.21017 0.692285 7.42442C0.906534 7.63867 1.19702 7.75918 1.50001 7.75952H6.83324C7.13624 7.75918 7.42672 7.63867 7.64097 7.42442C7.85522 7.21017 7.97573 6.91968 7.97608 6.61669V5.51629L10.0385 6.90019C10.2002 7.01161 10.3896 7.07601 10.5857 7.08625C10.7818 7.09648 10.9769 7.05215 11.1493 6.95817C11.3457 6.84913 11.5086 6.68869 11.6207 6.49407C11.7328 6.29944 11.7898 6.07798 11.7855 5.85343V2.04687C11.7898 1.8223 11.7328 1.6008 11.6208 1.40615C11.5087 1.21149 11.3457 1.05103 11.1493 0.941981ZM7.21419 6.61669C7.21407 6.71768 7.17389 6.81451 7.10248 6.88592C7.03106 6.95734 6.93424 6.99751 6.83324 6.99763H1.50001C1.39902 6.99751 1.30219 6.95734 1.23078 6.88592C1.15936 6.81451 1.11919 6.71768 1.11907 6.61669V1.28346C1.11919 1.18246 1.15936 1.08564 1.23078 1.01422C1.30219 0.94281 1.39902 0.902636 1.50001 0.902515H6.83324C6.93424 0.902636 7.03106 0.94281 7.10248 1.01422C7.17389 1.08564 7.21407 1.18246 7.21419 1.28346V6.61669ZM11.0236 5.85327C11.0278 5.9398 11.0083 6.02581 10.9672 6.1021C10.9262 6.17838 10.8652 6.24207 10.7907 6.28633C10.7401 6.31496 10.6823 6.32843 10.6242 6.32514C10.5661 6.32184 10.5102 6.30192 10.4631 6.26774L7.97608 4.5989V3.30125L10.4627 1.63271C10.51 1.59903 10.566 1.57942 10.624 1.57613C10.6821 1.57284 10.7398 1.58601 10.7907 1.61412C10.8651 1.65836 10.9261 1.722 10.9671 1.79822C11.0082 1.87445 11.0277 1.9604 11.0236 2.04687V5.85327Z" fill="#004053"/>
</svg>
