<svg width="157" height="117" viewBox="0 0 157 117" fill="none" xmlns="http://www.w3.org/2000/svg">
<g clip-path="url(#clip0_2661_11441)">
<path d="M33.7722 65.1341L21.9541 53.3737L33.7722 41.6089C58.0464 17.4533 97.4067 17.4533 121.685 41.6089L133.503 53.3693L121.685 65.1298C97.4111 89.2897 58.0508 89.2897 33.7722 65.1341Z" fill="white"/>
<path d="M77.7287 85.4319C60.5411 85.4319 44.3801 78.7712 32.2256 66.676L18.8564 53.3722L32.2256 40.0683C44.3801 27.9731 60.5411 21.3125 77.7287 21.3125C94.9164 21.3125 111.077 27.9731 123.232 40.0683L136.601 53.3722L123.232 66.676C111.082 78.7712 94.9207 85.4319 77.7287 85.4319ZM25.0517 53.3722L35.3232 63.5935C46.652 74.867 61.712 81.0712 77.7287 81.0712C93.7455 81.0712 108.81 74.8627 120.134 63.5935L130.406 53.3722L120.134 43.1508C108.805 31.8773 93.7455 25.6732 77.7287 25.6732C61.7076 25.6732 46.6476 31.8817 35.3232 43.1508L25.0517 53.3722Z" fill="#004053"/>
<path d="M84.8377 82.4147C100.951 78.5084 110.831 62.3432 106.905 46.3088C102.98 30.2744 86.7354 20.4426 70.6224 24.3489C54.5093 28.2552 44.6292 44.4203 48.5547 60.4547C52.4801 76.4892 68.7246 86.3209 84.8377 82.4147Z" fill="#EAFAFF"/>
<path d="M77.7287 83.9886C60.7682 83.9886 46.9709 70.2586 46.9709 53.381C46.9709 36.5034 60.7682 22.7734 77.7287 22.7734C94.6892 22.7734 108.486 36.5034 108.486 53.381C108.486 70.2586 94.6892 83.9886 77.7287 83.9886ZM77.7287 24.2299C61.5765 24.2299 48.4302 37.3077 48.4302 53.3853C48.4302 69.463 61.5721 82.5408 77.7287 82.5408C93.8809 82.5408 107.027 69.463 107.027 53.3853C107.027 37.3077 93.8853 24.2299 77.7287 24.2299Z" fill="#004053"/>
<path d="M81.2866 68.6791C89.7796 66.722 95.0702 58.2841 93.1034 49.8325C91.1366 41.381 82.6573 36.1163 74.1643 38.0734C65.6713 40.0306 60.3808 48.4685 62.3475 56.92C64.3143 65.3716 72.7936 70.6363 81.2866 68.6791Z" fill="#004053"/>
<path d="M88.057 52.5836C91.7874 52.5836 94.8114 49.5743 94.8114 45.8621C94.8114 42.1499 91.7874 39.1406 88.057 39.1406C84.3266 39.1406 81.3025 42.1499 81.3025 45.8621C81.3025 49.5743 84.3266 52.5836 88.057 52.5836Z" fill="white"/>
<path d="M88.0571 52.858C84.1818 52.858 81.0273 49.719 81.0273 45.8626C81.0273 42.0062 84.1818 38.8672 88.0571 38.8672C91.9324 38.8672 95.0868 42.0062 95.0868 45.8626C95.0868 49.7233 91.9324 52.858 88.0571 52.858ZM88.0571 39.415C84.4832 39.415 81.5735 42.3105 81.5735 45.8669C81.5735 49.4233 84.4832 52.3189 88.0571 52.3189C91.6309 52.3189 94.5407 49.4233 94.5407 45.8669C94.5407 42.3062 91.6309 39.415 88.0571 39.415Z" fill="#004053"/>
<path d="M72.4991 63.7398C73.9445 63.7398 75.1161 62.5738 75.1161 61.1355C75.1161 59.6972 73.9445 58.5312 72.4991 58.5312C71.0538 58.5312 69.8821 59.6972 69.8821 61.1355C69.8821 62.5738 71.0538 63.7398 72.4991 63.7398Z" fill="white"/>
<path d="M72.4992 63.8469C70.9963 63.8469 69.7773 62.6295 69.7773 61.1383C69.7773 59.647 71.0007 58.4297 72.4992 58.4297C74.0022 58.4297 75.2211 59.647 75.2211 61.1383C75.2211 62.6295 74.0022 63.8469 72.4992 63.8469ZM72.4992 58.6384C71.1143 58.6384 69.9871 59.7601 69.9871 61.1383C69.9871 62.5165 71.1143 63.6382 72.4992 63.6382C73.8842 63.6382 75.0114 62.5165 75.0114 61.1383C75.0114 59.7557 73.8842 58.6384 72.4992 58.6384Z" fill="#004053"/>
<g opacity="0.25">
<path d="M107.176 11.6606V21.8602C107.176 22.9863 108.093 23.9036 109.229 23.9036H132.848C133.98 23.9036 134.901 22.9906 134.901 21.8602V11.6606C134.901 10.5345 133.984 9.61719 132.848 9.61719H109.225C108.093 9.62154 107.176 10.5345 107.176 11.6606Z" fill="#004053"/>
</g>
<path d="M135.714 10.2385V21.6685C135.714 22.4555 135.072 23.0946 134.281 23.0946H109.43C108.64 23.0946 107.997 22.4555 107.997 21.6685V10.2385C107.997 9.45161 108.64 8.8125 109.43 8.8125H134.281C135.072 8.8125 135.714 9.45161 135.714 10.2385Z" fill="white"/>
<path d="M135.382 22.7652C135.089 23.0565 134.696 23.2217 134.281 23.2217H109.43C108.57 23.2217 107.871 22.5261 107.871 21.6696V10.2396C107.871 9.82659 108.032 9.4353 108.325 9.14401C108.618 8.85271 109.011 8.6875 109.426 8.6875H134.277C134.692 8.6875 135.085 8.84836 135.378 9.13966C135.671 9.43095 135.832 9.82224 135.832 10.2353V21.6653C135.837 22.0827 135.675 22.4739 135.382 22.7652ZM108.5 9.31791C108.251 9.56573 108.115 9.8918 108.115 10.2396V21.6696C108.115 22.387 108.705 22.9739 109.426 22.9739H134.277C134.626 22.9739 134.954 22.8391 135.203 22.5913C135.452 22.3435 135.588 22.0174 135.588 21.6696V10.2396C135.588 9.8918 135.452 9.56573 135.203 9.31791C134.954 9.07009 134.626 8.93532 134.277 8.93532H109.426C109.076 8.93532 108.749 9.07009 108.5 9.31791Z" fill="#004053"/>
<path d="M111.229 9.64871V22.2656H132.878V9.64871L111.229 9.64871Z" fill="#EAFAFF"/>
<path d="M132.936 22.3202H111.174V9.58594H132.936V22.3202ZM111.287 22.2029H132.818V9.69898H111.287V22.2029Z" fill="#004053"/>
<path d="M109.99 14.523V16.9969C109.99 17.1012 109.906 17.1838 109.802 17.1838C109.697 17.1838 109.614 17.1012 109.614 16.9969V14.523C109.614 14.4187 109.697 14.3361 109.802 14.3361C109.906 14.3317 109.99 14.4187 109.99 14.523Z" fill="white"/>
<path d="M109.976 17.1682C109.928 17.216 109.867 17.2421 109.802 17.2421C109.666 17.2421 109.557 17.1334 109.557 16.9987V14.5248C109.557 14.3944 109.67 14.277 109.802 14.2814C109.937 14.2814 110.046 14.3901 110.046 14.5248V16.9987C110.046 17.0595 110.02 17.1204 109.976 17.1682ZM109.705 14.4248C109.679 14.4509 109.666 14.4814 109.666 14.5205V16.9943C109.666 17.0682 109.727 17.1247 109.797 17.1247C109.867 17.1247 109.928 17.0639 109.928 16.9943V14.5205C109.928 14.4466 109.867 14.3901 109.797 14.3901C109.767 14.3857 109.732 14.3988 109.705 14.4248Z" fill="#004053"/>
<g opacity="0.25">
<path d="M27.4503 23.3473C28.0095 23.3473 28.5513 23.3951 29.0843 23.482C30.2945 20.9821 33.0688 19.2344 36.2975 19.2344C40.6403 19.2344 44.1617 22.3951 44.1617 26.295C44.1617 26.3037 44.1617 26.3124 44.1617 26.3254C47.8273 26.6254 50.7021 29.3949 50.7021 32.7643C50.7021 36.3337 47.4778 39.2293 43.502 39.2293H27.1357V39.2249C22.3953 39.0771 18.6074 35.5816 18.6074 31.2905C18.6074 26.9037 22.5657 23.3473 27.4503 23.3473Z" fill="#004053"/>
</g>
<path d="M18.1313 29.7592C18.1313 25.3724 22.0897 21.816 26.9742 21.816C27.5334 21.816 28.0752 21.8638 28.6082 21.9508C29.8184 19.4509 32.5927 17.7031 35.8214 17.7031C40.1642 17.7031 43.6856 20.8639 43.6856 24.7637C43.6856 24.7724 43.6856 24.7811 43.6856 24.7942C47.3512 25.0942 50.226 27.8636 50.226 31.2331C50.226 34.8025 47.0017 37.698 43.0259 37.698H26.664V37.6937C21.9236 37.5459 18.1313 34.0503 18.1313 29.7592Z" fill="white"/>
<path d="M43.0259 38.0447H26.3188V38.0229C21.5085 37.7186 17.7905 34.1448 17.7905 29.7624C17.7905 25.1973 21.9105 21.4801 26.9785 21.4801C27.4591 21.4801 27.9397 21.5149 28.4159 21.5801C29.7747 19.015 32.6539 17.3672 35.8214 17.3672C40.2428 17.3672 43.8603 20.5366 44.022 24.4887C47.775 24.9321 50.5668 27.7842 50.5668 31.2362C50.5668 34.9883 47.1852 38.0447 43.0259 38.0447ZM26.8431 37.3621H43.0215C46.8051 37.3621 49.8808 34.6144 49.8808 31.2362C49.8808 28.0494 47.2026 25.4278 43.655 25.1365L43.3404 25.1104V24.7973C43.3404 21.0627 39.9676 18.0454 35.817 18.0454C32.8155 18.0454 30.1067 19.6367 28.914 22.0974L28.8004 22.3279L28.547 22.2844C28.0271 22.1974 27.4984 22.154 26.9698 22.154C22.2819 22.154 18.4677 25.5625 18.4677 29.7537C18.4677 33.8666 22.0678 37.2056 26.6683 37.3491L26.8431 37.3621Z" fill="#004053"/>
<g opacity="0.25">
<path d="M64.5957 1.01562C66.6535 1.01562 68.4622 2.08515 69.4933 3.68944C69.8953 3.57205 70.3234 3.50684 70.7603 3.50684C73.2812 3.50684 75.3216 5.54154 75.3216 8.0458C75.3216 10.5501 73.2769 12.5848 70.7603 12.5848H64.5957C61.3844 12.5848 58.7805 9.99355 58.7805 6.79802C58.7805 3.60683 61.3844 1.01562 64.5957 1.01562Z" fill="#004053"/>
</g>
<path d="M63.6911 0.335938C65.7489 0.335938 67.5577 1.40546 68.5888 3.00975C68.9907 2.89236 69.4189 2.82715 69.8558 2.82715C72.3767 2.82715 74.417 4.86186 74.417 7.36611C74.417 9.87037 72.3723 11.9051 69.8558 11.9051H63.6911C60.4799 11.9051 57.876 9.31387 57.876 6.11833C57.876 2.92715 60.4799 0.335938 63.6911 0.335938Z" fill="white"/>
<path d="M69.8558 12.2508H63.6911C60.2964 12.2508 57.5396 9.50311 57.5396 6.12932C57.5396 2.75119 60.3008 0.0078125 63.6911 0.0078125C65.714 0.0078125 67.5839 0.986037 68.7373 2.6338C69.1087 2.54685 69.4844 2.50337 69.8601 2.50337C72.5602 2.50337 74.7621 4.69025 74.7621 7.38145C74.7578 10.064 72.5602 12.2508 69.8558 12.2508ZM63.6911 0.677353C60.6721 0.677353 58.2124 3.12074 58.2124 6.12932C58.2124 9.13791 60.6678 11.5813 63.6911 11.5813H69.8558C72.1844 11.5813 74.0806 9.69441 74.0806 7.3771C74.0806 5.0598 72.1844 3.17291 69.8558 3.17291C69.4626 3.17291 69.0693 3.22943 68.6805 3.34247L68.4358 3.41203L68.3004 3.199C67.2868 1.61645 65.5654 0.677353 63.6911 0.677353Z" fill="#004053"/>
<g opacity="0.25">
<path d="M117.894 71.0174L99.9136 89.0625L124.888 113.705L142.869 95.6599L117.894 71.0174Z" fill="#004053"/>
</g>
<path d="M116.36 71.3455L98.3799 89.3906L123.354 114.033L141.335 95.9881L116.36 71.3455Z" fill="white"/>
<path d="M123.354 114.363L98.0403 89.3897L116.355 71.0078L141.669 95.9808L123.354 114.363ZM98.7131 89.3854L123.354 113.698L141.001 95.9851L116.359 71.673L98.7131 89.3854Z" fill="#004053"/>
<path d="M115.95 75.7153L102.977 88.7344L103.75 89.4966L116.722 76.4776L115.95 75.7153Z" fill="white"/>
<path d="M103.751 89.6594L102.811 88.7333L102.894 88.6507L115.949 75.5469L116.888 76.4773L116.805 76.5599L103.751 89.6594ZM103.143 88.729L103.746 89.3246L116.552 76.4729L115.949 75.8773L103.143 88.729Z" fill="#EAFAFF"/>
<path d="M118.788 77.2717L106.059 90.0469L106.465 90.4479L119.194 77.6727L118.788 77.2717Z" fill="#EAFAFF"/>
<path d="M119.516 77.9905L106.787 90.7656L107.193 91.1666L119.923 78.3915L119.516 77.9905Z" fill="#EAFAFF"/>
<path d="M120.245 78.7014L107.515 91.4766L107.922 91.8776L120.651 79.1024L120.245 78.7014Z" fill="#EAFAFF"/>
<path d="M120.97 79.428L108.241 92.2031L108.647 92.6041L121.377 79.829L120.97 79.428Z" fill="#EAFAFF"/>
<path d="M105.426 90.6824L104.565 91.5469L105.378 92.3489L106.239 91.4845L105.426 90.6824Z" fill="#EAFAFF"/>
<path d="M122.061 80.4983L109.332 93.2734L109.738 93.6745L122.467 80.8993L122.061 80.4983Z" fill="#EAFAFF"/>
<path d="M122.79 81.2248L110.06 94L110.467 94.401L123.196 81.6259L122.79 81.2248Z" fill="#EAFAFF"/>
<path d="M123.518 81.9358L110.789 94.7109L111.195 95.112L123.924 82.3368L123.518 81.9358Z" fill="#EAFAFF"/>
<path d="M124.246 82.6545L111.517 95.4297L111.924 95.8307L124.653 83.0555L124.246 82.6545Z" fill="#EAFAFF"/>
<path d="M108.699 93.9168L107.838 94.7812L108.651 95.5833L109.512 94.7188L108.699 93.9168Z" fill="#EAFAFF"/>
<path d="M125.334 83.7249L112.605 96.5L113.011 96.901L125.741 84.1259L125.334 83.7249Z" fill="#EAFAFF"/>
<path d="M126.066 84.4436L113.336 97.2188L113.743 97.6198L126.472 84.8446L126.066 84.4436Z" fill="#EAFAFF"/>
<path d="M126.791 85.1623L114.062 97.9375L114.468 98.3385L127.198 85.5634L126.791 85.1623Z" fill="#EAFAFF"/>
<path d="M127.52 85.8811L114.79 98.6562L115.197 99.0573L127.926 86.2821L127.52 85.8811Z" fill="#EAFAFF"/>
<path d="M111.973 97.1434L111.111 98.0078L111.924 98.8098L112.786 97.9454L111.973 97.1434Z" fill="#EAFAFF"/>
<path d="M128.608 86.9592L115.878 99.7344L116.285 100.135L129.014 87.3602L128.608 86.9592Z" fill="#EAFAFF"/>
<path d="M129.336 87.678L116.607 100.453L117.013 100.854L129.742 88.079L129.336 87.678Z" fill="#EAFAFF"/>
<path d="M130.065 88.3967L117.335 101.172L117.742 101.573L130.471 88.7977L130.065 88.3967Z" fill="#EAFAFF"/>
<path d="M130.793 89.1155L118.063 101.891L118.47 102.292L131.199 89.5165L130.793 89.1155Z" fill="#EAFAFF"/>
<path d="M130.793 89.1155L118.063 101.891L118.47 102.292L131.199 89.5165L130.793 89.1155Z" fill="#EAFAFF"/>
<path d="M131.999 90.3026L117.774 104.578L118.348 105.144L132.573 90.8689L131.999 90.3026Z" fill="#EAFAFF"/>
<path d="M133.063 91.3494L118.838 105.625L119.412 106.191L133.636 91.9158L133.063 91.3494Z" fill="#EAFAFF"/>
<path d="M134.124 92.3963L119.899 106.672L120.473 107.238L134.698 92.9626L134.124 92.3963Z" fill="#EAFAFF"/>
<path d="M135.191 93.451L120.966 107.727L121.54 108.293L135.765 94.0173L135.191 93.451Z" fill="#EAFAFF"/>
<path d="M136.252 94.4979L122.027 108.773L122.601 109.34L136.825 95.0642L136.252 94.4979Z" fill="#EAFAFF"/>
<path d="M130.952 101.94L123.092 109.828L123.666 110.394L131.526 102.506L130.952 101.94Z" fill="#EAFAFF"/>
<path d="M115.246 100.378L114.384 101.242L115.197 102.044L116.058 101.18L115.246 100.378Z" fill="#EAFAFF"/>
<path d="M58.3786 94.525L51.3751 85.4297L42.6371 92.112L42.3269 91.8034C41.357 90.8382 40.0637 90.3991 38.7967 90.4817H30.8102C30.7272 90.4817 30.6529 90.4947 30.5786 90.5165C30.4694 90.5512 30.3689 90.6121 30.2903 90.6947C30.1592 90.8251 30.0762 91.0121 30.0762 91.2121C30.0762 91.3773 30.0849 91.5425 30.1112 91.7034C31.7495 90.986 33.7243 91.2773 35.0918 92.5772L27.9092 99.7378C26.1266 101.516 26.1266 104.399 27.9092 106.177L34.2748 112.524C36.0574 114.303 38.9496 114.303 40.7366 112.524L48.6969 104.59C49.7017 103.586 50.143 102.233 50.0119 100.92L58.3786 94.525Z" fill="white"/>
<path d="M37.5078 113.998C36.2496 113.998 35.0699 113.511 34.183 112.624L27.8174 106.276C25.9824 104.45 25.9824 101.472 27.8174 99.646L34.8995 92.5854C34.0869 91.8593 33.0427 91.4637 31.9461 91.4637C31.3301 91.4637 30.7315 91.5898 30.1679 91.8332L30.0019 91.9028L29.9757 91.7246C29.9538 91.5637 29.9407 91.3898 29.9407 91.2159C29.9407 90.9854 30.0325 90.7637 30.1941 90.6029C30.2903 90.5072 30.4082 90.4333 30.5393 90.3942C30.6267 90.3637 30.714 90.3507 30.8145 90.3507H38.8054C38.8972 90.3463 39.002 90.342 39.1025 90.342C40.3608 90.342 41.5404 90.8289 42.4273 91.7159L42.6502 91.9376L51.4013 85.2422L58.5708 94.5549L50.1561 100.989C50.2697 102.368 49.776 103.711 48.793 104.689L40.8326 112.624C39.9457 113.511 38.7617 113.998 37.5078 113.998ZM31.9417 91.1898C33.1563 91.1898 34.3054 91.6506 35.1835 92.481L35.284 92.5767L28.0053 99.8373C26.2751 101.559 26.2751 104.363 28.0053 106.085L34.3709 112.432C35.2097 113.267 36.3195 113.728 37.5035 113.728C38.6875 113.728 39.8016 113.267 40.636 112.432L48.5964 104.498C49.5401 103.559 50.0032 102.263 49.8721 100.937L49.8634 100.863L58.1819 94.5027L51.3445 85.6204L42.6196 92.2941L42.2264 91.9028C41.322 91.0028 40.0812 90.542 38.8011 90.6202H30.8014C30.7359 90.6202 30.6747 90.6289 30.6136 90.6507C30.5262 90.6768 30.4432 90.7289 30.3776 90.7942C30.2684 90.9028 30.2072 91.055 30.2072 91.2159C30.2072 91.3159 30.2116 91.4159 30.2203 91.5115C30.7708 91.2985 31.3475 91.1898 31.9417 91.1898Z" fill="#004053"/>
<path d="M48.1069 108.666C47.22 109.549 45.787 109.549 44.9001 108.666L44.1486 107.918C44.5899 108.357 44.8127 108.94 44.8127 109.518C44.8127 110.096 44.5899 110.675 44.1486 111.114C43.2617 111.996 41.8286 111.996 40.9417 111.114L40.3476 110.522C41.2345 111.405 41.2345 112.835 40.3476 113.718C39.4607 114.601 38.0276 114.601 37.1407 113.718L36.8087 113.388C36.7912 113.405 36.7781 113.418 36.7606 113.435C36.9791 113.792 37.0883 114.201 37.0883 114.605C37.0883 115.183 36.8655 115.757 36.4242 116.2C35.5373 117.083 34.1043 117.083 33.2174 116.2L30.395 113.388C30.3862 113.379 30.3819 113.374 30.3731 113.366L22.4128 105.431C21.0934 104.118 20.7526 102.201 21.3817 100.571C21.4211 100.466 21.4647 100.366 21.5128 100.262L14.304 93.0752L22.8453 84.5625L30.1023 91.7753C30.1416 91.7579 30.1372 91.7144 30.1765 91.697C30.4125 93.4665 31.9372 94.8317 33.7766 94.8273H37.4334L37.7043 95.1012L43.1961 100.575C43.2005 100.579 43.2005 100.579 43.2049 100.584L48.1025 105.462C48.9938 106.353 48.9938 107.783 48.1069 108.666Z" fill="white"/>
<path d="M34.8209 117C34.1786 117 33.5757 116.752 33.1213 116.3L22.3168 105.531C21.0017 104.222 20.5867 102.257 21.2551 100.527C21.2857 100.448 21.3163 100.374 21.3512 100.296L14.1118 93.079L22.8454 84.375L30.1024 91.5878C30.1111 91.5834 30.1155 91.5791 30.1242 91.5747L30.2902 91.5052L30.3121 91.6834C30.5436 93.4008 32.0291 94.6964 33.7723 94.6964H37.4903L37.8005 95.0094L48.1988 105.374C49.1381 106.309 49.1381 107.826 48.1988 108.761C47.7444 109.213 47.1415 109.461 46.4992 109.461C45.8744 109.461 45.2846 109.226 44.8346 108.796C44.9089 109.026 44.9438 109.27 44.9438 109.518C44.9438 110.157 44.6948 110.757 44.2404 111.209C43.7861 111.661 43.1831 111.909 42.5409 111.909C41.9817 111.909 41.453 111.722 41.0249 111.374C41.2957 112.204 41.1035 113.157 40.4394 113.813C39.985 114.265 39.3821 114.513 38.7399 114.513C38.1282 114.513 37.5515 114.287 37.1059 113.874C37.1801 114.109 37.2195 114.356 37.2195 114.604C37.2195 115.243 36.9704 115.843 36.516 116.296C36.0704 116.748 35.4631 117 34.8209 117ZM14.5007 93.079L21.6833 100.24L21.644 100.327C21.5959 100.427 21.5522 100.522 21.5173 100.627C20.8838 102.257 21.277 104.109 22.5178 105.344L33.3223 116.113C33.7243 116.513 34.2616 116.735 34.8296 116.735C35.3976 116.735 35.935 116.513 36.3369 116.113C36.7389 115.713 36.9573 115.178 36.9573 114.613C36.9573 114.226 36.8525 113.843 36.6515 113.513L36.5947 113.417L36.8175 113.204L37.2457 113.63C37.6476 114.03 38.185 114.252 38.753 114.252C39.3209 114.252 39.8583 114.03 40.2603 113.63C41.0904 112.804 41.0904 111.457 40.2603 110.626L40.4525 110.435L41.0467 111.026C41.4486 111.426 41.986 111.648 42.554 111.648C43.122 111.648 43.6594 111.426 44.0613 111.026C44.4633 110.626 44.6861 110.091 44.6861 109.526C44.6861 108.957 44.4633 108.422 44.0613 108.022L44.2535 107.831L45.005 108.578C45.407 108.978 45.9443 109.2 46.5123 109.2C47.0803 109.2 47.6177 108.978 48.0196 108.578C48.8497 107.748 48.8497 106.405 48.0196 105.574L37.3898 94.979H33.7898C31.981 94.979 30.4344 93.692 30.0892 91.953L30.0805 91.9573L22.8498 84.7706L14.5007 93.079Z" fill="#004053"/>
<path d="M18.3627 98.8685L14.8369 94.6904L26.0084 85.3125L29.5386 89.4906L18.3627 98.8685Z" fill="#EAFAFF"/>
<path d="M18.3497 99.0636L14.6448 94.6812L26.026 85.125L29.7309 89.5074L18.3497 99.0636ZM15.0292 94.7116L18.3846 98.681L29.3508 89.477L25.9954 85.5076L15.0292 94.7116Z" fill="#004053"/>
<path d="M16.3705 98.8325L12.2156 94.6935L24.4706 82.4766L28.6255 86.6199L16.3705 98.8325Z" fill="white"/>
<path d="M16.3706 99.0276L12.0234 94.6929L24.4707 82.2891L28.8179 86.6237L16.3706 99.0276ZM12.4079 94.6973L16.3706 98.645L28.4334 86.6237L24.4707 82.676L12.4079 94.6973Z" fill="#004053"/>
<path d="M35.332 92.5277C34.7946 92.0625 34.5237 91.8233 34.1392 91.6233C32.431 90.7495 30.6702 91.319 30.2246 91.4755C30.2333 91.7103 30.4474 92.9711 31.5135 93.932C32.5009 94.8189 33.5145 94.7015 33.7766 94.6971C35.0567 94.6971 36.3368 94.6971 37.617 94.7015C37.1364 94.1233 36.3762 93.4276 35.332 92.5277Z" fill="white"/>
<path d="M20.7265 103.662L21.1285 103.262C21.8625 102.527 23.0596 102.527 23.7936 103.262C24.5275 103.997 24.5275 105.184 23.7936 105.918L23.3916 106.318C22.6576 107.053 21.4605 107.053 20.7265 106.318C19.9925 105.588 19.9925 104.397 20.7265 103.662Z" fill="white"/>
<path d="M22.059 107.008C21.5172 107.008 21.0104 106.8 20.6303 106.417C19.8439 105.63 19.8439 104.356 20.6303 103.569L21.0323 103.169C21.4124 102.787 21.9192 102.578 22.461 102.578C23.0027 102.578 23.5095 102.787 23.8896 103.169C24.676 103.956 24.676 105.23 23.8896 106.017L23.4877 106.417C23.1076 106.8 22.6008 107.008 22.059 107.008ZM22.461 102.852C21.9935 102.852 21.5566 103.035 21.2245 103.361L20.8226 103.761C20.141 104.439 20.141 105.548 20.8226 106.226C21.1546 106.556 21.5915 106.734 22.059 106.734C22.5265 106.734 22.9634 106.552 23.2954 106.226L23.6974 105.826C24.3789 105.148 24.3789 104.039 23.6974 103.361C23.3697 103.035 22.9284 102.852 22.461 102.852Z" fill="#004053"/>
<path d="M23.5009 107.72L24.5495 106.676C25.2835 105.941 26.4806 105.941 27.2146 106.676C27.9486 107.411 27.9486 108.598 27.2146 109.332L26.166 110.38C25.432 111.115 24.2349 111.115 23.5009 110.38C22.7669 109.641 22.7669 108.454 23.5009 107.72Z" fill="white"/>
<path d="M24.8334 111.066C24.2917 111.066 23.7849 110.857 23.4048 110.475C22.6183 109.688 22.6183 108.414 23.4048 107.627L24.4533 106.583C24.8334 106.201 25.3402 105.992 25.882 105.992C26.4237 105.992 26.9305 106.201 27.3106 106.583C28.0971 107.37 28.0971 108.644 27.3106 109.431L26.2621 110.479C25.882 110.857 25.3752 111.066 24.8334 111.066ZM25.882 106.262C25.4145 106.262 24.9776 106.444 24.6456 106.77L23.597 107.814C22.9154 108.492 22.9154 109.601 23.597 110.279C23.929 110.609 24.3659 110.788 24.8334 110.788C25.3009 110.788 25.7378 110.605 26.0698 110.279L27.1184 109.231C27.8 108.553 27.8 107.444 27.1184 106.766C26.7907 106.444 26.3495 106.262 25.882 106.262Z" fill="#004053"/>
<path d="M24.9731 107.347L25.3794 106.942C25.5847 106.738 25.9212 106.738 26.1265 106.942L26.9435 107.755C27.1488 107.96 27.1488 108.294 26.9435 108.503L26.5372 108.907C26.1047 109.338 25.4056 109.338 24.9731 108.907C24.5405 108.477 24.5405 107.777 24.9731 107.347Z" fill="white"/>
<path d="M25.7552 109.3C25.4407 109.3 25.1479 109.179 24.9251 108.957C24.4664 108.5 24.4664 107.757 24.9251 107.3L25.3314 106.896C25.5586 106.67 25.9518 106.67 26.1746 106.896L26.9916 107.709C27.2232 107.94 27.2232 108.318 26.9916 108.553L26.5853 108.957C26.3625 109.179 26.0698 109.3 25.7552 109.3ZM25.7509 106.857C25.6285 106.857 25.5106 106.905 25.4232 106.992L25.0169 107.396C24.6105 107.8 24.6105 108.457 25.0169 108.861C25.2135 109.057 25.4756 109.166 25.7509 109.166C26.0261 109.166 26.2882 109.057 26.4848 108.861L26.8912 108.457C27.0703 108.279 27.0703 107.987 26.8912 107.809L26.0742 106.996C25.9911 106.905 25.8732 106.857 25.7509 106.857Z" fill="#004053"/>
<path d="M21.5478 103.944L21.9541 103.539C22.1594 103.331 22.4959 103.331 22.7056 103.539L23.5226 104.357C23.7279 104.561 23.7279 104.9 23.5226 105.104L23.1163 105.509C22.6837 105.939 21.9803 105.939 21.5478 105.509C21.1153 105.078 21.1153 104.378 21.5478 103.944Z" fill="white"/>
<path d="M22.3343 105.898C22.0197 105.898 21.7226 105.777 21.4998 105.555C21.0411 105.099 21.0411 104.351 21.4998 103.894L21.9061 103.49C22.1333 103.264 22.5265 103.264 22.7537 103.49L23.5751 104.307C23.8067 104.538 23.8067 104.92 23.5751 105.151L23.1688 105.555C22.946 105.777 22.6489 105.898 22.3343 105.898ZM22.3299 103.451C22.2076 103.451 22.0896 103.499 22.0023 103.586L21.5959 103.99C21.1896 104.394 21.1896 105.055 21.5959 105.459C21.7925 105.655 22.0547 105.764 22.3343 105.764C22.6139 105.764 22.8761 105.655 23.0727 105.459L23.479 105.055C23.6581 104.877 23.6581 104.581 23.479 104.403L22.6576 103.586C22.5702 103.499 22.4523 103.451 22.3299 103.451Z" fill="#004053"/>
<path d="M33.1868 91.7678C32.964 91.9939 32.6669 92.1461 32.3305 92.1852L31.5747 92.2765C31.1902 92.3243 30.8407 92.0504 30.7926 91.6678L30.6484 90.5157C30.7227 90.4896 30.797 90.4766 30.88 90.4766H33.5975C33.6019 90.5026 33.6062 90.5244 33.6106 90.5461C33.6674 91.02 33.497 91.4591 33.1868 91.7678Z" fill="white"/>
<path d="M31.4873 92.3531C31.0985 92.3531 30.7708 92.0618 30.7228 91.6792L30.5742 90.4706L30.6266 90.4532C30.7097 90.4271 30.7927 90.4141 30.88 90.4141H33.65L33.6631 90.4662C33.6675 90.4923 33.6718 90.5184 33.6762 90.5488C33.733 91.0184 33.5757 91.4836 33.2393 91.8184C32.9946 92.0618 32.6844 92.214 32.3437 92.2575L31.5878 92.3488C31.5485 92.3531 31.5179 92.3531 31.4873 92.3531ZM30.7228 90.5662L30.8582 91.6618C30.9019 92.001 31.2121 92.2531 31.566 92.2097L32.3218 92.1183C32.632 92.0792 32.916 91.9444 33.1388 91.7184C33.4446 91.4097 33.5932 90.988 33.5408 90.5575C33.5408 90.5532 33.5408 90.5488 33.5408 90.5445H30.8844C30.8276 90.5488 30.7752 90.5575 30.7228 90.5662Z" fill="#004053"/>
<path d="M26.5854 110.994L27.8349 109.751C28.5165 109.073 29.6218 109.073 30.3034 109.751C30.985 110.429 30.985 111.529 30.3034 112.207L29.0539 113.451C28.3723 114.129 27.267 114.129 26.5854 113.451C25.9038 112.772 25.9038 111.673 26.5854 110.994Z" fill="white"/>
<path d="M27.8174 114.096C27.315 114.096 26.8431 113.901 26.4892 113.548C25.7552 112.818 25.7552 111.631 26.4892 110.901L27.7387 109.657C28.0926 109.305 28.5645 109.109 29.0669 109.109C29.5694 109.109 30.0412 109.305 30.3951 109.657C31.1291 110.388 31.1291 111.574 30.3951 112.305L29.1456 113.548C28.796 113.905 28.3198 114.096 27.8174 114.096ZM29.0669 109.379C28.6388 109.379 28.2324 109.544 27.931 109.848L26.6815 111.092C26.0523 111.718 26.0523 112.735 26.6815 113.357C26.9829 113.661 27.3892 113.827 27.8174 113.827C28.2456 113.827 28.6519 113.661 28.9533 113.357L30.2029 112.114C30.832 111.488 30.832 110.47 30.2029 109.848C29.9014 109.544 29.4951 109.379 29.0669 109.379Z" fill="#004053"/>
<path d="M28.0489 110.425L28.4596 110.016C28.6693 109.807 29.0057 109.807 29.2154 110.016L30.0411 110.838C30.2508 111.046 30.2508 111.381 30.0411 111.59L29.6304 111.998C29.1935 112.433 28.4858 112.433 28.0489 111.998C27.612 111.564 27.612 110.859 28.0489 110.425Z" fill="white"/>
<path d="M28.8398 112.392C28.5208 112.392 28.2237 112.271 28.0009 112.045C27.5378 111.584 27.5378 110.836 28.0009 110.375L28.4116 109.966C28.6388 109.74 29.0364 109.74 29.2635 109.966L30.0893 110.788C30.3252 111.023 30.3252 111.401 30.0893 111.636L29.6786 112.045C29.4514 112.266 29.1543 112.392 28.8398 112.392ZM28.8354 109.923C28.7087 109.923 28.5951 109.971 28.5077 110.058L28.097 110.466C27.6863 110.875 27.6863 111.536 28.097 111.945C28.2936 112.14 28.5601 112.249 28.8398 112.249C29.1194 112.249 29.3815 112.14 29.5825 111.945L29.9932 111.536C30.1767 111.353 30.1767 111.058 29.9932 110.879L29.1674 110.058C29.0757 109.971 28.9621 109.923 28.8354 109.923Z" fill="#004053"/>
<path d="M29.3465 114.12L30.2989 113.173C30.8756 112.599 31.8106 112.599 32.3916 113.173L32.4397 113.22C32.9902 113.768 32.9902 114.66 32.4397 115.212L31.4392 116.207C30.8625 116.781 29.9275 116.781 29.3465 116.207C28.7654 115.629 28.7654 114.699 29.3465 114.12Z" fill="white"/>
<path d="M30.3907 116.77C29.9582 116.77 29.5519 116.601 29.2504 116.301C28.6213 115.674 28.6213 114.653 29.2504 114.027L30.2029 113.079C30.5087 112.775 30.915 112.609 31.3432 112.609C31.7757 112.609 32.182 112.779 32.4835 113.079L32.5315 113.127C33.1345 113.727 33.1345 114.709 32.5315 115.309L31.531 116.305C31.2252 116.601 30.8233 116.77 30.3907 116.77ZM31.3432 112.875C30.9849 112.875 30.6485 113.014 30.3951 113.266L29.4427 114.214C28.9184 114.735 28.9184 115.583 29.4427 116.105C29.9495 116.609 30.832 116.609 31.3388 116.105L32.3393 115.109C32.8374 114.614 32.8374 113.805 32.3393 113.309L32.2912 113.262C32.0378 113.014 31.7014 112.875 31.3432 112.875Z" fill="#004053"/>
<path d="M30.5698 113.716L30.8974 113.39C31.0635 113.224 31.3343 113.224 31.5047 113.39L32.1644 114.05C32.3305 114.216 32.3305 114.489 32.1644 114.655L31.8368 114.981C31.4872 115.329 30.9193 115.329 30.5698 114.981C30.2202 114.633 30.2202 114.063 30.5698 113.716Z" fill="white"/>
<path d="M31.2034 115.305C30.9456 115.305 30.7053 115.205 30.5218 115.022C30.1461 114.649 30.1461 114.04 30.5218 113.662L30.8495 113.336C31.0373 113.149 31.365 113.149 31.5529 113.336L32.2126 113.996C32.4048 114.188 32.4048 114.505 32.2126 114.696L31.8849 115.022C31.7014 115.205 31.4611 115.305 31.2034 115.305ZM31.199 113.331C31.1029 113.331 31.0111 113.37 30.9456 113.436L30.6179 113.762C30.2946 114.083 30.2946 114.605 30.6179 114.927C30.7752 115.083 30.9805 115.17 31.2034 115.17C31.4262 115.17 31.6315 115.083 31.7888 114.927L32.1165 114.601C32.2563 114.462 32.2563 114.231 32.1165 114.092L31.4568 113.436C31.3869 113.366 31.2951 113.331 31.199 113.331Z" fill="#004053"/>
<path d="M54.5555 99.0379L58.4221 95.1685L48.0763 84.8906L44.2097 88.7557L54.5555 99.0379Z" fill="#EAFAFF"/>
<path d="M54.5556 99.233L44.0176 88.7638L48.0764 84.7031L58.6144 95.1723L54.5556 99.233ZM44.402 88.7595L54.5556 98.8461L58.2299 95.1723L48.0764 85.0857L44.402 88.7595Z" fill="#004053"/>
<path d="M56.5438 99.1686L61.0351 95.3905L49.8461 82.1953L45.3591 85.9734L56.5438 99.1686Z" fill="white"/>
<path d="M56.5305 99.3637L45.1711 85.9642L49.8678 82.0078L61.2272 95.4073L56.5305 99.3637ZM45.5512 85.9946L56.5611 98.9811L60.8427 95.3769L49.8329 82.3904L45.5512 85.9946Z" fill="#004053"/>
<path d="M33.1911 111.091C33.1911 111.587 32.7892 111.987 32.2911 111.987C31.7931 111.987 31.3911 111.587 31.3911 111.091C31.3911 110.595 31.7931 110.195 32.2911 110.195C32.7892 110.195 33.1911 110.595 33.1911 111.091Z" fill="#EAFAFF"/>
<path d="M32.2912 112.055C31.7582 112.055 31.3257 111.625 31.3257 111.09C31.3257 110.56 31.7582 110.125 32.2912 110.125C32.8243 110.125 33.2568 110.555 33.2568 111.09C33.2568 111.625 32.8243 112.055 32.2912 112.055ZM32.2912 110.264C31.8325 110.264 31.4611 110.638 31.4611 111.095C31.4611 111.551 31.8325 111.925 32.2912 111.925C32.75 111.925 33.1213 111.551 33.1213 111.095C33.1213 110.638 32.75 110.264 32.2912 110.264Z" fill="#004053"/>
<path d="M43.8515 103.38C43.8515 104.028 43.3272 104.55 42.6762 104.55C42.0296 104.55 41.501 104.024 41.501 103.38C41.501 102.733 42.0253 102.211 42.6762 102.211C43.3229 102.207 43.8515 102.733 43.8515 103.38Z" fill="#EAFAFF"/>
<path d="M42.6763 104.619C41.9904 104.619 41.4355 104.062 41.4355 103.38C41.4355 102.697 41.9948 102.141 42.6763 102.141C43.3623 102.141 43.9171 102.697 43.9171 103.38C43.9171 104.067 43.3623 104.619 42.6763 104.619ZM42.6763 102.28C42.0647 102.28 41.571 102.775 41.571 103.384C41.571 103.993 42.0691 104.488 42.6763 104.488C43.288 104.488 43.7817 103.993 43.7817 103.384C43.7817 102.775 43.2836 102.28 42.6763 102.28Z" fill="#004053"/>
<path d="M39.9372 105.076C39.9372 105.724 39.4129 106.245 38.7619 106.245C38.1153 106.245 37.5867 105.719 37.5867 105.076C37.5867 104.428 38.111 103.906 38.7619 103.906C39.4129 103.906 39.9372 104.432 39.9372 105.076Z" fill="#EAFAFF"/>
<path d="M38.7662 106.314C38.0803 106.314 37.5254 105.758 37.5254 105.075C37.5254 104.392 38.0846 103.836 38.7662 103.836C39.4521 103.836 40.007 104.392 40.007 105.075C40.007 105.758 39.4478 106.314 38.7662 106.314ZM38.7662 103.975C38.1545 103.975 37.6608 104.471 37.6608 105.079C37.6608 105.688 38.1589 106.184 38.7662 106.184C39.3778 106.184 39.8715 105.688 39.8715 105.079C39.8715 104.466 39.3735 103.975 38.7662 103.975Z" fill="#004053"/>
<path d="M35.9347 107.638C35.9347 108.286 35.4105 108.808 34.7595 108.808C34.1129 108.808 33.5842 108.282 33.5842 107.638C33.5842 106.99 34.1085 106.469 34.7595 106.469C35.4061 106.469 35.9347 106.99 35.9347 107.638Z" fill="#EAFAFF"/>
<path d="M34.7596 108.877C34.0737 108.877 33.5188 108.32 33.5188 107.638C33.5188 106.955 34.078 106.398 34.7596 106.398C35.4455 106.398 36.0004 106.955 36.0004 107.638C36.0004 108.324 35.4455 108.877 34.7596 108.877ZM34.7596 106.538C34.1479 106.538 33.6542 107.033 33.6542 107.642C33.6542 108.251 34.1523 108.746 34.7596 108.746C35.3713 108.746 35.8649 108.251 35.8649 107.642C35.8649 107.033 35.3713 106.538 34.7596 106.538Z" fill="#004053"/>
<g opacity="0.25">
<path d="M117.679 64.4844V95.1789C125.333 95.418 132.992 95.1354 140.647 95.3745V64.4844H117.679Z" fill="#004053"/>
</g>
<path d="M139.572 63.6641V94.5542C131.918 94.3151 124.259 94.5977 116.604 94.3586V63.6641H139.572Z" fill="white"/>
<path d="M139.882 94.8747L139.563 94.866C136.623 94.7747 133.678 94.7617 131.446 94.7617C130.327 94.7617 129.209 94.766 128.09 94.7704C126.972 94.7747 125.853 94.7791 124.735 94.7791C122.494 94.7791 119.545 94.766 116.595 94.6747L116.298 94.666V63.3672H139.882V94.8747ZM131.446 94.1443C133.604 94.1443 136.426 94.1573 139.266 94.24V63.9715H116.914V94.0617C119.754 94.1443 122.577 94.1573 124.735 94.1573C125.853 94.1573 126.972 94.153 128.09 94.1486C129.204 94.1486 130.323 94.1443 131.446 94.1443Z" fill="#004053"/>
<path d="M134.438 90.0547H121.545V91.3503H134.438V90.0547Z" fill="white"/>
<path d="M134.596 91.5062H121.393V89.9062H134.596V91.5062ZM121.703 91.2019H134.29V90.2149H121.703V91.2019Z" fill="#EAFAFF"/>
<path d="M134.438 85.4375H121.545V86.7331H134.438V85.4375Z" fill="white"/>
<path d="M134.596 86.889H121.393V85.2891H134.596V86.889ZM121.703 86.5803H134.29V85.5934H121.703V86.5803Z" fill="#EAFAFF"/>
<path d="M135.644 87.7578H120.34V89.0534H135.644V87.7578Z" fill="white"/>
<path d="M135.802 89.2093H120.187V87.6094H135.802V89.2093ZM120.497 88.9006H135.496V87.9137H120.497V88.9006Z" fill="#EAFAFF"/>
<path d="M134.438 80.8281H121.545V82.1237H134.438V80.8281Z" fill="white"/>
<path d="M134.596 82.2796H121.393V80.6797H134.596V82.2796ZM121.703 81.9709H134.29V80.984H121.703V81.9709Z" fill="#EAFAFF"/>
<path d="M135.644 83.1406H120.34V84.4362H135.644V83.1406Z" fill="white"/>
<path d="M135.802 84.5921H120.187V82.9922H135.802V84.5921ZM120.497 84.2878H135.496V83.3009H120.497V84.2878Z" fill="#EAFAFF"/>
<path d="M134.438 76.2109H121.545V77.5065H134.438V76.2109Z" fill="white"/>
<path d="M134.596 77.6624H121.393V76.0625H134.596V77.6624ZM121.703 77.3581H134.29V76.3712H121.703V77.3581Z" fill="#EAFAFF"/>
<path d="M135.644 78.5312H120.34V79.8269H135.644V78.5312Z" fill="white"/>
<path d="M135.802 79.9827H120.187V78.3828H135.802V79.9827ZM120.497 79.6741H135.496V78.6871H120.497V79.6741Z" fill="#EAFAFF"/>
<path d="M134.438 71.5938H121.545V72.8894H134.438V71.5938Z" fill="white"/>
<path d="M134.596 73.0452H121.393V71.4453H134.596V73.0452ZM121.703 72.7366H134.29V71.7496H121.703V72.7366Z" fill="#EAFAFF"/>
<path d="M135.644 73.9219H120.34V75.2175H135.644V73.9219Z" fill="white"/>
<path d="M135.802 75.3656H120.187V73.7656H135.802V75.3656ZM120.497 75.0612H135.496V74.0743H120.497V75.0612Z" fill="#EAFAFF"/>
<path d="M134.438 66.9844H121.545V68.28H134.438V66.9844Z" fill="white"/>
<path d="M134.596 68.4359H121.393V66.8359H134.596V68.4359ZM121.703 68.1272H134.29V67.1403H121.703V68.1272Z" fill="#EAFAFF"/>
<path d="M135.644 69.2969H120.34V70.5925H135.644V69.2969Z" fill="white"/>
<path d="M135.802 70.7484H120.187V69.1484H135.802V70.7484ZM120.497 70.444H135.496V69.4571H120.497V70.444Z" fill="#EAFAFF"/>
<g opacity="0.25">
<path d="M157 56.9375L154.99 57.8462L152.264 59.0766L152.15 58.9635L124.128 86.8494L124.508 87.2277L122.939 88.7885C122.371 89.3537 122.371 90.2667 122.939 90.8319C123.507 91.3971 124.425 91.3971 124.993 90.8319L126.561 89.2711L126.941 89.6493L154.964 61.7634L154.85 61.6504L156.087 58.9374L157 56.9375Z" fill="#004053"/>
</g>
<path d="M150.448 58.6136L122.425 86.5L125.242 89.3037L153.265 61.4173L150.448 58.6136Z" fill="#EAFAFF"/>
<path d="M125.242 89.62L122.114 86.5071L150.446 58.3125L153.575 61.4254L125.242 89.62ZM122.738 86.5071L125.246 89.0027L152.959 61.4254L150.451 58.9299L122.738 86.5071Z" fill="#004053"/>
<path d="M121.24 88.4514L122.808 86.8906L124.862 88.934L123.293 90.4948C122.725 91.06 121.808 91.06 121.24 90.4948C120.672 89.934 120.672 89.0166 121.24 88.4514Z" fill="white"/>
<path d="M122.266 91.1388C121.821 91.1388 121.401 90.9649 121.082 90.6519C120.768 90.3389 120.593 89.9215 120.593 89.4737C120.593 89.0302 120.768 88.6128 121.082 88.2955L122.808 86.5781L125.172 88.9302L123.446 90.6475C123.131 90.9649 122.712 91.1388 122.266 91.1388ZM122.808 87.2042L121.397 88.6085C121.165 88.8389 121.034 89.1476 121.034 89.4737C121.034 89.7997 121.161 90.1084 121.397 90.3389C121.864 90.8041 122.673 90.8041 123.14 90.3389L124.551 88.9346L122.808 87.2042Z" fill="#004053"/>
<path d="M151.858 60.0234C142.517 69.3187 133.176 78.6141 123.835 87.9094L151.858 60.0234Z" fill="white"/>
<path d="M151.702 59.8636L123.678 87.75L123.99 88.0605L152.014 60.1741L151.702 59.8636Z" fill="#004053"/>
<path d="M153.151 61.3144L150.564 58.7363L153.291 57.5102L155.3 56.6016L154.387 58.6015L153.151 61.3144Z" fill="white"/>
<path d="M153.221 61.6943L150.184 58.6727L155.746 56.1641L153.221 61.6943ZM150.945 58.8074L153.081 60.9335L154.859 57.0379L150.945 58.8074Z" fill="#004053"/>
<path d="M154.304 58.5232L153.365 57.5928L155.3 56.6016L154.304 58.5232Z" fill="#004053"/>
<path d="M136.828 27.3404L133.552 24.0796C133.573 24.0013 133.595 23.9231 133.613 23.8448C133.617 23.8405 133.617 23.8318 133.617 23.8274V23.8231C133.621 23.7927 133.63 23.7622 133.639 23.7318C133.674 23.5709 133.696 23.4057 133.718 23.2449C133.805 22.5144 133.731 21.7753 133.504 21.0667C133.473 20.9754 133.442 20.8884 133.407 20.8015C133.386 20.7406 133.364 20.6841 133.337 20.6232C133.311 20.5623 133.285 20.5015 133.254 20.4363C133.224 20.3667 133.189 20.3015 133.15 20.2319C133.115 20.158 133.067 20.0841 133.027 20.0102C132.992 19.9537 132.949 19.8841 132.896 19.8015C132.874 19.7711 132.717 19.5319 132.534 19.3233C132.486 19.2667 132.394 19.1711 132.354 19.1276C132.333 19.1015 132.302 19.0711 132.302 19.0711C132.285 19.0494 132.267 19.032 132.245 19.0102L128.235 15.0191L128.13 14.9147C127.894 14.6756 127.588 14.5452 127.282 14.5278L127.134 14.5234C126.836 14.5408 126.548 14.6539 126.325 14.8756L126.303 14.8973C125.818 15.3799 125.836 16.1886 126.343 16.6929L126.448 16.7973L126.277 16.9668L125.513 16.206C125.019 15.7147 124.219 15.7147 123.73 16.206C123.485 16.4495 123.359 16.7755 123.359 17.0929C123.359 17.4146 123.481 17.7364 123.73 17.9798L124.495 18.7407L124.324 18.9102L122.939 17.532C122.446 17.0407 121.646 17.0407 121.152 17.532C120.908 17.7755 120.781 18.0972 120.781 18.4189C120.781 18.7407 120.903 19.0624 121.152 19.3059L122.537 20.6841L122.358 20.871L118.216 16.7494C117.723 16.2582 116.923 16.2582 116.429 16.7494C116.18 16.9973 116.058 17.319 116.058 17.6364C116.058 17.9581 116.18 18.2798 116.429 18.5233L120.571 22.6449L121.039 23.1057L121.248 23.3144L124.359 26.41L124.586 26.636C124.648 26.6969 124.713 26.7578 124.779 26.8143C124.783 26.8186 124.787 26.823 124.792 26.8273C124.818 26.8534 124.849 26.8795 124.879 26.9012C124.897 26.9186 124.914 26.9317 124.932 26.9491C124.953 26.9665 124.975 26.9882 125.001 27.0056C125.137 27.1143 125.277 27.2143 125.416 27.3099C125.504 27.3664 125.591 27.423 125.683 27.4708C125.875 27.5838 126.076 27.6795 126.282 27.7621C126.483 27.8447 126.684 27.9142 126.893 27.9664C127.199 28.049 127.514 28.1055 127.833 28.1273C128.025 28.1447 128.217 28.1447 128.409 28.136C128.453 28.136 128.497 28.136 128.54 28.1316C128.632 28.1273 128.724 28.1186 128.811 28.1099L132.429 31.7098L136.828 27.3404Z" fill="white"/>
<path d="M132.433 31.8168L132.381 31.7646L128.785 28.1865C128.706 28.1952 128.623 28.1996 128.54 28.2039C128.497 28.2083 128.449 28.2083 128.405 28.2083C128.221 28.2213 128.029 28.2169 127.824 28.1996C127.505 28.1778 127.182 28.1213 126.871 28.0387C126.67 27.9865 126.469 27.917 126.251 27.83C126.015 27.73 125.823 27.6387 125.644 27.5344C125.548 27.4865 125.456 27.4257 125.373 27.3735C125.229 27.2779 125.089 27.1779 124.949 27.0648C124.936 27.0561 124.914 27.0387 124.897 27.0213L124.879 27.0083C124.857 26.9909 124.84 26.9735 124.827 26.9605L124.805 26.9431C124.783 26.9257 124.761 26.904 124.739 26.8866C124.665 26.817 124.595 26.7561 124.534 26.6953L120.471 22.6563V22.6519L116.377 18.5782C116.128 18.3304 115.988 17.9956 115.984 17.6391C115.984 17.2869 116.124 16.9521 116.377 16.6956C116.63 16.4435 116.967 16.3043 117.321 16.3043C117.679 16.3043 118.015 16.4435 118.265 16.6956L122.354 20.7651L122.419 20.6955L121.087 19.3695C120.833 19.1173 120.694 18.7825 120.694 18.4304C120.694 18.0782 120.833 17.7434 121.087 17.4913C121.34 17.2391 121.677 17.1 122.035 17.1C122.389 17.1 122.725 17.2391 122.979 17.4913L124.311 18.8173L124.377 18.7521L123.665 18.0434C123.411 17.7956 123.276 17.4608 123.276 17.1043C123.276 16.7522 123.42 16.413 123.665 16.1652C123.918 15.9131 124.254 15.7739 124.608 15.7739C124.962 15.7739 125.299 15.9131 125.552 16.1652L126.264 16.8739L126.33 16.8087L126.277 16.7565C126.011 16.4956 125.862 16.1435 125.862 15.7739C125.862 15.4261 125.993 15.1 126.238 14.8566L126.26 14.8348C126.483 14.6131 126.784 14.4827 127.116 14.4609L127.269 14.4653C127.61 14.487 127.929 14.6348 128.169 14.874L128.274 14.974L132.289 18.9651C132.311 18.9869 132.333 19.0086 132.35 19.0303L132.398 19.0825C132.438 19.126 132.525 19.2216 132.577 19.2782C132.765 19.4955 132.927 19.7347 132.944 19.7651C133.001 19.8477 133.045 19.9216 133.08 19.9781L133.11 20.0303C133.145 20.0868 133.176 20.1433 133.206 20.2042L133.215 20.2216C133.25 20.2868 133.285 20.3477 133.311 20.4129C133.342 20.4738 133.368 20.5346 133.394 20.5998C133.421 20.6607 133.447 20.7172 133.469 20.7824C133.504 20.8694 133.539 20.9607 133.565 21.052C133.801 21.7737 133.871 22.5172 133.783 23.2606C133.761 23.4215 133.739 23.5867 133.7 23.7562C133.691 23.791 133.683 23.8215 133.678 23.8475C133.678 23.8475 133.678 23.8606 133.674 23.878C133.656 23.9432 133.643 24.0041 133.626 24.0693L136.924 27.3518L136.881 27.3952L132.433 31.8168ZM128.842 28.0343L132.433 31.6081L136.724 27.3387L133.469 24.0997L133.482 24.0606C133.504 23.9823 133.525 23.9041 133.543 23.8302L133.547 23.8041C133.552 23.7736 133.56 23.7389 133.573 23.7128C133.608 23.5606 133.63 23.3954 133.648 23.2432C133.735 22.5172 133.661 21.7954 133.434 21.0955C133.403 21.0042 133.373 20.9172 133.338 20.8346C133.316 20.7737 133.294 20.7172 133.268 20.6607C133.241 20.5998 133.215 20.539 133.185 20.4781C133.158 20.4129 133.123 20.3564 133.093 20.2955L133.084 20.2781C133.054 20.2216 133.023 20.1651 132.992 20.1129L132.962 20.0607C132.931 20.0042 132.888 19.9346 132.831 19.8564C132.822 19.8477 132.66 19.5999 132.472 19.3868C132.424 19.3303 132.337 19.2347 132.298 19.1912L132.245 19.1347C132.228 19.1129 132.21 19.0955 132.193 19.0782L128.077 14.987C127.863 14.7696 127.575 14.6392 127.273 14.6175L127.129 14.6131C126.841 14.6305 126.579 14.7435 126.378 14.9435L126.356 14.9653C126.142 15.1783 126.024 15.4652 126.024 15.7783C126.024 16.1087 126.155 16.4217 126.395 16.6565L126.548 16.8174L126.273 17.0869L125.456 16.2783C125.233 16.0565 124.932 15.9304 124.617 15.9304C124.298 15.9304 124.001 16.0522 123.778 16.2783C123.555 16.5 123.429 16.8043 123.429 17.113C123.429 17.4304 123.551 17.726 123.778 17.9478L124.582 18.7521L124.547 18.8043L124.316 19.039L122.878 17.6086C122.655 17.3869 122.354 17.2608 122.039 17.2608C121.72 17.2608 121.423 17.3826 121.196 17.6086C120.973 17.8304 120.847 18.1304 120.847 18.4434C120.847 18.7608 120.969 19.0564 121.196 19.2825L122.634 20.7129L122.358 20.9868L122.306 20.9346L118.164 16.813C117.941 16.5913 117.64 16.4652 117.321 16.4652C117.002 16.4652 116.705 16.5869 116.482 16.813C116.255 17.0391 116.132 17.3347 116.132 17.6478C116.132 17.9652 116.259 18.2651 116.482 18.4869L120.672 22.6563L121.297 23.278L124.634 26.5996C124.696 26.6605 124.761 26.7214 124.822 26.7779L124.835 26.7909C124.857 26.8083 124.875 26.8257 124.897 26.8431L124.918 26.8605C124.936 26.8735 124.953 26.8909 124.971 26.904L124.993 26.9257C125.006 26.9387 125.019 26.9474 125.032 26.9561C125.172 27.0692 125.312 27.1692 125.452 27.2605C125.53 27.3126 125.622 27.3692 125.714 27.417C125.888 27.517 126.072 27.6083 126.303 27.7039C126.513 27.7909 126.71 27.8561 126.906 27.9039C127.212 27.9865 127.522 28.0387 127.833 28.0604C128.034 28.0778 128.213 28.0778 128.401 28.0691C128.449 28.0691 128.488 28.0691 128.532 28.0648C128.628 28.0604 128.715 28.0517 128.807 28.043L128.842 28.0343Z" fill="#004053"/>
<path d="M137.702 26.694C137.65 26.4592 137.536 26.2418 137.353 26.0549L135.998 24.7115C135.496 24.2115 134.683 24.2115 134.176 24.7071C134.172 24.7115 134.172 24.7115 134.172 24.7115L131.808 27.0636L129.899 28.9635L129.799 29.0635C129.794 29.0678 129.79 29.0722 129.786 29.0809C129.633 29.2374 129.528 29.42 129.471 29.6156C129.344 30.0547 129.454 30.5417 129.794 30.8852L131.149 32.2329C131.494 32.5764 131.983 32.6807 132.424 32.559C132.56 32.5199 132.691 32.459 132.809 32.3677C132.87 32.3286 132.923 32.2808 132.975 32.2286L137.353 27.8766C137.392 27.8331 137.44 27.7853 137.475 27.7331C137.479 27.7244 137.493 27.7157 137.493 27.707C137.593 27.5635 137.663 27.4027 137.702 27.2375C137.742 27.0592 137.742 26.8723 137.702 26.694ZM131.459 31.9242L130.105 30.5765C129.943 30.42 129.86 30.2113 129.856 29.9982C129.851 29.7808 129.93 29.5548 130.091 29.3852L130.205 29.2722L134.377 25.1245L134.478 25.0202C134.482 25.0158 134.482 25.0158 134.482 25.0158C134.814 24.6897 135.356 24.6941 135.684 25.0202L137.038 26.3679C137.37 26.6984 137.37 27.2375 137.034 27.5679L132.66 31.9242C132.486 32.0938 132.258 32.1808 132.031 32.1721C131.83 32.1634 131.621 32.0851 131.459 31.9242Z" fill="#004053"/>
<path d="M135.845 24.8677L137.2 26.2155C137.619 26.6329 137.619 27.3068 137.2 27.7241L132.826 32.0761C132.407 32.4935 131.73 32.4935 131.31 32.0761L129.956 30.7284C129.537 30.311 129.537 29.6371 129.956 29.2197L134.329 24.8677C134.749 24.4503 135.43 24.4503 135.845 24.8677Z" fill="white"/>
<path d="M128.558 16.8891L128.204 17.2413C128.086 17.3587 127.893 17.3587 127.775 17.2413C127.658 17.1239 127.658 16.9326 127.775 16.8152L128.129 16.463C128.247 16.3457 128.44 16.3457 128.558 16.463C128.676 16.5804 128.676 16.7717 128.558 16.8891Z" fill="white"/>
<path d="M127.99 17.3703C127.898 17.3703 127.815 17.3356 127.749 17.2704C127.684 17.2051 127.649 17.1225 127.649 17.0312C127.649 16.9399 127.684 16.8573 127.749 16.7921L128.103 16.4399C128.23 16.3139 128.457 16.3095 128.584 16.4399C128.715 16.5704 128.715 16.7878 128.584 16.9182L128.23 17.2704C128.169 17.3356 128.081 17.3703 127.99 17.3703ZM128.348 16.4182C128.278 16.4182 128.213 16.4443 128.16 16.4965L127.806 16.8486C127.758 16.8965 127.728 16.966 127.728 17.0356C127.728 17.1051 127.754 17.1704 127.806 17.2225C127.907 17.3225 128.081 17.3225 128.178 17.2225L128.531 16.8704C128.636 16.766 128.636 16.6008 128.531 16.5008C128.483 16.4443 128.418 16.4182 128.348 16.4182Z" fill="#004053"/>
<path d="M126.757 18.686L126.404 19.0381C126.286 19.1555 126.093 19.1555 125.975 19.0381C125.857 18.9208 125.857 18.7295 125.975 18.6121L126.329 18.2599C126.447 18.1425 126.64 18.1425 126.757 18.2599C126.875 18.3773 126.875 18.5686 126.757 18.686Z" fill="white"/>
<path d="M126.19 19.1672C126.098 19.1672 126.015 19.1324 125.949 19.0672C125.884 19.002 125.849 18.9194 125.849 18.8281C125.849 18.7368 125.884 18.6542 125.949 18.589L126.303 18.2368C126.43 18.1107 126.657 18.1064 126.784 18.2368C126.915 18.3673 126.915 18.5846 126.784 18.7151L126.43 19.0672C126.364 19.1324 126.277 19.1672 126.19 19.1672ZM126.544 18.2151C126.474 18.2151 126.408 18.2412 126.356 18.2933L126.002 18.6455C125.954 18.6933 125.923 18.7629 125.923 18.8325C125.923 18.902 125.949 18.9672 126.002 19.0194C126.102 19.1194 126.273 19.1194 126.373 19.0194L126.727 18.6672C126.832 18.5629 126.832 18.3977 126.727 18.2977C126.679 18.2412 126.613 18.2151 126.544 18.2151Z" fill="#004053"/>
<path d="M124.739 20.5688L124.385 20.921C124.267 21.0383 124.075 21.0383 123.957 20.921C123.839 20.8036 123.839 20.6123 123.957 20.4949L124.311 20.1427C124.429 20.0253 124.621 20.0253 124.739 20.1427C124.857 20.2601 124.857 20.4514 124.739 20.5688Z" fill="white"/>
<path d="M124.171 21.0484C124.079 21.0484 123.996 21.0136 123.931 20.9484C123.865 20.8832 123.83 20.8006 123.83 20.7093C123.83 20.618 123.865 20.5354 123.931 20.4702L124.285 20.118C124.411 19.9919 124.639 19.9919 124.765 20.118C124.896 20.2484 124.896 20.4658 124.765 20.5962L124.411 20.9484C124.346 21.0136 124.258 21.0484 124.171 21.0484ZM124.525 20.0919C124.455 20.0919 124.39 20.118 124.337 20.1702L123.983 20.5223C123.935 20.5702 123.905 20.6397 123.905 20.7093C123.905 20.7788 123.931 20.8441 123.983 20.8962C124.084 20.9962 124.258 20.9962 124.355 20.8962L124.708 20.5441C124.813 20.4397 124.813 20.2745 124.708 20.1745C124.66 20.1223 124.595 20.0919 124.525 20.0919Z" fill="#004053"/>
<path d="M122.703 22.4516L122.349 22.8038C122.231 22.9212 122.039 22.9212 121.921 22.8038C121.803 22.6864 121.803 22.4951 121.921 22.3777L122.275 22.0255C122.393 21.9082 122.585 21.9082 122.703 22.0255C122.821 22.1429 122.821 22.3342 122.703 22.4516Z" fill="white"/>
<path d="M122.135 22.9329C122.043 22.9329 121.96 22.8981 121.895 22.8329C121.764 22.7024 121.764 22.485 121.895 22.3546L122.249 22.0024C122.376 21.8764 122.603 21.872 122.729 22.0024C122.795 22.0677 122.83 22.1503 122.83 22.2416C122.83 22.3329 122.795 22.4155 122.729 22.4807L122.376 22.8329C122.31 22.8981 122.223 22.9329 122.135 22.9329ZM122.489 21.9807C122.419 21.9807 122.354 22.0068 122.301 22.059L121.947 22.4111C121.843 22.5155 121.843 22.6807 121.947 22.7807C122.048 22.8807 122.223 22.8807 122.319 22.7807L122.673 22.4285C122.721 22.3807 122.751 22.3111 122.751 22.2416C122.751 22.172 122.725 22.1068 122.673 22.0546C122.625 22.0068 122.559 21.9807 122.489 21.9807Z" fill="#004053"/>
</g>
<defs>
<clipPath id="clip0_2661_11441">
<rect width="157" height="117" fill="white"/>
</clipPath>
</defs>
</svg>
