<svg xmlns="http://www.w3.org/2000/svg" width="21" height="21" viewBox="0 0 21 21">
  <path id="Icon_fa-solid-weight-scale" data-name="Icon fa-solid-weight-scale" d="M5.25,7.219a5.25,5.25,0,1,1,5.25,5.25A5.25,5.25,0,0,1,5.25,7.219ZM16.07,2.625a7.222,7.222,0,0,0-11.14,0H2.625A2.627,2.627,0,0,0,0,5.25V18.375A2.627,2.627,0,0,0,2.625,21h15.75A2.627,2.627,0,0,0,21,18.375V5.25a2.627,2.627,0,0,0-2.625-2.625ZM12.141,9.188a1.627,1.627,0,0,0-.447-1.124l1.378-3.212a.656.656,0,1,0-1.206-.517L10.488,7.547a1.641,1.641,0,1,0,1.653,1.641Z" opacity="0.28"/>
</svg>
