<svg width="70" height="56" viewBox="0 0 70 56" fill="none" xmlns="http://www.w3.org/2000/svg">
<path d="M35.5662 15.4836C33.8609 19.3489 32.6194 19.2686 32.5765 19.3143C32.5513 19.3097 31.4051 19.6438 30.775 18.3688L31.2277 18.1662C31.3127 18.3622 31.476 18.5732 31.6571 18.7095C32.0659 19.0035 32.4477 18.8924 32.4878 18.8952C32.5196 18.8859 32.8061 18.8355 32.9956 18.6899C33.8571 18.1532 34.8904 16.2929 35.3319 15.3828L35.5662 15.4836Z" fill="#004053"/>
<path d="M8.97538 12.593C7.27004 16.4582 6.02861 16.378 5.98568 16.4237C5.96047 16.419 4.81425 16.7532 4.1842 15.4782L4.6369 15.2756C4.72184 15.4716 4.88519 15.6826 5.06627 15.8188C5.4751 16.1129 5.85687 16.0018 5.897 16.0046C5.92874 15.9953 6.21529 15.9449 6.40478 15.7992C7.26631 15.2625 8.29959 13.4023 8.74109 12.4922L8.97538 12.593Z" fill="#004053"/>
<path d="M8.29117 22.7492C6.58584 26.6145 5.34441 26.5342 5.30147 26.5799C5.27627 26.5753 4.13005 26.9094 3.5 25.6344L3.9527 25.4319C4.03764 25.6279 4.20099 25.8388 4.38207 25.9751C4.7909 26.2691 5.17266 26.158 5.2128 26.1608C5.24454 26.1515 5.53109 26.1011 5.72057 25.9555C6.58211 25.4188 7.61539 23.5585 8.05689 22.6484L8.29117 22.7492Z" fill="#004053"/>
<path d="M35.7575 16.0872L43.2127 8.38101C43.2127 8.38101 41.5251 7.61749 39.1374 9.06427C36.7498 10.5101 36.045 13.5194 35.3207 14.2428C34.5964 14.9671 34.1465 14.9942 34.1465 14.9942L35.7575 16.0872Z" fill="#004053"/>
<path d="M49.5552 25.0772C49.5552 25.0772 50.7742 25.346 51.0944 24.8821C51.3175 24.5591 52.5766 24.3594 52.5766 24.3594L52.7474 26.1973L51.5181 26.4931L50.1563 26.3802L49.5552 25.0772Z" fill="#E55555"/>
<path d="M52.2072 27.2094L51.9302 27.2188L52.4987 43.9792L52.7758 43.9698L52.2072 27.2094Z" fill="#600202"/>
<path d="M52.1265 27.2147L52.0071 27.2188L52.5773 43.9792L52.6967 43.9751L52.1265 27.2147Z" fill="#9E0D0D"/>
<path d="M52.8317 43.7519L52.4305 43.7656L52.4754 45.0791L52.8765 45.0654L52.8317 43.7519Z" fill="#2F2C35"/>
<path d="M52.8136 45.0687L52.5365 45.0781L52.5446 45.3169L52.8217 45.3075L52.8136 45.0687Z" fill="#070707"/>
<path d="M52.8604 47.603L52.6635 47.6095L52.4684 45.3031L52.8987 45.2891L52.8604 47.603Z" fill="#2F2C35"/>
<path d="M52.7838 48.1694L52.683 47.615L52.8398 47.6094L52.7838 48.1694Z" fill="#595563"/>
<path d="M52.1818 23.5975C52.1575 23.8066 52.1696 24.0352 52.1696 24.0352C52.3022 24.5094 52.1948 25.0713 52.1948 25.0713C52.1379 25.5315 52.2527 25.9263 52.2527 25.9263C52.3787 26.351 52.3545 26.7701 52.3545 26.7701L52.2079 27.263L51.9307 27.2723L51.7421 26.8215L51.3818 23.0561L52.3339 23.0234L52.3423 23.2624C52.2462 23.2652 52.2014 23.4248 52.1818 23.5975Z" fill="#070707"/>
<path d="M52.3554 26.7733C51.8616 26.7098 51.7645 25.2882 51.8364 24.4687C51.8831 23.932 52.0632 23.6986 52.1818 23.6016C52.1575 23.8106 52.1696 24.0393 52.1696 24.0393C52.3022 24.5135 52.1948 25.0754 52.1948 25.0754C52.1379 25.5356 52.2527 25.9304 52.2527 25.9304C52.3806 26.3532 52.3554 26.7733 52.3554 26.7733Z" fill="#DB0707"/>
<path d="M52.0082 24.1715C52.0268 23.9531 52.0688 23.786 52.1183 23.6562C52.0072 23.7795 51.8756 24.0147 51.8364 24.4627C51.7645 25.2822 51.8616 26.7038 52.3554 26.7673C52.3554 26.7673 52.3647 26.6011 52.3405 26.3734C52.0091 26.0224 51.9466 24.8753 52.0082 24.1715Z" fill="#910707"/>
<path d="M52.6887 44.4206C52.698 44.7062 52.6681 44.9386 52.6215 44.9405C52.5748 44.9423 52.5291 44.7118 52.5188 44.4262C52.5095 44.1405 52.5393 43.9081 52.586 43.9063C52.6336 43.9044 52.6793 44.1349 52.6887 44.4206Z" fill="#595563"/>
<path d="M19.7599 29.6562C19.7599 29.6562 19.2213 32.7216 19.2213 35.351C19.2213 37.9804 20.0315 40.8086 21.3878 42.1658C22.744 43.522 24.6687 45.7622 24.6687 45.7622C24.6687 45.7622 23.8902 39.0108 22.7963 35.687C21.7023 32.3641 19.7599 29.6562 19.7599 29.6562Z" fill="#44645E"/>
<path d="M15.7622 37.3281C15.7622 37.3281 16.3036 41.423 17.2669 42.783C19.0515 45.3041 24.6688 45.7614 24.6688 45.7614C24.6688 45.7614 22.0898 39.9501 15.7622 37.3281Z" fill="#5B857D"/>
<path d="M22.9866 40.1165C24.3746 44.9964 24.6276 45.4584 24.6276 45.4584C24.6276 45.4584 27.3615 39.1486 26.5625 35.0257C25.7635 30.9029 24.9636 28.2109 24.9636 28.2109C24.9636 28.2109 21.5977 35.2367 22.9866 40.1165Z" fill="#79B2A6"/>
<path d="M35.1678 36.5391C35.1678 36.5391 33.061 39.8265 29.5169 42.5689C25.9728 45.3121 24.6679 45.7555 24.6679 45.7555C24.6679 45.7555 23.7223 40.9662 26.5235 39.5512C29.3246 38.1361 34.0094 37.7824 35.1678 36.5391Z" fill="#79B2A6"/>
<path d="M24.721 45.7573C24.721 45.7573 22.9681 43.3902 19.7964 42.5249C16.6246 41.6597 13.6545 42.0928 13.6545 42.0928C13.6545 42.0928 18.021 46.5479 24.721 45.7573Z" fill="#5B857D"/>
<path d="M31.9484 32.3438C31.9484 32.3438 31.6637 39.6589 30.1787 40.8723C28.6936 42.0857 24.6678 45.7568 24.6678 45.7568C24.6678 45.7568 26.6439 35.1561 31.9484 32.3438Z" fill="#79B2A6"/>
<path d="M28.0878 29.6562C28.0878 29.6562 29.6924 37.172 24.722 45.7622C24.721 45.7612 21.8611 36.6671 28.0878 29.6562Z" fill="#79B2A6"/>
<path d="M37.3473 40.25C37.3473 40.25 27.0322 41.5605 24.7211 45.7599C24.7211 45.759 35.5066 45.5135 37.3473 40.25Z" fill="#79B2A6"/>
<path d="M14.9156 42.5625C17.6468 43.2756 22.5154 44.8745 24.7211 45.7557C22.465 45.1807 17.5843 43.6107 14.9156 42.5625Z" fill="#BCE4DC"/>
<path d="M17.2883 38.7734C18.5802 40.4386 21.7416 44.6166 24.3374 45.7292C21.4719 44.7202 18.3524 40.5553 17.2883 38.7734Z" fill="#8DABA5"/>
<path d="M29.1015 23.5859C29.1015 23.5859 28.324 28.0121 28.324 31.8092C28.324 35.6063 29.4935 39.6909 31.4528 41.6501C33.412 43.6094 36.1907 46.8436 36.1907 46.8436C36.1907 46.8436 35.0669 37.0933 33.4876 32.2946C31.9083 27.496 29.1015 23.5859 29.1015 23.5859Z" fill="url(#paint0_linear_3575_1904)"/>
<path d="M23.9501 27.2266C23.9501 27.2266 24.694 36.7538 26.0176 39.9171C28.4706 45.7817 36.1908 46.8468 36.1908 46.8468C36.1908 46.8468 32.6457 33.3264 23.9501 27.2266Z" fill="url(#paint1_linear_3575_1904)"/>
<path d="M25.2325 29.1875C27.5465 34.6946 31.617 42.9851 36.1907 46.8475C31.4164 43.2549 27.1964 34.7469 25.2325 29.1875Z" fill="#EE4A18"/>
<path d="M33.762 38.6993C35.767 45.7456 36.131 46.4139 36.131 46.4139C36.131 46.4139 40.0793 37.302 38.9256 31.3487C37.771 25.3954 36.6173 21.5078 36.6173 21.5078C36.6173 21.5078 31.7571 31.653 33.762 38.6993Z" fill="url(#paint2_linear_3575_1904)"/>
<path d="M46.5356 29.2266C46.5356 29.2266 47.7313 35.4664 44.863 41.2675C41.9946 47.0686 36.1515 46.8278 36.1515 46.8278C36.1515 46.8278 36.326 42.8487 39.0693 39.2411C41.8117 35.6335 45.8169 31.5741 46.5356 29.2266Z" fill="url(#paint3_linear_3575_1904)"/>
<path d="M36.2673 46.846C36.2673 46.846 33.7349 43.4279 29.1547 42.179C24.5745 40.9301 20.2845 41.5545 20.2845 41.5545C20.2845 41.5545 26.5906 47.9876 36.2673 46.846Z" fill="url(#paint4_linear_3575_1904)"/>
<path d="M36.1515 46.8229C36.1515 46.8229 41.3058 44.6462 44.0042 42.2902C46.7027 39.9334 47.2693 36.7188 47.2693 36.7188C47.2693 36.7188 41.0145 38.1217 38.9172 39.9539C36.8198 41.7853 36.1515 46.8229 36.1515 46.8229Z" fill="url(#paint5_linear_3575_1904)"/>
<path d="M44.6641 27.8047C44.6641 27.8047 44.3365 38.3242 42.6237 40.0687C40.9109 41.8132 36.2672 46.8406 36.2672 46.8406C36.2672 46.8406 38.5466 31.8491 44.6641 27.8047Z" fill="url(#paint6_linear_3575_1904)"/>
<path d="M41.1284 23.5859C41.1284 23.5859 43.4461 34.4396 36.2672 46.8436C36.2672 46.8436 32.136 33.7097 41.1284 23.5859Z" fill="url(#paint7_linear_3575_1904)"/>
<path d="M40.251 25.625C39.1598 32.5107 37.5814 40.2711 36.2672 46.8432C37.4433 39.907 38.7463 32.5481 40.251 25.625Z" fill="#EE4A18"/>
<path d="M45.9896 41.125C45.9896 41.125 38.0463 42.4859 36.2672 46.8477C36.2672 46.8477 44.5717 46.592 45.9896 41.125Z" fill="url(#paint8_linear_3575_1904)"/>
<path d="M66.2669 47.2225C66.2669 48.2045 53.0284 49.0007 36.6975 49.0007C20.3667 49.0007 7.12817 48.2045 7.12817 47.2225C7.12817 46.2406 20.3667 45.4453 36.6975 45.4453C53.0284 45.4444 66.2669 46.2406 66.2669 47.2225Z" fill="#919AA5"/>
<path d="M47.8406 44.7008L48.8664 46.7814L50.4308 45.8806L49.3751 44.1016L47.8406 44.7008Z" fill="#401046"/>
<path d="M46.3723 17.6406C46.3723 17.6406 46.9529 24.0009 47.6651 24.3107C48.3773 24.6206 50.2683 25.0967 50.2683 25.0967L50.2879 26.4874C50.2879 26.4874 47.162 27.3536 46.3714 26.564C45.5817 25.7743 44.4504 24.2715 44.6987 24.0233C44.947 23.775 46.3723 17.6406 46.3723 17.6406Z" fill="#6F1A00"/>
<path d="M43.2117 28.8568L39.1841 38.0275L35.2796 44.9674V45.5256H33.7927C33.7927 45.5256 34.1642 42.7991 34.5983 40.6298C35.0323 38.4606 37.3873 34.9286 37.3873 34.9286L38.5027 28.4218L43.2127 27.5547V28.8568H43.2117Z" fill="#032647"/>
<path d="M39.3082 27.5547H38.5027L38.0071 29.2899C38.0071 29.2899 39.928 33.1318 43.2127 35.8583L47.4494 45.4397L49.4721 44.2235C49.4721 44.2235 46.4049 35.1451 45.816 34.5562C45.227 33.9672 42.0198 27.774 42.0198 27.774L39.3082 27.5547Z" fill="#163D55"/>
<path d="M46.2145 11.028C46.1921 11.1922 43.1361 16.0684 42.5107 19.5378C41.8853 23.0082 40.1781 27.118 38.807 28.296C37.4358 29.473 32.989 27.6099 32.4112 26.2462C31.8344 24.8825 32.0239 22.8421 32.9862 20.0745C33.9486 17.307 34.7177 17.4722 36.2093 14.7457C37.7009 12.0192 38.807 9.49904 41.1162 8.5899C43.4245 7.6817 46.4553 9.29276 46.2145 11.028Z" fill="#163D55"/>
<path d="M41.1154 8.59817C40.8064 8.71951 40.5199 8.87259 40.2501 9.04807C41.8164 9.04434 43.7271 9.36356 43.1838 11.0353C42.5743 12.9086 43.8969 13.4827 44.7883 13.6591C45.5509 12.1852 46.2034 11.1109 46.2136 11.0353C46.4554 9.30009 43.4246 7.68903 41.1154 8.59817Z" fill="#456477"/>
<path d="M37.0205 28.6181C35.2284 26.3396 36.2692 20.2389 38.5019 18.3207C40.967 16.2038 42.3652 12.108 43.1838 11.0336C44.0015 9.95927 46.3462 11.729 46.3462 11.729C46.3238 11.8933 43.1353 16.0731 42.5099 19.5435C41.8845 23.0139 40.1764 27.1237 38.8062 28.3016C38.4552 28.6041 37.8046 28.6853 37.0205 28.6181Z" fill="#004053"/>
<path d="M44.555 14.3345C44.555 14.3345 42.5304 14.0862 40.672 16.6895C38.8127 19.2918 37.6076 27.8175 37.4051 28.6361C37.2016 29.4547 43.2127 29.2485 43.2127 29.2485C43.2127 29.2485 45.3857 24.2538 45.5686 22.7996C45.8991 20.172 46.7037 17.4334 46.7037 17.4334L44.555 14.3345Z" fill="#A13210"/>
<path d="M45.298 11.6898C45.298 11.6898 45.8916 11.5097 46.0988 12.29C46.3061 13.0704 48.9047 16.467 48.438 16.6061C47.3757 16.9216 45.7031 13.7928 45.7031 13.7928L45.298 11.6898Z" fill="#380D00"/>
<path d="M46.249 13.4215C46.2098 13.3645 46.2117 11.3614 46.2117 11.3614C46.2117 11.3614 46.2686 9.88012 46.6392 9.77744C47.0088 9.67477 47.9805 9.19033 48.5807 9.42088C49.1809 9.65143 49.5075 10.0024 49.5477 10.0593C49.5869 10.1172 49.7101 10.9582 49.7101 10.9582C49.7101 10.9582 49.6186 10.6539 49.1986 11.4706C48.7776 12.2855 46.249 13.4215 46.249 13.4215Z" fill="#381A3F"/>
<path d="M47.7798 13.9609C47.6239 14.1532 46.2845 15.6186 46.5795 16.2412C46.67 16.4316 44.6958 16.3962 45.2101 14.955C45.7245 13.5138 46.5039 11.8906 46.5039 11.8906L47.7798 13.9609Z" fill="#FC7575"/>
<path d="M46.5029 11.8906C46.5029 11.8906 46.3041 12.306 46.0409 12.9015C46.067 13.5997 46.4021 14.605 47.0135 14.9345C47.3299 14.4687 47.7014 14.0571 47.7789 13.9609L46.5029 11.8906Z" fill="#FD5E5A"/>
<path d="M46.9378 10.5522C46.5001 11.0329 46.0875 12.0718 46.305 13.0752C46.5225 14.0786 47.0853 14.7805 47.7527 14.5939C48.4201 14.4072 49.5271 11.9701 49.402 11.1748C49.277 10.3786 47.6052 9.81949 46.9378 10.5522Z" fill="#FC7575"/>
<path d="M46.0175 12.9497C46.0175 12.9497 46.2154 12.0853 45.9932 11.7633C45.7711 11.4413 45.6833 11.2649 45.7403 10.9541C45.7972 10.6432 44.876 10.0421 45.2204 9.63422C45.5648 9.22632 46.4301 9.32433 47.1432 8.66254C47.8563 8.00076 48.4593 7.7198 49.2686 8.39932C50.0769 9.07884 49.9789 9.72382 49.9789 9.72382C49.9789 9.72382 50.4148 9.81716 50.468 10.4313C50.5203 11.0465 50.23 11.2639 49.977 11.4385C49.977 11.4385 50.271 10.7767 50.0321 10.7328C49.7931 10.689 49.7297 11.5244 49.7297 11.5244C49.7297 11.5244 49.5075 11.1034 49.3227 10.5172C49.1388 9.93104 49.0277 10.4827 48.9176 11.0847C48.8075 11.6868 48.225 10.8383 48.0318 10.2904C47.8386 9.74342 47.1945 9.91611 46.7922 10.4145C46.3899 10.913 46.8296 12.1357 46.0175 12.9497Z" fill="#653870"/>
<path d="M46.7661 11.5172C46.7661 11.5172 46.6644 10.7994 46.3974 10.9833C46.1304 11.1681 45.9783 11.9839 46.3349 12.1388C46.6914 12.2947 46.7661 11.5172 46.7661 11.5172Z" fill="#FC7575"/>
<path d="M46.5655 11.4839C46.5655 11.4839 46.7083 11.1507 46.4899 11.1909C46.2714 11.231 46.2388 11.847 46.4049 11.903C46.5701 11.9581 46.5655 11.4839 46.5655 11.4839Z" fill="#FD5E5A"/>
<path d="M48.4724 12.0859C48.4752 12.2661 48.4556 12.4453 48.4173 12.6217C48.3315 13.0016 48.2176 13.1323 48.2073 13.1538C48.1709 13.1295 48.071 13.0697 47.9469 12.9745C48.0384 13.0091 48.1261 13.0473 48.2129 13.0893L48.1737 13.1006C48.3137 12.7813 48.3791 12.4313 48.4724 12.0859Z" fill="#172866"/>
<path d="M47.2842 13.2744C47.2758 13.2194 47.3588 13.2072 47.3672 13.2623C47.37 13.28 47.4382 13.6954 47.8395 13.7682C47.8619 13.7719 47.8769 13.7943 47.8731 13.8167C47.8507 13.9362 47.3635 13.7402 47.2842 13.2744Z" fill="#172866"/>
<path d="M47.9991 11.9982C47.9795 12.1074 47.9011 12.1848 47.8236 12.1708C47.7471 12.1568 47.7014 12.057 47.721 11.9478C47.7406 11.8385 47.819 11.7611 47.8964 11.7751C47.973 11.7891 48.0187 11.8889 47.9991 11.9982Z" fill="#2846A6"/>
<path d="M49.0306 12.2482C49.011 12.3574 48.9326 12.4348 48.8551 12.4208C48.7786 12.4068 48.7329 12.307 48.7525 12.1978C48.7721 12.0885 48.8505 12.0111 48.9279 12.0251C49.0045 12.0391 49.0511 12.1389 49.0306 12.2482Z" fill="#2846A6"/>
<path d="M47.5427 11.5007C47.5427 11.5007 47.7985 11.2861 48.0692 11.3355C48.3389 11.385 48.1793 11.5745 48.1158 11.5633C48.0533 11.5521 47.553 11.4457 47.5427 11.5007Z" fill="#172866"/>
<path d="M48.9093 11.5391C48.9093 11.5391 49.1697 11.7528 49.1706 11.918C49.1706 11.918 48.8682 11.7621 48.8411 11.6623C48.8141 11.5624 48.9093 11.5391 48.9093 11.5391Z" fill="#172866"/>
<path d="M45.2979 11.6875L44.3066 14.3253C44.3066 14.3253 45.5462 17.637 46.3723 17.637L48.4379 16.6047C48.4379 16.6047 47.5857 16.3153 46.9995 15.283C46.4133 14.2497 45.9588 11.6875 45.2979 11.6875Z" fill="#6F1A00"/>
<path d="M52.5758 24.366C52.5758 24.366 51.8916 24.1905 51.4099 24.4752C50.9283 24.7599 52.3209 24.6544 52.1501 24.7851C51.9793 24.9158 51.1841 25.2163 51.3623 25.3507C51.5397 25.4851 52.3863 25.109 52.3713 25.2191C52.3564 25.3293 51.4743 25.6046 51.6694 25.7568C51.8645 25.9089 52.4525 25.6541 52.4918 25.7549C52.531 25.8548 51.8066 25.9901 52.0605 26.0853C52.3144 26.1805 52.7102 26.2813 52.8455 26.1787C52.9809 26.0751 53.0947 25.8352 53.0602 25.6196C53.0257 25.4039 53.1666 25.333 52.9258 24.9204C52.684 24.5069 52.5758 24.366 52.5758 24.366Z" fill="#FC7575"/>
<path d="M45.912 31.7527L45.6848 31.5938L36.072 45.3355L36.2991 45.4944L45.912 31.7527Z" fill="#600202"/>
<path d="M45.8517 31.7013L45.7538 31.6328L36.1393 45.3729L36.2371 45.4414L45.8517 31.7013Z" fill="#9E0D0D"/>
<path d="M36.4787 45.3472L36.1498 45.1172L35.3965 46.1941L35.7253 46.4241L36.4787 45.3472Z" fill="#2F2C35"/>
<path d="M35.6707 46.3933L35.4436 46.2344L35.3066 46.4301L35.5337 46.5891L35.6707 46.3933Z" fill="#070707"/>
<path d="M34.1876 48.449L34.0261 48.3361L35.2554 46.375L35.6082 46.6214L34.1876 48.449Z" fill="#2F2C35"/>
<path d="M33.7899 48.8478L34.0419 48.3438L34.1707 48.4334L33.7899 48.8478Z" fill="#595563"/>
<path d="M48.0673 28.8416C47.9226 28.9947 47.7947 29.1842 47.7947 29.1842C47.6165 29.6425 47.1927 30.028 47.1927 30.028C46.8707 30.3612 46.726 30.7467 46.726 30.7467C46.572 31.1621 46.3003 31.4822 46.3003 31.4822L45.8869 31.7884L45.66 31.6297L45.7804 31.1565L47.7537 27.9297L48.534 28.4757L48.3968 28.6717C48.3184 28.6148 48.1868 28.7156 48.0673 28.8416Z" fill="#070707"/>
<path d="M46.3003 31.4765C45.9438 31.1293 46.7204 29.9346 47.2701 29.3222C47.6295 28.9218 47.9142 28.8425 48.0673 28.8359C47.9226 28.989 47.7947 29.1785 47.7947 29.1785C47.6164 29.6368 47.1927 30.0223 47.1927 30.0223C46.8706 30.3555 46.726 30.741 46.726 30.741C46.572 31.1564 46.3003 31.4765 46.3003 31.4765Z" fill="#DB0707"/>
<path d="M47.5819 29.2047C47.7285 29.0414 47.8619 28.9322 47.9795 28.8594C47.8171 28.8911 47.5698 29.0003 47.2701 29.3345C46.7204 29.9468 45.9438 31.1416 46.3003 31.4888C46.3003 31.4888 46.4077 31.3618 46.5253 31.1649C46.4712 30.6851 47.1096 29.7302 47.5819 29.2047Z" fill="#910707"/>
<path d="M35.961 45.7955C35.7967 46.0298 35.6334 46.1978 35.5951 46.1707C35.5568 46.1436 35.6586 45.9327 35.8219 45.6984C35.9862 45.4641 36.1495 45.2961 36.1878 45.3232C36.227 45.3493 36.1253 45.5612 35.961 45.7955Z" fill="#595563"/>
<path d="M45.9821 29.2782C45.9821 29.2782 46.165 28.8143 46.4871 28.7462C46.8091 28.679 47.847 29.4789 47.8078 29.6245C47.7677 29.7701 47.4727 29.8728 47.5539 30.0138C47.6342 30.1556 47.6006 30.2032 47.4811 30.3582C47.3617 30.5122 47.2272 30.7325 47.1404 30.7819C47.0518 30.8314 45.6461 30.4991 45.9821 29.2782Z" fill="#FC7575"/>
<path d="M46.0512 28.5156L45.2998 29.1821C45.2998 29.1821 45.3194 29.1998 45.3521 29.2297C45.5014 29.366 45.9196 29.7543 45.9523 29.8653L46.4862 28.7546L46.0512 28.5156Z" fill="#FC7575"/>
<path d="M10.592 12.4642C10.592 12.4642 8.7952 13.0345 8.95015 11.9807C8.95015 11.9807 9.81728 8.71467 11.3051 7.93994C12.792 7.16521 15.1396 7 15.1396 7L10.592 12.4642Z" fill="#3B3F0D"/>
<path d="M21.3318 24.3376C21.3318 24.3376 22.576 24.4365 22.829 23.9325C23.0054 23.5815 24.2253 23.2109 24.2253 23.2109L24.6472 25.0077L23.4693 25.4698L22.1056 25.5445L21.3318 24.3376Z" fill="#E55555"/>
<path d="M24.2507 26.0854L23.9775 26.1328L26.8453 42.6568L27.1184 42.6094L24.2507 26.0854Z" fill="#600202"/>
<path d="M24.174 26.1046L24.0563 26.125L26.924 42.649L27.0417 42.6286L24.174 26.1046Z" fill="#9E0D0D"/>
<path d="M27.1419 42.4002L26.7465 42.4688L26.9709 43.7637L27.3664 43.6951L27.1419 42.4002Z" fill="#2F2C35"/>
<path d="M27.3016 43.7027L27.0284 43.75L27.0693 43.9854L27.3424 43.9381L27.3016 43.7027Z" fill="#070707"/>
<path d="M27.6967 46.1955L27.5026 46.2292L26.9929 43.9722L27.4167 43.8984L27.6967 46.1955Z" fill="#2F2C35"/>
<path d="M27.6976 46.765L27.5221 46.2302L27.677 46.2031L27.6976 46.765Z" fill="#595563"/>
<path d="M23.7297 22.5127C23.7344 22.7227 23.7783 22.9477 23.7783 22.9477C23.9752 23.3985 23.9453 23.9698 23.9453 23.9698C23.9519 24.4327 24.1199 24.808 24.1199 24.808C24.3028 25.2112 24.3364 25.6294 24.3364 25.6294L24.259 26.1371L23.9855 26.1847L23.7372 25.7647L22.8635 22.0843L23.8016 21.9219L23.8427 22.1571C23.7484 22.1748 23.726 22.3391 23.7297 22.5127Z" fill="#070707"/>
<path d="M24.3374 25.6332C23.8399 25.6379 23.5486 24.2434 23.5076 23.422C23.4805 22.8843 23.6261 22.6286 23.7306 22.5156C23.7353 22.7256 23.7792 22.9506 23.7792 22.9506C23.9761 23.4014 23.9463 23.9727 23.9463 23.9727C23.9528 24.4356 24.1208 24.8109 24.1208 24.8109C24.3038 25.215 24.3374 25.6332 24.3374 25.6332Z" fill="#DB0707"/>
<path d="M23.6364 23.1036C23.6252 22.8843 23.6429 22.7135 23.6747 22.5781C23.5813 22.7153 23.4833 22.9664 23.5067 23.4154C23.5477 24.2368 23.839 25.6322 24.3365 25.6266C24.3365 25.6266 24.3234 25.4614 24.2683 25.2383C23.8922 24.9378 23.6728 23.8102 23.6364 23.1036Z" fill="#910707"/>
<path d="M27.0899 43.0818C27.1385 43.3637 27.1413 43.598 27.0946 43.6064C27.0489 43.6148 26.9714 43.3926 26.9229 43.1107C26.8743 42.8289 26.8715 42.5946 26.9182 42.5862C26.9649 42.5778 27.0414 42.7999 27.0899 43.0818Z" fill="#595563"/>
<path d="M24.2253 23.2111C24.2253 23.2111 23.5234 23.1308 23.0856 23.479C22.6479 23.8272 24.0125 23.5313 23.8613 23.6844C23.7101 23.8365 22.9643 24.2444 23.1585 24.3527C23.3526 24.4619 24.1395 23.9728 24.1395 24.0839C24.1404 24.1949 23.3041 24.5888 23.5178 24.712C23.7316 24.8362 24.2795 24.503 24.3317 24.5972C24.3849 24.6915 23.6849 24.9249 23.949 24.9837C24.2132 25.0425 24.6192 25.0891 24.7387 24.9678C24.8582 24.8464 24.9385 24.5935 24.874 24.3844C24.8096 24.1753 24.9403 24.0857 24.6454 23.7105C24.3513 23.3353 24.2253 23.2111 24.2253 23.2111Z" fill="#FC7575"/>
<path d="M20.0148 17.2787C20.0148 17.2787 20.6756 16.9744 21.0686 18.6882C21.4606 20.4028 20.1389 22.5711 20.5422 23.2534C20.9454 23.9348 23.0101 23.6249 23.0101 23.6249L23.0932 25.67C23.0932 25.67 20.8213 26.0079 19.7058 25.8184C18.5904 25.629 18.0742 24.6582 18.1984 23.4187C18.3207 22.1791 20.0148 17.2787 20.0148 17.2787Z" fill="#A13210"/>
<path d="M15.5717 30.9136L13.7142 38.3146C13.7142 38.3146 9.62404 45.0257 9.62404 47.0242L8.32288 46.3101C8.32288 46.3101 9.55497 37.3858 11.5105 35.9577L11.9174 27.3125L15.5717 30.9136Z" fill="#485669"/>
<path d="M11.9175 28.9978L16.8132 36.6816C16.8132 36.6816 17.2575 40.4442 19.1336 42.3203C21.0098 44.1965 22.5368 47.0303 22.5368 47.0303L23.6915 46.6588L19.8496 36.8683L16.5033 28.7812L11.9175 28.9978Z" fill="#616E80"/>
<path d="M23.6914 46.6565C22.0187 42.8613 18.7248 34.3384 18.1787 32.8281C19.5602 35.7814 21.9385 41.5863 23.6914 46.6565Z" fill="#CDD3DD"/>
<path d="M15.1396 7C15.1396 7 18.6716 7.61978 19.1057 9.47913C19.5397 11.3385 14.7056 17.4112 15.1396 20.4784C15.5736 23.5456 13.9 26.5091 10.7395 27.3202C7.57902 28.1314 6.15371 26.8302 5.65807 24.6302C5.16243 22.4301 5.16244 20.8088 6.33946 17.2815C7.51649 13.7551 9.37303 11.4803 10.5529 9.97476C11.9614 8.17889 15.1396 7 15.1396 7Z" fill="#4F5411"/>
<path d="M19.1056 9.47464C19.03 9.14888 18.8573 8.86233 18.6268 8.60938C16.6013 8.90993 14.1735 9.50918 13.8206 10.6806C13.2009 12.7369 13.6676 17.2079 11.5133 20.1771C9.72113 22.6478 8.56184 25.617 8.34155 27.5043C8.9996 27.6089 9.7902 27.5594 10.7395 27.3158C13.9 26.5046 15.5727 23.5411 15.1396 20.4739C14.7055 17.4067 19.5396 11.334 19.1056 9.47464Z" fill="#3B3F0D"/>
<path d="M18.2684 14.8483C18.2684 14.8483 17.587 14.4647 14.0858 17.9659C10.5846 21.4671 11.028 29.948 11.028 29.948C11.028 29.948 13.5902 31.5983 15.821 31.5983C18.0519 31.5983 18.5475 31.2063 18.5475 31.2063C18.5475 31.2063 18.5354 24.6911 19.7871 21.6221C21.5671 17.2584 19.6592 14.8483 18.2684 14.8483Z" fill="#D87306"/>
<path d="M19.7488 17.3752L19.6965 16.7891C19.6899 16.8385 18.8546 22.2616 18.0649 24.0911C17.3154 25.8291 17.4488 28.5136 17.4768 31.5107C17.5664 31.4986 17.6486 31.4855 17.7242 31.4715C17.6962 28.4809 17.5693 25.8655 18.2926 24.1891C19.0954 22.3279 19.7226 17.5806 19.7488 17.3752Z" fill="#6C3A03"/>
<path d="M16.5033 11.4062C16.5033 11.4062 17.3639 11.9794 17.7764 12.8437C18.1899 13.7071 21.2982 15.3928 21.2982 15.3928C21.2982 15.3928 19.4883 15.853 19.4388 15.9015C19.3894 15.951 15.9274 14.4062 15.9274 14.4062L16.5033 11.4062Z" fill="#A74326"/>
<path d="M19.2392 15.8713C19.2765 15.6165 19.3596 15.3832 19.4156 15.0033C19.4949 14.461 19.5845 14.0568 19.5845 14.0568L18.2423 13.4688C18.2423 13.4688 18.0285 14.3462 17.8708 15.0434C17.7672 15.5017 19.214 16.0384 19.2392 15.8713Z" fill="#FC7575"/>
<path d="M18.2422 13.4688C18.2422 13.4688 18.2067 13.6237 18.1526 13.8654C18.2609 14.0279 18.4167 14.2005 18.6333 14.4208C18.8498 14.6402 19.1271 14.8511 19.4164 15.0033C19.4958 14.461 19.5854 14.0568 19.5854 14.0568L18.2422 13.4688Z" fill="#FD5E5A"/>
<path d="M21.5036 11.5566C21.5036 11.5566 20.3228 12.7271 19.8739 12.8447C19.4249 12.9623 18.4317 13.1182 18.4317 13.1182C18.4317 13.1182 17.8978 14.8804 17.8362 15.2706C17.8362 15.2706 16.1169 14.8888 17.1184 12.1232C17.5002 11.0684 17.6869 10.3945 18.8807 10.0323C20.0745 9.6711 21.2301 10.4841 21.5036 11.5566Z" fill="#00147D"/>
<path d="M20.6785 11.1317C20.6785 11.1317 21.4018 11.4407 21.4186 11.9979C21.4354 12.5543 21.2684 12.8175 21.2768 13.0863C21.2842 13.3551 21.203 13.847 20.7933 14.5797C20.3835 15.3125 19.2942 14.7786 18.6996 14.1737C18.0304 13.4933 17.9809 13.2991 18.0827 12.3069C18.1825 11.3128 19.5238 10.6062 20.6785 11.1317Z" fill="#FC7575"/>
<path d="M20.4525 13.7097C20.4479 13.6238 20.5599 13.7349 20.7914 13.4829C20.7232 13.3559 20.6934 13.2038 20.698 13.0703C20.7428 13.3438 20.881 13.4633 20.8968 13.4885C20.8884 13.495 20.7055 13.7358 20.4964 13.748C20.474 13.7498 20.4535 13.7321 20.4525 13.7097Z" fill="#0028A6"/>
<path d="M20.0382 13.0488C20.0877 13.0936 20.167 13.0917 20.2137 13.0441C20.2603 12.9965 20.2585 12.9209 20.209 12.8761C20.1595 12.8313 20.0802 12.8332 20.0335 12.8808C19.9859 12.9284 19.9887 13.004 20.0382 13.0488Z" fill="#0028A6"/>
<path d="M21.0659 13.1113C21.1153 13.1561 21.1947 13.1542 21.2413 13.1066C21.288 13.059 21.2861 12.9834 21.2367 12.9386C21.1872 12.8938 21.1079 12.8957 21.0612 12.9433C21.0136 12.9909 21.0155 13.0665 21.0659 13.1113Z" fill="#0028A6"/>
<path d="M20.5104 12.7994C20.3713 12.7742 20.2285 12.7751 20.0867 12.8031C20.0138 12.8199 19.9504 12.8423 19.886 12.8656C19.8216 12.8899 19.7581 12.916 19.6956 12.9515C19.7684 12.9571 19.8384 12.9478 19.9074 12.9338C19.9765 12.9216 20.0437 12.8946 20.1053 12.8787C20.236 12.847 20.3723 12.8274 20.5104 12.7994Z" fill="#00115B"/>
<path d="M21.4411 12.8656C21.3375 12.8525 21.2301 12.86 21.1228 12.888C21.0677 12.9039 21.0192 12.9235 20.9688 12.945C20.9193 12.9664 20.8698 12.9888 20.8213 13.0187C20.8754 13.0196 20.9286 13.0094 20.9818 12.9954C21.0341 12.9823 21.0864 12.9599 21.133 12.945C21.2329 12.9141 21.3365 12.8927 21.4411 12.8656Z" fill="#00115B"/>
<path d="M20.5441 12.4386L20.4722 12.5786C20.4722 12.5786 20.1007 12.5235 19.9243 12.6533C19.9234 12.6542 20.2398 12.3229 20.5441 12.4386Z" fill="#00115B"/>
<path d="M21.3795 12.4702L21.3412 12.6047C21.3412 12.6047 20.9697 12.5496 20.7933 12.6793C20.7933 12.6793 21.0752 12.3545 21.3795 12.4702Z" fill="#00115B"/>
<path d="M20.7186 14.1246C20.7186 14.1246 20.2976 14.0443 19.9541 13.8828C19.9541 13.8828 20.2295 14.413 20.432 14.4074C20.6355 14.4009 20.7186 14.1246 20.7186 14.1246Z" fill="white"/>
<path d="M21.4429 10.6832C21.4429 10.6832 22.0272 10.8279 21.9002 11.3683C21.7733 11.9088 20.2845 12.4427 19.3203 12.2448C18.9591 12.1701 18.9451 12.3783 18.792 12.5015C18.5372 12.7068 18.3113 12.9654 18.4886 13.4125C18.7733 14.1275 19.1177 13.7924 19.1177 13.7924C19.1177 13.7924 18.8022 14.1854 17.9659 13.8895C17.1296 13.5936 17.1063 12.3783 17.7904 11.7258C18.4746 11.0734 19.1532 10.7952 19.6955 10.6673C20.8716 10.3873 21.4429 10.6832 21.4429 10.6832Z" fill="#2846A6"/>
<path d="M18.4831 12.321C18.5829 12.3303 18.9918 12.6458 18.8546 12.9323C18.7174 13.2198 18.6044 13.2329 18.3375 13.0742C18.0714 12.9155 18.231 12.2976 18.4831 12.321Z" fill="#FC7575"/>
<path d="M18.7417 12.7189C18.7417 12.7189 18.5485 12.4519 18.4336 12.5686C18.3179 12.6862 18.3384 12.9027 18.4822 12.983C18.625 13.0633 18.8733 12.8794 18.7417 12.7189Z" fill="#FD5E5A"/>
<path d="M19.3371 13.3732C19.3241 13.5076 19.4939 13.6327 19.717 13.6523C19.9401 13.6719 20.1315 13.5795 20.1455 13.446C20.1585 13.3116 19.9886 13.1865 19.7665 13.1669C19.5415 13.1464 19.3502 13.2388 19.3371 13.3732Z" fill="#FD5E5A"/>
<path d="M20.923 13.5831C20.9342 13.4693 21.0743 13.3853 21.2535 13.375C21.2329 13.5019 21.1956 13.6522 21.1349 13.8249C21.0005 13.7736 20.9137 13.6812 20.923 13.5831Z" fill="#FD5E5A"/>
<path d="M21.2982 15.3919C21.2982 15.3919 18.2152 14.7702 17.4386 13.9927C16.5266 13.0808 16.5033 11.4062 16.5033 11.4062C16.5033 11.4062 15.9124 11.438 15.5727 11.7777C15.2329 12.1175 13.6041 15.5347 17.1539 15.3191C18.7827 15.2201 19.7487 17.3763 19.7487 17.3763L21.2982 15.3919Z" fill="#F3EEB5"/>
<path d="M16.3997 14.9931C16.3997 14.9931 17.7625 16.1085 17.1838 18.3394C16.6051 20.5702 14.0438 22.3465 14.0438 22.3465V24.329C14.0438 24.329 16.6863 22.1999 17.8036 20.2389C19.8281 16.6863 17.3901 14.9922 17.3901 14.9922H16.3997V14.9931Z" fill="#563918"/>
<path d="M18.7062 24.2345C18.7062 24.2345 18.9545 23.064 18.6082 23.1275C18.2619 23.191 17.7457 24.3297 17.7457 24.3297L18.1788 24.9084C18.1788 24.9084 18.5615 24.8543 18.7062 24.2345Z" fill="#745635"/>
<path d="M19.0116 26.5133L18.7394 26.4609L15.5714 42.9296L15.8437 42.9819L19.0116 26.5133Z" fill="#600202"/>
<path d="M18.9318 26.5069L18.8145 26.4844L15.6465 42.953L15.7638 42.9756L18.9318 26.5069Z" fill="#9E0D0D"/>
<path d="M15.9427 42.7867L15.5486 42.7109L15.3005 44.0015L15.6946 44.0773L15.9427 42.7867Z" fill="#2F2C35"/>
<path d="M15.6345 44.0602L15.3623 44.0078L15.3172 44.2425L15.5894 44.2948L15.6345 44.0602Z" fill="#070707"/>
<path d="M15.1154 46.5476L14.9213 46.5103L15.2433 44.2188L15.6661 44.3L15.1154 46.5476Z" fill="#2F2C35"/>
<path d="M14.9156 47.0785L14.9409 46.5156L15.0949 46.5455L14.9156 47.0785Z" fill="#595563"/>
<path d="M19.7861 22.9869C19.7161 23.1848 19.6778 23.4107 19.6778 23.4107C19.7021 23.9026 19.4725 24.4262 19.4725 24.4262C19.3148 24.8621 19.339 25.2728 19.339 25.2728C19.368 25.7143 19.2503 26.1176 19.2503 26.1176L18.9983 26.5656L18.7258 26.5133L18.6427 26.0326L19.1271 22.2812L20.0624 22.4614L20.0176 22.6957C19.9233 22.6779 19.844 22.8226 19.7861 22.9869Z" fill="#070707"/>
<path d="M19.2513 26.1238C18.7836 25.952 19.0048 24.5454 19.2569 23.7613C19.4221 23.2489 19.6489 23.0613 19.7861 22.9922C19.7161 23.1901 19.6778 23.416 19.6778 23.416C19.7021 23.9079 19.4725 24.4315 19.4725 24.4315C19.3147 24.8674 19.339 25.2781 19.339 25.2781C19.3689 25.7205 19.2513 26.1238 19.2513 26.1238Z" fill="#DB0707"/>
<path d="M19.4893 23.5092C19.5565 23.3001 19.634 23.1461 19.7115 23.0312C19.5761 23.1265 19.3951 23.3271 19.2578 23.7546C19.0058 24.5378 18.7846 25.9453 19.2522 26.1171C19.2522 26.1171 19.2989 25.9575 19.326 25.7297C19.0796 25.3144 19.2728 24.1821 19.4893 23.5092Z" fill="#910707"/>
<path d="M15.6539 43.4077C15.5997 43.6886 15.5185 43.9089 15.4728 43.8996C15.4271 43.8912 15.4336 43.656 15.4877 43.375C15.5419 43.094 15.6231 42.8738 15.6688 42.8831C15.7146 42.8924 15.708 43.1277 15.6539 43.4077Z" fill="#595563"/>
<path d="M18.0593 24.2302C18.0593 24.2302 18.0369 23.7317 18.3029 23.5385C18.5689 23.3453 19.844 23.6524 19.8664 23.8017C19.8888 23.9511 19.662 24.1648 19.7936 24.261C19.9252 24.3571 19.913 24.415 19.8673 24.6044C19.8216 24.7939 19.7889 25.0497 19.7292 25.1309C19.6694 25.2121 18.2507 25.4828 18.0593 24.2302Z" fill="#FC7575"/>
<path d="M18.6567 23.1315C18.6567 23.1315 14.0447 23.2183 15.2833 22.1318C16.5229 21.0453 18.2609 15.7427 17.39 15.135C16.5192 14.5274 15.8219 15.2125 15.5708 15.4729C13.9458 17.153 10.0161 21.4626 11.6066 23.7559C12.8201 25.5051 18.1778 24.9124 18.1778 24.9124C17.8521 24.3692 18.6567 23.1315 18.6567 23.1315Z" fill="#E8AB6A"/>
<path d="M15.2917 22.4703C15.3421 22.3602 15.5148 22.2444 15.6175 22.125C17.0755 20.5036 18.3309 15.6807 17.3919 15.1328C18.1405 15.8095 16.1579 20.7641 15.2693 21.8123C15.1023 22.0298 14.8764 22.1119 14.8558 22.4853C14.9062 23.1853 16.4212 23.2086 17.1791 23.2161C17.6747 23.2124 18.1676 23.19 18.6576 23.1302C18.6053 23.1237 15.3524 22.8502 15.2917 22.4703Z" fill="#F3EEB5"/>
<path d="M43.5161 14.4297C43.5161 14.4297 47.2208 17.943 44.091 22.4644C41.4206 26.3231 37.6776 24.3602 37.6776 24.3602L38.0062 23.3026C38.0062 23.3026 43.5935 24.6038 43.9986 17.4773C44.1078 15.5516 42.1393 15.0336 42.1393 15.0336L43.5161 14.4297Z" fill="#563918"/>
<path d="M43.097 15.2207C44.049 16.002 44.4131 18.5716 44.3066 19.4602C44.0024 21.9972 43.5422 24.5193 44.3066 25.2828C45.0711 26.0473 46.124 27.803 46.124 27.803L46.5786 28.6365L45.2158 29.9508L43.7391 28.6365C43.7391 28.6365 40.5478 25.3239 40.0522 23.878C39.6387 22.6711 39.8571 21.0731 40.0055 19.842C40.1773 18.4083 40.4545 16.4332 41.6063 15.4139C42.2093 14.88 42.7031 14.8968 43.097 15.2207Z" fill="#B45B40"/>
<path d="M36.3988 24.3366C34.7915 23.0242 32.0734 23.6869 32.0472 23.6944L32.0855 22.9169C32.2059 22.8851 34.9651 22.2056 36.8692 23.7616L36.3988 24.3366Z" fill="#004053"/>
<path d="M48.6153 46.6994C48.6153 46.6994 48.2335 46.2196 47.8405 46.3746L47.7369 46.7769H48.563L48.6153 46.6994Z" fill="#36414F"/>
<path d="M50.0079 44.4062C50.0079 44.4062 50.7929 45.2528 51.0617 45.5217C51.3306 45.7905 52.4871 45.3359 53.231 45.4386C53.9749 45.5422 53.9749 46.5335 53.9749 46.5335L52.04 48.0503L50.5866 48.3518C50.5866 48.3518 49.7606 48.9921 49.3676 48.9921C48.9756 48.9921 48.1383 46.9162 48.3558 46.6996C48.5724 46.4831 49.4712 45.6878 49.4712 45.1502C49.4703 44.6125 50.0079 44.4062 50.0079 44.4062Z" fill="#485669"/>
<path d="M51.3007 45.9399C50.4392 45.9399 50.0322 45.4984 49.6523 45.42C49.3667 45.3631 49.2575 46.1593 48.3549 46.6988C48.6386 46.3786 48.9784 45.868 49.1492 45.5619C49.2313 45.4555 49.264 45.2286 49.5384 45.1773C49.8082 45.1288 50.2039 45.4172 50.456 45.5721C50.7164 45.7224 50.9992 45.8447 51.3007 45.9399Z" fill="#36414F"/>
<path d="M51.1467 45.4297L50.6912 46.1615L50.805 46.2333L51.3007 45.4904L51.1467 45.4297Z" fill="#F3EEB5"/>
<path d="M51.4145 45.5312L51.0524 46.2434H51.1466L51.6208 45.5312H51.4145Z" fill="#F3EEB5"/>
<path d="M50.5343 47.8827C50.6632 47.7539 51.6087 47.7772 51.9597 47.7147C52.2126 47.6699 53.272 46.4779 53.847 45.9375C54.0608 46.2045 54.0766 46.4481 54.0766 46.4481L52.0297 48.0965L50.5857 48.3494C50.5857 48.3494 49.7596 48.9897 49.3667 48.9897C49.2602 48.9897 49.1221 48.8376 48.9802 48.6117C49.5673 48.2673 50.4485 47.9686 50.5343 47.8827Z" fill="#D87306"/>
<path d="M52.0082 45.881C52.865 45.502 53.6454 45.755 53.5044 46.0014C53.3355 46.2945 53.244 45.5729 52.0082 45.881Z" fill="#6D7887"/>
<path d="M33.8106 45.5172C33.8106 45.5172 33.7499 44.9497 33.3644 44.875L33.0825 45.1392L33.7312 45.5527L33.8106 45.5172Z" fill="#36414F"/>
<path d="M36.0498 44.4104C36.0498 44.4104 36.243 45.4679 36.3195 45.8133C36.3961 46.1587 37.532 46.3799 38.0641 46.8326C38.5961 47.2853 38.1005 48.0637 38.1005 48.0637L35.823 48.2878L34.5311 47.7977C34.5311 47.7977 33.5623 47.8873 33.2542 47.6913C32.9462 47.4953 33.327 45.4465 33.6061 45.3849C33.8852 45.3233 34.9885 45.1478 35.2564 44.7259C35.5252 44.304 36.0498 44.4104 36.0498 44.4104Z" fill="#485669"/>
<path d="M36.299 46.26C35.6222 45.8297 35.5242 45.279 35.2647 45.0279C35.0687 44.8403 34.5852 45.4115 33.6061 45.3835C33.9888 45.2743 34.5115 45.0428 34.798 44.8879C34.9156 44.845 35.0547 44.6835 35.2955 44.7806C35.5317 44.8776 35.6978 45.3014 35.8192 45.5487C35.9489 45.797 36.1095 46.035 36.299 46.26Z" fill="#36414F"/>
<path d="M36.4297 45.7891L35.7063 46.1363L35.7595 46.2492L36.5202 45.9132L36.4297 45.7891Z" fill="#F3EEB5"/>
<path d="M36.5941 46L35.9537 46.379L36.0275 46.4256L36.7565 46.1036L36.5941 46Z" fill="#F3EEB5"/>
<path d="M34.7244 47.3997C34.8906 47.3633 35.6205 47.8534 35.9276 47.9803C36.1479 48.0718 37.5769 47.6648 38.2985 47.5285C38.333 47.845 38.2238 48.0447 38.2238 48.0447L35.7923 48.3154L34.5322 47.7918C34.5322 47.7918 33.5633 47.8814 33.2553 47.6854C33.1722 47.6321 33.1386 47.4436 33.1405 47.1953C33.7733 47.2186 34.6143 47.424 34.7244 47.3997Z" fill="#D87306"/>
<path d="M36.8824 46.5703C37.7449 46.7019 38.2312 47.29 37.9969 47.4132C37.7178 47.5597 38.0072 46.9474 36.8824 46.5703Z" fill="#6D7887"/>
<path d="M8.47879 45.878C8.47879 45.878 8.43492 45.4673 8.15583 45.4141L7.95142 45.6054L8.42092 45.9041L8.47879 45.878Z" fill="#36414F"/>
<path d="M10.0983 45.079C10.0983 45.079 10.2383 45.8435 10.2934 46.0936C10.3484 46.3429 11.1698 46.5034 11.5544 46.831C11.939 47.1587 11.5805 47.7215 11.5805 47.7215L9.934 47.883L8.99966 47.5292C8.99966 47.5292 8.29867 47.5946 8.07652 47.4527C7.85344 47.3108 8.12879 45.8295 8.33041 45.7847C8.53203 45.7399 9.33009 45.6129 9.52424 45.3086C9.71839 45.0016 10.0983 45.079 10.0983 45.079Z" fill="#44645E"/>
<path d="M10.2774 46.412C9.7883 46.1002 9.71736 45.7026 9.52975 45.5206C9.38787 45.3853 9.03784 45.7978 8.33032 45.7782C8.60754 45.6989 8.98464 45.5318 9.19279 45.4198C9.27773 45.389 9.37854 45.2723 9.55308 45.3423C9.7239 45.4123 9.84431 45.7185 9.93111 45.8977C10.0245 46.0769 10.1411 46.2487 10.2774 46.412Z" fill="#2E433F"/>
<path d="M10.3726 46.0781L9.849 46.3283L9.88727 46.4104L10.438 46.1677L10.3726 46.0781Z" fill="#F3EEB5"/>
<path d="M10.4912 46.2266L10.0282 46.5L10.0814 46.5346L10.6088 46.3012L10.4912 46.2266Z" fill="#F3EEB5"/>
<path d="M9.13966 47.2481C9.26007 47.221 9.78744 47.5767 10.0096 47.6681C10.1692 47.7344 11.2016 47.4404 11.7233 47.3414C11.7485 47.5701 11.6692 47.7148 11.6692 47.7148L9.91065 47.9108L8.99965 47.5328C8.99965 47.5328 8.29866 47.5981 8.07651 47.4563C8.01584 47.418 7.9925 47.2817 7.99344 47.1016C8.45174 47.1165 9.06032 47.2658 9.13966 47.2481Z" fill="#D87306"/>
<path d="M10.6993 46.6328C11.3229 46.728 11.6747 47.1537 11.5058 47.2423C11.3042 47.3478 11.5133 46.9044 10.6993 46.6328Z" fill="#6D7887"/>
<path d="M22.4136 46.5726C22.4136 46.5726 22.1363 46.2665 21.8797 46.3878L21.8274 46.6622L22.3828 46.6268L22.4136 46.5726Z" fill="#36414F"/>
<path d="M23.2517 44.9688C23.2517 44.9688 23.8155 45.5045 24.0068 45.6735C24.1991 45.8424 24.9561 45.4877 25.4602 45.5251C25.9642 45.5624 26.0062 46.2288 26.0062 46.2288L24.7713 47.3303L23.808 47.5944C23.808 47.5944 23.2807 48.0602 23.0165 48.077C22.7533 48.0938 22.1018 46.7348 22.239 46.5798C22.3753 46.4249 22.9456 45.8527 22.9222 45.4915C22.8998 45.1302 23.2517 44.9688 23.2517 44.9688Z" fill="#44645E"/>
<path d="M24.1852 45.9447C23.6065 45.982 23.3143 45.702 23.0557 45.6656C22.8616 45.6394 22.8224 46.1789 22.239 46.5803C22.4164 46.3535 22.6226 45.9951 22.7244 45.7822C22.7748 45.7076 22.7869 45.5536 22.9699 45.5069C23.1491 45.463 23.4272 45.6394 23.6027 45.7328C23.7838 45.8233 23.9789 45.8943 24.1852 45.9447Z" fill="#2E433F"/>
<path d="M24.061 45.6094L23.7856 46.1199L23.865 46.1638L24.1665 45.643L24.061 45.6094Z" fill="#F3EEB5"/>
<path d="M24.244 45.6656L24.0321 46.1594L24.0946 46.1556L24.3831 45.6562L24.244 45.6656Z" fill="#F3EEB5"/>
<path d="M23.7539 47.2836C23.8351 47.1912 24.4707 47.167 24.7041 47.11C24.8721 47.069 25.533 46.2233 25.896 45.8359C26.051 46.0058 26.0725 46.1692 26.0725 46.1692L24.7676 47.3639L23.809 47.5954C23.809 47.5954 23.2816 48.0612 23.0174 48.078C22.9465 48.0826 22.8466 47.9865 22.7421 47.8409C23.121 47.5833 23.6997 47.3443 23.7539 47.2836Z" fill="#D87306"/>
<path d="M24.6584 45.8726C25.2185 45.5814 25.7533 45.7186 25.6684 45.8894C25.5676 46.0947 25.4761 45.6131 24.6584 45.8726Z" fill="#6D7887"/>
<path d="M44.9283 20.7266L45.858 20.9944L45.7824 21.4023L44.6642 21.0057L44.9283 20.7266Z" fill="#563918"/>
<path d="M11.1374 12.2211L10.9132 12.1562L10.4683 13.6931L10.6924 13.758L11.1374 12.2211Z" fill="#29233A"/>
<path d="M10.8515 14.5434L10.0618 14.3147C10.0348 14.3072 10.0198 14.2792 10.0273 14.2522L10.1515 13.8219C10.2 13.6548 10.3745 13.5577 10.5425 13.6063L10.8226 13.6875C10.9897 13.736 11.0867 13.9105 11.0382 14.0786L10.914 14.5089C10.9056 14.5359 10.8776 14.5509 10.8515 14.5434Z" fill="#252238"/>
<path d="M10.8226 16.0746C10.8571 15.9542 10.9822 15.8768 11.1353 15.8646C11.2669 15.8544 11.3705 15.7928 11.3985 15.6957L11.5021 15.3372C11.56 15.1375 11.3836 14.9107 11.1073 14.8304L9.7641 14.4421C9.48781 14.3618 9.21806 14.4598 9.16018 14.6596L9.05657 15.018C9.02857 15.1151 9.08364 15.2224 9.18912 15.3008C9.31233 15.3933 9.37673 15.5249 9.34127 15.6453C9.30673 15.7657 9.18165 15.8432 9.02857 15.8553C8.8895 15.8665 8.78869 15.943 8.75882 16.0448L7.83008 19.2557C7.77221 19.4554 7.94862 19.6823 8.22491 19.7625L9.56808 20.1508C9.84437 20.2311 10.1141 20.1331 10.172 19.9333L11.1007 16.7224C11.1306 16.6197 11.0858 16.5012 10.9738 16.4181C10.8515 16.3267 10.7871 16.195 10.8226 16.0746Z" fill="#680505"/>
<path d="M11.1353 15.8716C11.2669 15.8613 11.3705 15.7997 11.3985 15.7026L11.5021 15.3442C11.56 15.1444 11.3836 14.9176 11.1073 14.8374L10.9953 14.8047C11.2716 14.885 11.448 15.1118 11.3901 15.3115L11.2865 15.67C11.2585 15.767 11.1549 15.8286 11.0233 15.8389C10.8702 15.851 10.7451 15.9285 10.7106 16.0489C10.6761 16.1693 10.7395 16.3019 10.8627 16.3933C10.9738 16.4764 11.0186 16.5959 10.9897 16.6976L10.0609 19.9086C10.0031 20.1083 9.73239 20.2063 9.45703 20.126L9.56904 20.1587C9.84533 20.239 10.1151 20.141 10.173 19.9412L11.1017 16.7303C11.1316 16.6276 11.0868 16.5091 10.9748 16.426C10.8515 16.3336 10.7881 16.202 10.8226 16.0816C10.8571 15.9612 10.9822 15.8837 11.1353 15.8716Z" fill="#490606"/>
<path d="M10.9701 15.311C10.9178 15.4902 10.5099 15.5294 10.0582 15.3987C9.6064 15.268 9.2825 15.0169 9.33384 14.8368C9.38611 14.6576 9.79401 14.6184 10.2458 14.7491C10.6975 14.8797 11.0224 15.1308 10.9701 15.311Z" fill="#822F2F"/>
<path d="M10.1552 18.1282C9.90879 18.9804 9.39261 19.5796 9.00245 19.4667C8.61229 19.3538 8.49654 18.5716 8.74296 17.7194C8.98938 16.8672 9.50555 16.2679 9.89572 16.3809C10.2859 16.4947 10.4016 17.2769 10.1552 18.1282Z" fill="#822F2F"/>
<path opacity="0.47" d="M10.6779 13.9861C10.6433 14.1056 10.5341 14.1784 10.4343 14.1494C10.3344 14.1205 10.2812 14.0001 10.3157 13.8806C10.3502 13.7611 10.4595 13.6883 10.5593 13.7173C10.6592 13.7462 10.7124 13.8666 10.6779 13.9861Z" fill="#605C91"/>
<path d="M11.198 14.5256L9.78577 14.1172L9.69553 14.4292L11.1077 14.8376L11.198 14.5256Z" fill="#252238"/>
<path opacity="0.47" d="M11.1971 14.5178L9.78491 14.1094L9.7538 14.217L11.166 14.6254L11.1971 14.5178Z" fill="#605C91"/>
<path opacity="0.47" d="M10.8739 12.8046C10.7871 13.1033 10.6975 13.3404 10.6732 13.3338C10.6489 13.3263 10.6993 13.079 10.7861 12.7794C10.873 12.4807 10.9626 12.2436 10.9868 12.2501C11.0111 12.2567 10.9607 12.505 10.8739 12.8046Z" fill="#605C91"/>
<path d="M7.81884 16.6328L11.6514 17.9218C11.6514 17.9218 10.2746 21.9458 9.79206 22.0298C7.7171 22.3938 6.22925 20.5195 6.22925 20.5195L7.81884 16.6328Z" fill="#3B3F0D"/>
<path d="M10.173 19.9372L10.8357 17.6456L8.52271 16.8672L7.83106 19.2586C7.77319 19.4583 7.9496 19.6851 8.22589 19.7654L9.56906 20.1537C9.84441 20.2349 10.1151 20.1369 10.173 19.9372Z" fill="#727641"/>
<path d="M36.2267 18.962L36.0552 18.8906L35.6791 19.7947L35.8506 19.866L36.2267 18.962Z" fill="#3D383F"/>
<path d="M36.2242 18.9615L36.0525 18.8905L36.0609 18.87C36.0805 18.8224 36.1346 18.8 36.1822 18.8196C36.2298 18.8392 36.2522 18.8933 36.2326 18.9409L36.2242 18.9615Z" fill="black"/>
<path d="M35.6988 19.5954L35.0949 19.3443C34.9353 19.2781 34.7523 19.3537 34.686 19.5133L35.8677 20.0042C35.934 19.8456 35.8584 19.6617 35.6988 19.5954Z" fill="#070707"/>
<path d="M36.0693 20.1384L35.1732 22.2936C35.121 22.4187 34.9782 22.4775 34.8531 22.4262L33.6994 21.9464C33.5743 21.8941 33.5155 21.7513 33.5678 21.6262L34.4639 19.471C34.5161 19.3459 34.6589 19.2871 34.784 19.3394L35.9377 19.8192C36.0618 19.8705 36.1207 20.0133 36.0693 20.1384Z" fill="#070707"/>
<path d="M36.0759 20.1185L35.2367 22.1375C35.1882 22.2542 35.0473 22.3074 34.9222 22.2551L33.7685 21.7753C33.6434 21.7231 33.5818 21.5868 33.6303 21.4692L34.4695 19.4502C34.518 19.3336 34.659 19.2803 34.7831 19.3326L35.9368 19.8124C36.0628 19.8656 36.1244 20.0019 36.0759 20.1185Z" fill="#FF9D00"/>
<path d="M35.7389 19.982L34.8998 22.001C34.8512 22.1176 34.7317 22.1802 34.6328 22.1391L33.7209 21.7601C33.6219 21.7191 33.5818 21.5912 33.6303 21.4736L34.4695 19.4546C34.518 19.338 34.6375 19.2763 34.7364 19.3174L35.6483 19.6964C35.7464 19.7375 35.7874 19.8653 35.7389 19.982Z" fill="#FFCE00"/>
<path d="M35.05 21.3737L34.308 21.0647C34.2557 21.0433 34.2315 20.9835 34.2529 20.9313L34.673 19.9223C34.6944 19.87 34.7542 19.8457 34.8064 19.8672L35.5485 20.1761C35.6008 20.1976 35.625 20.2573 35.6036 20.3096L35.1835 21.3186C35.1621 21.3709 35.1023 21.3952 35.05 21.3737Z" fill="#3D383F"/>
<path d="M34.378 19.9285L33.9729 20.9039C33.9515 20.9552 33.8926 20.9795 33.8413 20.958L34.3239 19.7969C34.3491 19.8071 34.3687 19.8277 34.378 19.8519C34.3883 19.8762 34.3892 19.9033 34.378 19.9285Z" fill="#070707"/>
<path d="M35.9303 20.4761L35.4477 21.6372C35.3964 21.6157 35.3721 21.5569 35.3936 21.5056L35.7987 20.5302C35.8192 20.4798 35.8789 20.4555 35.9303 20.4761Z" fill="#070707"/>
<path d="M35.5395 20.2693L34.7413 19.9375L34.4543 20.6279L35.2524 20.9597L35.5395 20.2693Z" fill="#696E7C"/>
<path d="M38.0276 19.9011C35.4383 18.1463 33.2943 19.0676 33.2775 19.0769L33.6508 18.2462C33.7367 18.1976 35.4794 17.6422 38.4448 19.285L38.0276 19.9011Z" fill="#004053"/>
<path d="M33.6135 20.4694L33.1702 22.284C33.1702 22.284 35.1415 22.4865 35.2881 22.7441L36.0516 21.4C36.0525 21.4 34.1353 20.3079 33.6135 20.4694Z" fill="#004053"/>
<path d="M35.275 20.9922L34.4592 22.4679C34.8671 22.5444 35.2293 22.6396 35.289 22.7451L36.0526 21.401C36.0526 21.4001 35.7091 21.205 35.275 20.9922Z" fill="#141504"/>
<defs>
<linearGradient id="paint0_linear_3575_1904" x1="28.324" y1="35.2143" x2="36.1906" y2="35.2143" gradientUnits="userSpaceOnUse">
<stop stop-color="#2C4948"/>
<stop offset="1" stop-color="#405D5C"/>
</linearGradient>
<linearGradient id="paint1_linear_3575_1904" x1="22.4117" y1="29.6323" x2="36.1481" y2="47.5594" gradientUnits="userSpaceOnUse">
<stop stop-color="#4B7D7B"/>
<stop offset="1" stop-color="#D17A66"/>
</linearGradient>
<linearGradient id="paint2_linear_3575_1904" x1="33.2768" y1="33.961" x2="39.1364" y2="33.961" gradientUnits="userSpaceOnUse">
<stop stop-color="#2C4948"/>
<stop offset="1" stop-color="#405D5C"/>
</linearGradient>
<linearGradient id="paint3_linear_3575_1904" x1="36.1512" y1="38.028" x2="46.7826" y2="38.028" gradientUnits="userSpaceOnUse">
<stop stop-color="#2C4948"/>
<stop offset="1" stop-color="#405D5C"/>
</linearGradient>
<linearGradient id="paint4_linear_3575_1904" x1="42.4248" y1="53.7507" x2="21.2319" y2="39.1264" gradientUnits="userSpaceOnUse">
<stop stop-color="#223837"/>
<stop offset="1" stop-color="#6FA19F"/>
</linearGradient>
<linearGradient id="paint5_linear_3575_1904" x1="36.9419" y1="41.1114" x2="46.4783" y2="42.4316" gradientUnits="userSpaceOnUse">
<stop stop-color="#2C4948"/>
<stop offset="1" stop-color="#405D5C"/>
</linearGradient>
<linearGradient id="paint6_linear_3575_1904" x1="36.2671" y1="37.3231" x2="44.6643" y2="37.3231" gradientUnits="userSpaceOnUse">
<stop stop-color="#223837"/>
<stop offset="1" stop-color="#6FA19F"/>
</linearGradient>
<linearGradient id="paint7_linear_3575_1904" x1="40.6885" y1="24.2613" x2="35.7967" y2="45.6184" gradientUnits="userSpaceOnUse">
<stop stop-color="#4B7D7B"/>
<stop offset="1" stop-color="#D17A66"/>
</linearGradient>
<linearGradient id="paint8_linear_3575_1904" x1="36.2671" y1="43.9861" x2="45.9891" y2="43.9861" gradientUnits="userSpaceOnUse">
<stop stop-color="#7F4A3E"/>
<stop offset="1" stop-color="#2C4948"/>
</linearGradient>
</defs>
</svg>
